<svg width="636" height="606" viewBox="0 0 636 606" fill="none" xmlns="http://www.w3.org/2000/svg">
<path d="M119.363 82.0977V168.443" stroke="black" stroke-miterlimit="10"/>
<path d="M119.363 175.567L114.614 166.068L119.363 168.442L124.112 166.068L119.363 175.567Z" fill="black" stroke="black" stroke-miterlimit="10"/>
<path d="M200.34 80.7134L200.774 149.947H472.143V168.442" stroke="black" stroke-miterlimit="10"/>
<path d="M472.143 175.567L467.394 166.068L472.143 168.442L476.892 166.068L472.143 175.567Z" fill="black" stroke="black" stroke-miterlimit="10"/>
<path d="M227.911 41.3879C227.911 41.3879 288.349 41.3879 409.226 41.3879" stroke="black" stroke-miterlimit="10"/>
<path d="M416.35 41.3881L406.852 46.1376L409.226 41.3881L406.852 36.6387L416.35 41.3881Z" fill="black" stroke="black" stroke-miterlimit="10"/>
<path d="M227.911 82.0977L480.569 340.535" stroke="black" stroke-miterlimit="10"/>
<path d="M485.562 345.624L475.522 342.15L480.569 340.535L482.306 335.514L485.562 345.624Z" fill="black" stroke="black" stroke-miterlimit="10"/>
<path d="M227.911 0.678467H10.8154V82.0975H227.911V0.678467Z" fill="#FA6800" stroke="#C73500"/>
<path d="M54.2902 32.2461H58.1632C58.9289 32.2461 59.5461 32.4629 60.0148 32.8965C60.4836 33.3262 60.7179 33.9316 60.7179 34.7129C60.7179 35.3848 60.5089 35.9707 60.091 36.4707C59.673 36.9668 59.0304 37.2148 58.1632 37.2148H55.4562V40.8535H54.2902V32.2461ZM59.5402 34.7188C59.5402 34.0859 59.3058 33.6562 58.8371 33.4297C58.5793 33.3086 58.2257 33.248 57.7765 33.248H55.4562V36.2305H57.7765C58.3 36.2305 58.7238 36.1191 59.048 35.8965C59.3761 35.6738 59.5402 35.2812 59.5402 34.7188ZM62.0421 32.2168H63.0968V35.4277C63.3468 35.1113 63.5714 34.8887 63.7707 34.7598C64.1105 34.5371 64.5343 34.4258 65.0421 34.4258C65.9523 34.4258 66.5695 34.7441 66.8937 35.3809C67.0695 35.7285 67.1574 36.2109 67.1574 36.8281V40.8535H66.0734V36.8984C66.0734 36.4375 66.0148 36.0996 65.8976 35.8848C65.7062 35.541 65.3468 35.3691 64.8195 35.3691C64.382 35.3691 63.9855 35.5195 63.63 35.8203C63.2746 36.1211 63.0968 36.6895 63.0968 37.5254V40.8535H62.0421V32.2168ZM71.2121 40.1738C71.9113 40.1738 72.3898 39.9102 72.6476 39.3828C72.9093 38.8516 73.0402 38.2617 73.0402 37.6133C73.0402 37.0273 72.9464 36.5508 72.7589 36.1836C72.4621 35.6055 71.9503 35.3164 71.2238 35.3164C70.5793 35.3164 70.1105 35.5625 69.8175 36.0547C69.5246 36.5469 69.3781 37.1406 69.3781 37.8359C69.3781 38.5039 69.5246 39.0605 69.8175 39.5059C70.1105 39.9512 70.5753 40.1738 71.2121 40.1738ZM71.2531 34.3965C72.0617 34.3965 72.7453 34.666 73.3039 35.2051C73.8625 35.7441 74.1418 36.5371 74.1418 37.584C74.1418 38.5957 73.8957 39.4316 73.4035 40.0918C72.9113 40.752 72.1476 41.082 71.1125 41.082C70.2492 41.082 69.5636 40.791 69.0558 40.209C68.548 39.623 68.2941 38.8379 68.2941 37.8535C68.2941 36.7988 68.5617 35.959 69.0968 35.334C69.632 34.709 70.3507 34.3965 71.2531 34.3965ZM78.0148 34.4375C78.4601 34.4375 78.8918 34.543 79.3097 34.7539C79.7277 34.9609 80.0461 35.2305 80.2648 35.5625C80.4757 35.8789 80.6164 36.248 80.6867 36.6699C80.7492 36.959 80.7804 37.4199 80.7804 38.0527H76.1808C76.2003 38.6895 76.3507 39.2012 76.632 39.5879C76.9132 39.9707 77.3488 40.1621 77.9386 40.1621C78.4894 40.1621 78.9289 39.9805 79.257 39.6172C79.4445 39.4062 79.5773 39.1621 79.6554 38.8848H80.6925C80.6652 39.1152 80.5734 39.373 80.4171 39.6582C80.2648 39.9395 80.0929 40.1699 79.9015 40.3496C79.5812 40.6621 79.1847 40.873 78.7121 40.9824C78.4582 41.0449 78.1711 41.0762 77.8507 41.0762C77.0695 41.0762 76.4074 40.793 75.8644 40.2266C75.3214 39.6562 75.05 38.8594 75.05 37.8359C75.05 36.8281 75.3234 36.0098 75.8703 35.3809C76.4171 34.752 77.132 34.4375 78.0148 34.4375ZM79.6964 37.2148C79.6535 36.7578 79.5539 36.3926 79.3976 36.1191C79.1086 35.6113 78.6261 35.3574 77.9503 35.3574C77.466 35.3574 77.0597 35.5332 76.7316 35.8848C76.4035 36.2324 76.2296 36.6758 76.2101 37.2148H79.6964ZM82.0812 34.5781H83.0832V35.4688C83.38 35.1016 83.6945 34.8379 84.0265 34.6777C84.3586 34.5176 84.7277 34.4375 85.1339 34.4375C86.0246 34.4375 86.6261 34.748 86.9386 35.3691C87.1105 35.709 87.1964 36.1953 87.1964 36.8281V40.8535H86.1242V36.8984C86.1242 36.5156 86.0675 36.207 85.9543 35.9727C85.7668 35.582 85.4269 35.3867 84.9347 35.3867C84.6847 35.3867 84.4796 35.4121 84.3195 35.4629C84.0304 35.5488 83.7765 35.7207 83.5578 35.9785C83.382 36.1855 83.2668 36.4004 83.2121 36.623C83.1613 36.8418 83.1359 37.1562 83.1359 37.5664V40.8535H82.0812V34.5781ZM88.7609 34.6074H89.8332V40.8535H88.7609V34.6074ZM88.7609 32.2461H89.8332V33.4414H88.7609V32.2461ZM90.8351 34.5781H92.2003L93.6418 36.7871L95.1007 34.5781L96.3839 34.6074L94.2687 37.6367L96.4777 40.8535H95.13L93.5714 38.498L92.0597 40.8535H90.7238L92.9328 37.6367L90.8351 34.5781ZM101.2 32.0117C102.29 32.0117 103.136 32.2988 103.737 32.873C104.339 33.4473 104.673 34.0996 104.739 34.8301H103.603C103.474 34.2754 103.216 33.8359 102.829 33.5117C102.446 33.1875 101.907 33.0254 101.212 33.0254C100.364 33.0254 99.6789 33.3242 99.1554 33.9219C98.6359 34.5156 98.3761 35.4277 98.3761 36.6582C98.3761 37.666 98.6105 38.4844 99.0793 39.1133C99.5519 39.7383 100.255 40.0508 101.189 40.0508C102.048 40.0508 102.702 39.7207 103.152 39.0605C103.39 38.7129 103.568 38.2559 103.685 37.6895H104.821C104.72 38.5957 104.384 39.3555 103.814 39.9688C103.13 40.707 102.208 41.0762 101.048 41.0762C100.048 41.0762 99.2082 40.7734 98.5285 40.168C97.6339 39.3672 97.1867 38.1309 97.1867 36.459C97.1867 35.1895 97.5226 34.1484 98.1945 33.3359C98.9211 32.4531 99.923 32.0117 101.2 32.0117ZM106.216 32.2461H107.886L110.359 39.5234L112.814 32.2461H114.466V40.8535H113.359V35.7734C113.359 35.5977 113.362 35.3066 113.37 34.9004C113.378 34.4941 113.382 34.0586 113.382 33.5938L110.927 40.8535H109.773L107.3 33.5938V33.8574C107.3 34.0684 107.304 34.3906 107.312 34.8242C107.323 35.2539 107.329 35.5703 107.329 35.7734V40.8535H106.216V32.2461ZM117.003 38.0762C117.03 38.5645 117.146 38.9609 117.349 39.2656C117.736 39.8359 118.417 40.1211 119.394 40.1211C119.831 40.1211 120.23 40.0586 120.589 39.9336C121.284 39.6914 121.632 39.2578 121.632 38.6328C121.632 38.1641 121.486 37.8301 121.193 37.6309C120.896 37.4355 120.431 37.2656 119.798 37.1211L118.632 36.8574C117.87 36.6855 117.331 36.4961 117.015 36.2891C116.468 35.9297 116.194 35.3926 116.194 34.6777C116.194 33.9043 116.462 33.2695 116.997 32.7734C117.532 32.2773 118.29 32.0293 119.271 32.0293C120.173 32.0293 120.939 32.248 121.568 32.6855C122.2 33.1191 122.517 33.8145 122.517 34.7715H121.421C121.362 34.3105 121.237 33.957 121.046 33.7109C120.691 33.2617 120.087 33.0371 119.236 33.0371C118.548 33.0371 118.054 33.1816 117.753 33.4707C117.452 33.7598 117.302 34.0957 117.302 34.4785C117.302 34.9004 117.478 35.209 117.829 35.4043C118.06 35.5293 118.581 35.6855 119.394 35.873L120.601 36.1484C121.183 36.2812 121.632 36.4629 121.948 36.6934C122.495 37.0957 122.769 37.6797 122.769 38.4453C122.769 39.3984 122.421 40.0801 121.726 40.4902C121.034 40.9004 120.23 41.1055 119.312 41.1055C118.241 41.1055 117.403 40.832 116.798 40.2852C116.193 39.7422 115.896 39.0059 115.907 38.0762H117.003ZM128.253 39.1836C128.253 39.4883 128.364 39.7285 128.587 39.9043C128.81 40.0801 129.073 40.168 129.378 40.168C129.749 40.168 130.109 40.082 130.456 39.9102C131.042 39.625 131.335 39.1582 131.335 38.5098V37.6602C131.206 37.7422 131.04 37.8105 130.837 37.8652C130.634 37.9199 130.435 37.959 130.239 37.9824L129.601 38.0645C129.218 38.1152 128.931 38.1953 128.739 38.3047C128.415 38.4883 128.253 38.7812 128.253 39.1836ZM130.808 37.0508C131.05 37.0195 131.212 36.918 131.294 36.7461C131.341 36.6523 131.364 36.5176 131.364 36.3418C131.364 35.9824 131.236 35.7227 130.978 35.5625C130.724 35.3984 130.359 35.3164 129.882 35.3164C129.331 35.3164 128.941 35.4648 128.71 35.7617C128.581 35.9258 128.497 36.1699 128.458 36.4941H127.474C127.493 35.7207 127.743 35.1836 128.224 34.8828C128.708 34.5781 129.269 34.4258 129.905 34.4258C130.644 34.4258 131.243 34.5664 131.704 34.8477C132.161 35.1289 132.39 35.5664 132.39 36.1602V39.7754C132.39 39.8848 132.411 39.9727 132.454 40.0391C132.501 40.1055 132.597 40.1387 132.741 40.1387C132.788 40.1387 132.841 40.1367 132.9 40.1328C132.958 40.125 133.021 40.1152 133.087 40.1035V40.8828C132.923 40.9297 132.798 40.959 132.712 40.9707C132.626 40.9824 132.509 40.9883 132.361 40.9883C131.997 40.9883 131.734 40.8594 131.569 40.6016C131.484 40.4648 131.423 40.2715 131.388 40.0215C131.173 40.3027 130.864 40.5469 130.462 40.7539C130.06 40.9609 129.616 41.0645 129.132 41.0645C128.55 41.0645 128.073 40.8887 127.702 40.5371C127.335 40.1816 127.152 39.7383 127.152 39.207C127.152 38.625 127.333 38.1738 127.696 37.8535C128.06 37.5332 128.536 37.3359 129.126 37.2617L130.808 37.0508ZM136.773 40.1445C137.265 40.1445 137.673 39.9395 137.997 39.5293C138.325 39.1152 138.489 38.498 138.489 37.6777C138.489 37.1777 138.417 36.748 138.273 36.3887C137.999 35.6973 137.499 35.3516 136.773 35.3516C136.042 35.3516 135.542 35.7168 135.273 36.4473C135.128 36.8379 135.056 37.334 135.056 37.9355C135.056 38.4199 135.128 38.832 135.273 39.1719C135.546 39.8203 136.046 40.1445 136.773 40.1445ZM134.042 34.6074H135.068V35.4395C135.278 35.1543 135.509 34.9336 135.759 34.7773C136.114 34.543 136.532 34.4258 137.013 34.4258C137.724 34.4258 138.327 34.6992 138.823 35.2461C139.319 35.7891 139.568 36.5664 139.568 37.5781C139.568 38.9453 139.21 39.9219 138.495 40.5078C138.042 40.8789 137.515 41.0645 136.913 41.0645C136.441 41.0645 136.044 40.9609 135.724 40.7539C135.536 40.6367 135.327 40.4355 135.097 40.1504V43.3555H134.042V34.6074ZM143.452 40.1445C143.944 40.1445 144.353 39.9395 144.677 39.5293C145.005 39.1152 145.169 38.498 145.169 37.6777C145.169 37.1777 145.097 36.748 144.952 36.3887C144.679 35.6973 144.179 35.3516 143.452 35.3516C142.722 35.3516 142.222 35.7168 141.952 36.4473C141.808 36.8379 141.736 37.334 141.736 37.9355C141.736 38.4199 141.808 38.832 141.952 39.1719C142.226 39.8203 142.726 40.1445 143.452 40.1445ZM140.722 34.6074H141.747V35.4395C141.958 35.1543 142.189 34.9336 142.439 34.7773C142.794 34.543 143.212 34.4258 143.693 34.4258C144.403 34.4258 145.007 34.6992 145.503 35.2461C145.999 35.7891 146.247 36.5664 146.247 37.5781C146.247 38.9453 145.89 39.9219 145.175 40.5078C144.722 40.8789 144.194 41.0645 143.593 41.0645C143.12 41.0645 142.724 40.9609 142.403 40.7539C142.216 40.6367 142.007 40.4355 141.777 40.1504V43.3555H140.722V34.6074ZM147.513 32.2461H148.568V40.8535H147.513V32.2461ZM150.155 34.6074H151.228V40.8535H150.155V34.6074ZM150.155 32.2461H151.228V33.4414H150.155V32.2461ZM155.247 34.3965C155.954 34.3965 156.528 34.5684 156.97 34.9121C157.415 35.2559 157.683 35.8477 157.773 36.6875H156.747C156.685 36.3008 156.542 35.9805 156.319 35.7266C156.097 35.4688 155.739 35.3398 155.247 35.3398C154.575 35.3398 154.095 35.668 153.806 36.3242C153.618 36.75 153.525 37.2754 153.525 37.9004C153.525 38.5293 153.657 39.0586 153.923 39.4883C154.189 39.918 154.607 40.1328 155.177 40.1328C155.614 40.1328 155.96 40 156.214 39.7344C156.472 39.4648 156.65 39.0977 156.747 38.6328H157.773C157.655 39.4648 157.362 40.0742 156.894 40.4609C156.425 40.8438 155.825 41.0352 155.095 41.0352C154.275 41.0352 153.62 40.7363 153.132 40.1387C152.644 39.5371 152.4 38.7871 152.4 37.8887C152.4 36.7871 152.667 35.9297 153.202 35.3164C153.737 34.7031 154.419 34.3965 155.247 34.3965ZM159.636 39.1836C159.636 39.4883 159.747 39.7285 159.97 39.9043C160.193 40.0801 160.456 40.168 160.761 40.168C161.132 40.168 161.491 40.082 161.839 39.9102C162.425 39.625 162.718 39.1582 162.718 38.5098V37.6602C162.589 37.7422 162.423 37.8105 162.22 37.8652C162.017 37.9199 161.818 37.959 161.622 37.9824L160.984 38.0645C160.601 38.1152 160.314 38.1953 160.122 38.3047C159.798 38.4883 159.636 38.7812 159.636 39.1836ZM162.191 37.0508C162.433 37.0195 162.595 36.918 162.677 36.7461C162.724 36.6523 162.747 36.5176 162.747 36.3418C162.747 35.9824 162.618 35.7227 162.361 35.5625C162.107 35.3984 161.741 35.3164 161.265 35.3164C160.714 35.3164 160.323 35.4648 160.093 35.7617C159.964 35.9258 159.88 36.1699 159.841 36.4941H158.857C158.876 35.7207 159.126 35.1836 159.607 34.8828C160.091 34.5781 160.652 34.4258 161.288 34.4258C162.027 34.4258 162.626 34.5664 163.087 34.8477C163.544 35.1289 163.773 35.5664 163.773 36.1602V39.7754C163.773 39.8848 163.794 39.9727 163.837 40.0391C163.884 40.1055 163.98 40.1387 164.124 40.1387C164.171 40.1387 164.224 40.1367 164.282 40.1328C164.341 40.125 164.403 40.1152 164.47 40.1035V40.8828C164.306 40.9297 164.181 40.959 164.095 40.9707C164.009 40.9824 163.892 40.9883 163.743 40.9883C163.38 40.9883 163.116 40.8594 162.952 40.6016C162.866 40.4648 162.806 40.2715 162.771 40.0215C162.556 40.3027 162.247 40.5469 161.845 40.7539C161.443 40.9609 160.999 41.0645 160.515 41.0645C159.933 41.0645 159.456 40.8887 159.085 40.5371C158.718 40.1816 158.534 39.7383 158.534 39.207C158.534 38.625 158.716 38.1738 159.079 37.8535C159.443 37.5332 159.919 37.3359 160.509 37.2617L162.191 37.0508ZM165.718 32.8262H166.784V34.5781H167.786V35.4395H166.784V39.5352C166.784 39.7539 166.859 39.9004 167.007 39.9746C167.089 40.0176 167.226 40.0391 167.417 40.0391C167.468 40.0391 167.523 40.0391 167.581 40.0391C167.64 40.0352 167.708 40.0293 167.786 40.0215V40.8535C167.665 40.8887 167.538 40.9141 167.405 40.9297C167.277 40.9453 167.136 40.9531 166.984 40.9531C166.491 40.9531 166.157 40.8281 165.982 40.5781C165.806 40.3242 165.718 39.9961 165.718 39.5938V35.4395H164.868V34.5781H165.718V32.8262ZM168.847 34.6074H169.919V40.8535H168.847V34.6074ZM168.847 32.2461H169.919V33.4414H168.847V32.2461ZM174.009 40.1738C174.708 40.1738 175.187 39.9102 175.444 39.3828C175.706 38.8516 175.837 38.2617 175.837 37.6133C175.837 37.0273 175.743 36.5508 175.556 36.1836C175.259 35.6055 174.747 35.3164 174.021 35.3164C173.376 35.3164 172.907 35.5625 172.614 36.0547C172.321 36.5469 172.175 37.1406 172.175 37.8359C172.175 38.5039 172.321 39.0605 172.614 39.5059C172.907 39.9512 173.372 40.1738 174.009 40.1738ZM174.05 34.3965C174.859 34.3965 175.542 34.666 176.101 35.2051C176.659 35.7441 176.939 36.5371 176.939 37.584C176.939 38.5957 176.693 39.4316 176.2 40.0918C175.708 40.752 174.944 41.082 173.909 41.082C173.046 41.082 172.361 40.791 171.853 40.209C171.345 39.623 171.091 38.8379 171.091 37.8535C171.091 36.7988 171.359 35.959 171.894 35.334C172.429 34.709 173.148 34.3965 174.05 34.3965ZM178.198 34.5781H179.2V35.4688C179.497 35.1016 179.812 34.8379 180.144 34.6777C180.476 34.5176 180.845 34.4375 181.251 34.4375C182.142 34.4375 182.743 34.748 183.056 35.3691C183.228 35.709 183.314 36.1953 183.314 36.8281V40.8535H182.241V36.8984C182.241 36.5156 182.185 36.207 182.071 35.9727C181.884 35.582 181.544 35.3867 181.052 35.3867C180.802 35.3867 180.597 35.4121 180.437 35.4629C180.148 35.5488 179.894 35.7207 179.675 35.9785C179.499 36.1855 179.384 36.4004 179.329 36.623C179.278 36.8418 179.253 37.1562 179.253 37.5664V40.8535H178.198V34.5781Z" fill="white"/>
<path d="M65.0892 258.506V331.281" stroke="black" stroke-miterlimit="10" stroke-dasharray="3 3"/>
<path d="M65.0893 338.405L60.3403 328.906L65.0893 331.28L69.8383 328.906L65.0893 338.405Z" fill="black" stroke="black" stroke-miterlimit="10"/>
<path d="M46.7668 291.928H47.7229V292.745C47.952 292.462 48.1597 292.256 48.3459 292.127C48.6646 291.909 49.0263 291.799 49.4309 291.799C49.8892 291.799 50.258 291.912 50.5373 292.138C50.6949 292.267 50.8381 292.456 50.967 292.707C51.1819 292.399 51.4343 292.172 51.7243 292.025C52.0144 291.875 52.3402 291.799 52.7019 291.799C53.4753 291.799 54.0017 292.079 54.281 292.637C54.4314 292.938 54.5066 293.343 54.5066 293.851V297.681H53.5022V293.685C53.5022 293.301 53.4055 293.038 53.2121 292.895C53.0224 292.752 52.7896 292.68 52.5139 292.68C52.1343 292.68 51.8067 292.807 51.531 293.062C51.2588 293.316 51.1228 293.74 51.1228 294.334V297.681H50.1399V293.926C50.1399 293.536 50.0933 293.251 50.0002 293.072C49.8534 292.804 49.5795 292.669 49.1784 292.669C48.8132 292.669 48.4802 292.811 48.1794 293.094C47.8822 293.377 47.7336 293.889 47.7336 294.63V297.681H46.7668V291.928ZM58.2126 297.058C58.8536 297.058 59.2922 296.816 59.5285 296.333C59.7684 295.846 59.8884 295.305 59.8884 294.71C59.8884 294.173 59.8025 293.736 59.6306 293.4C59.3585 292.87 58.8894 292.605 58.2234 292.605C57.6325 292.605 57.2029 292.831 56.9343 293.282C56.6657 293.733 56.5315 294.277 56.5315 294.915C56.5315 295.527 56.6657 296.037 56.9343 296.445C57.2029 296.854 57.629 297.058 58.2126 297.058ZM58.2502 291.762C58.9914 291.762 59.6181 292.009 60.1301 292.503C60.6421 292.997 60.8982 293.724 60.8982 294.684C60.8982 295.611 60.6726 296.377 60.2214 296.982C59.7702 297.588 59.0702 297.89 58.1213 297.89C57.33 297.89 56.7016 297.623 56.2361 297.09C55.7706 296.553 55.5378 295.833 55.5378 294.931C55.5378 293.964 55.7831 293.194 56.2737 292.621C56.7642 292.048 57.4231 291.762 58.2502 291.762ZM62.053 291.928H62.9714V292.745C63.2435 292.408 63.5318 292.166 63.8362 292.02C64.1405 291.873 64.4789 291.799 64.8513 291.799C65.6677 291.799 66.2191 292.084 66.5056 292.653C66.6631 292.965 66.7419 293.411 66.7419 293.991V297.681H65.759V294.055C65.759 293.704 65.7071 293.421 65.6032 293.207C65.4314 292.848 65.1198 292.669 64.6687 292.669C64.4395 292.669 64.2515 292.693 64.1047 292.739C63.8397 292.818 63.607 292.976 63.4065 293.212C63.2453 293.402 63.1397 293.599 63.0896 293.803C63.043 294.003 63.0198 294.292 63.0198 294.667V297.681H62.053V291.928ZM68.176 291.955H69.1589V297.681H68.176V291.955ZM68.176 289.791H69.1589V290.886H68.176V289.791ZM70.8186 290.322H71.7961V291.928H72.7146V292.718H71.7961V296.472C71.7961 296.673 71.8642 296.807 72.0002 296.875C72.0754 296.914 72.2007 296.934 72.3762 296.934C72.4227 296.934 72.4729 296.934 72.5266 296.934C72.5803 296.931 72.643 296.925 72.7146 296.918V297.681C72.6036 297.713 72.4872 297.736 72.3655 297.75C72.2473 297.765 72.1184 297.772 71.9787 297.772C71.5276 297.772 71.2214 297.657 71.0603 297.428C70.8991 297.195 70.8186 296.895 70.8186 296.526V292.718H70.0398V291.928H70.8186V290.322ZM75.9695 297.058C76.6104 297.058 77.049 296.816 77.2854 296.333C77.5253 295.846 77.6452 295.305 77.6452 294.71C77.6452 294.173 77.5593 293.736 77.3874 293.4C77.1153 292.87 76.6462 292.605 75.9802 292.605C75.3894 292.605 74.9597 292.831 74.6911 293.282C74.4226 293.733 74.2883 294.277 74.2883 294.915C74.2883 295.527 74.4226 296.037 74.6911 296.445C74.9597 296.854 75.3858 297.058 75.9695 297.058ZM76.0071 291.762C76.7483 291.762 77.3749 292.009 77.8869 292.503C78.399 292.997 78.655 293.724 78.655 294.684C78.655 295.611 78.4294 296.377 77.9782 296.982C77.5271 297.588 76.827 297.89 75.8782 297.89C75.0868 297.89 74.4584 297.623 73.9929 297.09C73.5274 296.553 73.2947 295.833 73.2947 294.931C73.2947 293.964 73.5399 293.194 74.0305 292.621C74.5211 292.048 75.1799 291.762 76.0071 291.762ZM79.8366 291.928H80.7551V292.922C80.8303 292.729 81.0147 292.494 81.3083 292.218C81.6019 291.939 81.9403 291.799 82.3235 291.799C82.3414 291.799 82.3718 291.801 82.4148 291.805C82.4577 291.808 82.5311 291.815 82.635 291.826V292.847C82.5777 292.836 82.524 292.829 82.4739 292.825C82.4273 292.822 82.3754 292.82 82.3181 292.82C81.8311 292.82 81.4569 292.977 81.1955 293.292C80.9341 293.604 80.8034 293.964 80.8034 294.372V297.681H79.8366V291.928Z" fill="black"/>
<path d="M227.911 217.796C227.911 217.796 288.349 217.796 409.226 217.796" stroke="black" stroke-miterlimit="10" stroke-dasharray="3 3"/>
<path d="M416.35 217.796L406.852 222.546L409.226 217.796L406.852 213.047L416.35 217.796Z" fill="black" stroke="black" stroke-miterlimit="10"/>
<path d="M300.032 208.345H300.972V211.208C301.184 210.932 301.436 210.722 301.73 210.579C302.023 210.432 302.342 210.359 302.686 210.359C303.402 210.359 303.982 210.606 304.426 211.1C304.873 211.591 305.097 212.316 305.097 213.275C305.097 214.185 304.877 214.94 304.437 215.542C303.996 216.144 303.386 216.444 302.605 216.444C302.168 216.444 301.799 216.339 301.499 216.127C301.32 216.002 301.128 215.802 300.924 215.526V216.262H300.032V208.345ZM302.546 215.59C303.069 215.59 303.459 215.383 303.717 214.967C303.978 214.552 304.109 214.004 304.109 213.324C304.109 212.719 303.978 212.217 303.717 211.82C303.459 211.422 303.078 211.224 302.573 211.224C302.132 211.224 301.746 211.387 301.413 211.712C301.083 212.038 300.919 212.575 300.919 213.324C300.919 213.864 300.987 214.303 301.123 214.64C301.377 215.273 301.851 215.59 302.546 215.59ZM306.257 210.509H307.176V211.503C307.251 211.31 307.435 211.075 307.729 210.799C308.023 210.52 308.361 210.38 308.744 210.38C308.762 210.38 308.793 210.382 308.836 210.386C308.878 210.389 308.952 210.396 309.056 210.407V211.428C308.998 211.417 308.945 211.41 308.895 211.406C308.848 211.403 308.796 211.401 308.739 211.401C308.252 211.401 307.878 211.558 307.616 211.874C307.355 212.185 307.224 212.545 307.224 212.953V216.262H306.257V210.509ZM312.176 215.639C312.817 215.639 313.256 215.397 313.492 214.914C313.732 214.427 313.852 213.886 313.852 213.292C313.852 212.754 313.766 212.318 313.594 211.981C313.322 211.451 312.853 211.186 312.187 211.186C311.596 211.186 311.167 211.412 310.898 211.863C310.629 212.314 310.495 212.858 310.495 213.496C310.495 214.108 310.629 214.618 310.898 215.026C311.167 215.435 311.593 215.639 312.176 215.639ZM312.214 210.343C312.955 210.343 313.582 210.59 314.094 211.084C314.606 211.578 314.862 212.305 314.862 213.265C314.862 214.192 314.636 214.958 314.185 215.563C313.734 216.169 313.034 216.471 312.085 216.471C311.294 216.471 310.665 216.204 310.2 215.671C309.734 215.134 309.502 214.414 309.502 213.512C309.502 212.545 309.747 211.775 310.237 211.202C310.728 210.629 311.387 210.343 312.214 210.343ZM316.758 214.731C316.758 215.01 316.86 215.23 317.064 215.392C317.268 215.553 317.51 215.633 317.789 215.633C318.129 215.633 318.459 215.555 318.777 215.397C319.315 215.136 319.583 214.708 319.583 214.113V213.334C319.465 213.41 319.313 213.472 319.127 213.522C318.94 213.573 318.758 213.608 318.579 213.63L317.993 213.705C317.642 213.752 317.379 213.825 317.204 213.925C316.906 214.094 316.758 214.362 316.758 214.731ZM319.1 212.776C319.322 212.747 319.47 212.654 319.545 212.497C319.588 212.411 319.61 212.287 319.61 212.126C319.61 211.797 319.492 211.558 319.255 211.412C319.023 211.261 318.688 211.186 318.251 211.186C317.746 211.186 317.388 211.322 317.177 211.594C317.059 211.745 316.982 211.968 316.946 212.266H316.044C316.061 211.557 316.291 211.064 316.731 210.789C317.175 210.509 317.689 210.37 318.273 210.37C318.949 210.37 319.499 210.499 319.921 210.756C320.34 211.014 320.55 211.415 320.55 211.959V215.273C320.55 215.374 320.57 215.454 320.609 215.515C320.652 215.576 320.74 215.606 320.872 215.606C320.915 215.606 320.963 215.605 321.017 215.601C321.071 215.594 321.128 215.585 321.189 215.574V216.289C321.039 216.332 320.924 216.358 320.845 216.369C320.767 216.38 320.659 216.385 320.523 216.385C320.19 216.385 319.948 216.267 319.798 216.031C319.719 215.905 319.664 215.728 319.631 215.499C319.434 215.757 319.152 215.981 318.783 216.17C318.414 216.36 318.008 216.455 317.564 216.455C317.03 216.455 316.593 216.294 316.253 215.972C315.916 215.646 315.748 215.239 315.748 214.752C315.748 214.219 315.915 213.805 316.248 213.512C316.581 213.218 317.017 213.037 317.558 212.969L319.1 212.776ZM322.752 213.453C322.752 214.069 322.883 214.584 323.144 215C323.406 215.415 323.824 215.623 324.401 215.623C324.849 215.623 325.216 215.431 325.502 215.048C325.792 214.661 325.937 214.108 325.937 213.388C325.937 212.661 325.788 212.124 325.491 211.777C325.194 211.426 324.827 211.25 324.39 211.25C323.903 211.25 323.508 211.437 323.203 211.809C322.902 212.181 322.752 212.729 322.752 213.453ZM324.208 210.407C324.648 210.407 325.017 210.5 325.314 210.687C325.486 210.794 325.681 210.982 325.899 211.25V208.345H326.829V216.262H325.959V215.461C325.733 215.816 325.466 216.072 325.158 216.229C324.85 216.387 324.498 216.466 324.1 216.466C323.459 216.466 322.904 216.197 322.435 215.66C321.966 215.119 321.732 214.402 321.732 213.506C321.732 212.668 321.945 211.943 322.371 211.331C322.8 210.715 323.413 210.407 324.208 210.407ZM330.481 210.343C331.129 210.343 331.656 210.5 332.06 210.815C332.468 211.131 332.714 211.673 332.796 212.443H331.856C331.799 212.088 331.668 211.795 331.464 211.562C331.26 211.326 330.932 211.208 330.481 211.208C329.865 211.208 329.425 211.508 329.16 212.11C328.988 212.5 328.902 212.982 328.902 213.555C328.902 214.131 329.024 214.616 329.267 215.01C329.511 215.404 329.894 215.601 330.417 215.601C330.818 215.601 331.135 215.479 331.367 215.236C331.604 214.989 331.767 214.652 331.856 214.226H332.796C332.689 214.989 332.42 215.547 331.99 215.902C331.561 216.253 331.011 216.428 330.341 216.428C329.589 216.428 328.99 216.154 328.542 215.606C328.094 215.055 327.871 214.368 327.871 213.544C327.871 212.534 328.116 211.748 328.607 211.186C329.097 210.624 329.722 210.343 330.481 210.343ZM334.504 214.731C334.504 215.01 334.606 215.23 334.81 215.392C335.014 215.553 335.256 215.633 335.535 215.633C335.875 215.633 336.205 215.555 336.524 215.397C337.061 215.136 337.329 214.708 337.329 214.113V213.334C337.211 213.41 337.059 213.472 336.873 213.522C336.686 213.573 336.504 213.608 336.325 213.63L335.739 213.705C335.388 213.752 335.125 213.825 334.95 213.925C334.653 214.094 334.504 214.362 334.504 214.731ZM336.846 212.776C337.068 212.747 337.216 212.654 337.292 212.497C337.335 212.411 337.356 212.287 337.356 212.126C337.356 211.797 337.238 211.558 337.002 211.412C336.769 211.261 336.434 211.186 335.997 211.186C335.492 211.186 335.134 211.322 334.923 211.594C334.805 211.745 334.728 211.968 334.692 212.266H333.79C333.808 211.557 334.037 211.064 334.477 210.789C334.921 210.509 335.435 210.37 336.019 210.37C336.695 210.37 337.245 210.499 337.668 210.756C338.087 211.014 338.296 211.415 338.296 211.959V215.273C338.296 215.374 338.316 215.454 338.355 215.515C338.398 215.576 338.486 215.606 338.618 215.606C338.661 215.606 338.71 215.605 338.763 215.601C338.817 215.594 338.874 215.585 338.935 215.574V216.289C338.785 216.332 338.67 216.358 338.591 216.369C338.513 216.38 338.405 216.385 338.269 216.385C337.936 216.385 337.694 216.267 337.544 216.031C337.465 215.905 337.41 215.728 337.378 215.499C337.181 215.757 336.898 215.981 336.529 216.17C336.16 216.36 335.754 216.455 335.31 216.455C334.776 216.455 334.339 216.294 333.999 215.972C333.663 215.646 333.494 215.239 333.494 214.752C333.494 214.219 333.661 213.805 333.994 213.512C334.327 213.218 334.764 213.037 335.304 212.969L336.846 212.776ZM340.461 214.457C340.489 214.779 340.57 215.026 340.702 215.198C340.946 215.51 341.368 215.666 341.97 215.666C342.328 215.666 342.643 215.589 342.915 215.435C343.187 215.277 343.323 215.035 343.323 214.709C343.323 214.462 343.214 214.274 342.996 214.146C342.856 214.067 342.58 213.975 342.169 213.872L341.4 213.678C340.91 213.556 340.548 213.42 340.316 213.27C339.9 213.009 339.692 212.647 339.692 212.185C339.692 211.641 339.888 211.2 340.278 210.864C340.672 210.527 341.2 210.359 341.862 210.359C342.729 210.359 343.354 210.613 343.737 211.122C343.977 211.444 344.093 211.791 344.086 212.164H343.173C343.155 211.945 343.078 211.746 342.942 211.567C342.72 211.313 342.335 211.186 341.787 211.186C341.422 211.186 341.144 211.256 340.955 211.396C340.768 211.535 340.675 211.72 340.675 211.949C340.675 212.199 340.799 212.4 341.046 212.55C341.189 212.64 341.4 212.719 341.68 212.787L342.319 212.942C343.014 213.111 343.479 213.274 343.715 213.431C344.091 213.678 344.279 214.067 344.279 214.597C344.279 215.109 344.084 215.551 343.694 215.923C343.307 216.296 342.716 216.482 341.921 216.482C341.066 216.482 340.459 216.289 340.101 215.902C339.746 215.512 339.556 215.03 339.531 214.457H340.461ZM345.579 208.903H346.557V210.509H347.475V211.299H346.557V215.053C346.557 215.254 346.625 215.388 346.761 215.456C346.836 215.495 346.961 215.515 347.137 215.515C347.183 215.515 347.233 215.515 347.287 215.515C347.341 215.512 347.404 215.506 347.475 215.499V216.262C347.364 216.294 347.248 216.317 347.126 216.332C347.008 216.346 346.879 216.353 346.739 216.353C346.288 216.353 345.982 216.238 345.821 216.009C345.66 215.777 345.579 215.476 345.579 215.107V211.299H344.8V210.509H345.579V208.903Z" fill="black"/>
<path d="M227.911 258.506L410.027 343.073" stroke="black" stroke-miterlimit="10" stroke-dasharray="3 3"/>
<path d="M416.499 346.072L405.875 346.384L410.027 343.073L409.877 337.767L416.499 346.072Z" fill="black" stroke="black" stroke-miterlimit="10"/>
<path d="M330.868 305.375C330.897 305.697 330.977 305.944 331.11 306.116C331.353 306.428 331.776 306.583 332.377 306.583C332.735 306.583 333.051 306.507 333.323 306.353C333.595 306.195 333.731 305.953 333.731 305.627C333.731 305.38 333.622 305.192 333.403 305.063C333.264 304.985 332.988 304.893 332.576 304.79L331.808 304.596C331.317 304.474 330.956 304.338 330.723 304.188C330.308 303.927 330.1 303.565 330.1 303.103C330.1 302.559 330.295 302.118 330.685 301.782C331.079 301.445 331.608 301.277 332.27 301.277C333.136 301.277 333.761 301.531 334.144 302.04C334.384 302.362 334.501 302.709 334.494 303.082H333.581C333.563 302.863 333.486 302.664 333.35 302.485C333.128 302.231 332.743 302.104 332.195 302.104C331.83 302.104 331.552 302.174 331.362 302.313C331.176 302.453 331.083 302.638 331.083 302.867C331.083 303.117 331.206 303.318 331.454 303.468C331.597 303.558 331.808 303.637 332.087 303.705L332.727 303.86C333.421 304.029 333.887 304.192 334.123 304.349C334.499 304.596 334.687 304.985 334.687 305.515C334.687 306.027 334.492 306.469 334.102 306.841C333.715 307.214 333.124 307.4 332.329 307.4C331.473 307.4 330.866 307.207 330.508 306.82C330.154 306.43 329.964 305.948 329.939 305.375H330.868ZM336.535 305.649C336.535 305.928 336.637 306.148 336.841 306.31C337.045 306.471 337.287 306.551 337.566 306.551C337.906 306.551 338.235 306.472 338.554 306.315C339.091 306.054 339.36 305.626 339.36 305.031V304.252C339.242 304.328 339.089 304.39 338.903 304.44C338.717 304.491 338.534 304.526 338.355 304.548L337.77 304.623C337.419 304.67 337.156 304.743 336.98 304.843C336.683 305.012 336.535 305.28 336.535 305.649ZM338.876 303.694C339.098 303.665 339.247 303.572 339.322 303.415C339.365 303.329 339.387 303.205 339.387 303.044C339.387 302.715 339.268 302.476 339.032 302.33C338.799 302.179 338.465 302.104 338.028 302.104C337.523 302.104 337.165 302.24 336.954 302.512C336.835 302.663 336.758 302.886 336.723 303.184H335.82C335.838 302.475 336.067 301.982 336.508 301.707C336.952 301.427 337.466 301.288 338.049 301.288C338.726 301.288 339.276 301.417 339.698 301.674C340.117 301.932 340.327 302.333 340.327 302.877V306.191C340.327 306.292 340.346 306.372 340.386 306.433C340.429 306.494 340.516 306.524 340.649 306.524C340.692 306.524 340.74 306.523 340.794 306.519C340.848 306.512 340.905 306.503 340.966 306.492V307.207C340.815 307.25 340.701 307.276 340.622 307.287C340.543 307.298 340.436 307.303 340.3 307.303C339.967 307.303 339.725 307.185 339.575 306.949C339.496 306.823 339.44 306.646 339.408 306.417C339.211 306.675 338.928 306.899 338.56 307.088C338.191 307.278 337.784 307.373 337.34 307.373C336.807 307.373 336.37 307.212 336.03 306.89C335.693 306.564 335.525 306.157 335.525 305.67C335.525 305.137 335.691 304.723 336.024 304.43C336.357 304.136 336.794 303.955 337.335 303.887L338.876 303.694ZM342.389 301.427L343.925 306.111L345.531 301.427H346.589L344.419 307.18H343.388L341.267 301.427H342.389ZM349.812 301.298C350.22 301.298 350.616 301.395 350.999 301.588C351.382 301.778 351.674 302.025 351.874 302.33C352.068 302.62 352.197 302.958 352.261 303.345C352.318 303.61 352.347 304.032 352.347 304.612H348.131C348.149 305.196 348.287 305.665 348.544 306.02C348.802 306.37 349.201 306.546 349.742 306.546C350.247 306.546 350.65 306.379 350.951 306.046C351.122 305.853 351.244 305.629 351.316 305.375H352.267C352.241 305.586 352.157 305.823 352.014 306.084C351.874 306.342 351.717 306.553 351.541 306.718C351.248 307.004 350.884 307.198 350.451 307.298C350.218 307.355 349.955 307.384 349.662 307.384C348.945 307.384 348.338 307.124 347.841 306.605C347.343 306.082 347.094 305.352 347.094 304.414C347.094 303.49 347.345 302.74 347.846 302.163C348.347 301.587 349.003 301.298 349.812 301.298ZM351.353 303.844C351.314 303.425 351.223 303.09 351.08 302.84C350.815 302.374 350.372 302.142 349.753 302.142C349.309 302.142 348.936 302.303 348.636 302.625C348.335 302.944 348.176 303.35 348.158 303.844H351.353Z" fill="black"/>
<path d="M227.911 177.086H10.8154V258.506H227.911V177.086Z" fill="white" stroke="black"/>
<path d="M105.87 208.42C106.96 208.42 107.806 208.707 108.407 209.281C109.009 209.855 109.343 210.508 109.409 211.238H108.273C108.144 210.684 107.886 210.244 107.499 209.92C107.116 209.596 106.577 209.434 105.882 209.434C105.034 209.434 104.349 209.732 103.825 210.33C103.306 210.924 103.046 211.836 103.046 213.066C103.046 214.074 103.28 214.893 103.749 215.521C104.222 216.146 104.925 216.459 105.859 216.459C106.718 216.459 107.372 216.129 107.821 215.469C108.06 215.121 108.237 214.664 108.355 214.098H109.491C109.39 215.004 109.054 215.764 108.484 216.377C107.8 217.115 106.878 217.484 105.718 217.484C104.718 217.484 103.878 217.182 103.198 216.576C102.304 215.775 101.857 214.539 101.857 212.867C101.857 211.598 102.193 210.557 102.864 209.744C103.591 208.861 104.593 208.42 105.87 208.42ZM111.583 215.592C111.583 215.896 111.695 216.137 111.917 216.312C112.14 216.488 112.404 216.576 112.708 216.576C113.079 216.576 113.439 216.49 113.786 216.318C114.372 216.033 114.665 215.566 114.665 214.918V214.068C114.536 214.15 114.37 214.219 114.167 214.273C113.964 214.328 113.765 214.367 113.57 214.391L112.931 214.473C112.548 214.523 112.261 214.604 112.07 214.713C111.745 214.896 111.583 215.189 111.583 215.592ZM114.138 213.459C114.38 213.428 114.542 213.326 114.624 213.154C114.671 213.061 114.695 212.926 114.695 212.75C114.695 212.391 114.566 212.131 114.308 211.971C114.054 211.807 113.689 211.725 113.212 211.725C112.661 211.725 112.271 211.873 112.04 212.17C111.911 212.334 111.827 212.578 111.788 212.902H110.804C110.823 212.129 111.073 211.592 111.554 211.291C112.038 210.986 112.599 210.834 113.236 210.834C113.974 210.834 114.573 210.975 115.034 211.256C115.491 211.537 115.72 211.975 115.72 212.568V216.184C115.72 216.293 115.741 216.381 115.784 216.447C115.831 216.514 115.927 216.547 116.071 216.547C116.118 216.547 116.171 216.545 116.23 216.541C116.288 216.533 116.351 216.523 116.417 216.512V217.291C116.253 217.338 116.128 217.367 116.042 217.379C115.956 217.391 115.839 217.396 115.691 217.396C115.327 217.396 115.064 217.268 114.9 217.01C114.814 216.873 114.753 216.68 114.718 216.43C114.503 216.711 114.195 216.955 113.792 217.162C113.39 217.369 112.946 217.473 112.462 217.473C111.88 217.473 111.404 217.297 111.032 216.945C110.665 216.59 110.482 216.146 110.482 215.615C110.482 215.033 110.663 214.582 111.027 214.262C111.39 213.941 111.866 213.744 112.456 213.67L114.138 213.459ZM119.874 210.805C120.581 210.805 121.155 210.977 121.597 211.32C122.042 211.664 122.31 212.256 122.4 213.096H121.374C121.312 212.709 121.169 212.389 120.946 212.135C120.724 211.877 120.366 211.748 119.874 211.748C119.202 211.748 118.722 212.076 118.433 212.732C118.245 213.158 118.152 213.684 118.152 214.309C118.152 214.938 118.284 215.467 118.55 215.896C118.816 216.326 119.234 216.541 119.804 216.541C120.241 216.541 120.587 216.408 120.841 216.143C121.099 215.873 121.277 215.506 121.374 215.041H122.4C122.282 215.873 121.989 216.482 121.521 216.869C121.052 217.252 120.452 217.443 119.722 217.443C118.902 217.443 118.247 217.145 117.759 216.547C117.271 215.945 117.027 215.195 117.027 214.297C117.027 213.195 117.294 212.338 117.829 211.725C118.364 211.111 119.046 210.805 119.874 210.805ZM123.454 208.625H124.509V211.836C124.759 211.52 124.984 211.297 125.183 211.168C125.523 210.945 125.946 210.834 126.454 210.834C127.364 210.834 127.982 211.152 128.306 211.789C128.482 212.137 128.57 212.619 128.57 213.236V217.262H127.486V213.307C127.486 212.846 127.427 212.508 127.31 212.293C127.118 211.949 126.759 211.777 126.232 211.777C125.794 211.777 125.398 211.928 125.042 212.229C124.687 212.529 124.509 213.098 124.509 213.934V217.262H123.454V208.625ZM132.747 210.846C133.193 210.846 133.624 210.951 134.042 211.162C134.46 211.369 134.779 211.639 134.997 211.971C135.208 212.287 135.349 212.656 135.419 213.078C135.482 213.367 135.513 213.828 135.513 214.461H130.913C130.933 215.098 131.083 215.609 131.364 215.996C131.646 216.379 132.081 216.57 132.671 216.57C133.222 216.57 133.661 216.389 133.989 216.025C134.177 215.814 134.31 215.57 134.388 215.293H135.425C135.398 215.523 135.306 215.781 135.15 216.066C134.997 216.348 134.825 216.578 134.634 216.758C134.314 217.07 133.917 217.281 133.445 217.391C133.191 217.453 132.904 217.484 132.583 217.484C131.802 217.484 131.14 217.201 130.597 216.635C130.054 216.064 129.782 215.268 129.782 214.244C129.782 213.236 130.056 212.418 130.603 211.789C131.15 211.16 131.864 210.846 132.747 210.846ZM134.429 213.623C134.386 213.166 134.286 212.801 134.13 212.527C133.841 212.02 133.359 211.766 132.683 211.766C132.198 211.766 131.792 211.941 131.464 212.293C131.136 212.641 130.962 213.084 130.943 213.623H134.429Z" fill="black"/>
<path d="M173.637 339.925V267.149" stroke="black" stroke-miterlimit="10" stroke-dasharray="3 3"/>
<path d="M173.637 260.025L178.386 269.524L173.637 267.15L168.888 269.524L173.637 260.025Z" fill="black" stroke="black" stroke-miterlimit="10"/>
<path d="M157.796 293.285V297.104C157.796 297.398 157.842 297.638 157.936 297.824C158.107 298.167 158.428 298.339 158.897 298.339C159.57 298.339 160.028 298.039 160.272 297.437C160.404 297.115 160.471 296.673 160.471 296.11V293.285H161.437V299.038H160.524L160.535 298.189C160.41 298.407 160.254 298.592 160.068 298.742C159.699 299.043 159.251 299.193 158.725 299.193C157.905 299.193 157.347 298.919 157.049 298.372C156.888 298.078 156.808 297.686 156.808 297.195V293.285H157.796ZM165.38 298.388C165.831 298.388 166.205 298.2 166.502 297.824C166.803 297.444 166.954 296.878 166.954 296.126C166.954 295.668 166.887 295.274 166.755 294.945C166.504 294.311 166.046 293.994 165.38 293.994C164.71 293.994 164.252 294.329 164.005 294.999C163.872 295.357 163.806 295.811 163.806 296.363C163.806 296.807 163.872 297.185 164.005 297.496C164.256 298.09 164.714 298.388 165.38 298.388ZM162.877 293.312H163.817V294.075C164.01 293.813 164.222 293.611 164.451 293.468C164.777 293.253 165.16 293.146 165.6 293.146C166.252 293.146 166.805 293.396 167.26 293.897C167.715 294.395 167.942 295.108 167.942 296.035C167.942 297.288 167.614 298.184 166.959 298.721C166.544 299.061 166.06 299.231 165.509 299.231C165.076 299.231 164.712 299.136 164.418 298.946C164.247 298.839 164.055 298.654 163.844 298.393V301.331H162.877V293.312ZM169.687 296.229C169.687 296.844 169.818 297.36 170.08 297.775C170.341 298.191 170.76 298.398 171.336 298.398C171.784 298.398 172.151 298.207 172.437 297.824C172.728 297.437 172.873 296.884 172.873 296.164C172.873 295.437 172.724 294.9 172.427 294.553C172.13 294.202 171.763 294.026 171.326 294.026C170.839 294.026 170.443 294.213 170.139 294.585C169.838 294.957 169.687 295.505 169.687 296.229ZM171.143 293.183C171.583 293.183 171.952 293.276 172.25 293.462C172.421 293.57 172.617 293.758 172.835 294.026V291.121H173.764V299.038H172.894V298.237C172.668 298.592 172.402 298.848 172.094 299.005C171.786 299.163 171.433 299.242 171.036 299.242C170.395 299.242 169.84 298.973 169.371 298.436C168.902 297.895 168.667 297.177 168.667 296.282C168.667 295.444 168.88 294.719 169.306 294.107C169.736 293.491 170.348 293.183 171.143 293.183ZM175.939 297.507C175.939 297.786 176.041 298.006 176.246 298.167C176.45 298.329 176.691 298.409 176.971 298.409C177.311 298.409 177.64 298.33 177.959 298.173C178.496 297.911 178.765 297.484 178.765 296.889V296.11C178.646 296.186 178.494 296.248 178.308 296.298C178.122 296.348 177.939 296.384 177.76 296.406L177.175 296.481C176.824 296.528 176.561 296.601 176.385 296.701C176.088 296.869 175.939 297.138 175.939 297.507ZM178.281 295.552C178.503 295.523 178.652 295.43 178.727 295.272C178.77 295.187 178.791 295.063 178.791 294.902C178.791 294.572 178.673 294.334 178.437 294.188C178.204 294.037 177.869 293.962 177.433 293.962C176.928 293.962 176.57 294.098 176.358 294.37C176.24 294.521 176.163 294.744 176.127 295.042H175.225C175.243 294.333 175.472 293.84 175.913 293.564C176.357 293.285 176.87 293.146 177.454 293.146C178.131 293.146 178.68 293.274 179.103 293.532C179.522 293.79 179.731 294.191 179.731 294.735V298.049C179.731 298.15 179.751 298.23 179.791 298.291C179.833 298.352 179.921 298.382 180.054 298.382C180.097 298.382 180.145 298.381 180.199 298.377C180.252 298.37 180.31 298.361 180.371 298.35V299.064C180.22 299.107 180.106 299.134 180.027 299.145C179.948 299.156 179.841 299.161 179.705 299.161C179.372 299.161 179.13 299.043 178.979 298.807C178.901 298.681 178.845 298.504 178.813 298.275C178.616 298.533 178.333 298.757 177.964 298.946C177.596 299.136 177.189 299.231 176.745 299.231C176.212 299.231 175.775 299.07 175.435 298.748C175.098 298.422 174.93 298.015 174.93 297.528C174.93 296.995 175.096 296.581 175.429 296.288C175.762 295.994 176.199 295.813 176.74 295.745L178.281 295.552ZM181.515 291.679H182.492V293.285H183.411V294.075H182.492V297.829C182.492 298.03 182.56 298.164 182.696 298.232C182.771 298.271 182.897 298.291 183.072 298.291C183.119 298.291 183.169 298.291 183.223 298.291C183.276 298.287 183.339 298.282 183.411 298.275V299.038C183.3 299.07 183.183 299.093 183.062 299.107C182.943 299.122 182.814 299.129 182.675 299.129C182.224 299.129 181.917 299.014 181.756 298.785C181.595 298.552 181.515 298.252 181.515 297.883V294.075H180.736V293.285H181.515V291.679ZM186.778 293.156C187.187 293.156 187.582 293.253 187.965 293.446C188.348 293.636 188.64 293.883 188.841 294.188C189.034 294.478 189.163 294.816 189.228 295.203C189.285 295.468 189.313 295.89 189.313 296.47H185.097C185.115 297.054 185.253 297.523 185.511 297.877C185.769 298.228 186.168 298.404 186.708 298.404C187.213 298.404 187.616 298.237 187.917 297.904C188.089 297.711 188.211 297.487 188.282 297.233H189.233C189.208 297.444 189.124 297.681 188.98 297.942C188.841 298.2 188.683 298.411 188.508 298.576C188.214 298.862 187.851 299.056 187.417 299.156C187.185 299.213 186.922 299.242 186.628 299.242C185.912 299.242 185.305 298.982 184.807 298.463C184.309 297.94 184.061 297.21 184.061 296.271C184.061 295.348 184.311 294.597 184.812 294.021C185.314 293.444 185.969 293.156 186.778 293.156ZM188.32 295.702C188.28 295.283 188.189 294.948 188.046 294.698C187.781 294.232 187.339 294 186.719 294C186.275 294 185.903 294.161 185.602 294.483C185.301 294.802 185.142 295.208 185.124 295.702H188.32Z" fill="black"/>
<path d="M119.363 421.344C119.363 421.344 119.363 441.079 119.363 480.549" stroke="black" stroke-miterlimit="10" stroke-dasharray="3 3"/>
<path d="M119.363 487.673L114.614 478.174L119.363 480.549L124.112 478.174L119.363 487.673Z" fill="black" stroke="black" stroke-miterlimit="10"/>
<path d="M110.414 441.678C110.429 441.277 110.499 440.983 110.624 440.797C110.85 440.468 111.285 440.303 111.929 440.303C111.99 440.303 112.053 440.305 112.117 440.308C112.182 440.312 112.255 440.317 112.337 440.324V441.205C112.237 441.198 112.164 441.195 112.117 441.195C112.074 441.191 112.033 441.189 111.994 441.189C111.7 441.189 111.525 441.266 111.467 441.42C111.41 441.571 111.381 441.957 111.381 442.58H112.337V443.343H111.371V448.306H110.414V443.343H109.614V442.58H110.414V441.678ZM115.63 442.425C116.038 442.425 116.434 442.521 116.817 442.715C117.2 442.904 117.492 443.151 117.692 443.456C117.886 443.746 118.015 444.084 118.079 444.471C118.136 444.736 118.165 445.158 118.165 445.739H113.949C113.967 446.322 114.104 446.791 114.362 447.146C114.62 447.497 115.019 447.672 115.56 447.672C116.065 447.672 116.468 447.506 116.768 447.173C116.94 446.979 117.062 446.755 117.134 446.501H118.084C118.059 446.712 117.975 446.949 117.832 447.21C117.692 447.468 117.535 447.679 117.359 447.844C117.066 448.13 116.702 448.324 116.269 448.424C116.036 448.481 115.773 448.51 115.479 448.51C114.763 448.51 114.156 448.25 113.659 447.731C113.161 447.208 112.912 446.478 112.912 445.54C112.912 444.616 113.163 443.866 113.664 443.289C114.165 442.713 114.821 442.425 115.63 442.425ZM117.171 444.97C117.132 444.552 117.041 444.217 116.897 443.966C116.632 443.501 116.19 443.268 115.571 443.268C115.127 443.268 114.754 443.429 114.454 443.751C114.153 444.07 113.993 444.476 113.976 444.97H117.171ZM119.551 440.948H120.528V442.553H121.447V443.343H120.528V447.097C120.528 447.298 120.596 447.432 120.732 447.5C120.808 447.54 120.933 447.559 121.108 447.559C121.155 447.559 121.205 447.559 121.259 447.559C121.312 447.556 121.375 447.55 121.447 447.543V448.306C121.336 448.338 121.219 448.361 121.098 448.376C120.979 448.39 120.851 448.397 120.711 448.397C120.26 448.397 119.954 448.283 119.792 448.053C119.631 447.821 119.551 447.52 119.551 447.151V443.343H118.772V442.553H119.551V440.948ZM124.637 442.387C125.285 442.387 125.812 442.545 126.216 442.86C126.624 443.175 126.87 443.717 126.952 444.487H126.012C125.955 444.133 125.824 443.839 125.62 443.606C125.416 443.37 125.088 443.252 124.637 443.252C124.021 443.252 123.581 443.552 123.316 444.154C123.144 444.544 123.058 445.026 123.058 445.599C123.058 446.175 123.18 446.661 123.423 447.054C123.667 447.448 124.05 447.645 124.573 447.645C124.974 447.645 125.291 447.524 125.523 447.28C125.76 447.033 125.923 446.696 126.012 446.27H126.952C126.845 447.033 126.576 447.592 126.146 447.946C125.717 448.297 125.167 448.472 124.497 448.472C123.746 448.472 123.146 448.198 122.698 447.651C122.251 447.099 122.027 446.412 122.027 445.588C122.027 444.578 122.272 443.792 122.763 443.23C123.253 442.668 123.878 442.387 124.637 442.387ZM127.919 440.389H128.886V443.332C129.115 443.042 129.321 442.838 129.503 442.72C129.815 442.516 130.203 442.414 130.669 442.414C131.503 442.414 132.069 442.706 132.366 443.289C132.527 443.608 132.608 444.05 132.608 444.616V448.306H131.614V444.68C131.614 444.258 131.56 443.948 131.453 443.751C131.278 443.436 130.948 443.279 130.465 443.279C130.064 443.279 129.7 443.416 129.374 443.692C129.049 443.968 128.886 444.489 128.886 445.255V448.306H127.919V440.389Z" fill="black"/>
<path d="M227.911 339.925H10.8154V421.344H227.911V339.925Z" fill="white" stroke="black"/>
<path d="M83.6632 377.323C83.6905 377.811 83.8057 378.207 84.0089 378.512C84.3956 379.082 85.0772 379.367 86.0538 379.367C86.4913 379.367 86.8897 379.305 87.2491 379.18C87.9444 378.938 88.2921 378.504 88.2921 377.879C88.2921 377.41 88.1456 377.076 87.8526 376.877C87.5557 376.682 87.0909 376.512 86.4581 376.367L85.2921 376.104C84.5303 375.932 83.9913 375.742 83.6749 375.535C83.128 375.176 82.8546 374.639 82.8546 373.924C82.8546 373.151 83.1221 372.516 83.6573 372.02C84.1925 371.524 84.9503 371.276 85.9307 371.276C86.8331 371.276 87.5987 371.494 88.2276 371.932C88.8604 372.365 89.1768 373.061 89.1768 374.018H88.0811C88.0225 373.557 87.8975 373.203 87.7061 372.957C87.3507 372.508 86.7471 372.283 85.8956 372.283C85.2081 372.283 84.7139 372.428 84.4132 372.717C84.1124 373.006 83.962 373.342 83.962 373.725C83.962 374.147 84.1378 374.455 84.4893 374.651C84.7198 374.776 85.2413 374.932 86.0538 375.119L87.2608 375.395C87.8428 375.528 88.2921 375.709 88.6085 375.94C89.1553 376.342 89.4288 376.926 89.4288 377.692C89.4288 378.645 89.0811 379.326 88.3858 379.737C87.6944 380.147 86.8897 380.352 85.9718 380.352C84.9014 380.352 84.0636 380.078 83.4581 379.531C82.8526 378.989 82.5557 378.252 82.5675 377.323H83.6632ZM94.6846 373.824H95.8507C95.7022 374.227 95.3721 375.145 94.8604 376.578C94.4776 377.656 94.1573 378.535 93.8995 379.215C93.2901 380.817 92.8604 381.793 92.6104 382.145C92.3604 382.496 91.9307 382.672 91.3214 382.672C91.1729 382.672 91.0577 382.666 90.9757 382.655C90.8975 382.643 90.7999 382.621 90.6827 382.59V381.629C90.8663 381.68 90.9991 381.711 91.0811 381.723C91.1632 381.735 91.2354 381.74 91.2979 381.74C91.4932 381.74 91.6358 381.707 91.7257 381.641C91.8194 381.578 91.8975 381.5 91.96 381.406C91.9796 381.375 92.0499 381.215 92.171 380.926C92.2921 380.637 92.38 380.422 92.4346 380.281L90.1143 373.824H91.3096L92.9913 378.934L94.6846 373.824ZM96.7647 373.824H97.7667V374.715C98.0636 374.348 98.378 374.084 98.71 373.924C99.0421 373.764 99.4112 373.684 99.8175 373.684C100.708 373.684 101.31 373.994 101.622 374.615C101.794 374.955 101.88 375.442 101.88 376.074V380.1H100.808V376.145C100.808 375.762 100.751 375.453 100.638 375.219C100.45 374.828 100.11 374.633 99.6182 374.633C99.3682 374.633 99.1632 374.658 99.003 374.709C98.7139 374.795 98.46 374.967 98.2413 375.225C98.0655 375.432 97.9503 375.647 97.8956 375.869C97.8448 376.088 97.8194 376.403 97.8194 376.813V380.1H96.7647V373.824ZM105.864 373.643C106.571 373.643 107.146 373.815 107.587 374.158C108.032 374.502 108.3 375.094 108.39 375.934H107.364C107.302 375.547 107.159 375.227 106.937 374.973C106.714 374.715 106.357 374.586 105.864 374.586C105.192 374.586 104.712 374.914 104.423 375.571C104.235 375.996 104.142 376.522 104.142 377.147C104.142 377.776 104.274 378.305 104.54 378.735C104.806 379.164 105.224 379.379 105.794 379.379C106.232 379.379 106.577 379.246 106.831 378.981C107.089 378.711 107.267 378.344 107.364 377.879H108.39C108.273 378.711 107.98 379.321 107.511 379.707C107.042 380.09 106.442 380.281 105.712 380.281C104.892 380.281 104.237 379.983 103.749 379.385C103.261 378.783 103.017 378.033 103.017 377.135C103.017 376.033 103.284 375.176 103.819 374.563C104.355 373.949 105.036 373.643 105.864 373.643ZM109.444 371.463H110.499V374.674C110.749 374.358 110.974 374.135 111.173 374.006C111.513 373.783 111.937 373.672 112.444 373.672C113.355 373.672 113.972 373.99 114.296 374.627C114.472 374.975 114.56 375.457 114.56 376.074V380.1H113.476V376.145C113.476 375.684 113.417 375.346 113.3 375.131C113.108 374.787 112.749 374.615 112.222 374.615C111.784 374.615 111.388 374.766 111.032 375.067C110.677 375.367 110.499 375.936 110.499 376.772V380.1H109.444V371.463ZM116.153 373.824H117.155V374.908C117.237 374.698 117.439 374.442 117.759 374.141C118.079 373.836 118.448 373.684 118.866 373.684C118.886 373.684 118.919 373.686 118.966 373.69C119.013 373.694 119.093 373.701 119.206 373.713V374.826C119.144 374.815 119.085 374.807 119.03 374.803C118.98 374.799 118.923 374.797 118.86 374.797C118.329 374.797 117.921 374.969 117.636 375.313C117.351 375.653 117.208 376.045 117.208 376.49V380.1H116.153V373.824ZM122.61 379.42C123.31 379.42 123.788 379.156 124.046 378.629C124.308 378.098 124.439 377.508 124.439 376.86C124.439 376.274 124.345 375.797 124.157 375.43C123.86 374.852 123.349 374.563 122.622 374.563C121.978 374.563 121.509 374.809 121.216 375.301C120.923 375.793 120.776 376.387 120.776 377.082C120.776 377.75 120.923 378.307 121.216 378.752C121.509 379.198 121.974 379.42 122.61 379.42ZM122.651 373.643C123.46 373.643 124.144 373.912 124.702 374.451C125.261 374.99 125.54 375.783 125.54 376.83C125.54 377.842 125.294 378.678 124.802 379.338C124.31 379.998 123.546 380.328 122.511 380.328C121.648 380.328 120.962 380.037 120.454 379.455C119.946 378.869 119.692 378.084 119.692 377.1C119.692 376.045 119.96 375.205 120.495 374.58C121.03 373.955 121.749 373.643 122.651 373.643ZM126.8 373.824H127.802V374.715C128.099 374.348 128.413 374.084 128.745 373.924C129.077 373.764 129.446 373.684 129.853 373.684C130.743 373.684 131.345 373.994 131.657 374.615C131.829 374.955 131.915 375.442 131.915 376.074V380.1H130.843V376.145C130.843 375.762 130.786 375.453 130.673 375.219C130.485 374.828 130.146 374.633 129.653 374.633C129.403 374.633 129.198 374.658 129.038 374.709C128.749 374.795 128.495 374.967 128.276 375.225C128.101 375.432 127.985 375.647 127.931 375.869C127.88 376.088 127.855 376.403 127.855 376.813V380.1H126.8V373.824ZM137.399 373.824H138.566C138.417 374.227 138.087 375.145 137.575 376.578C137.192 377.656 136.872 378.535 136.614 379.215C136.005 380.817 135.575 381.793 135.325 382.145C135.075 382.496 134.646 382.672 134.036 382.672C133.888 382.672 133.773 382.666 133.691 382.655C133.612 382.643 133.515 382.621 133.398 382.59V381.629C133.581 381.68 133.714 381.711 133.796 381.723C133.878 381.735 133.95 381.74 134.013 381.74C134.208 381.74 134.351 381.707 134.441 381.641C134.534 381.578 134.612 381.5 134.675 381.406C134.694 381.375 134.765 381.215 134.886 380.926C135.007 380.637 135.095 380.422 135.149 380.281L132.829 373.824H134.024L135.706 378.934L137.399 373.824ZM139.011 379.268L142.732 374.768H139.286V373.824H144.149V374.686L140.452 379.156H144.261V380.1H139.011V379.268ZM148.093 373.684C148.538 373.684 148.97 373.789 149.388 374C149.806 374.207 150.124 374.477 150.343 374.809C150.554 375.125 150.694 375.494 150.765 375.916C150.827 376.205 150.858 376.666 150.858 377.299H146.259C146.278 377.936 146.429 378.448 146.71 378.834C146.991 379.217 147.427 379.408 148.017 379.408C148.567 379.408 149.007 379.227 149.335 378.864C149.523 378.653 149.655 378.408 149.733 378.131H150.771C150.743 378.362 150.651 378.619 150.495 378.905C150.343 379.186 150.171 379.416 149.98 379.596C149.659 379.908 149.263 380.119 148.79 380.229C148.536 380.291 148.249 380.323 147.929 380.323C147.148 380.323 146.485 380.039 145.942 379.473C145.399 378.903 145.128 378.106 145.128 377.082C145.128 376.074 145.401 375.256 145.948 374.627C146.495 373.998 147.21 373.684 148.093 373.684ZM149.774 376.461C149.732 376.004 149.632 375.639 149.476 375.365C149.187 374.858 148.704 374.604 148.028 374.604C147.544 374.604 147.138 374.78 146.81 375.131C146.482 375.479 146.308 375.922 146.288 376.461H149.774ZM152.189 373.824H153.191V374.908C153.273 374.698 153.474 374.442 153.794 374.141C154.114 373.836 154.483 373.684 154.901 373.684C154.921 373.684 154.954 373.686 155.001 373.69C155.048 373.694 155.128 373.701 155.241 373.713V374.826C155.179 374.815 155.12 374.807 155.066 374.803C155.015 374.799 154.958 374.797 154.896 374.797C154.364 374.797 153.956 374.969 153.671 375.313C153.386 375.653 153.243 376.045 153.243 376.49V380.1H152.189V373.824Z" fill="black"/>
<path d="M51.5208 519.725C-2.75305 519.725 -16.3215 550.257 27.0976 556.364C-16.3215 569.798 32.525 599.109 67.803 586.896C92.2262 611.321 173.637 611.321 200.774 586.896C255.048 586.896 255.048 562.47 221.127 550.257C255.048 525.831 200.774 501.406 153.284 513.619C119.363 495.299 65.0893 495.299 51.5208 519.725Z" fill="#76608A" stroke="#432D57" stroke-miterlimit="10"/>
<path d="M103.655 546.196L102.349 542.393L100.96 546.196H103.655ZM101.739 541.115H103.058L106.181 549.723H104.903L104.03 547.145H100.626L99.6945 549.723H98.4992L101.739 541.115ZM107.101 543.477H108.173V549.723H107.101V543.477ZM107.101 541.115H108.173V542.311H107.101V541.115ZM109.802 543.448H110.804V544.531C110.886 544.321 111.087 544.065 111.407 543.764C111.728 543.459 112.097 543.307 112.515 543.307C112.534 543.307 112.568 543.309 112.614 543.313C112.661 543.317 112.741 543.324 112.855 543.336V544.449C112.792 544.438 112.734 544.43 112.679 544.426C112.628 544.422 112.571 544.42 112.509 544.42C111.978 544.42 111.569 544.592 111.284 544.936C110.999 545.276 110.857 545.668 110.857 546.114V549.723H109.802V543.448ZM113.98 541.696H115.046V543.448H116.048V544.309H115.046V548.405C115.046 548.623 115.12 548.77 115.269 548.844C115.351 548.887 115.487 548.908 115.679 548.908C115.73 548.908 115.784 548.908 115.843 548.908C115.902 548.905 115.97 548.899 116.048 548.891V549.723C115.927 549.758 115.8 549.783 115.667 549.799C115.538 549.815 115.398 549.823 115.245 549.823C114.753 549.823 114.419 549.698 114.243 549.448C114.068 549.194 113.98 548.865 113.98 548.463V544.309H113.13V543.448H113.98V541.696ZM117.917 548.053C117.917 548.358 118.028 548.598 118.251 548.774C118.474 548.949 118.737 549.037 119.042 549.037C119.413 549.037 119.773 548.951 120.12 548.78C120.706 548.494 120.999 548.028 120.999 547.379V546.53C120.87 546.612 120.704 546.68 120.501 546.735C120.298 546.789 120.099 546.828 119.903 546.852L119.265 546.934C118.882 546.985 118.595 547.065 118.403 547.174C118.079 547.358 117.917 547.651 117.917 548.053ZM120.472 545.92C120.714 545.889 120.876 545.787 120.958 545.615C121.005 545.522 121.028 545.387 121.028 545.211C121.028 544.852 120.9 544.592 120.642 544.432C120.388 544.268 120.023 544.186 119.546 544.186C118.995 544.186 118.605 544.334 118.374 544.631C118.245 544.795 118.161 545.039 118.122 545.364H117.138C117.157 544.59 117.407 544.053 117.888 543.752C118.372 543.448 118.933 543.295 119.569 543.295C120.308 543.295 120.907 543.436 121.368 543.717C121.825 543.998 122.054 544.436 122.054 545.03V548.645C122.054 548.754 122.075 548.842 122.118 548.908C122.165 548.975 122.261 549.008 122.405 549.008C122.452 549.008 122.505 549.006 122.564 549.002C122.622 548.994 122.685 548.985 122.751 548.973V549.752C122.587 549.799 122.462 549.828 122.376 549.84C122.29 549.852 122.173 549.858 122.025 549.858C121.661 549.858 121.398 549.729 121.234 549.471C121.148 549.334 121.087 549.141 121.052 548.891C120.837 549.172 120.528 549.416 120.126 549.623C119.724 549.83 119.28 549.934 118.796 549.934C118.214 549.934 117.737 549.758 117.366 549.406C116.999 549.051 116.816 548.608 116.816 548.076C116.816 547.494 116.997 547.043 117.361 546.723C117.724 546.403 118.2 546.205 118.79 546.131L120.472 545.92ZM123.706 541.086H124.732V544.209C124.962 543.908 125.237 543.68 125.558 543.524C125.878 543.364 126.226 543.283 126.601 543.283C127.382 543.283 128.015 543.553 128.499 544.092C128.987 544.627 129.232 545.418 129.232 546.465C129.232 547.457 128.991 548.281 128.511 548.938C128.03 549.594 127.364 549.922 126.513 549.922C126.036 549.922 125.634 549.807 125.306 549.576C125.111 549.44 124.902 549.221 124.679 548.92V549.723H123.706V541.086ZM126.448 548.99C127.019 548.99 127.444 548.764 127.726 548.311C128.011 547.858 128.153 547.26 128.153 546.518C128.153 545.858 128.011 545.311 127.726 544.877C127.444 544.444 127.028 544.227 126.478 544.227C125.997 544.227 125.575 544.405 125.212 544.76C124.853 545.115 124.673 545.701 124.673 546.518C124.673 547.108 124.747 547.586 124.896 547.953C125.173 548.645 125.691 548.99 126.448 548.99ZM130.497 541.115H131.552V549.723H130.497V541.115ZM135.753 543.307C136.198 543.307 136.63 543.412 137.048 543.623C137.466 543.83 137.784 544.1 138.003 544.432C138.214 544.748 138.355 545.117 138.425 545.539C138.487 545.828 138.519 546.289 138.519 546.922H133.919C133.939 547.559 134.089 548.071 134.37 548.457C134.652 548.84 135.087 549.031 135.677 549.031C136.228 549.031 136.667 548.85 136.995 548.487C137.183 548.276 137.316 548.031 137.394 547.754H138.431C138.403 547.985 138.312 548.242 138.155 548.528C138.003 548.809 137.831 549.039 137.64 549.219C137.319 549.531 136.923 549.742 136.45 549.852C136.196 549.914 135.909 549.946 135.589 549.946C134.808 549.946 134.146 549.662 133.603 549.096C133.06 548.526 132.788 547.729 132.788 546.705C132.788 545.698 133.062 544.879 133.609 544.25C134.155 543.621 134.87 543.307 135.753 543.307ZM137.435 546.084C137.392 545.627 137.292 545.262 137.136 544.989C136.847 544.481 136.364 544.227 135.689 544.227C135.204 544.227 134.798 544.403 134.47 544.754C134.142 545.102 133.968 545.545 133.948 546.084H137.435Z" fill="white"/>
<path d="M634.965 177.086H417.869V258.506H634.965V177.086Z" fill="white" stroke="black"/>
<path d="M469.7 208.654H473.573C474.338 208.654 474.955 208.871 475.424 209.305C475.893 209.734 476.127 210.34 476.127 211.121C476.127 211.793 475.918 212.379 475.5 212.879C475.082 213.375 474.44 213.623 473.573 213.623H470.866V217.262H469.7V208.654ZM474.95 211.127C474.95 210.494 474.715 210.064 474.246 209.838C473.989 209.717 473.635 209.656 473.186 209.656H470.866V212.639H473.186C473.709 212.639 474.133 212.527 474.457 212.305C474.786 212.082 474.95 211.689 474.95 211.127ZM477.452 208.625H478.506V211.836C478.756 211.52 478.981 211.297 479.18 211.168C479.52 210.945 479.944 210.834 480.452 210.834C481.362 210.834 481.979 211.152 482.303 211.789C482.479 212.137 482.567 212.619 482.567 213.236V217.262H481.483V213.307C481.483 212.846 481.424 212.508 481.307 212.293C481.116 211.949 480.756 211.777 480.229 211.777C479.791 211.777 479.395 211.928 479.039 212.229C478.684 212.529 478.506 213.098 478.506 213.934V217.262H477.452V208.625ZM486.621 216.582C487.321 216.582 487.799 216.318 488.057 215.791C488.319 215.26 488.45 214.67 488.45 214.021C488.45 213.436 488.356 212.959 488.168 212.592C487.871 212.014 487.36 211.725 486.633 211.725C485.989 211.725 485.52 211.971 485.227 212.463C484.934 212.955 484.787 213.549 484.787 214.244C484.787 214.912 484.934 215.469 485.227 215.914C485.52 216.359 485.985 216.582 486.621 216.582ZM486.662 210.805C487.471 210.805 488.155 211.074 488.713 211.613C489.272 212.152 489.551 212.945 489.551 213.992C489.551 215.004 489.305 215.84 488.813 216.5C488.321 217.16 487.557 217.49 486.522 217.49C485.659 217.49 484.973 217.199 484.465 216.617C483.957 216.031 483.703 215.246 483.703 214.262C483.703 213.207 483.971 212.367 484.506 211.742C485.041 211.117 485.76 210.805 486.662 210.805ZM493.424 210.846C493.87 210.846 494.301 210.951 494.719 211.162C495.137 211.369 495.455 211.639 495.674 211.971C495.885 212.287 496.026 212.656 496.096 213.078C496.159 213.367 496.19 213.828 496.19 214.461H491.59C491.61 215.098 491.76 215.609 492.041 215.996C492.323 216.379 492.758 216.57 493.348 216.57C493.899 216.57 494.338 216.389 494.666 216.025C494.854 215.814 494.987 215.57 495.065 215.293H496.102C496.075 215.523 495.983 215.781 495.827 216.066C495.674 216.348 495.502 216.578 495.311 216.758C494.991 217.07 494.594 217.281 494.121 217.391C493.868 217.453 493.58 217.484 493.26 217.484C492.479 217.484 491.817 217.201 491.274 216.635C490.731 216.064 490.459 215.268 490.459 214.244C490.459 213.236 490.733 212.418 491.28 211.789C491.827 211.16 492.541 210.846 493.424 210.846ZM495.106 213.623C495.063 213.166 494.963 212.801 494.807 212.527C494.518 212.02 494.036 211.766 493.36 211.766C492.875 211.766 492.469 211.941 492.141 212.293C491.813 212.641 491.639 213.084 491.62 213.623H495.106ZM497.491 210.986H498.493V211.877C498.789 211.51 499.104 211.246 499.436 211.086C499.768 210.926 500.137 210.846 500.543 210.846C501.434 210.846 502.036 211.156 502.348 211.777C502.52 212.117 502.606 212.604 502.606 213.236V217.262H501.534V213.307C501.534 212.924 501.477 212.615 501.364 212.381C501.176 211.99 500.836 211.795 500.344 211.795C500.094 211.795 499.889 211.82 499.729 211.871C499.44 211.957 499.186 212.129 498.967 212.387C498.791 212.594 498.676 212.809 498.621 213.031C498.571 213.25 498.545 213.564 498.545 213.975V217.262H497.491V210.986ZM504.17 211.016H505.243V217.262H504.17V211.016ZM504.17 208.654H505.243V209.85H504.17V208.654ZM506.245 210.986H507.61L509.051 213.195L510.51 210.986L511.793 211.016L509.678 214.045L511.887 217.262H510.539L508.981 214.906L507.469 217.262H506.133L508.342 214.045L506.245 210.986ZM516.61 208.42C517.7 208.42 518.545 208.707 519.147 209.281C519.748 209.855 520.082 210.508 520.149 211.238H519.012C518.883 210.684 518.625 210.244 518.239 209.92C517.856 209.596 517.317 209.434 516.621 209.434C515.774 209.434 515.088 209.732 514.565 210.33C514.045 210.924 513.786 211.836 513.786 213.066C513.786 214.074 514.02 214.893 514.489 215.521C514.961 216.146 515.664 216.459 516.598 216.459C517.457 216.459 518.112 216.129 518.561 215.469C518.799 215.121 518.977 214.664 519.094 214.098H520.231C520.129 215.004 519.793 215.764 519.223 216.377C518.539 217.115 517.618 217.484 516.457 217.484C515.457 217.484 514.618 217.182 513.938 216.576C513.043 215.775 512.596 214.539 512.596 212.867C512.596 211.598 512.932 210.557 513.604 209.744C514.33 208.861 515.332 208.42 516.61 208.42ZM521.514 210.986H522.557V211.877C522.807 211.568 523.034 211.344 523.237 211.203C523.584 210.965 523.979 210.846 524.42 210.846C524.92 210.846 525.323 210.969 525.627 211.215C525.799 211.355 525.955 211.562 526.096 211.836C526.33 211.5 526.606 211.252 526.922 211.092C527.239 210.928 527.594 210.846 527.989 210.846C528.832 210.846 529.407 211.15 529.711 211.76C529.875 212.088 529.957 212.529 529.957 213.084V217.262H528.862V212.902C528.862 212.484 528.756 212.197 528.545 212.041C528.338 211.885 528.084 211.807 527.784 211.807C527.37 211.807 527.012 211.945 526.711 212.223C526.414 212.5 526.266 212.963 526.266 213.611V217.262H525.194V213.166C525.194 212.74 525.143 212.43 525.041 212.234C524.881 211.941 524.582 211.795 524.145 211.795C523.746 211.795 523.383 211.949 523.055 212.258C522.731 212.566 522.569 213.125 522.569 213.934V217.262H521.514V210.986ZM532.137 215.293C532.168 215.645 532.256 215.914 532.401 216.102C532.666 216.441 533.127 216.611 533.784 216.611C534.174 216.611 534.518 216.527 534.815 216.359C535.112 216.188 535.26 215.924 535.26 215.568C535.26 215.299 535.141 215.094 534.903 214.953C534.75 214.867 534.45 214.768 534 214.654L533.162 214.443C532.627 214.311 532.233 214.162 531.979 213.998C531.526 213.713 531.299 213.318 531.299 212.814C531.299 212.221 531.512 211.74 531.938 211.373C532.368 211.006 532.944 210.822 533.666 210.822C534.612 210.822 535.293 211.1 535.711 211.654C535.973 212.006 536.1 212.385 536.092 212.791H535.096C535.077 212.553 534.993 212.336 534.844 212.141C534.602 211.863 534.182 211.725 533.584 211.725C533.186 211.725 532.883 211.801 532.676 211.953C532.473 212.105 532.371 212.307 532.371 212.557C532.371 212.83 532.506 213.049 532.776 213.213C532.932 213.311 533.162 213.396 533.467 213.471L534.164 213.641C534.922 213.824 535.43 214.002 535.688 214.174C536.098 214.443 536.303 214.867 536.303 215.445C536.303 216.004 536.09 216.486 535.664 216.893C535.243 217.299 534.598 217.502 533.731 217.502C532.797 217.502 532.135 217.291 531.745 216.869C531.358 216.443 531.151 215.918 531.123 215.293H532.137ZM541.102 208.654H544.975C545.741 208.654 546.358 208.871 546.827 209.305C547.295 209.734 547.53 210.34 547.53 211.121C547.53 211.793 547.321 212.379 546.903 212.879C546.485 213.375 545.842 213.623 544.975 213.623H542.268V217.262H541.102V208.654ZM546.352 211.127C546.352 210.494 546.118 210.064 545.649 209.838C545.391 209.717 545.037 209.656 544.588 209.656H542.268V212.639H544.588C545.112 212.639 545.536 212.527 545.86 212.305C546.188 212.082 546.352 211.689 546.352 211.127ZM549.909 210.986V215.152C549.909 215.473 549.959 215.734 550.061 215.938C550.248 216.312 550.598 216.5 551.11 216.5C551.844 216.5 552.344 216.172 552.61 215.516C552.754 215.164 552.827 214.682 552.827 214.068V210.986H553.881V217.262H552.885L552.897 216.336C552.76 216.574 552.59 216.775 552.387 216.939C551.985 217.268 551.496 217.432 550.922 217.432C550.028 217.432 549.418 217.133 549.094 216.535C548.918 216.215 548.83 215.787 548.83 215.252V210.986H549.909ZM555.452 208.625H556.477V211.748C556.707 211.447 556.983 211.219 557.303 211.062C557.623 210.902 557.971 210.822 558.346 210.822C559.127 210.822 559.76 211.092 560.245 211.631C560.733 212.166 560.977 212.957 560.977 214.004C560.977 214.996 560.737 215.82 560.256 216.477C559.776 217.133 559.11 217.461 558.258 217.461C557.782 217.461 557.379 217.346 557.051 217.115C556.856 216.979 556.647 216.76 556.424 216.459V217.262H555.452V208.625ZM558.194 216.529C558.764 216.529 559.19 216.303 559.471 215.85C559.756 215.396 559.899 214.799 559.899 214.057C559.899 213.396 559.756 212.85 559.471 212.416C559.19 211.982 558.774 211.766 558.223 211.766C557.743 211.766 557.321 211.943 556.957 212.299C556.598 212.654 556.418 213.24 556.418 214.057C556.418 214.646 556.493 215.125 556.641 215.492C556.918 216.184 557.436 216.529 558.194 216.529ZM563.116 214.484C563.143 214.973 563.258 215.369 563.461 215.674C563.848 216.244 564.53 216.529 565.506 216.529C565.944 216.529 566.342 216.467 566.702 216.342C567.397 216.1 567.745 215.666 567.745 215.041C567.745 214.572 567.598 214.238 567.305 214.039C567.008 213.844 566.543 213.674 565.911 213.529L564.745 213.266C563.983 213.094 563.444 212.904 563.127 212.697C562.58 212.338 562.307 211.801 562.307 211.086C562.307 210.312 562.575 209.678 563.11 209.182C563.645 208.686 564.403 208.438 565.383 208.438C566.286 208.438 567.051 208.656 567.68 209.094C568.313 209.527 568.629 210.223 568.629 211.18H567.534C567.475 210.719 567.35 210.365 567.159 210.119C566.803 209.67 566.2 209.445 565.348 209.445C564.661 209.445 564.166 209.59 563.866 209.879C563.565 210.168 563.414 210.504 563.414 210.887C563.414 211.309 563.59 211.617 563.942 211.812C564.172 211.938 564.694 212.094 565.506 212.281L566.713 212.557C567.295 212.689 567.745 212.871 568.061 213.102C568.608 213.504 568.881 214.088 568.881 214.854C568.881 215.807 568.534 216.488 567.838 216.898C567.147 217.309 566.342 217.514 565.424 217.514C564.354 217.514 563.516 217.24 562.911 216.693C562.305 216.15 562.008 215.414 562.02 214.484H563.116ZM571.272 210.986V215.152C571.272 215.473 571.323 215.734 571.424 215.938C571.612 216.312 571.961 216.5 572.473 216.5C573.207 216.5 573.707 216.172 573.973 215.516C574.118 215.164 574.19 214.682 574.19 214.068V210.986H575.245V217.262H574.248L574.26 216.336C574.123 216.574 573.953 216.775 573.75 216.939C573.348 217.268 572.86 217.432 572.286 217.432C571.391 217.432 570.782 217.133 570.457 216.535C570.282 216.215 570.194 215.787 570.194 215.252V210.986H571.272ZM576.815 208.625H577.84V211.748C578.071 211.447 578.346 211.219 578.666 211.062C578.987 210.902 579.334 210.822 579.709 210.822C580.491 210.822 581.123 211.092 581.608 211.631C582.096 212.166 582.34 212.957 582.34 214.004C582.34 214.996 582.1 215.82 581.62 216.477C581.139 217.133 580.473 217.461 579.621 217.461C579.145 217.461 578.743 217.346 578.414 217.115C578.219 216.979 578.01 216.76 577.787 216.459V217.262H576.815V208.625ZM579.557 216.529C580.127 216.529 580.553 216.303 580.834 215.85C581.12 215.396 581.262 214.799 581.262 214.057C581.262 213.396 581.12 212.85 580.834 212.416C580.553 211.982 580.137 211.766 579.586 211.766C579.106 211.766 578.684 211.943 578.321 212.299C577.961 212.654 577.782 213.24 577.782 214.057C577.782 214.646 577.856 215.125 578.004 215.492C578.282 216.184 578.799 216.529 579.557 216.529Z" fill="black"/>
<path d="M526.417 82.0977V168.443" stroke="black" stroke-miterlimit="10" stroke-dasharray="3 3"/>
<path d="M526.417 175.567L521.668 166.068L526.417 168.442L531.166 166.068L526.417 175.567Z" fill="black" stroke="black" stroke-miterlimit="10"/>
<path d="M503.47 127.61C503.499 127.932 503.579 128.179 503.712 128.351C503.955 128.663 504.378 128.818 504.979 128.818C505.337 128.818 505.653 128.741 505.925 128.587C506.197 128.43 506.333 128.188 506.333 127.862C506.333 127.615 506.224 127.427 506.005 127.298C505.866 127.22 505.59 127.128 505.178 127.024L504.41 126.831C503.919 126.709 503.558 126.573 503.325 126.423C502.91 126.161 502.702 125.8 502.702 125.338C502.702 124.794 502.897 124.353 503.287 124.017C503.681 123.68 504.209 123.512 504.872 123.512C505.738 123.512 506.363 123.766 506.746 124.274C506.986 124.597 507.103 124.944 507.096 125.316H506.182C506.165 125.098 506.088 124.899 505.952 124.72C505.73 124.466 505.345 124.339 504.797 124.339C504.432 124.339 504.154 124.409 503.964 124.548C503.778 124.688 503.685 124.872 503.685 125.102C503.685 125.352 503.808 125.553 504.056 125.703C504.199 125.793 504.41 125.871 504.689 125.939L505.328 126.095C506.023 126.264 506.489 126.426 506.725 126.584C507.101 126.831 507.289 127.22 507.289 127.75C507.289 128.262 507.094 128.704 506.703 129.076C506.317 129.449 505.726 129.635 504.931 129.635C504.075 129.635 503.468 129.441 503.11 129.055C502.756 128.664 502.566 128.183 502.541 127.61H503.47ZM509.362 123.662V127.481C509.362 127.775 509.409 128.014 509.502 128.201C509.674 128.544 509.994 128.716 510.463 128.716C511.136 128.716 511.595 128.416 511.838 127.814C511.971 127.492 512.037 127.049 512.037 126.487V123.662H513.004V129.415H512.091L512.101 128.566C511.976 128.784 511.82 128.969 511.634 129.119C511.265 129.42 510.818 129.57 510.291 129.57C509.471 129.57 508.913 129.296 508.616 128.749C508.454 128.455 508.374 128.063 508.374 127.572V123.662H509.362ZM514.443 121.498H515.383V124.36C515.594 124.085 515.847 123.875 516.14 123.732C516.434 123.585 516.753 123.512 517.097 123.512C517.813 123.512 518.393 123.759 518.837 124.253C519.284 124.743 519.508 125.469 519.508 126.428C519.508 127.338 519.288 128.093 518.848 128.695C518.407 129.296 517.797 129.597 517.016 129.597C516.579 129.597 516.21 129.492 515.91 129.28C515.73 129.155 515.539 128.954 515.335 128.679V129.415H514.443V121.498ZM516.957 128.743C517.48 128.743 517.87 128.535 518.128 128.12C518.389 127.705 518.52 127.157 518.52 126.477C518.52 125.871 518.389 125.37 518.128 124.973C517.87 124.575 517.489 124.376 516.984 124.376C516.543 124.376 516.157 124.539 515.824 124.865C515.494 125.191 515.329 125.728 515.329 126.477C515.329 127.017 515.397 127.456 515.534 127.792C515.788 128.426 516.262 128.743 516.957 128.743ZM521.216 127.61C521.245 127.932 521.325 128.179 521.458 128.351C521.701 128.663 522.124 128.818 522.725 128.818C523.084 128.818 523.399 128.741 523.671 128.587C523.943 128.43 524.079 128.188 524.079 127.862C524.079 127.615 523.97 127.427 523.751 127.298C523.612 127.22 523.336 127.128 522.924 127.024L522.156 126.831C521.666 126.709 521.304 126.573 521.071 126.423C520.656 126.161 520.448 125.8 520.448 125.338C520.448 124.794 520.643 124.353 521.034 124.017C521.427 123.68 521.956 123.512 522.618 123.512C523.485 123.512 524.109 123.766 524.493 124.274C524.732 124.597 524.849 124.944 524.842 125.316H523.929C523.911 125.098 523.834 124.899 523.698 124.72C523.476 124.466 523.091 124.339 522.543 124.339C522.178 124.339 521.9 124.409 521.71 124.548C521.524 124.688 521.431 124.872 521.431 125.102C521.431 125.352 521.555 125.553 521.802 125.703C521.945 125.793 522.156 125.871 522.435 125.939L523.075 126.095C523.769 126.264 524.235 126.426 524.471 126.584C524.847 126.831 525.035 127.22 525.035 127.75C525.035 128.262 524.84 128.704 524.45 129.076C524.063 129.449 523.472 129.635 522.677 129.635C521.821 129.635 521.214 129.441 520.856 129.055C520.502 128.664 520.312 128.183 520.287 127.61H521.216ZM528.36 123.496C529.008 123.496 529.534 123.653 529.939 123.968C530.347 124.283 530.592 124.826 530.675 125.596H529.735C529.677 125.241 529.547 124.948 529.343 124.715C529.139 124.479 528.811 124.36 528.36 124.36C527.744 124.36 527.303 124.661 527.038 125.263C526.867 125.653 526.781 126.135 526.781 126.708C526.781 127.284 526.902 127.769 527.146 128.163C527.389 128.557 527.772 128.754 528.295 128.754C528.696 128.754 529.013 128.632 529.246 128.389C529.482 128.142 529.645 127.805 529.735 127.379H530.675C530.567 128.142 530.299 128.7 529.869 129.055C529.439 129.406 528.89 129.581 528.22 129.581C527.468 129.581 526.868 129.307 526.421 128.759C525.973 128.208 525.749 127.52 525.749 126.697C525.749 125.687 525.995 124.901 526.485 124.339C526.976 123.777 527.601 123.496 528.36 123.496ZM531.668 123.662H532.587V124.656C532.662 124.462 532.846 124.228 533.14 123.952C533.434 123.673 533.772 123.533 534.155 123.533C534.173 123.533 534.203 123.535 534.246 123.539C534.289 123.542 534.363 123.549 534.467 123.56V124.581C534.409 124.57 534.356 124.563 534.306 124.559C534.259 124.556 534.207 124.554 534.15 124.554C533.663 124.554 533.289 124.711 533.027 125.026C532.766 125.338 532.635 125.698 532.635 126.106V129.415H531.668V123.662ZM535.305 123.689H536.287V129.415H535.305V123.689ZM535.305 121.524H536.287V122.62H535.305V121.524ZM537.679 121.498H538.619V124.36C538.83 124.085 539.082 123.875 539.376 123.732C539.669 123.585 539.988 123.512 540.332 123.512C541.048 123.512 541.628 123.759 542.072 124.253C542.52 124.743 542.744 125.469 542.744 126.428C542.744 127.338 542.523 128.093 542.083 128.695C541.642 129.296 541.032 129.597 540.251 129.597C539.814 129.597 539.446 129.492 539.145 129.28C538.966 129.155 538.774 128.954 538.57 128.679V129.415H537.679V121.498ZM540.192 128.743C540.715 128.743 541.105 128.535 541.363 128.12C541.625 127.705 541.755 127.157 541.755 126.477C541.755 125.871 541.625 125.37 541.363 124.973C541.105 124.575 540.724 124.376 540.219 124.376C539.779 124.376 539.392 124.539 539.059 124.865C538.73 125.191 538.565 125.728 538.565 126.477C538.565 127.017 538.633 127.456 538.769 127.792C539.023 128.426 539.498 128.743 540.192 128.743ZM546.272 123.533C546.681 123.533 547.076 123.63 547.459 123.823C547.842 124.013 548.134 124.26 548.335 124.564C548.528 124.854 548.657 125.193 548.722 125.58C548.779 125.845 548.807 126.267 548.807 126.847H544.591C544.609 127.431 544.747 127.9 545.005 128.254C545.263 128.605 545.662 128.781 546.202 128.781C546.707 128.781 547.11 128.614 547.411 128.281C547.583 128.088 547.705 127.864 547.776 127.61H548.727C548.702 127.821 548.618 128.057 548.474 128.319C548.335 128.577 548.177 128.788 548.002 128.953C547.708 129.239 547.345 129.432 546.911 129.533C546.679 129.59 546.416 129.619 546.122 129.619C545.406 129.619 544.799 129.359 544.301 128.84C543.803 128.317 543.555 127.587 543.555 126.648C543.555 125.725 543.805 124.974 544.307 124.398C544.808 123.821 545.463 123.533 546.272 123.533ZM547.814 126.079C547.774 125.66 547.683 125.325 547.54 125.075C547.275 124.609 546.833 124.376 546.213 124.376C545.769 124.376 545.397 124.538 545.096 124.86C544.795 125.179 544.636 125.585 544.618 126.079H547.814Z" fill="black"/>
<path d="M417.869 82.0977L235.645 173.219" stroke="black" stroke-miterlimit="10" stroke-dasharray="3 3"/>
<path d="M229.268 176.408L235.645 167.913V173.219L239.892 176.408H229.268Z" fill="black" stroke="black" stroke-miterlimit="10"/>
<path d="M309.871 122.787C309.885 122.386 309.955 122.092 310.08 121.906C310.306 121.576 310.741 121.412 311.386 121.412C311.446 121.412 311.509 121.413 311.574 121.417C311.638 121.421 311.711 121.426 311.794 121.433V122.314C311.694 122.307 311.62 122.303 311.574 122.303C311.531 122.3 311.489 122.298 311.45 122.298C311.156 122.298 310.981 122.375 310.924 122.529C310.866 122.679 310.838 123.066 310.838 123.689H311.794V124.452H310.827V129.415H309.871V124.452H309.071V123.689H309.871V122.787ZM315.086 123.533C315.494 123.533 315.89 123.63 316.273 123.823C316.656 124.013 316.948 124.26 317.149 124.564C317.342 124.854 317.471 125.193 317.535 125.58C317.593 125.845 317.621 126.267 317.621 126.847H313.405C313.423 127.431 313.561 127.9 313.819 128.254C314.076 128.605 314.476 128.781 315.016 128.781C315.521 128.781 315.924 128.614 316.225 128.281C316.397 128.088 316.519 127.864 316.59 127.61H317.541C317.516 127.821 317.432 128.057 317.288 128.319C317.149 128.577 316.991 128.788 316.816 128.953C316.522 129.239 316.159 129.432 315.725 129.533C315.493 129.59 315.229 129.619 314.936 129.619C314.22 129.619 313.613 129.359 313.115 128.84C312.617 128.317 312.368 127.587 312.368 126.648C312.368 125.725 312.619 124.974 313.12 124.398C313.622 123.821 314.277 123.533 315.086 123.533ZM316.628 126.079C316.588 125.66 316.497 125.325 316.354 125.075C316.089 124.609 315.647 124.376 315.027 124.376C314.583 124.376 314.211 124.538 313.91 124.86C313.609 125.179 313.45 125.585 313.432 126.079H316.628ZM319.007 122.056H319.985V123.662H320.903V124.452H319.985V128.206C319.985 128.407 320.053 128.541 320.189 128.609C320.264 128.648 320.389 128.668 320.565 128.668C320.611 128.668 320.661 128.668 320.715 128.668C320.769 128.664 320.832 128.659 320.903 128.652V129.415C320.792 129.447 320.676 129.47 320.554 129.484C320.436 129.499 320.307 129.506 320.167 129.506C319.716 129.506 319.41 129.391 319.249 129.162C319.088 128.929 319.007 128.629 319.007 128.26V124.452H318.228V123.662H319.007V122.056ZM324.094 123.496C324.742 123.496 325.268 123.653 325.673 123.968C326.081 124.283 326.326 124.826 326.409 125.596H325.469C325.411 125.241 325.281 124.948 325.076 124.715C324.872 124.479 324.545 124.36 324.094 124.36C323.478 124.36 323.037 124.661 322.772 125.263C322.6 125.653 322.514 126.135 322.514 126.708C322.514 127.284 322.636 127.769 322.88 128.163C323.123 128.557 323.506 128.754 324.029 128.754C324.43 128.754 324.747 128.632 324.98 128.389C325.216 128.142 325.379 127.805 325.469 127.379H326.409C326.301 128.142 326.033 128.7 325.603 129.055C325.173 129.406 324.624 129.581 323.954 129.581C323.202 129.581 322.602 129.307 322.155 128.759C321.707 128.208 321.483 127.52 321.483 126.697C321.483 125.687 321.728 124.901 322.219 124.339C322.71 123.777 323.334 123.496 324.094 123.496ZM327.375 121.498H328.342V124.441C328.571 124.151 328.777 123.947 328.96 123.829C329.271 123.625 329.66 123.522 330.125 123.522C330.96 123.522 331.525 123.814 331.823 124.398C331.984 124.717 332.064 125.159 332.064 125.725V129.415H331.071V125.789C331.071 125.367 331.017 125.057 330.909 124.86C330.734 124.545 330.405 124.387 329.921 124.387C329.52 124.387 329.157 124.525 328.831 124.801C328.505 125.076 328.342 125.597 328.342 126.364V129.415H327.375V121.498Z" fill="black"/>
<path d="M634.965 0.678467H417.869V82.0975H634.965V0.678467Z" fill="white" stroke="black"/>
<path d="M502.729 32.2461H503.895V39.8281H508.254V40.8535H502.729V32.2461ZM509.268 34.6074H510.34V40.8535H509.268V34.6074ZM509.268 32.2461H510.34V33.4414H509.268V32.2461ZM512.455 34.5781L514.131 39.6875L515.883 34.5781H517.037L514.67 40.8535H513.545L511.231 34.5781H512.455ZM520.553 34.4375C520.998 34.4375 521.43 34.543 521.848 34.7539C522.266 34.9609 522.584 35.2305 522.803 35.5625C523.014 35.8789 523.155 36.248 523.225 36.6699C523.287 36.959 523.319 37.4199 523.319 38.0527H518.719C518.739 38.6895 518.889 39.2012 519.17 39.5879C519.452 39.9707 519.887 40.1621 520.477 40.1621C521.028 40.1621 521.467 39.9805 521.795 39.6172C521.983 39.4062 522.116 39.1621 522.194 38.8848H523.231C523.203 39.1152 523.112 39.373 522.955 39.6582C522.803 39.9395 522.631 40.1699 522.44 40.3496C522.119 40.6621 521.723 40.873 521.25 40.9824C520.996 41.0449 520.709 41.0762 520.389 41.0762C519.608 41.0762 518.946 40.793 518.403 40.2266C517.86 39.6562 517.588 38.8594 517.588 37.8359C517.588 36.8281 517.862 36.0098 518.409 35.3809C518.955 34.752 519.67 34.4375 520.553 34.4375ZM522.235 37.2148C522.192 36.7578 522.092 36.3926 521.936 36.1191C521.647 35.6113 521.164 35.3574 520.489 35.3574C520.004 35.3574 519.598 35.5332 519.27 35.8848C518.942 36.2324 518.768 36.6758 518.748 37.2148H522.235ZM525.44 32.2461L527.912 39.5762L530.356 32.2461H531.662L528.522 40.8535H527.286L524.151 32.2461H525.44ZM532.412 34.6074H533.485V40.8535H532.412V34.6074ZM532.412 32.2461H533.485V33.4414H532.412V32.2461ZM537.698 34.4375C538.143 34.4375 538.575 34.543 538.993 34.7539C539.411 34.9609 539.729 35.2305 539.948 35.5625C540.159 35.8789 540.299 36.248 540.369 36.6699C540.432 36.959 540.463 37.4199 540.463 38.0527H535.864C535.883 38.6895 536.034 39.2012 536.315 39.5879C536.596 39.9707 537.032 40.1621 537.621 40.1621C538.172 40.1621 538.612 39.9805 538.94 39.6172C539.127 39.4062 539.26 39.1621 539.338 38.8848H540.375C540.348 39.1152 540.256 39.373 540.1 39.6582C539.948 39.9395 539.776 40.1699 539.584 40.3496C539.264 40.6621 538.868 40.873 538.395 40.9824C538.141 41.0449 537.854 41.0762 537.534 41.0762C536.752 41.0762 536.09 40.793 535.547 40.2266C535.004 39.6562 534.733 38.8594 534.733 37.8359C534.733 36.8281 535.006 36.0098 535.553 35.3809C536.1 34.752 536.815 34.4375 537.698 34.4375ZM539.379 37.2148C539.336 36.7578 539.237 36.3926 539.08 36.1191C538.791 35.6113 538.309 35.3574 537.633 35.3574C537.149 35.3574 536.743 35.5332 536.414 35.8848C536.086 36.2324 535.912 36.6758 535.893 37.2148H539.379ZM542.25 34.5781L543.457 39.5234L544.682 34.5781H545.866L547.096 39.4941L548.379 34.5781H549.434L547.612 40.8535H546.516L545.239 35.9961L544.002 40.8535H542.907L541.096 34.5781H542.25Z" fill="black"/>
<path d="M634.965 346.709H417.869V428.129H634.965V346.709Z" fill="white" stroke="black"/>
<path d="M515.092 378.277H521.367V379.332H516.229V381.945H520.981V382.941H516.229V385.859H521.455V386.885H515.092V378.277ZM529.248 378.277V379.303H526.348V386.885H525.164V379.303H522.264V378.277H529.248ZM531.082 384.107C531.11 384.596 531.225 384.992 531.428 385.297C531.815 385.867 532.496 386.152 533.473 386.152C533.91 386.152 534.309 386.09 534.668 385.965C535.364 385.723 535.711 385.289 535.711 384.664C535.711 384.195 535.565 383.861 535.272 383.662C534.975 383.467 534.51 383.297 533.877 383.152L532.711 382.889C531.95 382.717 531.41 382.527 531.094 382.32C530.547 381.961 530.274 381.424 530.274 380.709C530.274 379.936 530.541 379.301 531.076 378.805C531.612 378.309 532.369 378.061 533.35 378.061C534.252 378.061 535.018 378.279 535.647 378.717C536.28 379.15 536.596 379.846 536.596 380.803H535.5C535.442 380.342 535.317 379.988 535.125 379.742C534.77 379.293 534.166 379.068 533.315 379.068C532.627 379.068 532.133 379.213 531.832 379.502C531.532 379.791 531.381 380.127 531.381 380.51C531.381 380.932 531.557 381.24 531.909 381.436C532.139 381.561 532.66 381.717 533.473 381.904L534.68 382.18C535.262 382.312 535.711 382.494 536.028 382.725C536.575 383.127 536.848 383.711 536.848 384.477C536.848 385.43 536.5 386.111 535.805 386.521C535.114 386.932 534.309 387.137 533.391 387.137C532.321 387.137 531.483 386.863 530.877 386.316C530.272 385.773 529.975 385.037 529.987 384.107H531.082Z" fill="black"/>
</svg>
