<svg width="282" height="253" viewBox="0 0 282 253" fill="none" xmlns="http://www.w3.org/2000/svg">
<path d="M65.9752 204.33C51.2152 204.33 36.4552 201.078 25.1886 194.577C2.66855 181.574 2.66855 160.49 25.1886 147.486C34.6552 142.017 46.6151 138.848 58.9485 137.98C61.4285 140.18 64.3084 141.877 67.4018 142.992L67.3619 150.069C67.6552 152.101 69.3217 153.654 71.3751 153.805L73.5484 153.965C73.6684 153.973 73.7751 153.977 73.8817 153.977C76.3617 153.977 78.3751 151.904 78.2551 149.388L78.8686 144.404C80.5752 144.23 82.2685 143.886 83.9485 143.364L89.5219 141.473L89.4952 141.53L90.9752 141.016C94.3618 141.958 97.6284 143.101 100.708 144.449C99.2551 147.238 98.9752 150.5 99.8419 153.474C98.3619 158.534 100.242 164.404 105.415 167.366L122.642 177.226C120.575 183.584 115.268 189.658 106.748 194.577C95.4951 201.078 80.7352 204.33 65.9752 204.33Z" fill="#B1B9E6" fill-opacity="0.41"/>
<path d="M62.5218 36.8087L62.575 36.8433L62.6017 36.61L62.5218 36.8087Z" fill="#8A4255"/>
<path d="M87.6418 150.378C84.9618 148.273 78.8417 151.941 75.895 152.595C73.9884 153.019 67.0684 153.413 67.6017 156.707C67.3751 157.519 67.2817 158.406 67.2551 159.231C67.2151 160.303 67.2417 161.443 67.5617 162.447C68.7084 163.674 70.0818 164.459 71.6284 164.887C71.8151 164.867 72.0018 164.862 72.1751 164.822C73.4951 164.533 74.6685 163.817 75.8151 163.114C79.4418 160.89 84.8817 158.938 87.6017 155.577C88.8284 154.077 89.1618 151.571 87.6418 150.378" fill="black"/>
<path d="M72.055 158.838L72.3485 158.842C74.3218 158.866 75.9485 157.283 75.9751 155.306L76.0417 149.265C76.0684 147.289 74.4818 145.666 72.5085 145.642L72.215 145.639C70.2417 145.615 68.6151 147.198 68.5884 149.175L68.5218 155.215C68.4952 157.193 70.0817 158.814 72.055 158.838" fill="#E1ECF9"/>
<path d="M67.5218 118.254L67.3618 150.069C67.6552 152.101 69.3217 153.654 71.375 153.805L73.5484 153.965C76.175 154.158 78.3751 152.014 78.2551 149.387L82.1485 118.254H67.5218" fill="#472520"/>
<path d="M49.8418 117.398L82.0285 99.2207L101.908 110.351C106.682 113.023 107.028 119.762 102.562 122.909L69.8551 145.901L49.8418 117.398" fill="#2B3996"/>
<path d="M114.028 164.436C111.122 162.154 104.482 166.128 101.295 166.838C99.2417 167.297 91.7217 167.724 92.3084 171.293C92.0684 172.174 91.9617 173.134 91.935 174.029C91.895 175.189 91.9217 176.426 92.2683 177.512C93.5083 178.842 95.0017 179.693 96.6684 180.157C96.8684 180.136 97.0683 180.129 97.2683 180.088C98.695 179.773 99.9616 178.997 101.215 178.234C105.148 175.825 111.028 173.71 113.988 170.068C115.308 168.444 115.668 165.729 114.028 164.436" fill="black"/>
<path d="M97.135 173.602L97.455 173.606C99.6017 173.631 101.348 171.917 101.375 169.774L101.455 163.23C101.482 161.087 99.775 159.33 97.6283 159.303L97.3084 159.299C95.175 159.274 93.4149 160.989 93.3883 163.131L93.3084 169.677C93.2817 171.818 94.9883 173.577 97.135 173.602Z" fill="#E1ECF9"/>
<path d="M92.935 113.27L92.0549 164.099C92.3749 166.302 94.1749 167.985 96.4016 168.147L98.7616 168.322C101.602 168.531 103.988 166.207 103.855 163.361L107.228 113.763C107.455 110.273 103.815 107.842 100.682 109.405L92.935 113.27" fill="#2B3996"/>
<path d="M279.708 151.705V104.985L229.015 118.178L181.042 90.5674C166.348 100.391 161.442 107.711 145.975 116.397C138.162 120.779 130.802 125.522 124.482 131.047C121.348 133.786 106.615 136.946 104.228 140.101C103.815 140.658 103.082 141.759 102.615 142.547C102.508 142.729 101.775 144.161 101.722 144.149C101.548 144.606 101.402 145.075 101.295 145.554C101.322 145.649 101.282 146.483 101.308 146.914C101.375 147.789 101.268 148.641 101.028 149.446L101.895 149.934L101.775 212.471C101.842 216.142 103.775 219.411 106.962 221.234L126.668 232.517C131.228 235.125 136.348 236.633 141.575 236.903C142.162 236.938 142.762 236.955 143.348 236.955H143.362C149.202 236.955 154.988 235.421 160.055 232.509L273.348 167.601C276.015 166.074 278.002 163.798 279.162 161.121L279.708 160.861V159.587C280.068 158.341 280.282 157.014 280.282 155.654C280.282 154.286 280.082 152.959 279.708 151.705" fill="#CCE1F5"/>
<path d="M280.282 155.654C280.282 157.014 280.068 158.341 279.708 159.587V160.861L279.162 161.121C278.002 163.798 276.015 166.074 273.348 167.601L160.055 232.509C154.988 235.421 149.202 236.955 143.362 236.955H143.348C142.762 236.955 142.162 236.938 141.575 236.903V67.858L229.015 118.178L279.708 104.985V151.705C280.082 152.959 280.282 154.286 280.282 155.654Z" fill="#AFC3E9"/>
<path d="M100.015 160.861V146.099L149.962 137.658L145.055 162.73L141.575 166.964L100.015 160.861" fill="#F3F9FD"/>
<path d="M55.3218 70.67L123.242 108.977C133.228 114.609 133.535 128.873 123.815 134.939L105.028 146.661C97.2818 151.49 97.495 162.833 105.415 167.366L125.122 178.647C136.002 184.877 149.375 184.874 160.255 178.641L273.548 113.729C283.935 107.773 283.948 92.7847 273.575 86.8087L140.548 10.2553C134.348 6.68867 126.722 6.68867 120.522 10.2553L55.2284 47.8353C46.4017 52.914 46.4551 65.6673 55.3218 70.67" fill="#D9ECF9"/>
<path d="M55.3218 63.8315L123.242 102.139C133.228 107.77 133.535 122.034 123.815 128.102L105.028 139.822C97.2818 144.651 97.495 155.995 105.415 160.529L125.122 171.809C136.002 178.038 149.375 178.035 160.255 171.803L273.548 106.891C283.935 100.934 283.948 85.9475 273.575 79.9701L140.548 3.4168C134.348 -0.149867 126.722 -0.149867 120.522 3.4168L55.2284 40.9968C46.4017 46.0768 46.4551 58.8301 55.3218 63.8315" fill="#F0F8FD"/>
<path d="M52.7751 129.814C58.3884 141.426 71.6418 147.189 83.9484 143.363L89.5218 141.473L89.4951 141.53L97.3085 138.827C97.3085 138.827 100.788 137.667 100.842 134.605L100.869 134.582C100.882 132.935 99.8952 130.733 96.8685 127.873V127.871C94.2285 125.366 90.0151 122.358 83.4951 118.754L79.0684 116.243C72.4684 112.502 64.6418 111.563 57.3485 113.638L46.3618 116.763C47.0818 118.11 47.7884 119.466 48.4551 120.846L52.7751 129.814Z" fill="#2B3996"/>
<path d="M69.4017 36.394L69.4551 36.4327L69.4818 36.178L69.4017 36.394Z" fill="#8A4255"/>
<path d="M61.0152 40.4514L59.0417 54.418C58.7617 56.35 61.0418 57.918 64.1085 57.918C67.1885 57.918 69.9085 56.35 70.1885 54.418H70.2284L72.2151 40.4514H61.0152" fill="#F9AD94"/>
<path d="M158.568 43.7202L127.702 26.0402C127.155 25.7229 126.435 25.5709 125.808 25.7149C124.928 25.9162 124.115 26.1909 124.115 26.9576L115.355 55.6442L118.062 57.2482C117.182 57.6802 90.0884 70.8669 90.035 70.9003L89.9685 72.0069C89.9685 72.4842 90.2218 72.9242 90.6351 73.1629C95.2485 75.8349 122.262 91.4509 122.262 91.4509C123.155 91.9642 124.248 91.9642 125.142 91.4509L150.822 76.6096C151.088 76.4562 151.248 76.1696 151.248 75.8602L160.008 46.2042C160.008 45.1775 159.462 44.2309 158.568 43.7202Z" fill="#ABD1F0"/>
<path d="M150.382 75.7629L115.328 55.7589L123.968 27.1336C123.968 26.3069 124.862 25.7882 125.582 26.1989L157.915 44.7202C158.608 45.1242 159.048 45.8722 159.048 46.6829L150.382 75.7629" fill="#472520"/>
<path d="M118.595 53.2709L126.368 29.5256L155.608 45.9055L148.835 69.6882L118.595 53.2709Z" fill="#8EABDF"/>
<path d="M123.201 55.7742C123.031 55.6821 122.946 55.6361 122.894 55.5675C122.85 55.5096 122.823 55.4408 122.815 55.3685C122.806 55.2829 122.836 55.1912 122.896 55.0078L128.083 39.1632C128.167 38.9054 128.209 38.7764 128.293 38.704C128.363 38.6431 128.451 38.6084 128.544 38.6059C128.654 38.6028 128.773 38.6691 129.009 38.8018L148.938 49.9655C149.098 50.0553 149.178 50.1002 149.229 50.166C149.271 50.2216 149.298 50.2873 149.307 50.3567C149.318 50.4387 149.293 50.5271 149.243 50.7038L144.725 66.567C144.649 66.8342 144.611 66.9677 144.528 67.0438C144.459 67.1078 144.37 67.1453 144.276 67.1499C144.164 67.1554 144.042 67.0891 143.798 66.9566L123.201 55.7742Z" fill="#413A51"/>
<path d="M150.368 75.7615L115.315 55.5508L90.5417 69.8748C89.8217 70.2881 89.8217 71.3215 90.5417 71.7348L122.795 90.3788C123.502 90.7854 124.368 90.7854 125.075 90.3788L150.368 75.7615" fill="#CCE1F5"/>
<path d="M136.755 73.171C137.715 73.7163 138.182 73.9896 139.142 74.5363C140.102 73.9923 140.582 73.7203 141.542 73.1776C140.595 72.6309 140.115 72.3576 139.168 71.811C138.208 72.355 137.715 72.627 136.755 73.171Z" fill="#F3F9FD"/>
<path d="M133.248 71.1549C134.195 71.7016 134.675 71.9735 135.622 72.5202C136.595 71.9762 137.075 71.7056 138.035 71.1616C137.075 70.6149 136.608 70.3415 135.648 69.7949C134.688 70.3389 134.208 70.6109 133.248 71.1549Z" fill="#F3F9FD"/>
<path d="M129.742 69.1389C130.688 69.6856 131.168 69.9577 132.115 70.5043C133.075 69.9603 133.555 69.6896 134.515 69.1456C133.568 68.5989 133.088 68.3256 132.142 67.7803C131.182 68.323 130.702 68.5963 129.742 69.1389Z" fill="#F3F9FD"/>
<path d="M126.235 67.1242C127.182 67.6695 127.662 67.9429 128.608 68.4882C129.568 67.9456 130.048 67.6736 131.008 67.1296C130.062 66.5829 129.582 66.3108 128.635 65.7642C127.675 66.3082 127.195 66.5789 126.235 67.1242Z" fill="#F3F9FD"/>
<path d="M122.715 65.1069C123.675 65.6535 124.142 65.9269 125.102 66.4736C126.062 65.9296 126.542 65.6575 127.502 65.1135C126.555 64.5682 126.075 64.2949 125.128 63.7482C124.155 64.2922 123.675 64.5642 122.715 65.1069Z" fill="#F3F9FD"/>
<path d="M119.208 63.0921C120.155 63.6375 120.635 63.9108 121.582 64.4575C122.542 63.9135 123.035 63.6414 123.995 63.0974C123.035 62.5521 122.568 62.2788 121.608 61.7335C120.648 62.2762 120.168 62.5481 119.208 63.0921Z" fill="#F3F9FD"/>
<path d="M115.702 61.0763C117.288 61.9923 118.088 62.451 119.688 63.3657C120.648 62.8217 121.128 62.5509 122.088 62.0069C120.488 61.0909 119.702 60.6336 118.102 59.7176C117.142 60.2616 116.662 60.5336 115.702 61.0763Z" fill="#F3F9FD"/>
<path d="M133.382 75.0777C134.342 75.6243 134.808 75.8976 135.768 76.4443C136.728 75.9003 137.208 75.6283 138.168 75.0843C137.222 74.539 136.742 74.2643 135.795 73.7189C134.822 74.2629 134.342 74.535 133.382 75.0777Z" fill="#F3F9FD"/>
<path d="M129.875 73.0628C130.822 73.6081 131.302 73.8815 132.248 74.4282C133.208 73.8842 133.702 73.6121 134.662 73.0681C133.702 72.5228 133.235 72.2495 132.275 71.7028C131.315 72.2468 130.835 72.5188 129.875 73.0628Z" fill="#F3F9FD"/>
<path d="M126.368 71.047C127.315 71.5936 127.795 71.8656 128.742 72.4123C129.702 71.8683 130.182 71.5963 131.142 71.0536C130.195 70.507 129.715 70.2336 128.768 69.687C127.808 70.231 127.328 70.503 126.368 71.047Z" fill="#F3F9FD"/>
<path d="M122.848 69.0309C123.808 69.5775 124.275 69.8495 125.235 70.3962C126.195 69.8522 126.675 69.5815 127.635 69.0375C126.688 68.4909 126.208 68.2176 125.262 67.6722C124.302 68.2149 123.822 68.4869 122.848 69.0309Z" fill="#F3F9FD"/>
<path d="M119.342 67.015C120.302 67.5617 120.768 67.835 121.728 68.3803C122.688 67.8376 123.168 67.5656 124.128 67.0216C123.168 66.4749 122.702 66.2029 121.742 65.6563C120.782 66.2003 120.302 66.471 119.342 67.015Z" fill="#F3F9FD"/>
<path d="M115.835 65.0003C116.782 65.5456 117.262 65.819 118.208 66.3657C119.168 65.8217 119.648 65.5496 120.622 65.0056C119.662 64.459 119.195 64.187 118.235 63.6403C117.275 64.1843 116.795 64.4563 115.835 65.0003Z" fill="#F3F9FD"/>
<path d="M112.328 62.9842C113.275 63.5309 113.755 63.8029 114.702 64.3495C115.662 63.8055 116.142 63.5349 117.102 62.9909C116.155 62.4442 115.675 62.1709 114.728 61.6242C113.768 62.1682 113.288 62.4402 112.328 62.9842Z" fill="#F3F9FD"/>
<path d="M130.008 76.9855C130.955 77.5321 131.435 77.8054 132.382 78.3508C133.355 77.8081 133.835 77.5361 134.795 76.9921C133.835 76.4455 133.368 76.1734 132.408 75.6254C131.448 76.1694 130.968 76.4415 130.008 76.9855Z" fill="#F3F9FD"/>
<path d="M126.502 74.9695C127.448 75.5162 127.928 75.7895 128.875 76.3361C129.835 75.7921 130.315 75.5201 131.288 74.9761C130.328 74.4294 129.862 74.1561 128.902 73.6108C127.942 74.1534 127.462 74.4268 126.502 74.9695Z" fill="#F3F9FD"/>
<path d="M122.995 72.9548C123.942 73.5001 124.422 73.7735 125.368 74.3188C126.328 73.7761 126.808 73.5041 127.768 72.9601C126.822 72.4148 126.342 72.1415 125.395 71.5948C124.435 72.1388 123.955 72.4108 122.995 72.9548Z" fill="#F3F9FD"/>
<path d="M119.475 70.9388C120.435 71.4855 120.902 71.7575 121.862 72.3041C122.822 71.7601 123.302 71.4882 124.262 70.9455C123.315 70.3988 122.835 70.1255 121.888 69.5788C120.928 70.1228 120.435 70.3948 119.475 70.9388Z" fill="#F3F9FD"/>
<path d="M115.968 68.923C116.915 69.4696 117.395 69.7416 118.342 70.2883C119.315 69.7443 119.795 69.4736 120.755 68.9296C119.795 68.383 119.328 68.1096 118.368 67.5643C117.408 68.107 116.928 68.379 115.968 68.923Z" fill="#F3F9FD"/>
<path d="M110.942 66.0362C112.502 66.9308 113.275 67.3775 114.835 68.2722C115.795 67.7295 116.275 67.4574 117.248 66.9134C115.688 66.0188 114.902 65.5708 113.342 64.6774C112.382 65.2214 111.902 65.4922 110.942 66.0362Z" fill="#F3F9FD"/>
<path d="M108.955 64.8922C109.902 65.4375 110.382 65.7108 111.328 66.2575C112.288 65.7135 112.768 65.4415 113.728 64.8989C112.782 64.3522 112.302 64.0789 111.355 63.5322C110.395 64.0762 109.915 64.3482 108.955 64.8922Z" fill="#F3F9FD"/>
<path d="M112.128 71.095C113.075 71.6403 113.555 71.9136 114.502 72.4589C115.462 71.9163 115.955 71.6443 116.915 71.1003C115.955 70.5549 115.488 70.2816 114.528 69.735C113.568 70.279 113.088 70.551 112.128 71.095Z" fill="#F3F9FD"/>
<path d="M108.622 69.079C109.568 69.6243 110.048 69.8976 110.995 70.4443C111.955 69.9003 112.435 69.6283 113.395 69.0856C112.448 68.539 111.968 68.2656 111.022 67.7189C110.062 68.2629 109.582 68.535 108.622 69.079Z" fill="#F3F9FD"/>
<path d="M105.102 67.0628C106.062 67.6094 106.542 67.8815 107.488 68.4282C108.448 67.8855 108.928 67.6134 109.888 67.0694C108.942 66.5228 108.462 66.2508 107.515 65.7041C106.555 66.2481 106.075 66.5188 105.102 67.0628Z" fill="#F3F9FD"/>
<path d="M131.195 79.3028C126.808 76.7855 122.422 74.2682 118.048 71.7508C117.075 72.2935 116.595 72.5668 115.635 73.1095C120.075 75.6561 124.502 78.2028 128.942 80.7495L131.195 79.3028" fill="#F3F9FD"/>
<path d="M121.408 79.2561L110.075 72.7108C109.875 72.5908 109.608 72.5948 109.408 72.7214L103.208 76.5361C103.062 76.6321 103.062 76.8601 103.222 76.9508L114.555 83.4975C114.755 83.6188 115.022 83.6148 115.222 83.4881L121.422 79.6708C121.568 79.5735 121.568 79.3468 121.408 79.2561Z" fill="#F3F9FD"/>
<rect width="18.7589" height="0.37032" transform="matrix(-0.833197 -0.552976 0.345193 -0.938532 143.339 56.5455)" fill="#69F398"/>
<rect width="10.8936" height="0.324818" transform="matrix(-0.833197 -0.552976 0.345193 -0.938532 136.376 53.1843)" fill="#69F398"/>
<rect width="10.8936" height="0.324818" transform="matrix(-0.833197 -0.552976 0.345193 -0.938532 135.227 56.5495)" fill="#69F398"/>
<rect width="6.13557" height="0.277293" transform="matrix(-0.833197 -0.552976 0.345193 -0.938532 131.775 52.3521)" fill="#69F398"/>
<path d="M94.1618 75.4954C91.8018 77.2581 79.7219 86.1687 74.2019 88.6554C71.1352 90.0434 67.8418 90.7394 64.6285 90.7234C62.2285 90.7114 59.8818 90.3087 57.6818 89.4914C53.5352 87.9674 50.4684 85.1727 48.9351 81.6381C48.5751 80.8101 48.3085 79.9394 48.1218 79.0328L43.6685 57.0647C43.1218 54.4194 45.2952 51.6648 48.4952 50.9181C51.6952 50.1728 54.7351 51.7128 55.2684 54.3661L59.7217 76.3341L59.7351 76.3767C60.0951 78.1527 61.4152 79.5781 63.3352 80.2861C65.2685 81.0008 67.5484 80.8834 69.5884 79.9674C72.6284 78.5941 81.5885 72.3328 86.9751 68.3208C89.5485 66.4088 93.2284 66.4701 95.215 68.4541C97.215 70.4301 96.7352 73.5914 94.1618 75.4954" fill="#F9AD94"/>
<path d="M83.375 118.945C83.455 121.866 81.6551 124.517 78.8951 125.493C77.2551 126.077 74.5217 127.01 72.375 127.516C71.7484 127.664 71.1618 127.769 70.6685 127.821C64.4285 128.449 58.1218 127.07 52.6685 123.714L40.8151 116.809C39.2151 115.874 38.2685 114.157 38.3085 112.317L39.5484 63.0955C39.5484 58.0035 42.2685 53.3129 46.6551 50.7489C48.0685 49.9289 50.0152 49.5808 52.2019 49.5808C53.1885 49.5808 54.2151 49.6502 55.2951 49.7889C60.7351 50.4435 66.8017 52.7022 69.9217 54.8822C72.9884 56.8262 76.8017 58.0902 79.2551 60.5142C80.7351 61.9529 81.7218 63.8102 81.8018 66.4702C81.8551 68.2049 83.375 118.945 83.375 118.945Z" fill="#E1ECF9"/>
<path d="M83.375 118.941C83.375 118.939 83.3752 118.938 83.3618 118.935C83.3752 118.938 83.375 118.939 83.375 118.941ZM83.3618 118.918C83.3618 118.918 83.3618 118.917 83.3618 118.915C83.3618 118.917 83.3618 118.918 83.3618 118.918ZM83.3618 118.913C83.3618 118.911 83.3618 118.91 83.3618 118.909C83.3618 118.91 83.3618 118.911 83.3618 118.913ZM83.3618 118.905C83.3618 118.899 83.3618 118.894 83.3618 118.887C83.3618 118.894 83.3618 118.901 83.3618 118.905ZM83.3618 118.883C83.3618 118.877 83.3618 118.87 83.3618 118.863C83.3618 118.87 83.3618 118.877 83.3618 118.883ZM83.3618 118.857C83.3618 118.855 83.3618 118.854 83.3618 118.853C83.3618 118.854 83.3618 118.855 83.3618 118.857ZM83.3618 118.846C83.3618 118.842 83.3618 118.838 83.3618 118.834C83.3618 118.838 83.3618 118.842 83.3618 118.846ZM83.3618 118.831C83.3618 118.822 83.3618 118.813 83.3618 118.802C83.3618 118.813 83.3618 118.822 83.3618 118.831Z" fill="#876586"/>
<path d="M82.7884 99.6461C82.6551 95.1741 82.5084 90.4101 82.375 85.9301C82.5217 90.4114 82.6551 95.1727 82.7884 99.6461Z" fill="#CFDFF4"/>
<path d="M83.3618 118.677C83.3085 117.126 83.0684 109.025 82.7884 99.6461C83.0684 109.023 83.3085 117.126 83.3618 118.677Z" fill="#876586"/>
<path d="M82.375 85.93C82.3617 85.2327 82.3351 84.546 82.3218 83.8646C82.3351 84.5446 82.3617 85.2327 82.375 85.93Z" fill="#C1D7F1"/>
<path d="M82.3218 83.8648C82.2018 79.8021 82.0818 76.0581 82.0018 73.0888C82.0818 76.0568 82.2018 79.8021 82.3218 83.8648Z" fill="#D3ADB1"/>
<path d="M72.3751 127.516C71.7217 123.584 71.2952 119.615 71.6685 115.666C72.1352 110.609 73.9084 105.542 72.9084 100.556C72.0151 96.0728 68.9085 91.8008 69.9351 87.3355C70.3618 85.4608 71.4952 83.8301 72.1752 82.0341C73.2952 79.0781 73.1485 75.8262 73.1619 72.6688C73.1752 70.9928 73.2551 69.2688 73.5885 67.6248C73.7085 67.5528 73.8284 67.4502 73.9084 67.2728C74.7618 65.3662 76.0551 64.6048 77.4418 64.6048C78.9751 64.6048 80.6019 65.5422 81.8152 66.8875C81.8419 67.8008 81.9085 70.0342 82.0019 73.0888C82.0819 76.0582 82.2019 79.8022 82.3219 83.8648C82.3352 84.5462 82.3617 85.2328 82.3751 85.9302C82.5084 90.4102 82.6552 95.1742 82.7885 99.6462C83.0685 109.025 83.3086 117.126 83.3619 118.677C83.3619 118.721 83.3619 118.76 83.3619 118.792C83.3619 118.796 83.3619 118.799 83.3619 118.802C83.3619 118.813 83.3619 118.822 83.3619 118.832C83.3619 118.832 83.3619 118.833 83.3619 118.834C83.3619 118.838 83.3619 118.842 83.3619 118.846C83.3619 118.849 83.3619 118.851 83.3619 118.853C83.3619 118.854 83.3619 118.855 83.3619 118.857C83.3619 118.858 83.3619 118.861 83.3619 118.863C83.3619 118.87 83.3619 118.877 83.3619 118.884C83.3619 118.885 83.3619 118.886 83.3619 118.887C83.3619 118.894 83.3619 118.899 83.3619 118.905C83.3619 118.906 83.3619 118.907 83.3619 118.909C83.3619 118.91 83.3619 118.912 83.3619 118.913C83.3619 118.914 83.3619 118.915 83.3619 118.915C83.3619 118.917 83.3619 118.918 83.3619 118.918C83.3619 118.926 83.3619 118.932 83.3619 118.936C83.3752 118.938 83.3751 118.94 83.3751 118.941C83.3751 118.944 83.3751 118.945 83.3751 118.945C83.3751 119.013 83.3751 119.081 83.3751 119.149C83.3751 121.989 81.5884 124.54 78.8951 125.493C77.2551 126.077 74.5217 127.01 72.3751 127.516" fill="#C5D7F1"/>
<path d="M55.9619 41.1034C53.4552 36.5901 52.9752 31.3634 57.6419 27.3567C61.3886 24.1434 72.3352 19.7714 76.6152 23.5368C81.2152 27.5741 80.6286 42.4714 77.3086 47.3274C74.3886 51.6141 68.8285 52.0687 64.6285 49.8061C61.5619 48.1541 58.0552 44.8781 55.9619 41.1034Z" fill="#F9AD94"/>
<path d="M50.7845 33.7549C50.9445 31.5549 51.4163 24.7308 52.6963 23.4521C53.6563 22.7428 55.6262 20.1382 56.6262 19.5222C59.9196 17.9475 61.5906 18.0261 65.5106 17.7114C68.2039 18.2688 68.0682 19.3113 70.9482 19.09C72.5615 18.9647 75.2288 22.2378 76.7354 21.7298C78.2421 22.9445 80.3483 23.4138 80.0683 25.3591C79.3483 30.3485 76.0157 23.7707 72.7757 26.2987C72.7757 26.756 72.9617 31.3194 72.735 31.7181C72.5217 35.9914 70.935 40.1954 68.215 43.5048C69.2417 42.3768 67.575 44.4808 68.215 43.5048C57.3217 55.4781 50.3445 39.9309 50.7845 33.7549Z" fill="#241210"/>
<path d="M66.1885 40.1715C66.7751 42.3061 68.5083 43.6794 70.055 43.2381C71.615 42.7968 72.4018 40.7075 71.8151 38.5728C71.2284 36.4368 69.4951 35.0648 67.9484 35.5061C66.3884 35.9474 65.6018 38.0368 66.1885 40.1715Z" fill="#F9AD94"/>
<path d="M20.5352 185.485C20.5352 183.557 21.8817 181.211 23.5617 180.247C25.2284 179.282 26.5751 180.065 26.5751 181.993C26.5751 183.922 25.2284 186.268 23.5617 187.232C21.8817 188.196 20.5352 187.414 20.5352 185.485Z" fill="#8A4255"/>
<path d="M20.5352 185.485C20.5352 183.557 21.8817 181.211 23.5617 180.247C25.2284 179.282 26.5751 180.065 26.5751 181.993C26.5751 183.922 25.2284 186.268 23.5617 187.232C21.8817 188.196 20.5352 187.414 20.5352 185.485Z" fill="#7C3AED"/>
<path d="M25.7751 180.093L28.3884 181.45L24.2951 188.907L21.2418 187.319L22.0152 183.121L25.7751 180.093Z" fill="#7C3AED"/>
<path d="M23.1085 186.818C23.1085 184.89 24.4551 182.545 26.1218 181.581C27.8018 180.617 29.1485 181.398 29.1485 183.326C29.1485 185.255 27.8018 187.601 26.1218 188.565C24.4551 189.53 23.1085 188.747 23.1085 186.818Z" fill="#F46C4C"/>
<path d="M23.1085 186.818C23.1085 184.89 24.4551 182.545 26.1218 181.581C27.8018 180.617 29.1485 181.398 29.1485 183.326C29.1485 185.255 27.8018 187.601 26.1218 188.565C24.4551 189.53 23.1085 188.747 23.1085 186.818Z" fill="#A67BF0"/>
<path d="M56.9084 165.158C56.9084 163.229 58.2551 160.883 59.9217 159.919C61.6017 158.954 62.9484 159.737 62.9484 161.666C62.9484 163.594 61.6017 165.939 59.9217 166.903C58.2551 167.869 56.9084 167.088 56.9084 165.158Z" fill="#8A4255"/>
<path d="M56.9084 165.158C56.9084 163.229 58.2551 160.883 59.9217 159.919C61.6017 158.954 62.9484 159.737 62.9484 161.666C62.9484 163.594 61.6017 165.939 59.9217 166.903C58.2551 167.869 56.9084 167.088 56.9084 165.158Z" fill="#7C3AED"/>
<path d="M62.1485 159.765L64.7484 161.122L60.6685 168.581L57.6151 166.993L58.3884 162.793L62.1485 159.765Z" fill="#7C3AED"/>
<path d="M59.4685 166.491C59.4685 164.563 60.8285 162.217 62.4952 161.253C64.1752 160.289 65.5219 161.07 65.5219 162.999C65.5219 164.927 64.1752 167.273 62.4952 168.238C60.8285 169.202 59.4685 168.421 59.4685 166.491Z" fill="#F46C4C"/>
<path d="M59.4685 166.491C59.4685 164.563 60.8285 162.217 62.4952 161.253C64.1752 160.289 65.5219 161.07 65.5219 162.999C65.5219 164.927 64.1752 167.273 62.4952 168.238C60.8285 169.202 59.4685 168.421 59.4685 166.491Z" fill="#A67BF0"/>
<path d="M55.2018 186.384C55.2018 184.454 56.5484 182.11 58.215 181.145C59.895 180.181 61.2417 180.962 61.2417 182.891C61.2417 184.819 59.895 187.166 58.215 188.13C56.5484 189.094 55.2018 188.313 55.2018 186.384Z" fill="#8A4255"/>
<path d="M55.2018 186.384C55.2018 184.454 56.5484 182.11 58.215 181.145C59.895 180.181 61.2417 180.962 61.2417 182.891C61.2417 184.819 59.895 187.166 58.215 188.13C56.5484 189.094 55.2018 188.313 55.2018 186.384Z" fill="#7C3AED"/>
<path d="M60.4418 180.99L63.0417 182.349L58.9618 189.806L55.9084 188.218L56.6818 184.018L60.4418 180.99" fill="#7C3AED"/>
<path d="M57.7618 187.717C57.7618 185.787 59.1218 183.443 60.7885 182.479C62.4551 181.514 63.8152 182.295 63.8152 184.225C63.8152 186.154 62.4685 188.499 60.7885 189.463C59.1218 190.427 57.7618 189.646 57.7618 187.717Z" fill="#F46C4C"/>
<path d="M57.7618 187.717C57.7618 185.787 59.1218 183.443 60.7885 182.479C62.4551 181.514 63.8152 182.295 63.8152 184.225C63.8152 186.154 62.4685 188.499 60.7885 189.463C59.1218 190.427 57.7618 189.646 57.7618 187.717Z" fill="#A67BF0"/>
<path d="M19.8817 165.913C19.8817 163.983 21.2417 161.638 22.9084 160.674C24.5884 159.709 25.9351 160.491 25.9351 162.421C25.9351 164.349 24.5884 166.694 22.9084 167.658C21.2417 168.622 19.8817 167.842 19.8817 165.913Z" fill="#8A4255"/>
<path d="M19.8817 165.913C19.8817 163.983 21.2417 161.638 22.9084 160.674C24.5884 159.709 25.9351 160.491 25.9351 162.421C25.9351 164.349 24.5884 166.694 22.9084 167.658C21.2417 168.622 19.8817 167.842 19.8817 165.913Z" fill="#7C3AED"/>
<path d="M25.1352 160.518L27.7351 161.877L23.6418 169.335L20.5884 167.747L21.3751 163.547L25.1352 160.518" fill="#7C3AED"/>
<path d="M22.4551 167.246C22.4551 165.317 23.8152 162.971 25.4818 162.007C27.1485 161.042 28.5085 161.825 28.5085 163.754C28.5085 165.682 27.1485 168.027 25.4818 168.991C23.8152 169.957 22.4551 169.175 22.4551 167.246Z" fill="#F46C4C"/>
<path d="M22.4551 167.246C22.4551 165.317 23.8152 162.971 25.4818 162.007C27.1485 161.042 28.5085 161.825 28.5085 163.754C28.5085 165.682 27.1485 168.027 25.4818 168.991C23.8152 169.957 22.4551 169.175 22.4551 167.246Z" fill="#A67BF0"/>
<path d="M63.5885 178.02L50.2151 170.293L63.5885 162.565C65.7885 161.297 65.7885 159.222 63.5885 157.954C61.4018 156.685 57.8018 156.685 55.6018 157.954L42.2151 165.681L28.8419 157.954C26.6419 156.685 23.0419 156.685 20.8419 157.954C18.6552 159.222 18.6552 161.297 20.8419 162.565L34.2284 170.293L20.8419 178.02C18.6552 179.289 18.6552 181.365 20.8419 182.633C23.0419 183.901 26.6419 183.901 28.8419 182.633L42.2151 174.905L55.6018 182.633C57.8018 183.901 61.4018 183.901 63.5885 182.633C65.7885 181.365 65.7885 179.289 63.5885 178.02Z" fill="#F3F9FD"/>
<path d="M63.5885 178.02L50.2151 170.293L63.5885 162.565C65.7885 161.297 65.7885 159.222 63.5885 157.954C61.4018 156.685 57.8018 156.685 55.6018 157.954L42.2151 165.681L28.8419 157.954C26.6419 156.685 23.0419 156.685 20.8419 157.954C18.6552 159.222 18.6552 161.297 20.8419 162.565L34.2284 170.293L20.8419 178.02C18.6552 179.289 18.6552 181.365 20.8419 182.633C23.0419 183.901 26.6419 183.901 28.8419 182.633L42.2151 174.905L55.6018 182.633C57.8018 183.901 61.4018 183.901 63.5885 182.633C65.7885 181.365 65.7885 179.289 63.5885 178.02Z" fill="#F3F9FD"/>
<path d="M35.4818 170.064C35.4818 172.564 38.495 174.59 42.215 174.59C45.9483 174.59 48.9617 172.564 48.9617 170.064C48.9617 167.564 45.9483 163.421 42.215 163.421C38.495 163.421 35.4818 167.564 35.4818 170.064Z" fill="#AFC3E9"/>
<path d="M37.2817 166.742C37.2817 168.575 39.495 170.063 42.215 170.063C44.9483 170.063 47.1618 168.575 47.1618 166.742C47.1618 164.907 44.9483 163.421 42.215 163.421C39.495 163.421 37.2817 164.907 37.2817 166.742Z" fill="#F3F9FD"/>
<path d="M42.215 131.095C40.5483 131.095 39.2018 132.469 39.2018 134.162V163.675C39.2018 165.369 40.5483 166.742 42.215 166.742C43.895 166.742 45.2417 165.369 45.2417 163.675V134.162C45.2417 132.469 43.895 131.095 42.215 131.095Z" fill="#F3F9FD"/>
<path d="M102.228 131.473C102.228 131.638 102.228 131.813 102.215 131.986C101.828 137.062 98.9085 141.588 94.4552 144.037L61.4552 162.13C60.9486 162.409 60.4418 162.628 59.8952 162.802C57.4685 163.594 54.7753 163.325 52.522 162L14.7352 139.73C9.02851 136.364 5.28194 130.47 4.6686 123.877L0.721827 81.5182L0.308578 77.1142C-0.0380885 73.4435 3.77517 70.8275 7.06851 72.4582L47.9752 92.6969C49.0952 93.2542 49.962 94.2395 50.362 95.4342L63.4419 135.126C64.5219 138.404 68.3219 139.87 71.3219 138.16L92.6686 125.953C96.9753 123.494 102.228 126.65 102.228 131.473Z" fill="#A67BF0"/>
<path d="M58.682 159.638C59.3886 161.505 57.8286 163.436 55.8419 163.158C54.6953 162.997 53.562 162.61 52.522 162L14.7352 139.73C9.02851 136.364 5.28194 130.47 4.66861 123.877L1.02864 84.8769C0.895304 83.4089 2.41518 82.3595 3.73518 83.0129L36.7485 99.3316C37.8685 99.8902 38.7219 100.876 39.1219 102.078L52.202 141.77C52.642 143.153 55.4153 151.065 58.682 159.638" fill="#7C3AED"/>
<path d="M160.535 105.315C159.654 107.063 156.739 108.347 153.27 108.347C149.802 108.347 146.887 107.063 146.004 105.315L145.726 102.943V92.5322H145.924C146.695 90.6976 149.687 89.3282 153.27 89.3282C156.852 89.3282 159.846 90.6976 160.616 92.5322H160.814V93.4536L160.535 105.315" fill="#E1ECF9"/>
<path d="M145.726 92.9937C145.726 95.2777 149.103 97.1284 153.27 97.1284C157.436 97.1284 160.814 95.2777 160.814 92.9937C160.814 90.7111 157.436 88.859 153.27 88.859C149.103 88.859 145.726 90.7111 145.726 92.9937Z" fill="white"/>
<path d="M147.895 92.9084C147.895 94.5351 150.302 95.8538 153.27 95.8538C156.239 95.8538 158.644 94.5351 158.644 92.9084C158.644 91.2818 156.239 89.9618 153.27 89.9618C150.302 89.9618 147.895 91.2818 147.895 92.9084Z" fill="#8A4255"/>
<path d="M221.146 107.303C212.133 107.303 203.12 106.311 196.235 104.327C182.482 100.358 182.482 93.9233 196.235 89.9542C203.12 87.9705 212.133 86.9782 221.146 86.9782C230.176 86.9782 239.189 87.9705 246.056 89.9542C259.826 93.9233 259.826 100.358 246.056 104.327C239.189 106.311 230.176 107.303 221.146 107.303Z" fill="#B1B9E5" fill-opacity="0.43"/>
<path d="M259.972 79.0922C258.941 84.3327 256.387 89.1362 254.783 94.2298C254.295 95.7803 253.926 97.5799 254.815 98.9398C255.122 99.4107 255.565 99.7943 255.802 100.304C256.04 100.814 255.973 101.547 255.461 101.783C255.256 101.877 255.019 101.873 254.793 101.854C253.25 101.73 251.759 101.049 250.654 99.9652C250.376 99.6919 250.115 99.3822 249.997 99.0093C249.867 98.5972 249.926 98.1513 249.986 97.7223C250.87 91.4022 251.964 84.63 256.392 80.0339C257.025 79.377 257.84 78.7354 258.746 78.8439C259.652 78.9534 260.285 80.2867 259.537 80.8091L259.972 79.0922" fill="#472520"/>
<path d="M218.633 80.7747C218.294 82.8146 217.955 84.8546 217.616 86.8946C217.531 87.409 217.446 87.9457 217.607 88.4414C217.961 89.5326 219.273 89.9242 220.397 90.1565C221.19 90.3194 222.036 90.4787 222.789 90.1823C223.542 89.8859 224.093 88.9372 223.676 88.2438C223.234 87.5051 222.093 87.5416 221.518 86.9008C220.751 86.0454 221.447 84.7264 222.056 83.7527C222.702 82.7221 223.25 81.5927 223.352 80.3813C223.454 79.1709 223.04 77.8625 222.064 77.1363C221.09 76.4109 219.53 76.4706 218.788 77.4336C218.307 78.0575 218.236 78.9021 218.27 79.6898C218.303 80.4632 218.418 81.2322 218.613 81.9816L218.633 80.7747Z" fill="#472520"/>
<path d="M259.222 62.9788C259.845 61.6109 261.9 61.4746 263.107 62.3691C264.315 63.2636 264.855 64.7873 265.243 66.2399C265.659 67.7921 265.976 69.3719 266.194 70.965C262.94 69.5659 262.291 64.839 259.122 63.2601L259.222 62.9788Z" fill="#472520"/>
<path d="M276.985 75.2814C276.835 76.3308 275.761 77.3794 274.309 78.0715C270.92 79.7016 267.887 78.834 264.506 77.9461C259.883 76.7219 260.499 78.1976 260.022 81.3866C259.366 85.7364 258.352 89.4709 251.323 91.163C249.851 91.5125 248.29 91.6732 246.729 91.7296C242.206 91.8903 237.632 91.1144 233.665 89.5963C230.254 88.2961 227.301 84.7991 223.722 84.1211C221.187 83.6454 216.484 84.6173 215.101 86.2051C212.378 89.3306 216.971 89.7852 217.468 92.0305C218.095 94.8066 211.115 93.2681 209.733 92.7642C209.395 92.6387 209.057 92.4985 208.848 92.2751C208.46 91.8832 208.569 91.3589 208.64 90.8832C208.878 89.2122 208.45 87.5264 208.559 85.8484C208.689 83.9463 210.896 82.9181 211.284 81.3866C211.682 79.8552 210.916 78.3865 210.717 76.8621C209.892 70.7639 216.414 68.3586 224.199 68.9879C228.057 69.3023 231.875 70.1557 235.335 71.3657C239.183 72.7013 244.432 74.4357 247.514 70.883C248.568 69.68 248.538 68.0922 249.782 66.9878L250.835 67.1203C252.018 64.617 255.548 62.7431 259.297 62.6381C262.617 62.5401 266.107 63.8686 267.787 65.911C269.279 67.7356 269.886 69.9175 272.073 71.3721C272.689 71.7851 273.624 72.1833 274.539 72.6033C274.876 72.764 275.205 72.9247 275.523 73.0924C276.696 73.7154 277.104 74.4984 276.985 75.2814Z" fill="#8A4255"/>
<path d="M229.045 85.9964C229.374 85.9694 229.731 85.9489 230.009 86.1331C230.328 86.3439 230.45 86.7623 230.498 87.1515C230.531 87.4184 230.54 87.6951 230.46 87.9515C230.381 88.2081 230.201 88.4429 229.953 88.5265C230.138 88.7852 230.528 88.8074 230.796 88.6436C231.064 88.4799 231.227 88.1794 231.332 87.8761C231.498 87.3969 231.548 86.8641 231.406 86.3773C231.265 85.8906 230.919 85.458 230.458 85.2849C229.997 85.1121 229.43 85.2336 229.115 85.6237C229.066 85.6839 229.021 85.7576 229.032 85.8351C229.046 85.9433 229.167 86.0075 229.271 85.996C229.376 85.9844 229.468 85.9192 229.554 85.856L229.045 85.9964" fill="#8A4255"/>
<path d="M228.493 84.8501C228.823 84.8231 229.179 84.8026 229.458 84.9868C229.776 85.1976 229.899 85.616 229.947 86.0052C229.98 86.2721 229.988 86.5488 229.909 86.8052C229.829 87.0618 229.649 87.2966 229.402 87.3802C229.586 87.6389 229.976 87.6611 230.245 87.4973C230.513 87.3336 230.676 87.0331 230.781 86.7298C230.947 86.2506 230.996 85.7178 230.855 85.231C230.714 84.7443 230.368 84.3117 229.907 84.1386C229.446 83.9658 228.879 84.0873 228.563 84.4774C228.514 84.5376 228.47 84.6113 228.48 84.6888C228.495 84.797 228.615 84.8612 228.72 84.8497C228.825 84.8381 228.916 84.7729 229.002 84.7097L228.493 84.8501" fill="#8A4255"/>
<path d="M227.166 84.8501C227.496 84.8231 227.853 84.8026 228.131 84.9868C228.449 85.1976 228.572 85.616 228.62 86.0052C228.653 86.2721 228.661 86.5488 228.582 86.8052C228.502 87.0618 228.322 87.2966 228.075 87.3802C228.259 87.6389 228.65 87.6611 228.918 87.4973C229.186 87.3336 229.349 87.0331 229.454 86.7298C229.62 86.2506 229.669 85.7178 229.528 85.231C229.387 84.7443 229.041 84.3117 228.58 84.1386C228.119 83.9658 227.552 84.0873 227.236 84.4774C227.187 84.5376 227.143 84.6113 227.153 84.6888C227.168 84.797 227.288 84.8612 227.393 84.8497C227.498 84.8381 227.589 84.7729 227.676 84.7097L227.166 84.8501" fill="#8A4255"/>
<path d="M226.539 84.3264C226.869 84.2995 227.225 84.2789 227.503 84.4632C227.822 84.674 227.944 85.0924 227.992 85.4816C228.025 85.7485 228.034 86.0252 227.954 86.2816C227.875 86.5382 227.695 86.773 227.448 86.8565C227.632 87.1153 228.022 87.1375 228.29 86.9737C228.558 86.8099 228.721 86.5095 228.827 86.2061C228.992 85.727 229.042 85.1941 228.901 84.7074C228.759 84.2207 228.413 83.7881 227.952 83.615C227.492 83.4422 226.924 83.5637 226.609 83.9538C226.56 84.014 226.515 84.0877 226.526 84.1651C226.54 84.2734 226.661 84.3376 226.766 84.3261C226.871 84.3145 226.962 84.2493 227.048 84.1861L226.539 84.3264" fill="#8A4255"/>
<path d="M225.256 83.1432C225.585 83.1162 225.942 83.0956 226.22 83.2799C226.539 83.4907 226.661 83.9091 226.709 84.2983C226.742 84.5652 226.751 84.8419 226.671 85.0983C226.592 85.3549 226.412 85.5897 226.164 85.6732C226.349 85.932 226.739 85.9542 227.007 85.7904C227.275 85.6266 227.438 85.3262 227.543 85.0229C227.709 84.5437 227.759 84.0109 227.617 83.5241C227.476 83.0374 227.13 82.6048 226.669 82.4317C226.208 82.2589 225.641 82.3804 225.326 82.7705C225.277 82.8307 225.232 82.9044 225.243 82.9818C225.257 83.0901 225.378 83.1543 225.482 83.1428C225.587 83.1312 225.679 83.066 225.765 83.0028L225.256 83.1432" fill="#8A4255"/>
<path d="M218.808 71.0417C217.551 71.1921 216.192 71.3229 215.098 70.6866C213.847 69.9585 213.311 68.4348 213.065 67.0072C212.896 66.0281 212.82 65.0091 213.082 64.0514C213.345 63.0928 213.996 62.1993 214.927 61.8531C214.182 60.9274 212.685 60.906 211.687 61.5513C210.688 62.1966 210.112 63.3296 209.759 64.4644C209.202 66.2569 209.099 68.2292 209.716 70.0021C210.334 71.775 211.727 73.3166 213.517 73.8835C215.307 74.4496 217.456 73.9138 218.601 72.4265C218.778 72.1969 218.936 71.9184 218.884 71.6345C218.811 71.2375 218.34 71.0194 217.941 71.0782C217.541 71.1369 217.203 71.3914 216.884 71.638L218.808 71.0417" fill="#8A4255"/>
<path d="M210.375 65.1155C210.357 65.3183 210.333 65.5367 210.209 65.6916C210.067 65.8689 209.835 65.9109 209.626 65.9098C209.483 65.9089 209.336 65.8925 209.21 65.8242C209.083 65.7558 208.977 65.628 208.958 65.4711C208.804 65.563 208.754 65.7987 208.813 65.9746C208.873 66.1504 209.015 66.2731 209.164 66.3608C209.399 66.499 209.674 66.5706 209.943 66.5227C210.212 66.4748 210.474 66.298 210.61 66.0311C210.746 65.7642 210.738 65.4096 210.564 65.1871C210.537 65.1527 210.503 65.1199 210.461 65.1202C210.403 65.1206 210.357 65.1889 210.353 65.2535C210.349 65.3183 210.374 65.3788 210.399 65.4362L210.375 65.1155" fill="#8A4255"/>
<path d="M211.142 63.5768C211.136 63.7146 211.126 63.8628 211.013 63.9612C210.884 64.0738 210.658 64.0881 210.451 64.0743C210.31 64.0647 210.165 64.0443 210.035 63.9895C209.905 63.9348 209.793 63.8406 209.764 63.7318C209.618 63.7852 209.583 63.9436 209.653 64.0678C209.723 64.1921 209.871 64.285 210.023 64.3544C210.264 64.4639 210.54 64.5301 210.803 64.5141C211.066 64.4982 211.313 64.3933 211.431 64.2189C211.548 64.0445 211.518 63.801 211.333 63.6377C211.304 63.6124 211.268 63.5878 211.227 63.5854C211.169 63.582 211.129 63.6259 211.129 63.67C211.128 63.7141 211.157 63.7572 211.185 63.7981L211.142 63.5768" fill="#8A4255"/>
<path d="M263.892 75.3264C264.556 75.3652 265.271 75.4237 265.778 75.8544C266.358 76.3471 266.493 77.185 266.488 77.9464C266.485 78.4684 266.43 79.0026 266.205 79.4737C265.98 79.9451 265.561 80.347 265.046 80.4396C265.346 80.9876 266.118 81.1375 266.695 80.8964C267.271 80.6553 267.674 80.1226 267.962 79.5684C268.417 78.6929 268.653 77.6823 268.498 76.7078C268.343 75.7334 267.766 74.8068 266.893 74.3474C266.019 73.8885 264.858 73.9662 264.128 74.6293C264.015 74.7317 263.907 74.861 263.908 75.0128C263.909 75.2249 264.132 75.3814 264.344 75.388C264.556 75.3947 264.754 75.2944 264.943 75.1965L263.892 75.3264" fill="#8A4255"/>
<path d="M265.098 75.3264C265.762 75.3652 266.477 75.4237 266.984 75.8544C267.564 76.3471 267.699 77.185 267.694 77.9464C267.691 78.4684 267.636 79.0026 267.411 79.4737C267.186 79.9451 266.767 80.347 266.253 80.4396C266.553 80.9876 267.324 81.1375 267.901 80.8964C268.477 80.6553 268.88 80.1226 269.168 79.5684C269.623 78.6929 269.859 77.6823 269.704 76.7078C269.549 75.7334 268.972 74.8068 268.099 74.3474C267.225 73.8885 266.064 73.9662 265.334 74.6293C265.221 74.7317 265.113 74.861 265.114 75.0128C265.115 75.2249 265.338 75.3814 265.55 75.388C265.762 75.3947 265.96 75.2944 266.149 75.1965L265.098 75.3264" fill="#8A4255"/>
<path d="M266.304 76.2171C266.968 76.2559 267.683 76.3144 268.19 76.745C268.77 77.2378 268.905 78.0757 268.901 78.837C268.897 79.3591 268.842 79.8933 268.617 80.3643C268.392 80.8358 267.973 81.2377 267.459 81.3303C267.759 81.8783 268.531 82.0282 269.107 81.7871C269.683 81.546 270.086 81.0133 270.374 80.4591C270.829 79.5836 271.065 78.5729 270.91 77.5985C270.755 76.6241 270.178 75.6974 269.305 75.2381C268.431 74.7792 267.27 74.8569 266.54 75.52C266.427 75.6223 266.319 75.7517 266.32 75.9035C266.321 76.1156 266.544 76.2721 266.756 76.2787C266.968 76.2854 267.167 76.1851 267.355 76.0872L266.304 76.2171" fill="#8A4255"/>
<path d="M263.426 74.7725C264.002 74.8124 264.623 74.8685 265.069 75.2172C265.578 75.6162 265.708 76.2831 265.714 76.8873C265.717 77.3016 265.677 77.7249 265.489 78.0957C265.3 78.4668 264.942 78.78 264.497 78.8465C264.765 79.2856 265.436 79.4151 265.933 79.2316C266.43 79.048 266.772 78.6308 267.014 78.1948C267.396 77.5062 267.588 76.7072 267.44 75.9317C267.292 75.1563 266.779 74.4129 266.015 74.0364C265.251 73.6603 264.245 73.7061 263.621 74.2224C263.524 74.3021 263.433 74.4033 263.436 74.5238C263.439 74.6921 263.635 74.8194 263.819 74.8275C264.003 74.8357 264.174 74.7589 264.336 74.6837L263.426 74.7725" fill="#8A4255"/>
<path d="M275.353 75.5858C274.424 75.6919 273.422 75.8191 272.667 76.2102C271.804 76.6576 271.519 77.3211 271.438 77.9091C271.384 78.3123 271.399 78.7191 271.658 79.0575C271.916 79.3962 272.454 79.6588 273.159 79.6715C272.679 80.1295 271.587 80.334 270.813 80.2136C270.038 80.0933 269.538 79.7277 269.201 79.3322C268.669 78.7074 268.456 77.9532 268.783 77.182C269.11 76.4109 270.02 75.6282 271.288 75.1729C272.556 74.718 274.164 74.6449 275.104 75.0739C275.25 75.14 275.385 75.2277 275.366 75.3451C275.341 75.5092 275.012 75.6558 274.717 75.6852C274.421 75.7147 274.156 75.66 273.905 75.6059L275.353 75.5858" fill="#8A4255"/>
<path d="M260.94 75.8828C261.604 75.9216 262.319 75.9801 262.826 76.4108C263.406 76.9035 263.542 77.7414 263.537 78.5027C263.533 79.0248 263.478 79.559 263.253 80.0301C263.029 80.5015 262.609 80.9034 262.095 80.996C262.395 81.544 263.167 81.6939 263.743 81.4528C264.32 81.2117 264.723 80.679 265.011 80.1248C265.465 79.2493 265.702 78.2387 265.547 77.2642C265.392 76.2898 264.814 75.3631 263.941 74.9038C263.068 74.4449 261.906 74.5226 261.176 75.1857C261.063 75.2881 260.955 75.4174 260.956 75.5692C260.957 75.7813 261.18 75.9378 261.392 75.9444C261.604 75.9511 261.803 75.8508 261.991 75.7529L260.94 75.8828" fill="#8A4255"/>
<path d="M262.146 75.8828C262.81 75.9216 263.526 75.9801 264.032 76.4108C264.612 76.9035 264.748 77.7414 264.743 78.5027C264.739 79.0248 264.684 79.559 264.459 80.0301C264.235 80.5015 263.815 80.9034 263.301 80.996C263.601 81.544 264.373 81.6939 264.949 81.4528C265.526 81.2117 265.929 80.679 266.217 80.1248C266.671 79.2493 266.908 78.2387 266.753 77.2642C266.598 76.2898 266.02 75.3631 265.147 74.9038C264.274 74.4449 263.112 74.5226 262.382 75.1857C262.269 75.2881 262.161 75.4174 262.162 75.5692C262.163 75.7813 262.386 75.9378 262.598 75.9444C262.81 75.9511 263.009 75.8508 263.197 75.7529L262.146 75.8828" fill="#8A4255"/>
<path d="M263.352 76.7735C264.016 76.8123 264.732 76.8708 265.238 77.3014C265.818 77.7942 265.954 78.6321 265.949 79.3934C265.945 79.9155 265.89 80.4497 265.666 80.9207C265.441 81.3922 265.021 81.7941 264.507 81.8867C264.807 82.4347 265.579 82.5846 266.155 82.3435C266.732 82.1024 267.135 81.5697 267.423 81.0155C267.877 80.14 268.114 79.1293 267.959 78.1549C267.804 77.1805 267.226 76.2538 266.353 75.7945C265.48 75.3356 264.318 75.4133 263.588 76.0764C263.475 76.1787 263.368 76.3081 263.368 76.4599C263.369 76.672 263.593 76.8285 263.804 76.8351C264.016 76.8418 264.215 76.7415 264.403 76.6436L263.352 76.7735" fill="#8A4255"/>
<path d="M267.75 70.3672C267.148 70.0838 266.506 69.7632 266.196 69.1748C265.841 68.5015 266.028 67.6733 266.316 66.9686C266.514 66.4856 266.764 66.0102 267.148 65.6568C267.532 65.303 268.071 65.0863 268.582 65.1918C268.508 64.5715 267.848 64.1449 267.223 64.1539C266.598 64.163 266.026 64.5072 265.552 64.9143C264.804 65.5575 264.208 66.4073 263.989 67.3694C263.77 68.3314 263.961 69.4065 264.6 70.1581C265.24 70.9092 266.347 71.2697 267.271 70.9263C267.414 70.8734 267.562 70.7934 267.618 70.6523C267.696 70.4551 267.547 70.2267 267.353 70.1417C267.159 70.0565 266.937 70.0756 266.726 70.0963L267.75 70.3672" fill="#8A4255"/>
<path d="M267.75 71.3037C267.148 71.0203 266.506 70.6997 266.196 70.1113C265.841 69.4381 266.028 68.6099 266.316 67.9051C266.514 67.4221 266.764 66.9468 267.148 66.5933C267.532 66.2395 268.071 66.0228 268.582 66.1283C268.508 65.508 267.848 65.0814 267.223 65.0905C266.598 65.0995 266.026 65.4437 265.552 65.8508C264.804 66.494 264.208 67.3439 263.989 68.3059C263.77 69.2679 263.961 70.343 264.6 71.0946C265.24 71.8457 266.347 72.2063 267.271 71.8628C267.414 71.8099 267.562 71.73 267.618 71.5888C267.696 71.3917 267.547 71.1633 267.353 71.0783C267.159 70.993 266.937 71.0121 266.726 71.0329L267.75 71.3037" fill="#8A4255"/>
<path d="M260.474 75.3289C261.051 75.3688 261.672 75.4249 262.117 75.7736C262.627 76.1726 262.756 76.8395 262.762 77.4437C262.766 77.858 262.726 78.2813 262.537 78.6521C262.349 79.0232 261.99 79.3364 261.546 79.4029C261.813 79.842 262.485 79.9715 262.981 79.788C263.478 79.6044 263.82 79.1872 264.063 78.7512C264.445 78.0625 264.636 77.2636 264.488 76.4881C264.341 75.7126 263.827 74.9693 263.064 74.5928C262.3 74.2167 261.294 74.2625 260.669 74.7788C260.573 74.8585 260.481 74.9597 260.484 75.0802C260.488 75.2485 260.683 75.3758 260.867 75.3839C261.051 75.3921 261.222 75.3153 261.384 75.2401L260.474 75.3289" fill="#8A4255"/>
<path d="M269.546 67.6355C268.618 67.5294 267.616 67.4022 266.861 67.0111C265.997 66.5637 265.712 65.9003 265.632 65.3122C265.578 64.909 265.593 64.5023 265.851 64.1639C266.11 63.8251 266.648 63.5625 267.353 63.5499C266.873 63.0918 265.781 62.8874 265.006 63.0077C264.232 63.128 263.732 63.4936 263.395 63.8891C262.862 64.5139 262.649 65.2681 262.977 66.0393C263.304 66.8104 264.214 67.5931 265.482 68.0484C266.75 68.5033 268.358 68.5764 269.298 68.1474C269.443 68.0813 269.579 67.9936 269.56 67.8762C269.534 67.7121 269.206 67.5655 268.91 67.5361C268.614 67.5066 268.349 67.5614 268.099 67.6155L269.546 67.6355" fill="#8A4255"/>
<path d="M255.134 67.3385C255.798 67.2997 256.513 67.2412 257.02 66.8106C257.6 66.3178 257.735 65.4799 257.731 64.7186C257.727 64.1965 257.672 63.6623 257.447 63.1913C257.222 62.7198 256.803 62.3179 256.289 62.2253C256.589 61.6773 257.361 61.5274 257.937 61.7685C258.513 62.0096 258.916 62.5423 259.204 63.0965C259.659 63.972 259.895 64.9827 259.74 65.9571C259.585 66.9315 259.008 67.8582 258.135 68.3175C257.261 68.7764 256.1 68.6987 255.37 68.0356C255.257 67.9333 255.149 67.8039 255.15 67.6521C255.151 67.44 255.374 67.2835 255.586 67.2769C255.798 67.2702 255.997 67.3705 256.185 67.4684L255.134 67.3385" fill="#8A4255"/>
<path d="M256.34 67.3385C257.004 67.2997 257.719 67.2412 258.226 66.8106C258.806 66.3178 258.942 65.4799 258.937 64.7186C258.933 64.1965 258.878 63.6623 258.653 63.1913C258.428 62.7198 258.009 62.3179 257.495 62.2253C257.795 61.6773 258.567 61.5274 259.143 61.7685C259.719 62.0096 260.122 62.5423 260.411 63.0965C260.865 63.972 261.102 64.9827 260.947 65.9571C260.792 66.9315 260.214 67.8582 259.341 68.3175C258.468 68.7764 257.306 68.6987 256.576 68.0356C256.463 67.9333 256.355 67.8039 256.356 67.6521C256.357 67.44 256.58 67.2835 256.792 67.2769C257.004 67.2702 257.203 67.3705 257.391 67.4684L256.34 67.3385" fill="#8A4255"/>
<path d="M257.546 66.4478C258.21 66.409 258.925 66.3506 259.432 65.9199C260.012 65.4272 260.148 64.5892 260.143 63.8279C260.139 63.3058 260.084 62.7716 259.859 62.3006C259.634 61.8291 259.215 61.4272 258.701 61.3346C259.001 60.7866 259.773 60.6367 260.349 60.8778C260.926 61.1189 261.329 61.6516 261.617 62.2058C262.071 63.0813 262.308 64.092 262.153 65.0664C261.998 66.0408 261.42 66.9675 260.547 67.4268C259.674 67.8857 258.512 67.808 257.782 67.1449C257.669 67.0426 257.561 66.9132 257.562 66.7614C257.563 66.5493 257.786 66.3929 257.998 66.3862C258.21 66.3795 258.409 66.4798 258.597 66.5777L257.546 66.4478" fill="#8A4255"/>
<path d="M254.668 67.8924C255.245 67.8525 255.866 67.7964 256.311 67.4477C256.821 67.0487 256.95 66.3818 256.956 65.7776C256.96 65.3633 256.919 64.94 256.731 64.5693C256.542 64.1981 256.184 63.8849 255.739 63.8184C256.007 63.3794 256.678 63.2499 257.175 63.4334C257.672 63.6169 258.014 64.0341 258.256 64.4701C258.639 65.1588 258.83 65.9577 258.682 66.7332C258.534 67.5087 258.021 68.252 257.257 68.6285C256.494 69.0047 255.487 68.9588 254.863 68.4425C254.767 68.3628 254.675 68.2616 254.678 68.1411C254.681 67.9728 254.877 67.8455 255.061 67.8374C255.245 67.8292 255.416 67.9061 255.578 67.9812L254.668 67.8924" fill="#8A4255"/>
<path d="M276.559 74.4259C275.63 74.5321 274.628 74.6593 273.873 75.0504C273.01 75.4978 272.725 76.1612 272.644 76.7493C272.59 77.1524 272.605 77.5592 272.864 77.8976C273.123 78.2364 273.66 78.4989 274.365 78.5116C273.885 78.9697 272.793 79.1741 272.019 79.0538C271.244 78.9335 270.744 78.5679 270.407 78.1724C269.875 77.5476 269.662 76.7933 269.989 76.0222C270.316 75.251 271.226 74.4684 272.495 74.0131C273.763 73.5582 275.37 73.485 276.31 73.914C276.456 73.9802 276.591 74.0679 276.572 74.1853C276.547 74.3494 276.218 74.496 275.923 74.5253C275.627 74.5549 275.362 74.5001 275.111 74.446L276.559 74.4259" fill="#8A4255"/>
<path d="M210.58 64.537C210.414 64.656 210.234 64.7807 210.035 64.7885C209.808 64.7974 209.625 64.6498 209.489 64.4911C209.395 64.3823 209.312 64.2611 209.281 64.1205C209.249 63.9798 209.277 63.8163 209.382 63.6988C209.212 63.6426 209.001 63.7593 208.907 63.9195C208.814 64.0798 208.814 64.2672 208.845 64.4372C208.895 64.7055 209.021 64.9601 209.233 65.1323C209.446 65.3045 209.751 65.3859 210.041 65.314C210.332 65.2419 210.595 65.0036 210.649 64.7265C210.658 64.6837 210.66 64.6363 210.632 64.605C210.594 64.5612 210.513 64.5715 210.461 64.6107C210.409 64.6499 210.38 64.7087 210.353 64.7649L210.58 64.537" fill="#8A4255"/>
<path d="M237.168 74.6659C237.003 74.785 236.822 74.9097 236.624 74.9175C236.397 74.9263 236.213 74.7787 236.077 74.6201C235.984 74.5112 235.901 74.39 235.869 74.2495C235.838 74.1088 235.865 73.9453 235.971 73.8277C235.801 73.7716 235.59 73.8883 235.496 74.0485C235.402 74.2088 235.402 74.3962 235.434 74.5661C235.483 74.8345 235.609 75.0891 235.822 75.2612C236.035 75.4334 236.339 75.5149 236.63 75.4429C236.921 75.3709 237.183 75.1325 237.238 74.8555C237.246 74.8127 237.249 74.7652 237.221 74.734C237.182 74.6902 237.101 74.7005 237.049 74.7397C236.998 74.7789 236.969 74.8376 236.941 74.8939L237.168 74.6659" fill="#8A4255"/>
<path d="M225.416 69.5813C225.085 69.567 224.729 69.5431 224.476 69.3256C224.186 69.0769 224.117 68.6465 224.117 68.2543C224.118 67.9854 224.144 67.7098 224.255 67.4653C224.366 67.2205 224.573 67.0099 224.829 66.9578C224.678 66.6782 224.294 66.6076 224.008 66.7367C223.721 66.8659 223.522 67.1437 223.38 67.4316C223.156 67.8865 223.041 68.409 223.12 68.9095C223.2 69.41 223.489 69.8823 223.925 70.1114C224.361 70.3402 224.939 70.2902 225.3 69.9424C225.356 69.8887 225.41 69.8211 225.409 69.743C225.408 69.6337 225.296 69.5551 225.191 69.5535C225.085 69.5519 224.987 69.6052 224.893 69.6572L225.416 69.5813" fill="#8A4255"/>
<path d="M221.037 70.4133C221.367 70.3991 221.723 70.3751 221.977 70.1577C222.266 69.9089 222.336 69.4785 222.335 69.0864C222.335 68.8175 222.309 68.5418 222.198 68.2973C222.087 68.0526 221.879 67.842 221.624 67.7898C221.774 67.5102 222.159 67.4396 222.445 67.5688C222.732 67.6979 222.931 67.9757 223.073 68.2636C223.297 68.7185 223.412 69.241 223.333 69.7416C223.253 70.2421 222.964 70.7144 222.528 70.9434C222.092 71.1722 221.514 71.1222 221.152 70.7744C221.096 70.7207 221.043 70.6531 221.044 70.575C221.045 70.4658 221.156 70.3871 221.262 70.3855C221.367 70.3839 221.466 70.4372 221.559 70.4893L221.037 70.4133" fill="#8A4255"/>
<path d="M220.092 70.9334C220.423 70.9191 220.779 70.8952 221.032 70.6778C221.322 70.429 221.391 69.9986 221.391 69.6064C221.39 69.3375 221.364 69.0619 221.253 68.8174C221.143 68.5726 220.935 68.3621 220.679 68.3099C220.83 68.0303 221.214 67.9597 221.501 68.0889C221.787 68.218 221.986 68.4958 222.128 68.7837C222.352 69.2386 222.468 69.7611 222.388 70.2616C222.309 70.7621 222.019 71.2344 221.583 71.4635C221.147 71.6923 220.57 71.6423 220.208 71.2945C220.152 71.2408 220.098 71.1732 220.099 71.0951C220.1 70.9858 220.212 70.9072 220.317 70.9056C220.423 70.904 220.521 70.9573 220.615 71.0094L220.092 70.9334" fill="#8A4255"/>
<path d="M218.349 69.7711C218.68 69.7568 219.036 69.7329 219.289 69.5154C219.579 69.2666 219.649 68.8362 219.648 68.4441C219.647 68.1752 219.621 67.8996 219.511 67.655C219.4 67.4103 219.192 67.1997 218.936 67.1476C219.087 66.8679 219.472 66.7974 219.758 66.9265C220.044 67.0557 220.243 67.3335 220.386 67.6214C220.61 68.0762 220.725 68.5988 220.645 69.0993C220.566 69.5998 220.276 70.0721 219.84 70.3011C219.405 70.53 218.827 70.4799 218.465 70.1321C218.409 70.0784 218.356 70.0109 218.356 69.9327C218.357 69.8235 218.469 69.7448 218.574 69.7432C218.68 69.7416 218.779 69.795 218.872 69.847L218.349 69.7711" fill="#8A4255"/>
<path d="M217.258 70.8292C217.588 70.815 217.944 70.791 218.198 70.5736C218.487 70.3248 218.557 69.8944 218.556 69.5023C218.556 69.2334 218.53 68.9577 218.419 68.7132C218.308 68.4684 218.1 68.2579 217.845 68.2057C217.995 67.9261 218.38 67.8555 218.666 67.9847C218.952 68.1138 219.152 68.3916 219.294 68.6795C219.518 69.1344 219.633 69.6569 219.554 70.1574C219.474 70.658 219.184 71.1302 218.749 71.3593C218.313 71.5881 217.735 71.5381 217.373 71.1903C217.317 71.1366 217.264 71.069 217.265 70.9909C217.266 70.8817 217.377 70.803 217.483 70.8014C217.588 70.7998 217.687 70.8531 217.78 70.9052L217.258 70.8292" fill="#8A4255"/>
<path d="M216.313 71.1069C216.644 71.0926 217 71.0687 217.253 70.8512C217.543 70.6025 217.612 70.1721 217.612 69.7799C217.611 69.511 217.585 69.2354 217.474 68.9909C217.363 68.7461 217.156 68.5355 216.9 68.4834C217.051 68.2037 217.435 68.1332 217.721 68.2623C218.008 68.3915 218.207 68.6693 218.349 68.9572C218.573 69.412 218.689 69.9346 218.609 70.4351C218.53 70.9356 218.24 71.4079 217.804 71.637C217.368 71.8658 216.79 71.8157 216.429 71.4679C216.373 71.4143 216.319 71.3467 216.32 71.2685C216.321 71.1593 216.433 71.0806 216.538 71.0791C216.644 71.0774 216.742 71.1308 216.836 71.1828L216.313 71.1069" fill="#8A4255"/>
<path d="M238.363 71.5632C238.073 71.7242 237.766 71.9053 237.637 72.2132C237.49 72.5655 237.62 72.9814 237.797 73.3316C237.918 73.5717 238.065 73.8064 238.273 73.9753C238.482 74.1444 238.762 74.2395 239.014 74.1714C239.005 74.4889 238.693 74.7244 238.379 74.7374C238.065 74.7503 237.763 74.5914 237.507 74.3977C237.102 74.0917 236.765 73.6763 236.612 73.1933C236.458 72.7102 236.505 72.1582 236.792 71.7581C237.079 71.3582 237.618 71.1437 238.097 71.2924C238.171 71.3153 238.249 71.3517 238.284 71.4219C238.332 71.52 238.267 71.6403 238.174 71.689C238.08 71.7378 237.968 71.7343 237.861 71.7297L238.363 71.5632" fill="#8A4255"/>
<path d="M241.784 72.9715C241.512 72.7826 241.214 72.5859 240.881 72.6055C240.5 72.6279 240.184 72.9282 239.947 73.2406C239.784 73.455 239.638 73.69 239.578 73.9517C239.518 74.2135 239.556 74.5069 239.728 74.7033C239.438 74.8345 239.09 74.6577 238.94 74.3815C238.791 74.1053 238.8 73.7636 238.862 73.4485C238.959 72.9508 239.184 72.4652 239.55 72.1151C239.917 71.7651 240.433 71.5647 240.919 71.6464C241.404 71.7283 241.833 72.1182 241.911 72.6141C241.923 72.6907 241.924 72.7768 241.876 72.8385C241.809 72.9248 241.673 72.9199 241.588 72.8573C241.503 72.7946 241.457 72.6924 241.414 72.5944L241.784 72.9715" fill="#8A4255"/>
<path d="M226.361 70.7366C226.03 70.7224 225.674 70.6984 225.421 70.481C225.131 70.2322 225.061 69.8018 225.062 69.4097C225.063 69.1408 225.089 68.8651 225.199 68.6206C225.31 68.3759 225.518 68.1653 225.774 68.1131C225.623 67.8335 225.238 67.7629 224.952 67.8921C224.666 68.0212 224.467 68.299 224.325 68.5869C224.1 69.0418 223.985 69.5643 224.065 70.0649C224.144 70.5654 224.434 71.0377 224.87 71.2667C225.305 71.4955 225.883 71.4455 226.245 71.0977C226.301 71.044 226.354 70.9764 226.354 70.8983C226.353 70.7891 226.241 70.7104 226.136 70.7088C226.03 70.7072 225.931 70.7606 225.838 70.8126L226.361 70.7366" fill="#8A4255"/>
<path d="M227.889 69.9973C227.559 69.983 227.203 69.9591 226.949 69.7416C226.66 69.4928 226.59 69.0624 226.591 68.6703C226.591 68.4014 226.617 68.1258 226.728 67.8812C226.839 67.6365 227.047 67.4259 227.302 67.3738C227.152 67.0941 226.767 67.0236 226.481 67.1527C226.195 67.2819 225.995 67.5597 225.853 67.8476C225.629 68.3024 225.514 68.825 225.593 69.3255C225.673 69.826 225.962 70.2983 226.398 70.5273C226.834 70.7562 227.412 70.7061 227.774 70.3583C227.83 70.3046 227.883 70.2371 227.882 70.1589C227.881 70.0497 227.77 69.971 227.664 69.9694C227.559 69.9678 227.46 70.0212 227.367 70.0732L227.889 69.9973" fill="#8A4255"/>
<path d="M228.834 71.1526C228.503 71.1384 228.147 71.1144 227.894 70.897C227.604 70.6482 227.535 70.2178 227.535 69.8257C227.536 69.5568 227.562 69.2812 227.673 69.0366C227.783 68.7919 227.991 68.5813 228.247 68.5292C228.096 68.2495 227.712 68.1789 227.425 68.3081C227.139 68.4372 226.94 68.715 226.798 69.003C226.574 69.4578 226.458 69.9804 226.538 70.4809C226.617 70.9814 226.907 71.4537 227.343 71.6827C227.779 71.9116 228.357 71.8615 228.718 71.5137C228.774 71.46 228.828 71.3925 228.827 71.3143C228.826 71.2051 228.714 71.1264 228.609 71.1248C228.503 71.1232 228.405 71.1766 228.311 71.2286L228.834 71.1526" fill="#8A4255"/>
<path d="M229.418 69.9973C229.087 69.983 228.731 69.9591 228.478 69.7416C228.188 69.4928 228.119 69.0624 228.119 68.6703C228.12 68.4014 228.146 68.1258 228.257 67.8812C228.368 67.6365 228.575 67.4259 228.831 67.3738C228.68 67.0941 228.296 67.0236 228.01 67.1527C227.723 67.2819 227.524 67.5597 227.382 67.8476C227.158 68.3024 227.043 68.825 227.122 69.3255C227.202 69.826 227.491 70.2983 227.927 70.5273C228.363 70.7562 228.941 70.7061 229.302 70.3583C229.358 70.3046 229.412 70.2371 229.411 70.1589C229.41 70.0497 229.298 69.971 229.193 69.9694C229.087 69.9678 228.989 70.0212 228.895 70.0732L229.418 69.9973" fill="#8A4255"/>
<path d="M230.363 71.5686C230.032 71.5543 229.676 71.5304 229.423 71.313C229.133 71.0642 229.063 70.6338 229.064 70.2416C229.065 69.9727 229.091 69.6971 229.201 69.4526C229.312 69.2078 229.52 68.9972 229.776 68.9451C229.625 68.6655 229.241 68.5949 228.954 68.7241C228.668 68.8532 228.469 69.131 228.327 69.4189C228.102 69.8738 227.987 70.3963 228.067 70.8968C228.146 71.3973 228.436 71.8696 228.872 72.0987C229.307 72.3275 229.885 72.2775 230.247 71.9297C230.303 71.876 230.356 71.8084 230.356 71.7303C230.355 71.621 230.243 71.5424 230.138 71.5408C230.032 71.5392 229.933 71.5925 229.84 71.6446L230.363 71.5686" fill="#8A4255"/>
<path d="M232.475 71.1526C232.145 71.1384 231.789 71.1144 231.536 70.897C231.246 70.6482 231.176 70.2178 231.177 69.8257C231.177 69.5568 231.204 69.2812 231.314 69.0366C231.425 68.7919 231.633 68.5813 231.888 68.5292C231.738 68.2495 231.353 68.1789 231.067 68.3081C230.781 68.4372 230.581 68.715 230.439 69.003C230.215 69.4578 230.1 69.9804 230.179 70.4809C230.259 70.9814 230.549 71.4537 230.984 71.6827C231.42 71.9116 231.998 71.8615 232.36 71.5137C232.416 71.46 232.469 71.3925 232.468 71.3143C232.467 71.2051 232.356 71.1264 232.25 71.1248C232.145 71.1232 232.046 71.1766 231.953 71.2286L232.475 71.1526" fill="#8A4255"/>
<path d="M233.42 72.2198C233.09 72.2055 232.733 72.1816 232.48 71.9641C232.19 71.7154 232.121 71.285 232.121 70.8928C232.122 70.6239 232.148 70.3483 232.259 70.1038C232.37 69.859 232.577 69.6484 232.833 69.5963C232.682 69.3166 232.298 69.2461 232.012 69.3752C231.725 69.5044 231.526 69.7822 231.384 70.0701C231.16 70.5249 231.045 71.0475 231.124 71.548C231.204 72.0485 231.493 72.5208 231.929 72.7499C232.365 72.9787 232.943 72.9287 233.304 72.5808C233.36 72.5272 233.414 72.4596 233.413 72.3815C233.412 72.2722 233.3 72.1936 233.195 72.192C233.089 72.1904 232.991 72.2437 232.897 72.2957L233.42 72.2198" fill="#8A4255"/>
<path d="M234.365 73.3752C234.034 73.3609 233.678 73.337 233.425 73.1195C233.135 72.8708 233.065 72.4404 233.066 72.0482C233.067 71.7793 233.093 71.5037 233.203 71.2592C233.314 71.0144 233.522 70.8038 233.778 70.7517C233.627 70.472 233.243 70.4015 232.956 70.5306C232.67 70.6598 232.471 70.9376 232.329 71.2255C232.104 71.6803 231.989 72.2029 232.069 72.7034C232.148 73.2039 232.438 73.6762 232.874 73.9053C233.309 74.1341 233.887 74.0841 234.249 73.7362C234.305 73.6826 234.358 73.615 234.358 73.5369C234.357 73.4276 234.245 73.349 234.14 73.3474C234.034 73.3457 233.935 73.3991 233.842 73.4511L234.365 73.3752" fill="#8A4255"/>
<path d="M235.893 72.6357C235.563 72.6215 235.207 72.5975 234.953 72.3801C234.664 72.1313 234.594 71.7009 234.595 71.3088C234.595 71.0399 234.621 70.7643 234.732 70.5197C234.843 70.275 235.051 70.0644 235.306 70.0123C235.156 69.7326 234.771 69.662 234.485 69.7912C234.199 69.9203 233.999 70.1981 233.857 70.4861C233.633 70.9409 233.518 71.4634 233.597 71.964C233.677 72.4645 233.967 72.9368 234.402 73.1658C234.838 73.3946 235.416 73.3446 235.778 72.9968C235.834 72.9431 235.887 72.8756 235.886 72.7974C235.885 72.6882 235.774 72.6095 235.668 72.6079C235.563 72.6063 235.464 72.6597 235.371 72.7117L235.893 72.6357" fill="#8A4255"/>
<path d="M236.838 73.7911C236.507 73.7769 236.151 73.7529 235.898 73.5355C235.608 73.2867 235.539 72.8563 235.539 72.4642C235.54 72.1953 235.566 71.9196 235.677 71.6751C235.788 71.4304 235.995 71.2198 236.251 71.1677C236.1 70.888 235.716 70.8174 235.43 70.9466C235.143 71.0757 234.944 71.3535 234.802 71.6415C234.578 72.0963 234.463 72.6188 234.542 73.1194C234.621 73.6199 234.911 74.0922 235.347 74.3212C235.783 74.55 236.361 74.5 236.722 74.1522C236.778 74.0985 236.832 74.031 236.831 73.9528C236.83 73.8436 236.718 73.7649 236.613 73.7633C236.507 73.7617 236.409 73.8151 236.315 73.8671L236.838 73.7911" fill="#8A4255"/>
<path d="M237.422 72.6357C237.092 72.6215 236.735 72.5975 236.482 72.3801C236.192 72.1313 236.123 71.7009 236.123 71.3088C236.124 71.0399 236.15 70.7643 236.261 70.5197C236.372 70.275 236.579 70.0644 236.835 70.0123C236.684 69.7326 236.3 69.662 236.014 69.7912C235.727 69.9203 235.528 70.1981 235.386 70.4861C235.162 70.9409 235.047 71.4634 235.126 71.964C235.206 72.4645 235.495 72.9368 235.931 73.1658C236.367 73.3946 236.945 73.3446 237.306 72.9968C237.362 72.9431 237.416 72.8756 237.415 72.7974C237.414 72.6882 237.302 72.6095 237.197 72.6079C237.091 72.6063 236.993 72.6597 236.899 72.7117L237.422 72.6357" fill="#8A4255"/>
<path d="M240.48 73.7911C240.149 73.7769 239.793 73.7529 239.54 73.5355C239.25 73.2867 239.18 72.8563 239.181 72.4642C239.182 72.1953 239.208 71.9196 239.318 71.6751C239.429 71.4304 239.637 71.2198 239.892 71.1677C239.742 70.888 239.357 70.8174 239.071 70.9466C238.785 71.0757 238.585 71.3535 238.443 71.6415C238.219 72.0963 238.104 72.6188 238.183 73.1194C238.263 73.6199 238.553 74.0922 238.988 74.3212C239.424 74.55 240.002 74.5 240.364 74.1522C240.42 74.0985 240.473 74.031 240.472 73.9528C240.471 73.8436 240.36 73.7649 240.254 73.7633C240.149 73.7617 240.05 73.8151 239.957 73.8671L240.48 73.7911" fill="#8A4255"/>
<path d="M233.06 71.9418C232.729 71.9276 232.373 71.9036 232.12 71.6862C231.83 71.4374 231.76 71.007 231.761 70.6149C231.762 70.346 231.788 70.0703 231.898 69.8258C232.009 69.5811 232.217 69.3705 232.473 69.3183C232.322 69.0387 231.937 68.9681 231.651 69.0973C231.365 69.2264 231.165 69.5042 231.023 69.7921C230.799 70.247 230.684 70.7695 230.764 71.2701C230.843 71.7706 231.133 72.2429 231.568 72.4719C232.004 72.7007 232.582 72.6507 232.944 72.3029C233 72.2492 233.053 72.1816 233.052 72.1035C233.051 71.9943 232.94 71.9156 232.835 71.914C232.729 71.9124 232.63 71.9658 232.537 72.0178L233.06 71.9418" fill="#8A4255"/>
<path d="M213.739 66.2421C213.538 66.2121 213.32 66.1842 213.14 66.2683C212.935 66.3645 212.839 66.5798 212.791 66.7832C212.758 66.9227 212.74 67.0686 212.776 67.2079C212.813 67.3474 212.912 67.4801 213.06 67.536C212.934 67.664 212.694 67.6571 212.537 67.5577C212.38 67.4583 212.294 67.2917 212.244 67.1264C212.165 66.8651 212.16 66.5811 212.27 66.3306C212.38 66.0801 212.613 65.8679 212.905 65.7985C213.196 65.7291 213.539 65.8205 213.714 66.0418C213.741 66.076 213.765 66.117 213.755 66.1575C213.741 66.214 213.664 66.2422 213.6 66.2311C213.536 66.22 213.483 66.1811 213.433 66.1436L213.739 66.2421" fill="#8A4255"/>
<path d="M213.433 67.074C213.231 67.044 213.013 67.0161 212.833 67.1002C212.628 67.1964 212.532 67.4117 212.484 67.6151C212.451 67.7546 212.433 67.9005 212.469 68.0398C212.506 68.1793 212.605 68.312 212.753 68.368C212.628 68.4959 212.387 68.489 212.23 68.3896C212.073 68.2902 211.987 68.1236 211.937 67.9583C211.858 67.697 211.853 67.413 211.963 67.1625C212.073 66.912 212.307 66.6999 212.598 66.6304C212.889 66.5611 213.232 66.6524 213.407 66.8737C213.435 66.9079 213.458 66.9489 213.448 66.9894C213.434 67.0459 213.357 67.0741 213.293 67.063C213.229 67.0519 213.176 67.013 213.126 66.9755L213.433 67.074" fill="#8A4255"/>
<path d="M239.617 84.4465C242.861 90.3536 243.683 97.294 246.453 103.438C246.69 103.963 246.953 104.498 247.395 104.867C248.245 105.577 249.485 105.481 250.584 105.347C251.868 105.19 253.513 104.647 253.485 103.353C253.47 102.615 252.822 102.01 252.114 101.799C251.406 101.588 250.647 101.683 249.914 101.779C250.172 97.1125 249.726 92.4069 248.597 87.8713C248.247 86.4677 247.818 85.049 246.968 83.8786C246.118 82.7083 244.77 81.8129 243.324 81.8494C241.327 81.9001 239.646 83.9979 240.032 85.9577L239.617 84.4465" fill="#8A4255"/>
<path d="M252.067 75.459C254.162 73.6941 254.136 71.234 255.653 69.3596C256.443 68.3859 259.977 68.07 258.929 67.0687C257.547 65.747 254.042 63.1935 252.035 63.861C250.483 64.3772 249.866 66.2063 249.502 67.8012C249.101 69.5643 248.746 71.3373 248.439 73.1182C248.254 74.1836 248.186 75.499 249.075 76.1131C249.98 76.7379 251.226 76.1674 252.067 75.459Z" fill="#472520"/>
<path d="M213.99 238.633C209.578 239.708 204.93 239.811 201.089 238.688C193.411 236.442 191.876 230.14 197.66 224.613C200.091 222.289 203.435 220.471 207.058 219.313C207.96 219.79 208.944 220.088 209.95 220.196L210.453 222.314C210.689 222.9 211.3 223.243 211.925 223.139L212.586 223.028C212.623 223.022 212.655 223.015 212.687 223.008C213.428 222.827 213.879 222.061 213.66 221.317L213.48 219.783C213.978 219.607 214.459 219.381 214.923 219.102L216.451 218.131L216.447 218.15L216.852 217.889C217.933 217.924 218.992 218.028 220.011 218.206C219.78 219.146 219.934 220.141 220.409 220.967C220.335 222.587 221.325 224.204 223.087 224.713L228.954 226.406C228.799 228.457 227.655 230.659 225.467 232.749C222.577 235.512 218.402 237.559 213.99 238.633Z" fill="#B1B9E5" fill-opacity="0.49"/>
<path d="M184.824 165.89L186.806 163.539L193.288 163.212L196.706 168.509L194.575 171.554L184.824 165.89Z" fill="#7C3AED"/>
<path d="M190.348 169.919C187.397 168.957 185.528 166.571 186.177 164.578C186.827 162.586 189.743 161.76 192.695 162.722C195.647 163.685 197.516 166.071 196.867 168.063C196.217 170.056 193.301 170.882 190.348 169.919Z" fill="#7C3AED"/>
<path d="M188.51 172.403C185.477 171.414 183.556 168.962 184.224 166.915C184.891 164.868 187.888 164.019 190.921 165.007C193.955 165.996 195.875 168.449 195.208 170.496C194.54 172.543 191.544 173.392 188.51 172.403Z" fill="#A67BF0"/>
<path d="M189.117 170.54C187.766 170.1 186.937 168.922 187.268 167.907C187.598 166.893 188.962 166.43 190.313 166.87C191.665 167.311 192.493 168.489 192.163 169.503C191.832 170.518 190.469 170.981 189.117 170.54Z" fill="#D3BEF7"/>
<path d="M194.902 214.742L196.883 212.392L203.366 212.064L206.784 217.361L204.652 220.406L194.902 214.742Z" fill="#7C3AED"/>
<path d="M200.426 218.772C197.474 217.81 195.606 215.423 196.255 213.431C196.905 211.439 199.821 210.612 202.772 211.574C205.725 212.537 207.594 214.923 206.944 216.916C206.295 218.908 203.379 219.734 200.426 218.772Z" fill="#7C3AED"/>
<path d="M198.587 221.256C195.554 220.267 193.634 217.815 194.301 215.767C194.969 213.72 197.966 212.871 200.999 213.86C204.032 214.849 205.953 217.301 205.285 219.348C204.618 221.395 201.621 222.245 198.587 221.256Z" fill="#A67BF0"/>
<path d="M199.195 219.393C197.844 218.952 197.015 217.774 197.346 216.76C197.676 215.745 199.04 215.282 200.391 215.723C201.743 216.163 202.571 217.341 202.24 218.356C201.91 219.37 200.547 219.834 199.195 219.393Z" fill="#D3BEF6"/>
<path d="M193.43 160.155L208.278 230.348C209.855 237.81 215.788 239.744 221.46 234.646L224.294 232.101C229.457 227.459 232.502 218.118 231.068 211.325L216.221 141.132C214.639 133.679 208.707 131.745 203.038 136.834L200.2 139.388C195.042 144.021 191.993 153.372 193.43 160.155Z" fill="#6B7280"/>
<path d="M194.342 148.965C195.569 145.202 197.623 141.699 200.2 139.387L201.28 138.413C203.82 139.088 205.836 141.469 206.659 145.37L221.506 215.563C222.224 218.959 221.822 222.991 220.595 226.753C219.368 230.516 217.314 234.018 214.736 236.33L213.657 237.305C211.113 236.639 209.101 234.249 208.278 230.348L193.43 160.155C192.71 156.768 193.115 152.727 194.342 148.965" fill="#6B7280"/>
<path d="M216.372 237.374C215.182 236.169 214.275 234.384 213.786 232.072L198.935 161.888C197.501 155.096 200.55 145.745 205.708 141.112L208.543 138.567C210.259 137.025 211.997 136.133 213.632 135.839C210.988 133.151 206.95 133.324 203.038 136.833L200.201 139.388C195.042 144.021 191.993 153.371 193.431 160.155L208.278 230.348C209.378 235.553 212.598 238.061 216.372 237.374" fill="#7C3AED"/>
<path d="M124.588 93.2473C122.855 95.4193 107.882 106.397 103.655 109.479C101.295 111.201 98.6816 112.079 96.0549 112.089C94.0949 112.094 92.1216 111.623 90.2416 110.647C86.6683 108.825 83.8417 105.443 82.1884 101.145C81.7884 100.137 81.4682 99.078 81.2149 97.974L75.0683 71.214C74.3349 67.9913 75.7883 64.6126 78.3217 63.674C80.855 62.734 83.5216 64.586 84.2549 67.818L90.4016 94.578L90.4149 94.63C90.9216 96.7926 92.1617 98.5193 93.8017 99.366C95.4817 100.221 97.3216 100.058 98.8816 98.9233C101.215 97.2193 113.935 89.502 117.895 84.558C119.775 82.2033 122.802 82.246 124.655 84.6473C126.508 87.042 126.482 90.902 124.588 93.2473Z" fill="#F9AD94"/>
<path d="M94.5351 93.9968L86.9217 68.4608C86.3484 66.5381 85.0417 64.9502 83.2417 63.9875C81.4417 63.0262 79.375 62.8075 77.4017 63.3675C75.4417 63.9275 73.8151 65.2021 72.8284 66.9555C71.8418 68.7115 71.6151 70.7355 72.1885 72.6528L79.8284 98.2715C80.1884 99.4501 80.6284 100.561 81.1351 101.574L81.4551 102.206C81.6551 102.592 82.1085 102.775 82.5218 102.638L83.215 102.411C83.6017 102.282 84.0016 102.133 84.375 101.983C88.0016 100.557 91.3617 98.4115 94.1217 95.7808L94.5483 95.3702C94.815 95.1115 94.895 94.7115 94.7217 94.3795L94.5351 93.9968" fill="#E1ECF9"/>
</svg>
