<svg width="70" height="46" viewBox="0 0 70 46" fill="none" xmlns="http://www.w3.org/2000/svg">
<path d="M18.0464 18.6972C19.077 23.9377 21.6314 28.7412 23.2352 33.8348C23.723 35.3852 24.0923 37.1849 23.2032 38.5448C22.8961 39.0157 22.4529 39.3993 22.2161 39.9093C21.9785 40.4192 22.0452 41.1517 22.557 41.3876C22.7626 41.4819 22.9994 41.4775 23.2255 41.4588C24.7679 41.3351 26.2595 40.6542 27.3641 39.5701C27.6426 39.2969 27.9034 38.9872 28.0209 38.6143C28.1509 38.2022 28.0921 37.7563 28.0325 37.3273C27.1487 31.0072 26.054 24.235 21.6261 19.6389C20.9933 18.982 20.178 18.3403 19.2719 18.4489C18.3659 18.5584 17.7331 19.8917 18.4816 20.4141L18.0464 18.6972" fill="#7C3AED"/>
<path d="M59.385 20.3797C59.7241 22.4197 60.0632 24.4597 60.4023 26.4996C60.4878 27.014 60.5723 27.5507 60.4112 28.0465C60.057 29.1376 58.7451 29.5292 57.621 29.7615C56.828 29.9244 55.9824 30.0837 55.2295 29.7873C54.4765 29.491 53.9256 28.5422 54.3421 27.8489C54.7845 27.1102 55.9255 27.1466 56.5004 26.5058C57.2676 25.6505 56.5716 24.3315 55.962 23.3578C55.3167 22.3271 54.7685 21.1977 54.6661 19.9864C54.5646 18.776 54.9785 17.4676 55.9539 16.7413C56.9285 16.0159 58.4879 16.0756 59.2302 17.0386C59.7117 17.6625 59.7819 18.5071 59.7481 19.2948C59.7152 20.0682 59.6004 20.8372 59.4055 21.5866L59.385 20.3797Z" fill="#7C3AED"/>
<path d="M18.7959 2.58389C18.1738 1.21591 16.1187 1.07969 14.9109 1.97416C13.7032 2.86864 13.1629 4.39237 12.7748 5.84489C12.3592 7.3971 12.0424 8.97692 11.8243 10.5701C15.0782 9.17095 15.7271 4.44402 18.8964 2.86512L18.7959 2.58389Z" fill="#7C3AED"/>
<path d="M1.03374 14.8865C1.18304 15.9359 2.25714 16.9845 3.70901 17.6766C7.0987 19.3067 10.1317 18.4392 13.5124 17.5512C18.1355 16.327 17.5193 17.8027 17.9963 20.9917C18.6526 25.3415 19.6666 29.076 26.6955 30.7681C28.1674 31.1176 29.7284 31.2783 31.2895 31.3347C35.8124 31.4954 40.3865 30.7195 44.3533 29.2014C47.7641 27.9012 50.7169 24.4042 54.2959 23.7262C56.8309 23.2505 61.5342 24.2224 62.917 25.8102C65.6404 28.9357 61.0473 29.3903 60.5503 31.6357C59.9231 34.4117 66.9029 32.8732 68.2856 32.3693C68.6233 32.2438 68.9609 32.1036 69.1704 31.8802C69.5581 31.4883 69.4489 30.964 69.3788 30.4883C69.1403 28.8173 69.5681 27.1315 69.4589 25.4535C69.3297 23.5514 67.1223 22.5232 66.7345 20.9917C66.3367 19.4603 67.1023 17.9916 67.3017 16.4672C68.1263 10.369 61.6044 7.9637 53.819 8.59304C49.9614 8.90736 46.1429 9.76079 42.683 10.9709C38.8354 12.3064 33.586 14.0408 30.504 10.4881C29.4499 9.28508 29.4799 7.69729 28.2365 6.59294L27.1834 6.72543C26.0001 4.22214 22.4701 2.34821 18.7217 2.2432C15.4011 2.14524 11.9112 3.47369 10.2309 5.51607C8.73898 7.34068 8.13281 9.52261 5.94549 10.9772C5.32927 11.3902 4.39442 11.7884 3.47961 12.2084C3.14195 12.3691 2.81324 12.5298 2.49561 12.6975C1.32229 13.3205 0.914509 14.1035 1.03374 14.8865Z" fill="#7C3AED"/>
<path d="M48.9736 25.6013C48.6438 25.5744 48.2875 25.5538 48.0092 25.7381C47.6908 25.9489 47.5682 26.3673 47.52 26.7565C47.4872 27.0234 47.4788 27.3001 47.5582 27.5565C47.6376 27.8131 47.8176 28.0479 48.0648 28.1314C47.8806 28.3902 47.4903 28.4124 47.2222 28.2486C46.9542 28.0848 46.791 27.7844 46.6859 27.4811C46.5201 27.0019 46.4708 26.469 46.6119 25.9823C46.753 25.4956 47.0992 25.063 47.56 24.8899C48.0209 24.7171 48.5881 24.8386 48.9038 25.2287C48.9526 25.2889 48.9971 25.3626 48.9867 25.44C48.9721 25.5483 48.8517 25.6125 48.7469 25.601C48.6419 25.5894 48.5507 25.5242 48.4645 25.461L48.9736 25.6013" fill="#7C3AED"/>
<path d="M49.5252 24.4551C49.1954 24.4281 48.8391 24.4076 48.5607 24.5918C48.2423 24.8026 48.1197 25.221 48.0716 25.6102C48.0388 25.8771 48.0303 26.1538 48.1098 26.4102C48.1892 26.6669 48.3692 26.9017 48.6164 26.9852C48.4322 27.244 48.0418 27.2661 47.7738 27.1024C47.5058 26.9386 47.3426 26.6382 47.2374 26.3348C47.0716 25.8556 47.0223 25.3228 47.1634 24.8361C47.3046 24.3493 47.6507 23.9167 48.1116 23.7437C48.5724 23.5708 49.1396 23.6924 49.4553 24.0825C49.5042 24.1427 49.5487 24.2164 49.5382 24.2938C49.5237 24.4021 49.4032 24.4663 49.2985 24.4547C49.1935 24.4432 49.1023 24.378 49.016 24.3147L49.5252 24.4551" fill="#7C3AED"/>
<path d="M50.8519 24.4551C50.5221 24.4281 50.1658 24.4076 49.8874 24.5918C49.569 24.8026 49.4464 25.221 49.3983 25.6102C49.3655 25.8771 49.357 26.1538 49.4364 26.4102C49.5159 26.6669 49.6959 26.9017 49.9431 26.9852C49.7589 27.244 49.3685 27.2661 49.1005 27.1024C48.8324 26.9386 48.6693 26.6382 48.5641 26.3348C48.3983 25.8556 48.349 25.3228 48.4901 24.8361C48.6313 24.3493 48.9774 23.9167 49.4382 23.7437C49.8991 23.5708 50.4663 23.6924 50.782 24.0825C50.8309 24.1427 50.8754 24.2164 50.8649 24.2938C50.8503 24.4021 50.7299 24.4663 50.6251 24.4547C50.5202 24.4432 50.429 24.378 50.3427 24.3147L50.8519 24.4551" fill="#7C3AED"/>
<path d="M51.4795 23.9315C51.1497 23.9046 50.7934 23.884 50.515 24.0683C50.1966 24.2791 50.074 24.6975 50.0259 25.0867C49.9931 25.3536 49.9846 25.6303 50.0641 25.8867C50.1435 26.1433 50.3235 26.3781 50.5707 26.4616C50.3865 26.7204 49.9961 26.7426 49.7281 26.5788C49.4601 26.415 49.2969 26.1146 49.1917 25.8113C49.0259 25.3321 48.9766 24.7992 49.1177 24.3125C49.2589 23.8258 49.605 23.3932 50.0659 23.2201C50.5267 23.0473 51.0939 23.1688 51.4096 23.5589C51.4585 23.6191 51.503 23.6928 51.4925 23.7702C51.478 23.8785 51.3575 23.9427 51.2528 23.9312C51.1478 23.9196 51.0566 23.8544 50.9703 23.7912L51.4795 23.9315" fill="#7C3AED"/>
<path d="M52.7626 22.7482C52.4328 22.7212 52.0765 22.7007 51.7982 22.8849C51.4798 23.0957 51.3572 23.5141 51.309 23.9033C51.2762 24.1702 51.2678 24.4469 51.3472 24.7033C51.4266 24.96 51.6066 25.1948 51.8538 25.2783C51.6696 25.537 51.2793 25.5592 51.0112 25.3954C50.7432 25.2317 50.58 24.9313 50.4749 24.6279C50.3091 24.1487 50.2598 23.6159 50.4009 23.1292C50.542 22.6424 50.8882 22.2098 51.349 22.0367C51.8099 21.8639 52.3771 21.9854 52.6928 22.3756C52.7416 22.4358 52.7861 22.5095 52.7757 22.5869C52.7611 22.6952 52.6407 22.7593 52.5359 22.7478C52.4309 22.7363 52.3397 22.6711 52.2535 22.6078L52.7626 22.7482" fill="#7C3AED"/>
<path d="M59.2104 10.6467C60.4671 10.7971 61.8262 10.9279 62.92 10.2916C64.1714 9.56351 64.7072 8.03975 64.9537 6.61215C65.1219 5.63312 65.1985 4.61405 64.936 3.65638C64.6734 2.69782 64.0228 1.80426 63.0909 1.45804C63.8368 0.532409 65.3329 0.511004 66.3315 1.15627C67.3301 1.80154 67.906 2.93456 68.2593 4.06934C68.8165 5.86186 68.9197 7.83415 68.302 9.60708C67.6844 11.38 66.2914 12.9216 64.5016 13.4885C62.7118 14.0546 60.5624 13.5188 59.4178 12.0315C59.2407 11.8019 59.0823 11.5234 59.1348 11.2394C59.2077 10.8425 59.6785 10.6244 60.0773 10.6832C60.4769 10.7419 60.8151 10.9964 61.1347 11.243L59.2104 10.6467" fill="#7C3AED"/>
<path d="M67.6432 4.72057C67.6614 4.92332 67.6857 5.1417 67.8097 5.29667C67.9517 5.47397 68.1834 5.51591 68.3924 5.51485C68.5358 5.51398 68.6819 5.49752 68.8087 5.42921C68.9356 5.36086 69.0412 5.23304 69.0607 5.07612C69.2147 5.16801 69.2647 5.40377 69.205 5.57961C69.1454 5.75546 69.0037 5.87818 68.8548 5.96581C68.6195 6.10406 68.3446 6.17565 68.0752 6.12775C67.8058 6.07985 67.5447 5.903 67.4086 5.63612C67.2726 5.36922 67.2806 5.01464 67.4544 4.79214C67.4813 4.75773 67.5156 4.72489 67.5572 4.72523C67.6155 4.72564 67.661 4.7939 67.6653 4.85854C67.6695 4.92332 67.6443 4.98389 67.6195 5.04128L67.6432 4.72057" fill="#7C3AED"/>
<path d="M66.8766 3.18191C66.8819 3.31972 66.8922 3.46786 67.005 3.5663C67.1341 3.67892 67.3603 3.69317 67.5668 3.67937C67.7084 3.66981 67.8538 3.64939 67.9833 3.59465C68.1129 3.53987 68.2251 3.44567 68.2543 3.33691C68.4006 3.39025 68.4352 3.54869 68.3653 3.67293C68.2954 3.79717 68.1478 3.89013 67.9952 3.95949C67.7542 4.06895 67.4783 4.1352 67.2152 4.11923C66.9522 4.10325 66.7054 3.99839 66.5876 3.82401C66.47 3.64961 66.5001 3.40612 66.6857 3.24277C66.7143 3.2175 66.7503 3.19286 66.7914 3.19048C66.8489 3.18712 66.8896 3.23105 66.8898 3.27508C66.8899 3.31921 66.8612 3.3623 66.8332 3.40317L66.8766 3.18191" fill="#7C3AED"/>
<path d="M14.1265 14.9315C13.4625 14.9703 12.7473 15.0287 12.2405 15.4594C11.6608 15.9521 11.525 16.79 11.53 17.5514C11.5338 18.0734 11.5887 18.6077 11.8134 19.0787C12.0382 19.5502 12.4577 19.952 12.9718 20.0447C12.6719 20.5927 11.9 20.7426 11.3235 20.5015C10.7471 20.2603 10.3441 19.7277 10.056 19.1735C9.60147 18.2979 9.36505 17.2873 9.52004 16.3129C9.67503 15.3385 10.2525 14.4118 11.1257 13.9524C11.9991 13.4935 13.1606 13.5713 13.8907 14.2344C14.0036 14.3367 14.1114 14.4661 14.1106 14.6178C14.1097 14.8299 13.8864 14.9864 13.6747 14.993C13.4625 14.9997 13.2639 14.8995 13.0758 14.8016L14.1265 14.9315" fill="#7C3AED"/>
<path d="M12.9204 14.9315C12.2564 14.9703 11.5412 15.0287 11.0344 15.4594C10.4547 15.9521 10.3189 16.79 10.3239 17.5514C10.3277 18.0734 10.3827 18.6077 10.6073 19.0787C10.8321 19.5502 11.2516 19.952 11.7657 20.0447C11.4658 20.5927 10.6939 20.7426 10.1175 20.5015C9.54101 20.2603 9.13801 19.7277 8.84993 19.1735C8.39539 18.2979 8.15896 17.2873 8.31395 16.3129C8.46895 15.3385 9.04642 14.4118 9.91966 13.9524C10.793 13.4935 11.9545 13.5713 12.6846 14.2344C12.7975 14.3367 12.9053 14.4661 12.9045 14.6178C12.9036 14.8299 12.6803 14.9864 12.4686 14.993C12.2564 14.9997 12.0578 14.8995 11.8697 14.8016L12.9204 14.9315" fill="#7C3AED"/>
<path d="M11.7143 15.8222C11.0503 15.861 10.3351 15.9195 9.82832 16.3501C9.24856 16.8429 9.11282 17.6808 9.11776 18.4421C9.1216 18.9642 9.17655 19.4984 9.40123 19.9695C9.626 20.4409 10.0455 20.8428 10.5596 20.9354C10.2597 21.4834 9.48777 21.6333 8.91133 21.3922C8.3349 21.1511 7.93189 20.6184 7.64381 20.0642C7.18927 19.1887 6.95284 18.178 7.10784 17.2036C7.26283 16.2292 7.84031 15.3025 8.71355 14.8432C9.58687 14.3843 10.7484 14.462 11.4785 15.1251C11.5914 15.2275 11.6992 15.3568 11.6984 15.5086C11.6975 15.7207 11.4742 15.8772 11.2625 15.8838C11.0503 15.8905 10.8517 15.7902 10.6636 15.6923L11.7143 15.8222" fill="#7C3AED"/>
<path d="M14.5923 14.3776C14.0159 14.4175 13.3948 14.4736 12.9494 14.8223C12.4399 15.2213 12.3107 15.8882 12.3046 16.4924C12.3008 16.9067 12.3412 17.33 12.5297 17.7008C12.7182 18.0719 13.0765 18.3851 13.5211 18.4516C13.2535 18.8907 12.582 19.0202 12.0854 18.8367C11.5887 18.6531 11.2465 18.2359 11.0042 17.7999C10.6219 17.1113 10.4307 16.3123 10.5784 15.5368C10.7261 14.7614 11.2396 14.018 12.0032 13.6415C12.7668 13.2654 13.7732 13.3112 14.3973 13.8275C14.4938 13.9072 14.5856 14.0084 14.5828 14.1289C14.5791 14.2973 14.3833 14.4245 14.1996 14.4326C14.0155 14.4408 13.8446 14.364 13.6828 14.2889L14.5923 14.3776" fill="#7C3AED"/>
<path d="M2.6658 15.1909C3.59444 15.297 4.5965 15.4242 5.3512 15.8153C6.21458 16.2628 6.49959 16.9262 6.58001 17.5142C6.63453 17.9174 6.61931 18.3242 6.36062 18.6626C6.10186 19.0013 5.56413 19.2639 4.85916 19.2766C5.33941 19.7346 6.43096 19.9391 7.20558 19.8187C7.98021 19.6984 8.48002 19.3328 8.81742 18.9373C9.34964 18.3126 9.56281 17.5583 9.23536 16.7871C8.90791 16.016 7.99794 15.2333 6.72991 14.778C5.46182 14.3231 3.8541 14.25 2.91404 14.679C2.76861 14.7451 2.63342 14.8328 2.65195 14.9502C2.67755 15.1143 3.00627 15.2609 3.30168 15.2903C3.59773 15.3198 3.86263 15.2651 4.11328 15.211L2.6658 15.1909" fill="#7C3AED"/>
<path d="M17.0781 15.4879C16.414 15.5267 15.6988 15.5851 15.1921 16.0158C14.6123 16.5085 14.4766 17.3464 14.4815 18.1078C14.4854 18.6298 14.5403 19.1641 14.765 19.6351C14.9898 20.1066 15.4092 20.5084 15.9234 20.6011C15.6235 21.1491 14.8515 21.299 14.2751 21.0579C13.6987 20.8167 13.2956 20.2841 13.0076 19.7299C12.553 18.8543 12.3166 17.8437 12.4716 16.8693C12.6266 15.8949 13.2041 14.9682 14.0773 14.5088C14.9506 14.0499 16.1122 14.1276 16.8423 14.7908C16.9552 14.8931 17.063 15.0225 17.0622 15.1742C17.0612 15.3863 16.8379 15.5428 16.6262 15.5494C16.4141 15.5561 16.2155 15.4559 16.0273 15.358L17.0781 15.4879" fill="#7C3AED"/>
<path d="M15.872 15.4879C15.2079 15.5267 14.4927 15.5851 13.986 16.0158C13.4062 16.5085 13.2705 17.3464 13.2754 18.1078C13.2793 18.6298 13.3342 19.1641 13.5589 19.6351C13.7837 20.1066 14.2031 20.5084 14.7173 20.6011C14.4174 21.1491 13.6454 21.299 13.069 21.0579C12.4925 20.8167 12.0895 20.2841 11.8015 19.7299C11.3469 18.8543 11.1105 17.8437 11.2655 16.8693C11.4205 15.8949 11.998 14.9682 12.8712 14.5088C13.7445 14.0499 14.9061 14.1276 15.6362 14.7908C15.7491 14.8931 15.8569 15.0225 15.8561 15.1742C15.8551 15.3863 15.6318 15.5428 15.4201 15.5494C15.208 15.5561 15.0094 15.4559 14.8212 15.358L15.872 15.4879" fill="#7C3AED"/>
<path d="M14.6659 16.3786C14.0018 16.4174 13.2867 16.4759 12.7799 16.9065C12.2001 17.3993 12.0644 18.2372 12.0693 18.9985C12.0732 19.5206 12.1281 20.0548 12.3528 20.5258C12.5776 20.9973 12.997 21.3992 13.5112 21.4918C13.2113 22.0398 12.4393 22.1897 11.8629 21.9486C11.2865 21.7075 10.8835 21.1748 10.5954 20.6206C10.1408 19.7451 9.90441 18.7344 10.0594 17.76C10.2144 16.7856 10.7919 15.8589 11.6651 15.3996C12.5384 14.9407 13.7 15.0184 14.4301 15.6815C14.543 15.7838 14.6508 15.9132 14.65 16.065C14.6491 16.2771 14.4258 16.4336 14.2141 16.4402C14.0019 16.4469 13.8033 16.3466 13.6151 16.2487L14.6659 16.3786" fill="#7C3AED"/>
<path d="M10.2687 9.9722C10.8705 9.68885 11.5125 9.36824 11.8224 8.77979C12.1769 8.10658 11.9908 7.27839 11.7026 6.57367C11.5046 6.09062 11.2546 5.61528 10.8707 5.26184C10.4865 4.908 9.94749 4.69131 9.43583 4.79686C9.51005 4.17657 10.1706 3.74993 10.7954 3.75899C11.4201 3.76805 11.9925 4.11227 12.4663 4.5193C13.2143 5.16253 13.8101 6.01239 14.0292 6.97442C14.2483 7.93646 14.0575 9.01154 13.4182 9.7631C12.7787 10.5143 11.6718 10.8748 10.7472 10.5313C10.6043 10.4784 10.4561 10.3985 10.4003 10.2574C10.3222 10.0602 10.4711 9.83178 10.6651 9.74679C10.8595 9.66155 11.0812 9.68063 11.2922 9.70139L10.2687 9.9722" fill="#7C3AED"/>
<path d="M10.2687 10.9087C10.8705 10.6254 11.5125 10.3048 11.8224 9.71632C12.1769 9.04311 11.9908 8.21491 11.7026 7.51019C11.5046 7.02714 11.2546 6.5518 10.8707 6.19836C10.4865 5.84453 9.94749 5.62783 9.43583 5.73338C9.51005 5.11309 10.1706 4.68645 10.7954 4.69551C11.4201 4.70457 11.9925 5.04879 12.4663 5.45582C13.2143 6.09905 13.8101 6.94891 14.0292 7.91095C14.2483 8.87298 14.0575 9.94806 13.4182 10.6996C12.7787 11.4508 11.6718 11.8113 10.7472 11.4679C10.6043 11.4149 10.4561 11.335 10.4003 11.1939C10.3222 10.9967 10.4711 10.7683 10.6651 10.6833C10.8595 10.5981 11.0812 10.6172 11.2922 10.6379L10.2687 10.9087" fill="#7C3AED"/>
<path d="M17.5439 14.934C16.9674 14.9739 16.3464 15.03 15.901 15.3787C15.3915 15.7777 15.2623 16.4446 15.2562 17.0488C15.2524 17.4631 15.2928 17.8864 15.4812 18.2572C15.6697 18.6283 16.028 18.9415 16.4727 19.008C16.2051 19.4471 15.5336 19.5766 15.037 19.3931C14.5403 19.2095 14.1981 18.7923 13.9558 18.3563C13.5735 17.6676 13.3822 16.8687 13.53 16.0932C13.6777 15.3177 14.1911 14.5744 14.9547 14.1979C15.7184 13.8218 16.7247 13.8676 17.3489 14.3839C17.4454 14.4636 17.5371 14.5648 17.5344 14.6853C17.5307 14.8536 17.3349 14.9809 17.1512 14.989C16.9671 14.9972 16.7962 14.9204 16.6344 14.8452L17.5439 14.934" fill="#7C3AED"/>
<path d="M8.47206 7.2405C9.40069 7.13435 10.4028 7.00716 11.1575 6.61607C12.0208 6.16865 12.3059 5.50524 12.3863 4.91717C12.4408 4.51399 12.4256 4.10724 12.1669 3.76884C11.9081 3.43009 11.3704 3.1675 10.6654 3.15484C11.1457 2.69675 12.2372 2.49234 13.0118 2.61266C13.7865 2.73299 14.2863 3.09859 14.6237 3.49405C15.1559 4.11884 15.3691 4.87311 15.0416 5.64426C14.7142 6.4154 13.8042 7.19807 12.5362 7.65335C11.2681 8.10829 9.66036 8.18139 8.7203 7.75243C8.57486 7.68625 8.43968 7.59858 8.45821 7.48117C8.48381 7.31707 8.81253 7.17048 9.10794 7.14109C9.40399 7.11159 9.66889 7.16634 9.91954 7.22044L8.47206 7.2405" fill="#7C3AED"/>
<path d="M22.8843 6.94353C22.2203 6.90472 21.5051 6.84629 20.9983 6.4156C20.4186 5.92288 20.2828 5.08495 20.2878 4.32361C20.2916 3.80156 20.3466 3.26731 20.5712 2.7963C20.796 2.32482 21.2155 1.92297 21.7296 1.83035C21.4297 1.28233 20.6578 1.13242 20.0813 1.37354C19.5049 1.61466 19.1019 2.14731 18.8138 2.70152C18.3593 3.57705 18.1229 4.5877 18.2779 5.56212C18.4328 6.53654 19.0103 7.46321 19.8836 7.92256C20.7569 8.38146 21.9184 8.30375 22.6485 7.64064C22.7614 7.5383 22.8692 7.40891 22.8684 7.25718C22.8675 7.04507 22.6442 6.88859 22.4325 6.88197C22.2203 6.87527 22.0217 6.97554 21.8336 7.07342L22.8843 6.94353" fill="#7C3AED"/>
<path d="M21.6782 6.94353C21.0142 6.90472 20.299 6.84629 19.7922 6.4156C19.2125 5.92288 19.0767 5.08495 19.0817 4.32361C19.0855 3.80156 19.1405 3.26731 19.3652 2.7963C19.5899 2.32482 20.0094 1.92297 20.5235 1.83035C20.2236 1.28233 19.4517 1.13242 18.8753 1.37354C18.2988 1.61466 17.8958 2.14731 17.6077 2.70152C17.1532 3.57705 16.9168 4.5877 17.0718 5.56212C17.2268 6.53654 17.8042 7.46321 18.6775 7.92256C19.5508 8.38146 20.7124 8.30375 21.4424 7.64064C21.5554 7.5383 21.6632 7.40891 21.6623 7.25718C21.6614 7.04507 21.4381 6.88859 21.2264 6.88197C21.0142 6.87527 20.8157 6.97554 20.6275 7.07342L21.6782 6.94353" fill="#7C3AED"/>
<path d="M20.4721 6.05291C19.8081 6.01409 19.0929 5.95566 18.5861 5.52498C18.0064 5.03225 17.8706 4.19433 17.8756 3.43298C17.8794 2.91094 17.9344 2.37669 18.1591 1.90567C18.3838 1.43419 18.8033 1.03234 19.3174 0.939721C19.0175 0.391702 18.2456 0.241797 17.6692 0.482916C17.0927 0.724035 16.6897 1.25669 16.4016 1.8109C15.9471 2.68643 15.7107 3.69707 15.8657 4.67149C16.0207 5.64591 16.5981 6.57258 17.4714 7.03194C18.3447 7.49084 19.5063 7.41312 20.2363 6.75002C20.3493 6.64767 20.4571 6.51829 20.4562 6.36655C20.4553 6.15444 20.232 5.99796 20.0203 5.99135C19.8081 5.98465 19.6096 6.08492 19.4214 6.1828L20.4721 6.05291" fill="#7C3AED"/>
<path d="M23.3501 7.49739C22.7737 7.45753 22.1526 7.40139 21.7073 7.05266C21.1977 6.65368 21.0686 5.98678 21.0625 5.38258C21.0587 4.96829 21.0991 4.54502 21.2875 4.17424C21.476 3.8031 21.8343 3.48988 22.279 3.42339C22.0114 2.98434 21.3399 2.85483 20.8432 3.03834C20.3466 3.22185 20.0043 3.63911 19.762 4.07505C19.3798 4.76375 19.1885 5.56265 19.3362 6.33815C19.4839 7.11365 19.9974 7.857 20.761 8.2335C21.5247 8.60963 22.531 8.5638 23.1551 8.04746C23.2517 7.96777 23.3434 7.86655 23.3406 7.74611C23.3369 7.57775 23.1411 7.4505 22.9574 7.44237C22.7733 7.43416 22.6025 7.51103 22.4406 7.58615L23.3501 7.49739" fill="#7C3AED"/>
<path d="M1.4597 14.031C2.38833 14.1371 3.3904 14.2643 4.1451 14.6554C5.00848 15.1028 5.29349 15.7662 5.37391 16.3543C5.42843 16.7575 5.41321 17.1642 5.15452 17.5026C4.89576 17.8414 4.35803 18.104 3.65306 18.1166C4.13331 18.5747 5.22486 18.7791 5.99948 18.6588C6.77411 18.5385 7.27392 18.1729 7.61132 17.7774C8.14354 17.1526 8.35671 16.3984 8.02926 15.6272C7.70181 14.8561 6.79184 14.0734 5.52381 13.6181C4.25572 13.1632 2.648 13.0901 1.70794 13.5191C1.5625 13.5852 1.42732 13.6729 1.44585 13.7903C1.47145 13.9544 1.80017 14.101 2.09558 14.1304C2.39163 14.1599 2.65653 14.1051 2.90718 14.051L1.4597 14.031" fill="#7C3AED"/>
<path d="M67.4387 4.14208C67.6038 4.26111 67.7847 4.38585 67.9831 4.39361C68.21 4.40248 68.3935 4.25488 68.5296 4.09623C68.6229 3.98736 68.7061 3.86618 68.7376 3.72562C68.7691 3.58495 68.7416 3.42145 68.6359 3.30388C68.8061 3.24775 69.017 3.3644 69.1108 3.52465C69.2046 3.6849 69.2046 3.87234 69.1732 4.04227C69.1236 4.3106 68.9976 4.56519 68.785 4.73737C68.5723 4.90956 68.2677 4.99101 67.9768 4.91907C67.6861 4.84702 67.4234 4.60866 67.3691 4.3316C67.3607 4.2888 67.3584 4.24137 67.3859 4.21009C67.4244 4.16633 67.5058 4.17665 67.5574 4.21579C67.6091 4.255 67.6384 4.31377 67.6655 4.37004L67.4387 4.14208" fill="#7C3AED"/>
<path d="M40.8501 14.271C41.0153 14.39 41.1961 14.5148 41.3945 14.5225C41.6215 14.5314 41.8049 14.3838 41.9411 14.2251C42.0343 14.1163 42.1176 13.9951 42.149 13.8545C42.1805 13.7139 42.1531 13.5504 42.0473 13.4328C42.2176 13.3767 42.4285 13.4933 42.5223 13.6536C42.6161 13.8138 42.616 14.0012 42.5847 14.1712C42.535 14.4395 42.409 14.6941 42.1964 14.8663C41.9837 15.0385 41.6791 15.1199 41.3882 15.048C41.0975 14.9759 40.8348 14.7376 40.7806 14.4605C40.7721 14.4177 40.7698 14.3703 40.7973 14.339C40.8358 14.2952 40.9172 14.3056 40.9688 14.3447C41.0206 14.3839 41.0498 14.4427 41.0769 14.499L40.8501 14.271" fill="#7C3AED"/>
<path d="M52.6023 9.18628C52.9328 9.17201 53.2889 9.14808 53.5422 8.93063C53.8319 8.68186 53.9015 8.25147 53.9009 7.85931C53.9003 7.59041 53.8742 7.31479 53.7635 7.07026C53.6528 6.8255 53.445 6.61493 53.1893 6.56279C53.3399 6.28313 53.7244 6.21258 54.0108 6.34173C54.2971 6.47088 54.4964 6.74868 54.6384 7.0366C54.8625 7.49143 54.9778 8.01398 54.8983 8.5145C54.8188 9.01502 54.5291 9.4873 54.0934 9.71636C53.6576 9.94518 53.0797 9.89515 52.7179 9.54734C52.662 9.49366 52.6086 9.42609 52.6094 9.34795C52.6104 9.23872 52.7219 9.16005 52.8273 9.15847C52.9329 9.15684 53.0315 9.2102 53.1249 9.26223L52.6023 9.18628" fill="#7C3AED"/>
<path d="M56.9816 10.0183C56.651 10.004 56.2949 9.98011 56.0417 9.76266C55.7519 9.51389 55.6823 9.0835 55.683 8.69135C55.6836 8.42245 55.7097 8.14682 55.8204 7.9023C55.9311 7.65753 56.1389 7.44696 56.3946 7.39482C56.244 7.11516 55.8594 7.04461 55.5731 7.17376C55.2868 7.30291 55.0875 7.58071 54.9455 7.86863C54.7213 8.32347 54.6061 8.84601 54.6856 9.34653C54.7651 9.84705 55.0547 10.3193 55.4905 10.5484C55.9262 10.7772 56.5042 10.7272 56.8659 10.3794C56.9219 10.3257 56.9752 10.2581 56.9745 10.18C56.9735 10.0707 56.862 9.99208 56.7566 9.9905C56.651 9.98888 56.5524 10.0422 56.459 10.0943L56.9816 10.0183" fill="#7C3AED"/>
<path d="M57.9262 10.5385C57.5956 10.5242 57.2395 10.5002 56.9863 10.2828C56.6965 10.034 56.627 9.60364 56.6276 9.21149C56.6282 8.94259 56.6543 8.66696 56.765 8.42244C56.8757 8.17768 57.0835 7.9671 57.3392 7.91497C57.1886 7.6353 56.804 7.56475 56.5177 7.6939C56.2314 7.82305 56.0321 8.10085 55.8901 8.38877C55.6659 8.84361 55.5507 9.36615 55.6302 9.86667C55.7097 10.3672 55.9993 10.8395 56.4351 11.0685C56.8708 11.2974 57.4488 11.2473 57.8106 10.8995C57.8665 10.8458 57.9198 10.7783 57.9191 10.7001C57.9181 10.5909 57.8066 10.5122 57.7012 10.5106C57.5956 10.509 57.497 10.5624 57.4036 10.6144L57.9262 10.5385" fill="#7C3AED"/>
<path d="M59.669 9.3761C59.3384 9.36183 58.9823 9.3379 58.729 9.12045C58.4393 8.87168 58.3697 8.44129 58.3703 8.04913C58.371 7.78023 58.397 7.50461 58.5077 7.26008C58.6185 7.01532 58.8263 6.80474 59.0819 6.75261C58.9313 6.47295 58.5468 6.4024 58.2605 6.53155C57.9741 6.6607 57.7748 6.9385 57.6328 7.22641C57.4087 7.68125 57.2934 8.2038 57.3729 8.70432C57.4524 9.20484 57.7421 9.67712 58.1778 9.90618C58.6136 10.135 59.1915 10.085 59.5533 9.73716C59.6092 9.68348 59.6626 9.61591 59.6618 9.53777C59.6608 9.42854 59.5493 9.34987 59.4439 9.34828C59.3383 9.34666 59.2397 9.40002 59.1463 9.45205L59.669 9.3761" fill="#7C3AED"/>
<path d="M60.7607 10.4343C60.4301 10.4201 60.074 10.3961 59.8208 10.1787C59.531 9.9299 59.4614 9.49952 59.4621 9.10736C59.4627 8.83846 59.4888 8.56283 59.5995 8.31831C59.7102 8.07355 59.918 7.86297 60.1737 7.81084C60.0231 7.53118 59.6385 7.46062 59.3522 7.58977C59.0659 7.71892 58.8666 7.99673 58.7245 8.28464C58.5004 8.73948 58.3852 9.26203 58.4647 9.76255C58.5442 10.2631 58.8338 10.7353 59.2695 10.9644C59.7053 11.1932 60.2833 11.1432 60.645 10.7954C60.701 10.7417 60.7543 10.6741 60.7535 10.596C60.7526 10.4868 60.6411 10.4081 60.5357 10.4065C60.4301 10.4049 60.3315 10.4582 60.2381 10.5103L60.7607 10.4343" fill="#7C3AED"/>
<path d="M61.7053 10.7119C61.3747 10.6976 61.0186 10.6737 60.7654 10.4563C60.4756 10.2075 60.4061 9.77711 60.4067 9.38495C60.4073 9.11605 60.4334 8.84042 60.5441 8.5959C60.6548 8.35114 60.8626 8.14056 61.1183 8.08843C60.9677 7.80877 60.5831 7.73821 60.2968 7.86736C60.0105 7.99651 59.8112 8.27431 59.6692 8.56223C59.445 9.01707 59.3298 9.53962 59.4093 10.0401C59.4888 10.5407 59.7784 11.0129 60.2142 11.242C60.6499 11.4708 61.2279 11.4208 61.5897 11.073C61.6456 11.0193 61.6989 10.9517 61.6982 10.8736C61.6972 10.7644 61.5857 10.6857 61.4803 10.6841C61.3747 10.6825 61.2761 10.7358 61.1827 10.7879L61.7053 10.7119" fill="#7C3AED"/>
<path d="M39.6557 11.1682C39.9448 11.3292 40.2524 11.5103 40.3813 11.8182C40.5287 12.1705 40.3979 12.5864 40.2215 12.9366C40.1003 13.1767 39.9534 13.4114 39.7449 13.5803C39.5361 13.7494 39.256 13.8444 39.0041 13.7764C39.0133 14.0939 39.3253 14.3294 39.6392 14.3423C39.953 14.3553 40.2557 14.1964 40.5118 14.0027C40.9161 13.6967 41.2534 13.2813 41.4068 12.7982C41.5602 12.3152 41.513 11.7632 41.2263 11.3631C40.9394 10.9631 40.4004 10.7487 39.921 10.8974C39.847 10.9203 39.769 10.9567 39.7346 11.0269C39.6865 11.125 39.7509 11.2453 39.8444 11.294C39.9381 11.3428 40.0501 11.3393 40.157 11.3347L39.6557 11.1682" fill="#7C3AED"/>
<path d="M36.2344 12.5765C36.5061 12.3876 36.8039 12.1909 37.1371 12.2105C37.5184 12.233 37.8344 12.5333 38.0715 12.8457C38.2339 13.06 38.3801 13.2951 38.4401 13.5567C38.5003 13.8185 38.4625 14.1119 38.2907 14.3083C38.5799 14.4396 38.9286 14.2628 39.0782 13.9866C39.2278 13.7104 39.2181 13.3686 39.1567 13.0535C39.0595 12.5558 38.8346 12.0703 38.4682 11.7202C38.1017 11.3701 37.5852 11.1698 37.0997 11.2515C36.6144 11.3334 36.1849 11.7233 36.1077 12.2192C36.0957 12.2958 36.0942 12.3818 36.1422 12.4435C36.2091 12.5299 36.3455 12.5249 36.4303 12.4623C36.5153 12.3996 36.5614 12.2975 36.6042 12.1995L36.2344 12.5765" fill="#7C3AED"/>
<path d="M51.6576 10.3417C51.9882 10.3274 52.3443 10.3035 52.5976 10.086C52.8873 9.83725 52.9569 9.40687 52.9563 9.01471C52.9556 8.74581 52.9296 8.47018 52.8189 8.22566C52.7081 7.9809 52.5003 7.77032 52.2447 7.71819C52.3953 7.43853 52.7798 7.36797 53.0661 7.49712C53.3525 7.62627 53.5518 7.90407 53.6938 8.19199C53.9179 8.64683 54.0332 9.16938 53.9537 9.6699C53.8742 10.1704 53.5845 10.6427 53.1488 10.8718C52.713 11.1006 52.1351 11.0505 51.7733 10.7027C51.7174 10.6491 51.664 10.5815 51.6648 10.5033C51.6658 10.3941 51.7773 10.3154 51.8827 10.3139C51.9883 10.3122 52.0869 10.3656 52.1803 10.4176L51.6576 10.3417" fill="#7C3AED"/>
<path d="M50.1289 9.60229C50.4595 9.58803 50.8156 9.56409 51.0689 9.34664C51.3586 9.09787 51.4282 8.66749 51.4276 8.27533C51.4269 8.00643 51.4009 7.7308 51.2902 7.48628C51.1795 7.24152 50.9717 7.03094 50.716 6.97881C50.8666 6.69915 51.2511 6.62859 51.5374 6.75774C51.8238 6.88689 52.0231 7.16469 52.1651 7.45261C52.3892 7.90745 52.5045 8.43 52.425 8.93052C52.3455 9.43103 52.0558 9.90332 51.6201 10.1324C51.1843 10.3612 50.6064 10.3112 50.2446 9.96336C50.1887 9.90967 50.1353 9.84211 50.1361 9.76397C50.1371 9.65473 50.2486 9.57606 50.354 9.57448C50.4596 9.57286 50.5582 9.62621 50.6516 9.67824L50.1289 9.60229" fill="#7C3AED"/>
<path d="M49.1843 10.7577C49.5149 10.7434 49.871 10.7195 50.1243 10.502C50.414 10.2533 50.4836 9.82288 50.483 9.43073C50.4823 9.16183 50.4563 8.8862 50.3456 8.64168C50.2348 8.39691 50.027 8.18634 49.7713 8.1342C49.9219 7.85454 50.3065 7.78399 50.5928 7.91314C50.8791 8.04229 51.0784 8.32009 51.2205 8.60801C51.4446 9.06285 51.5598 9.58539 51.4803 10.0859C51.4009 10.5864 51.1112 11.0587 50.6755 11.2878C50.2397 11.5166 49.6618 11.4666 49.3 11.1188C49.244 11.0651 49.1907 10.9975 49.1915 10.9194C49.1924 10.8101 49.304 10.7315 49.4093 10.7299C49.515 10.7283 49.6136 10.7816 49.707 10.8336L49.1843 10.7577" fill="#7C3AED"/>
<path d="M48.6002 9.60229C48.9308 9.58803 49.2869 9.56409 49.5402 9.34664C49.8299 9.09787 49.8995 8.66749 49.8989 8.27533C49.8982 8.00643 49.8722 7.7308 49.7615 7.48628C49.6508 7.24152 49.443 7.03094 49.1873 6.97881C49.3379 6.69915 49.7224 6.62859 50.0087 6.75774C50.2951 6.88689 50.4944 7.16469 50.6364 7.45261C50.8605 7.90745 50.9758 8.43 50.8963 8.93052C50.8168 9.43103 50.5271 9.90332 50.0914 10.1324C49.6556 10.3612 49.0777 10.3112 48.7159 9.96336C48.66 9.90967 48.6066 9.84211 48.6074 9.76397C48.6084 9.65473 48.7199 9.57606 48.8253 9.57448C48.9309 9.57286 49.0295 9.62621 49.1229 9.67824L48.6002 9.60229" fill="#7C3AED"/>
<path d="M47.6556 11.1737C47.9862 11.1594 48.3423 11.1355 48.5956 10.9181C48.8853 10.6693 48.9549 10.2389 48.9543 9.84674C48.9536 9.57784 48.9276 9.30221 48.8169 9.05769C48.7061 8.81293 48.4983 8.60235 48.2426 8.55022C48.3932 8.27056 48.7778 8.2 49.0641 8.32915C49.3504 8.4583 49.5497 8.73611 49.6918 9.02402C49.9159 9.47886 50.0311 10.0014 49.9516 10.5019C49.8722 11.0024 49.5825 11.4747 49.1468 11.7038C48.711 11.9326 48.1331 11.8826 47.7713 11.5348C47.7153 11.4811 47.662 11.4135 47.6628 11.3354C47.6637 11.2261 47.7753 11.1475 47.8806 11.1459C47.9863 11.1443 48.0849 11.1976 48.1783 11.2497L47.6556 11.1737" fill="#7C3AED"/>
<path d="M45.5428 10.7577C45.8734 10.7434 46.2295 10.7195 46.4828 10.502C46.7725 10.2533 46.8421 9.82288 46.8415 9.43073C46.8408 9.16183 46.8148 8.8862 46.7041 8.64168C46.5933 8.39691 46.3855 8.18634 46.1299 8.1342C46.2804 7.85454 46.665 7.78399 46.9513 7.91314C47.2376 8.04229 47.4369 8.32009 47.579 8.60801C47.8031 9.06285 47.9183 9.58539 47.8389 10.0859C47.7594 10.5864 47.4697 11.0587 47.034 11.2878C46.5982 11.5166 46.0203 11.4666 45.6585 11.1188C45.6025 11.0651 45.5492 10.9975 45.55 10.9194C45.5509 10.8101 45.6625 10.7315 45.7678 10.7299C45.8735 10.7283 45.9721 10.7816 46.0655 10.8336L45.5428 10.7577" fill="#7C3AED"/>
<path d="M44.5982 11.8248C44.9288 11.8106 45.2849 11.7866 45.5382 11.5692C45.8279 11.3204 45.8975 10.89 45.8969 10.4979C45.8962 10.229 45.8701 9.95334 45.7595 9.70881C45.6487 9.46405 45.4409 9.25348 45.1852 9.20134C45.3358 8.92168 45.7204 8.85113 46.0067 8.98028C46.293 9.10943 46.4923 9.38723 46.6344 9.67515C46.8585 10.13 46.9737 10.6525 46.8942 11.153C46.8148 11.6536 46.5251 12.1259 46.0894 12.3549C45.6536 12.5837 45.0757 12.5337 44.7139 12.1859C44.6579 12.1322 44.6046 12.0646 44.6054 11.9865C44.6063 11.8773 44.7178 11.7986 44.8232 11.797C44.9288 11.7954 45.0274 11.8487 45.1209 11.9008L44.5982 11.8248" fill="#7C3AED"/>
<path d="M43.6536 12.9802C43.9842 12.966 44.3403 12.942 44.5935 12.7246C44.8833 12.4758 44.9529 12.0454 44.9522 11.6533C44.9516 11.3844 44.9255 11.1087 44.8148 10.8642C44.7041 10.6194 44.4963 10.4089 44.2406 10.3567C44.3912 10.0771 44.7758 10.0065 45.0621 10.1357C45.3484 10.2648 45.5477 10.5426 45.6898 10.8305C45.9139 11.2854 46.0291 11.8079 45.9496 12.3084C45.8701 12.809 45.5805 13.2812 45.1447 13.5103C44.709 13.7391 44.131 13.6891 43.7693 13.3413C43.7133 13.2876 43.66 13.22 43.6607 13.1419C43.6617 13.0327 43.7732 12.954 43.8786 12.9524C43.9842 12.9508 44.0828 13.0041 44.1762 13.0562L43.6536 12.9802" fill="#7C3AED"/>
<path d="M42.1249 12.2408C42.4555 12.2266 42.8116 12.2026 43.0649 11.9852C43.3546 11.7364 43.4242 11.306 43.4235 10.9139C43.4229 10.645 43.3968 10.3694 43.2861 10.1248C43.1754 9.88007 42.9676 9.66949 42.7119 9.61736C42.8625 9.3377 43.2471 9.26714 43.5334 9.39629C43.8197 9.52544 44.019 9.80324 44.1611 10.0912C44.3852 10.546 44.5004 11.0685 44.4209 11.5691C44.3414 12.0696 44.0518 12.5419 43.6161 12.7709C43.1803 12.9997 42.6023 12.9497 42.2406 12.6019C42.1846 12.5482 42.1313 12.4807 42.1321 12.4025C42.133 12.2933 42.2445 12.2146 42.3499 12.213C42.4555 12.2114 42.5541 12.2648 42.6475 12.3168L42.1249 12.2408" fill="#7C3AED"/>
<path d="M41.1803 13.3962C41.5109 13.382 41.867 13.358 42.1202 13.1406C42.41 12.8918 42.4796 12.4614 42.4789 12.0693C42.4783 11.8004 42.4522 11.5247 42.3415 11.2802C42.2308 11.0355 42.023 10.8249 41.7673 10.7728C41.9179 10.4931 42.3025 10.4225 42.5888 10.5517C42.8751 10.6808 43.0744 10.9586 43.2165 11.2466C43.4406 11.7014 43.5558 12.2239 43.4763 12.7245C43.3968 13.225 43.1072 13.6973 42.6714 13.9263C42.2357 14.1551 41.6577 14.1051 41.296 13.7573C41.24 13.7036 41.1867 13.6361 41.1874 13.5579C41.1884 13.4487 41.2999 13.37 41.4053 13.3684C41.5109 13.3668 41.6095 13.4202 41.7029 13.4722L41.1803 13.3962" fill="#7C3AED"/>
<path d="M40.5962 12.2408C40.9268 12.2266 41.2829 12.2026 41.5362 11.9852C41.8259 11.7364 41.8955 11.306 41.8948 10.9139C41.8942 10.645 41.8681 10.3694 41.7574 10.1248C41.6467 9.88007 41.4389 9.66949 41.1832 9.61736C41.3338 9.3377 41.7184 9.26714 42.0047 9.39629C42.291 9.52544 42.4903 9.80324 42.6324 10.0912C42.8565 10.546 42.9717 11.0685 42.8922 11.5691C42.8127 12.0696 42.5231 12.5419 42.0874 12.7709C41.6516 12.9997 41.0736 12.9497 40.7119 12.6019C40.6559 12.5482 40.6026 12.4807 40.6034 12.4025C40.6043 12.2933 40.7158 12.2146 40.8212 12.213C40.9268 12.2114 41.0254 12.2648 41.1188 12.3168L40.5962 12.2408" fill="#7C3AED"/>
<path d="M37.5388 13.3962C37.8694 13.382 38.2255 13.358 38.4788 13.1406C38.7685 12.8918 38.8381 12.4614 38.8375 12.0693C38.8368 11.8004 38.8107 11.5247 38.7001 11.2802C38.5893 11.0355 38.3815 10.8249 38.1258 10.7728C38.2764 10.4931 38.661 10.4225 38.9473 10.5517C39.2336 10.6808 39.4329 10.9586 39.575 11.2466C39.7991 11.7014 39.9143 12.2239 39.8348 12.7245C39.7553 13.225 39.4657 13.6973 39.03 13.9263C38.5942 14.1551 38.0163 14.1051 37.6545 13.7573C37.5985 13.7036 37.5452 13.6361 37.546 13.5579C37.5469 13.4487 37.6584 13.37 37.7638 13.3684C37.8694 13.3668 37.968 13.4202 38.0615 13.4722L37.5388 13.3962" fill="#7C3AED"/>
<path d="M44.9587 11.5469C45.2893 11.5326 45.6454 11.5087 45.8987 11.2912C46.1884 11.0425 46.258 10.6121 46.2574 10.2199C46.2567 9.95101 46.2307 9.67538 46.12 9.43086C46.0093 9.1861 45.8015 8.97552 45.5458 8.92339C45.6964 8.64373 46.0809 8.57317 46.3672 8.70232C46.6536 8.83147 46.8529 9.10927 46.9949 9.39719C47.219 9.85203 47.3343 10.3746 47.2548 10.8751C47.1753 11.3756 46.8856 11.8479 46.4499 12.077C46.0141 12.3058 45.4362 12.2557 45.0744 11.9079C45.0185 11.8543 44.9651 11.7867 44.9659 11.7085C44.9669 11.5993 45.0784 11.5206 45.1838 11.5191C45.2894 11.5174 45.388 11.5708 45.4814 11.6228L44.9587 11.5469" fill="#7C3AED"/>
<path d="M64.2789 5.84709C64.4803 5.81707 64.6982 5.78918 64.8781 5.87327C65.0838 5.96948 65.1791 6.18477 65.2273 6.38819C65.2602 6.5277 65.2787 6.67357 65.2421 6.81289C65.2056 6.95234 65.1062 7.08505 64.9583 7.14102C65.0839 7.26899 65.3248 7.26206 65.4816 7.16268C65.6385 7.06331 65.7244 6.8967 65.7745 6.73133C65.8534 6.47012 65.8583 6.18612 65.7483 5.93558C65.6383 5.68504 65.4049 5.47292 65.1135 5.40346C64.8221 5.33413 64.4794 5.42548 64.304 5.64677C64.2769 5.68094 64.2531 5.72201 64.2632 5.76244C64.2773 5.81898 64.3544 5.84715 64.4182 5.83604C64.4822 5.82493 64.5351 5.78611 64.5851 5.74855L64.2789 5.84709" fill="#7C3AED"/>
<path d="M64.5858 6.679C64.7871 6.64898 65.005 6.62109 65.1849 6.70518C65.3906 6.80139 65.4859 7.01668 65.5341 7.2201C65.5671 7.35961 65.5855 7.50548 65.5489 7.6448C65.5124 7.78425 65.413 7.91696 65.2652 7.97293C65.3907 8.1009 65.6316 8.09397 65.7885 7.99459C65.9453 7.89522 66.0312 7.72861 66.0813 7.56324C66.1603 7.30203 66.1651 7.01803 66.0551 6.76749C65.9451 6.51695 65.7117 6.30483 65.4203 6.23537C65.1289 6.16604 64.7862 6.25739 64.6109 6.47868C64.5837 6.51285 64.5599 6.55392 64.57 6.59435C64.5842 6.65089 64.6612 6.67906 64.725 6.66795C64.789 6.65684 64.8419 6.61802 64.8919 6.58046L64.5858 6.679" fill="#7C3AED"/>
<path d="M38.4015 24.0515C35.1574 29.9586 34.335 36.8991 31.5652 43.0429C31.3284 43.5681 31.065 44.103 30.6236 44.4723C29.7736 45.1817 28.5338 45.0865 27.4346 44.9521C26.1503 44.7954 24.5055 44.2516 24.5331 42.9584C24.5482 42.2197 25.1962 41.6153 25.9046 41.4044C26.6122 41.1935 27.3714 41.2878 28.1039 41.3839C27.8467 36.7175 28.2926 32.0119 29.4211 27.4764C29.7709 26.0728 30.1999 24.6541 31.0499 23.4837C31.8999 22.3133 33.2482 21.418 34.6945 21.4544C36.6909 21.5052 38.3721 23.6029 37.9868 25.5628L38.4015 24.0515" fill="#7C3AED"/>
<path d="M25.9509 15.064C23.8558 13.2991 23.8825 10.839 22.365 8.96464C21.5756 7.99095 18.0413 7.67502 19.0889 6.67374C20.4711 5.35205 23.976 2.79855 25.983 3.46607C27.5352 3.98229 28.152 5.8113 28.516 7.40623C28.9174 9.16937 29.2725 10.9423 29.5796 12.7232C29.7638 13.7886 29.8324 15.1041 28.9432 15.7182C28.0381 16.343 26.792 15.7725 25.9509 15.064Z" fill="#7C3AED"/>
</svg>
