<svg width="289" height="123" viewBox="0 0 289 123" fill="none" xmlns="http://www.w3.org/2000/svg">
<path d="M6.60158 53.2915C14.6656 43.9315 19.8496 33.7075 23.1616 22.3315C24.1696 19.0195 24.8896 15.5635 24.3136 11.9635C23.4496 7.0675 20.7136 5.3395 15.3856 5.7715C13.2256 5.9155 11.6416 7.3555 10.3456 8.9395C8.76158 10.6675 7.75358 12.6835 6.74558 14.6995C3.72158 21.7555 2.42558 29.2435 1.41758 36.8755C0.985582 39.4675 0.841582 42.2035 0.553582 44.7955C0.265582 48.5395 0.121582 52.2835 0.121582 56.0275C0.121582 58.1875 0.265582 60.3475 0.265582 62.5075C0.409582 64.2355 0.553582 65.9635 0.841582 67.5475C1.27358 70.4275 1.41758 73.3075 1.70558 76.1875C1.84958 77.9155 1.99358 79.6435 2.28158 81.2275C2.42558 82.3795 3.43358 82.6675 4.29758 82.8115C5.16158 82.9555 5.88158 82.8115 6.31358 81.9475C6.45758 81.6595 6.74558 81.3715 7.03358 81.0835C7.03358 79.6435 7.32158 78.2035 7.60958 76.9075C8.76158 72.5875 10.6336 68.6995 12.7936 64.8115C14.0896 62.6515 15.5296 60.3475 17.4016 58.4755C17.8336 58.0435 18.2656 57.3235 19.1296 57.1795C19.7056 58.3315 19.9936 59.4835 19.8496 60.6355C19.8496 63.2275 19.9936 65.8195 19.5616 68.5555C19.1296 72.4435 18.5536 76.1875 17.4016 79.9315C17.1136 81.3715 16.5376 82.6675 15.6736 83.8195C15.2416 84.3955 14.6656 84.9715 13.8016 84.5395C13.0816 83.8195 13.0816 82.6675 12.7936 81.9475C12.6496 81.2275 13.2256 80.6515 12.9376 79.9315C12.6496 79.7875 12.3616 79.4995 11.9296 79.6435C10.2016 81.6595 11.4976 85.5475 13.9456 86.1235C14.0896 86.1235 14.0896 86.1235 14.2336 86.2675C16.3936 86.4115 18.4096 86.1235 19.9936 84.5395C21.2896 83.3875 22.4416 82.0915 23.3056 80.5075C24.4576 78.4915 25.1776 76.4755 25.7536 74.1715C26.7616 70.7155 27.1936 67.2595 27.0496 63.6595C26.9056 61.4995 26.4736 59.4835 25.3216 57.6115C23.4496 54.4435 17.9776 52.8595 14.6656 56.0275C12.9376 57.7555 11.2096 59.6275 9.76958 61.7875C8.47358 63.8035 7.32158 66.1075 6.02558 68.2675C6.16958 63.2275 6.45758 58.1875 6.60158 53.2915ZM18.1216 9.6595C18.6976 10.8115 18.8416 11.8195 18.8416 12.9715C19.2736 18.7315 18.1216 24.2035 16.1056 29.6755C13.8016 35.4355 11.2096 40.9075 7.75358 46.0915C7.60958 46.2355 7.46558 46.5235 7.17758 46.8115C8.04158 39.3235 9.19358 31.9795 10.9216 24.9235C11.9296 20.8915 13.2256 17.0035 15.2416 13.4035C15.9616 12.1075 16.6816 10.8115 18.1216 9.6595Z" fill="#7C3AED"/>
<path d="M35.0877 37.3075C33.6477 36.0115 31.1997 35.7235 29.9037 36.7315C29.1837 37.1635 28.7517 37.7395 28.7517 38.6035C28.6077 40.4755 28.4637 42.3475 29.0397 44.2195C29.3277 45.3715 30.0477 46.0915 31.1997 46.3795C32.2077 46.5235 33.5037 46.8115 34.5117 45.5155C33.6477 42.7795 35.5197 40.0435 35.0877 37.3075ZM36.5277 74.8915C35.3757 74.0275 35.0877 73.0195 34.7997 71.8675C34.0797 68.9875 33.7917 66.8275 33.7917 63.8035C33.6477 60.4915 34.0797 58.9075 34.3677 55.5955V52.5715C34.2237 50.2675 33.0717 49.4035 30.6237 49.5475C29.3277 49.6915 28.4637 50.4115 27.8877 51.7075C27.1677 53.5795 27.0237 55.5955 26.8797 57.6115C26.5917 61.0675 27.0237 62.9395 27.5997 66.3955C28.1757 69.4195 29.1837 71.4355 31.0557 74.0275C33.6477 77.6275 38.2557 77.4835 40.9917 74.8915C42.2877 73.5955 43.4397 72.2995 44.4477 70.8595C47.1837 66.9715 49.0557 62.5075 51.3597 58.3315V57.8995C50.6397 57.3235 50.0637 57.4675 49.1997 57.8995C48.6237 58.9075 48.0477 59.9155 47.3277 60.9235C45.5997 64.0915 43.8717 67.2595 41.7117 70.1395C40.2717 72.0115 38.8317 73.7395 36.5277 74.8915Z" fill="#7C3AED"/>
<path d="M111.98 93.8995C111.404 92.3155 110.828 90.8755 109.964 89.5795C109.1 88.4275 108.38 88.2835 107.084 89.1475L108.236 91.3075C109.676 94.7635 109.1 97.2115 106.076 99.8035L104.636 100.812C101.036 102.972 97.0043 103.548 92.9723 103.836C89.3723 104.268 85.6283 103.692 82.0283 103.116C75.8363 102.108 69.7883 100.38 63.8843 98.2195C63.4523 98.2195 63.0203 98.0755 62.8763 97.4995C62.8763 97.3555 63.0203 97.2115 63.0203 96.9235C65.1803 89.8675 66.1883 82.8115 66.7643 75.4675C67.0523 73.3075 66.9083 71.1475 67.1963 68.9875C67.6283 64.0915 67.6283 59.0515 67.0523 54.1555C66.9083 53.0035 66.4763 51.8515 65.0363 51.7075C65.0363 51.5635 64.8923 51.5635 64.8923 51.5635C64.4603 50.9875 64.0283 50.5555 63.5963 50.1235C63.0203 49.4035 62.4443 48.8275 61.7243 48.3955C56.8283 45.2275 49.3403 45.3715 44.7323 51.1315C42.4283 53.8675 40.8443 56.8915 39.6923 60.0595C38.2523 63.6595 38.1083 67.2595 38.2523 70.8595C38.3963 72.4435 38.8283 73.7395 39.6923 75.0355C40.2683 76.1875 41.2763 77.0515 42.4283 77.1955C45.0203 77.6275 47.4683 77.4835 49.4843 75.7555C50.4923 74.8915 51.5003 74.1715 52.3643 73.0195C54.6683 70.1395 57.1163 67.2595 59.4203 64.5235C58.8443 75.0355 58.2683 85.4035 56.1083 95.6275C55.6763 95.6275 55.3883 95.6275 55.1003 95.4835C51.5003 94.4755 47.7563 93.4675 43.8683 93.3235C41.5643 93.1795 39.2603 93.3235 36.9563 93.8995C33.0683 94.9075 30.0443 97.0675 28.1723 100.956C26.4443 104.556 25.8683 108.3 26.7323 112.188C27.4523 115.212 28.7483 117.66 31.0523 119.676C34.0763 122.124 37.5323 122.412 41.1323 121.836C45.3083 121.116 48.9083 119.1 52.0763 116.22C55.9643 112.476 58.7003 108.012 60.8603 102.972C61.1483 102.108 61.5803 101.244 61.8683 100.38C62.5883 100.236 62.8763 100.524 63.3083 100.668C67.0523 101.964 70.6523 102.972 74.3963 103.836C78.2843 104.844 82.1723 105.708 86.0603 105.708C89.6603 105.852 93.1163 105.996 96.7163 105.564C99.8843 104.988 103.052 104.412 105.932 102.972C109.1 101.388 111.692 99.2275 112.268 95.3395C112.124 94.9075 112.124 94.3315 111.98 93.8995ZM49.9163 70.5715C48.9083 71.5795 47.9003 72.5875 46.7483 73.5955C46.3163 73.8835 45.8843 74.4595 45.0203 74.6035C44.3003 73.7395 44.1563 72.7315 44.0123 71.5795C43.7243 67.9795 44.4443 64.3795 45.7403 60.7795C46.6043 58.3315 47.6123 55.8835 49.3403 53.7235C50.7803 51.8515 52.2203 50.2675 54.5243 49.6915C56.8283 50.4115 58.2683 51.8515 59.4203 53.8675C59.8523 54.7315 60.4283 55.7395 61.4363 56.4595C60.1403 58.4755 58.5563 60.2035 56.9723 62.0755C54.6683 64.9555 52.3643 67.6915 49.9163 70.5715ZM54.9563 100.38C53.5163 105.42 51.5003 110.028 48.0443 114.06C46.1723 116.22 44.1563 118.092 41.5643 119.244C36.8123 121.548 32.7803 119.532 30.6203 115.932C27.3083 110.892 27.8843 103.404 32.2043 98.7955C34.6523 96.3475 37.6763 95.0515 41.1323 95.0515C45.7403 94.9075 50.9243 96.0595 55.3883 98.0755C55.5323 98.9395 55.2443 99.6595 54.9563 100.38Z" fill="#7C3AED"/>
<path d="M111.917 75.0355L110.909 76.4755C109.469 75.1795 109.181 73.5955 109.181 72.0115C108.893 69.1315 109.469 66.3955 110.045 63.6595C110.765 59.4835 111.629 55.3075 112.493 50.9875C113.069 48.1075 111.917 46.3795 109.037 45.5155C107.885 45.0835 106.733 44.9395 105.581 44.7955C104.861 44.6515 104.141 44.6515 103.277 44.5075L102.845 43.2115C101.549 38.3155 96.2213 37.8835 92.3333 39.4675C90.8933 40.0435 89.5973 40.7635 89.4533 42.3475C89.4533 43.9315 90.7493 44.6515 91.9013 45.2275C93.7733 46.3795 95.7893 46.6675 97.9493 47.0995L101.405 47.5315C101.261 48.6835 101.261 49.6915 100.973 50.8435C99.9653 56.8915 97.9493 62.9395 95.6453 68.8435C94.7813 71.0035 93.9173 73.3075 92.3333 75.3235C91.6133 76.1875 90.8933 76.9075 89.7413 77.3395C88.7333 77.6275 88.5893 66.1075 88.5893 65.0995C89.0213 60.4915 90.0293 56.0275 90.7493 51.5635C90.8933 50.8435 91.0373 50.1235 90.7493 49.4035C90.3173 48.2515 89.0213 47.8195 87.7253 47.5315C87.2933 47.3875 86.8613 47.2435 86.4293 47.3875C85.7093 47.5315 85.2773 48.2515 85.1333 48.9715C84.8453 49.5475 84.7013 50.4115 84.2693 50.8435C81.1013 48.9715 76.6373 49.8355 73.7573 52.1395C70.8773 54.4435 69.4373 58.3315 69.0053 62.0755C68.8613 64.3795 69.1493 66.8275 70.4453 68.8435C71.5973 70.7155 74.0453 72.0115 76.3493 71.4355C77.7893 71.0035 78.7973 69.8515 79.8053 68.6995C80.6693 67.4035 81.3893 66.1075 82.5413 65.0995C82.5413 67.5475 82.9733 70.1395 83.6933 72.4435C84.1253 74.1715 84.8453 75.7555 85.8533 77.1955C87.0053 78.4915 88.5893 79.6435 90.3173 79.6435C93.9173 79.9315 95.5013 75.8995 96.6533 73.3075C98.3813 69.2755 99.3893 65.0995 100.397 60.9235C101.405 56.7475 102.701 52.7155 103.133 48.5395C103.133 48.2515 103.277 48.1075 103.277 47.8195H105.437C105.437 48.5395 105.581 49.2595 105.437 49.8355C105.149 52.7155 104.573 55.4515 104.285 58.3315C103.853 63.2275 103.709 68.1235 105.725 72.8755C106.157 73.8835 106.589 74.7475 107.309 75.7555C108.173 76.9075 109.325 77.4835 110.909 77.4835C111.917 77.4835 112.637 76.9075 112.781 76.0435C113.069 75.3235 112.781 75.0355 111.917 75.0355ZM98.0933 44.3635C97.0853 44.2195 95.5013 43.9315 94.6373 43.3555C94.3493 43.2115 94.2053 43.0675 94.2053 42.7795C93.9173 41.9155 96.3653 41.0515 97.0853 40.9075C99.2453 40.4755 100.397 42.6355 100.829 44.3635H98.0933ZM83.2613 55.1635C81.5333 59.0515 79.5173 62.9395 76.9253 66.2515C76.3493 67.1155 75.4853 68.1235 74.6213 68.6995C73.9013 67.5475 74.0453 66.1075 74.1893 64.6675C74.6213 61.6435 75.4853 58.7635 77.3573 56.3155C78.3653 54.8755 79.5173 53.7235 81.1013 53.1475C81.8213 52.8595 82.3973 52.7155 82.9733 53.2915C83.5493 53.8675 83.5493 54.4435 83.2613 55.1635Z" fill="#7C3AED"/>
<path d="M151.288 25.6435C154.024 18.7315 154.456 8.5075 151 3.7555C150.136 2.4595 148.984 1.4515 147.4 1.0195C143.8 -0.1325 140.488 0.875496 138.472 4.0435C137.176 5.9155 136.024 7.9315 135.304 9.9475C132.568 16.8595 131.704 24.2035 130.984 31.4035L130.12 42.3475C130.12 43.6435 129.832 44.7955 129.688 45.9475C125.8 44.7955 122.2 45.0835 119.032 47.2435C115.432 49.8355 112.696 53.1475 111.4 57.4675C110.104 61.9315 111.112 65.8195 113.992 69.4195C116.728 72.7315 122.92 72.2995 124.936 68.2675C125.224 67.4035 125.656 66.6835 126.088 65.9635C127.096 63.3715 128.248 60.7795 129.4 58.1875C129.544 59.9155 129.832 61.6435 129.832 63.3715C129.832 67.8355 130.552 72.2995 131.416 76.6195C132.136 80.5075 133.432 84.1075 135.88 87.2755C137.608 89.5795 139.768 90.8755 142.936 90.7315C144.52 90.7315 145.672 90.1555 146.536 88.8595C145.672 87.9955 144.664 88.1395 143.8 88.4275C142.504 89.0035 141.64 88.4275 141.064 87.4195C140.344 86.2675 139.624 84.9715 139.192 83.6755C137.32 78.0595 136.456 72.2995 136.168 66.5395C136.024 64.9555 136.024 63.3715 135.88 61.7875C135.88 60.2035 135.736 58.4755 135.88 56.7475C135.88 54.7315 136.168 52.5715 136.024 50.4115C136.024 49.1155 136.456 48.2515 137.464 47.3875C143.656 41.1955 148.12 33.5635 151.288 25.6435ZM136.6 43.0675C137.032 39.0355 137.464 35.0035 138.04 30.9715C139.336 23.0515 140.776 15.4195 143.8 8.0755C144.232 6.9235 144.808 5.9155 145.384 4.7635C147.4 6.9235 148.408 9.3715 148.84 11.9635C149.704 18.7315 147.832 24.7795 145.096 30.5395C143.08 34.7155 140.632 38.7475 137.608 42.3475C137.32 42.6355 137.032 42.9235 136.888 43.3555C136.744 43.2115 136.6 43.2115 136.6 43.0675ZM120.472 68.9875C119.32 68.1235 118.744 67.1155 118.6 65.9635C118.312 61.9315 119.464 58.1875 120.904 54.4435C121.48 53.4355 122.056 52.2835 122.776 51.4195C123.352 50.5555 124.216 49.9795 124.936 49.2595C126.952 50.1235 127.96 52.2835 127.384 54.1555C125.944 58.0435 124.504 61.7875 122.776 65.5315C122.344 66.6835 121.336 67.8355 120.472 68.9875Z" fill="#7C3AED"/>
<path d="M162.641 53.5795C162.497 53.4355 162.209 53.4355 161.921 53.2915C159.905 54.5875 157.745 55.8835 155.297 57.3235C155.153 55.1635 154.577 53.4355 153.713 51.7075C152.273 48.6835 149.825 46.6675 146.369 46.0915C143.633 45.5155 141.185 46.9555 140.321 49.6915C140.177 50.2675 139.889 50.8435 139.601 51.2755C137.009 55.8835 136.001 60.7795 137.729 65.8195C138.449 68.1235 139.889 70.2835 141.617 71.8675C142.193 72.2995 142.769 72.7315 143.345 73.0195C146.225 74.3155 148.961 74.4595 151.265 71.7235C152.273 70.4275 152.993 69.1315 153.713 67.6915C154.865 65.0995 155.297 62.3635 155.585 59.4835C158.465 58.0435 161.057 56.1715 163.505 54.2995C163.217 53.7235 162.929 53.7235 162.641 53.5795ZM151.409 58.4755C148.529 59.1955 146.513 58.1875 144.929 55.7395C145.073 53.7235 146.081 51.9955 146.657 50.4115C146.801 49.6915 146.225 49.4035 146.225 48.9715C146.513 48.6835 146.657 48.6835 146.945 48.8275C148.673 49.9795 149.825 51.7075 150.545 53.5795C151.265 55.1635 151.697 56.7475 151.409 58.4755ZM145.793 71.5795C144.353 70.5715 143.633 68.8435 143.345 67.1155C142.913 64.2355 143.201 61.3555 144.065 58.4755C146.369 59.9155 148.817 60.3475 151.265 60.6355C151.985 64.6675 148.961 71.0035 145.793 71.5795Z" fill="#7C3AED"/>
<path d="M159.928 75.0355C160.36 74.6035 160.648 74.3155 160.792 73.8835C162.088 70.8595 163.528 68.1235 164.968 65.3875C167.128 61.3555 169.288 57.4675 172.312 54.0115C173.464 52.8595 174.472 51.5635 175.912 50.5555C176.2 51.2755 176.056 51.7075 176.056 52.2835C175.048 57.3235 175.48 62.3635 176.488 67.4035C177.064 70.1395 177.928 72.7315 179.8 75.0355C182.248 77.9155 186.136 77.9155 188.584 75.0355C189.304 74.0275 190.024 73.0195 190.6 71.8675C192.472 68.2675 193.912 64.3795 194.776 60.3475C195.208 58.3315 196.072 56.4595 196.216 54.4435C196.36 54.2995 196.216 54.1555 196.216 54.0115C195.784 53.7235 195.496 53.5795 195.352 53.5795C194.344 54.1555 194.2 54.8755 194.056 55.5955C193.048 58.6195 192.04 61.7875 190.744 64.6675C189.592 67.6915 188.296 70.5715 186.28 73.1635C185.704 74.0275 185.128 74.7475 184.12 74.8915C183.544 74.4595 183.4 73.8835 183.256 73.3075C182.68 70.4275 182.68 67.5475 182.968 64.8115C183.4 60.6355 183.688 56.4595 183.688 52.1395C183.544 51.2755 183.4 50.4115 183.112 49.5475C182.824 48.2515 181.816 47.2435 180.52 46.6675C178.216 45.9475 175.912 45.8035 173.752 47.5315L172.168 48.9715C170.008 51.1315 168.136 53.5795 166.408 56.1715C164.68 58.7635 163.096 61.4995 161.656 64.3795C161.368 63.5155 161.8 63.0835 161.8 62.5075C162.376 58.3315 163.24 54.1555 164.104 49.9795C164.68 47.3875 165.544 44.9395 165.832 42.3475C165.976 41.1955 165.544 40.4755 164.392 40.0435C162.088 39.1795 160.648 39.7555 159.496 42.0595C158.776 43.4995 158.344 45.0835 157.912 46.6675C156.616 50.6995 155.896 54.8755 155.752 59.1955C155.464 63.3715 155.608 67.5475 156.472 71.7235C156.616 72.5875 156.616 73.4515 157.192 74.3155C157.912 75.0355 158.92 75.1795 159.928 75.0355Z" fill="#7C3AED"/>
<path d="M212.196 57.1795C211.188 56.7475 210.324 57.3235 209.748 58.1875C209.172 59.1955 208.452 60.3475 207.732 61.3555C206.292 63.5155 204.564 65.6755 202.548 67.5475C200.676 69.2755 198.516 70.7155 196.068 71.2915C194.772 70.7155 194.196 69.8515 193.908 68.6995C193.332 66.2515 193.332 63.6595 193.908 61.0675L195.06 60.6355C198.516 59.7715 200.676 57.3235 202.26 54.2995C202.836 53.0035 203.268 51.5635 202.836 50.1235C201.972 47.2435 199.812 46.3795 196.5 46.5235C194.34 46.6675 192.756 47.9635 191.316 49.5475C188.148 53.4355 186.996 57.8995 187.572 62.7955C187.716 65.3875 188.724 67.8355 190.164 69.9955C192.324 73.0195 196.932 73.5955 199.524 72.2995C201.828 71.1475 203.7 69.7075 205.14 67.8355C206.58 66.2515 207.876 64.6675 209.172 62.9395C209.892 62.0755 210.468 61.0675 211.044 60.2035C211.476 59.4835 212.052 58.7635 212.34 58.0435C212.484 57.8995 212.484 57.7555 212.484 57.6115C212.484 57.4675 212.34 57.3235 212.196 57.1795ZM198.66 49.2595C200.532 51.8515 198.66 55.8835 194.484 58.0435C195.492 54.7315 196.356 51.7075 198.66 49.2595Z" fill="#7C3AED"/>
<path d="M213.766 75.6115C213.766 75.0355 213.622 74.4595 213.19 74.0275C212.326 73.3075 211.174 73.1635 210.166 73.1635C209.302 73.1635 208.726 73.7395 208.294 74.3155C207.574 75.1795 207.574 76.1875 208.15 77.1955C208.87 78.0595 209.878 78.4915 211.03 78.4915C212.47 78.6355 213.766 77.1955 213.766 75.6115Z" fill="#7C3AED"/>
<path d="M250.766 25.6435C253.502 18.7315 253.934 8.5075 250.478 3.7555C249.614 2.4595 248.462 1.4515 246.878 1.0195C243.278 -0.1325 239.966 0.875496 237.95 4.0435C236.654 5.9155 235.502 7.9315 234.782 9.9475C232.046 16.8595 231.182 24.2035 230.462 31.4035L229.598 42.3475C229.598 43.6435 229.31 44.7955 229.166 45.9475C225.278 44.7955 221.678 45.0835 218.51 47.2435C214.91 49.8355 212.174 53.1475 210.878 57.4675C209.582 61.9315 210.59 65.8195 213.47 69.4195C216.206 72.7315 222.398 72.2995 224.414 68.2675C224.702 67.4035 225.134 66.6835 225.566 65.9635C226.574 63.3715 227.726 60.7795 228.878 58.1875C229.022 59.9155 229.31 61.6435 229.31 63.3715C229.31 67.8355 230.03 72.2995 230.894 76.6195C231.614 80.5075 232.91 84.1075 235.358 87.2755C237.086 89.5795 239.246 90.8755 242.414 90.7315C243.998 90.7315 245.15 90.1555 246.014 88.8595C245.15 87.9955 244.142 88.1395 243.278 88.4275C241.982 89.0035 241.118 88.4275 240.542 87.4195C239.822 86.2675 239.102 84.9715 238.67 83.6755C236.798 78.0595 235.934 72.2995 235.646 66.5395C235.502 64.9555 235.502 63.3715 235.358 61.7875C235.358 60.2035 235.214 58.4755 235.358 56.7475C235.358 54.7315 235.646 52.5715 235.502 50.4115C235.502 49.1155 235.934 48.2515 236.942 47.3875C243.134 41.1955 247.598 33.5635 250.766 25.6435ZM236.078 43.0675C236.51 39.0355 236.942 35.0035 237.518 30.9715C238.814 23.0515 240.254 15.4195 243.278 8.0755C243.71 6.9235 244.286 5.9155 244.862 4.7635C246.878 6.9235 247.886 9.3715 248.318 11.9635C249.182 18.7315 247.31 24.7795 244.574 30.5395C242.558 34.7155 240.11 38.7475 237.086 42.3475C236.798 42.6355 236.51 42.9235 236.366 43.3555C236.222 43.2115 236.078 43.2115 236.078 43.0675ZM219.95 68.9875C218.798 68.1235 218.222 67.1155 218.078 65.9635C217.79 61.9315 218.942 58.1875 220.382 54.4435C220.958 53.4355 221.534 52.2835 222.254 51.4195C222.83 50.5555 223.694 49.9795 224.414 49.2595C226.43 50.1235 227.438 52.2835 226.862 54.1555C225.422 58.0435 223.982 61.7875 222.254 65.5315C221.822 66.6835 220.814 67.8355 219.95 68.9875Z" fill="#7C3AED"/>
<path d="M261.111 57.1795C260.103 56.7475 259.239 57.3235 258.663 58.1875C258.087 59.1955 257.367 60.3475 256.647 61.3555C255.207 63.5155 253.479 65.6755 251.463 67.5475C249.591 69.2755 247.431 70.7155 244.983 71.2915C243.687 70.7155 243.111 69.8515 242.823 68.6995C242.247 66.2515 242.247 63.6595 242.823 61.0675L243.975 60.6355C247.431 59.7715 249.591 57.3235 251.175 54.2995C251.751 53.0035 252.183 51.5635 251.751 50.1235C250.887 47.2435 248.727 46.3795 245.415 46.5235C243.255 46.6675 241.671 47.9635 240.231 49.5475C237.063 53.4355 235.911 57.8995 236.487 62.7955C236.631 65.3875 237.639 67.8355 239.079 69.9955C241.239 73.0195 245.847 73.5955 248.439 72.2995C250.743 71.1475 252.615 69.7075 254.055 67.8355C255.495 66.2515 256.791 64.6675 258.087 62.9395C258.807 62.0755 259.383 61.0675 259.959 60.2035C260.391 59.4835 260.967 58.7635 261.255 58.0435C261.399 57.8995 261.399 57.7555 261.399 57.6115C261.399 57.4675 261.255 57.3235 261.111 57.1795ZM247.575 49.2595C249.447 51.8515 247.575 55.8835 243.399 58.0435C244.407 54.7315 245.271 51.7075 247.575 49.2595Z" fill="#7C3AED"/>
<path d="M261.342 81.0835C261.918 80.0755 261.918 79.3555 261.918 78.6355C261.774 77.6275 261.774 76.7635 261.918 75.8995C263.934 64.0915 267.678 52.7155 273.15 42.2035C275.166 38.3155 277.614 34.5715 280.782 31.6915C281.79 30.6835 282.942 29.8195 284.382 29.8195C285.678 30.3955 285.678 31.6915 285.966 32.6995C286.686 33.2755 287.262 33.2755 287.982 32.9875C288.702 32.2675 288.846 31.4035 288.99 30.6835C288.558 28.9555 287.406 28.0915 285.966 27.8035C283.374 27.6595 280.926 27.9475 278.91 29.8195C277.038 31.4035 275.454 33.2755 274.014 35.2915C269.838 41.6275 266.958 48.5395 264.366 55.5955C263.07 59.1955 261.918 62.9395 260.766 66.6835C260.766 65.6755 260.334 64.6675 260.19 63.6595C260.046 59.4835 259.614 55.4515 259.038 51.2755C258.75 48.9715 258.318 46.6675 257.454 44.5075C257.022 43.6435 256.59 42.9235 255.87 42.2035C255.15 41.4835 254.142 41.3395 253.134 41.3395C252.27 41.4835 251.406 41.3395 250.83 42.3475C250.83 43.3555 251.406 44.3635 251.694 45.3715C252.846 50.8435 253.71 56.4595 254.43 62.0755C254.718 63.5155 254.862 64.9555 255.006 66.3955L256.302 74.7475C256.734 76.9075 256.878 78.9235 257.454 80.9395C258.75 81.8035 260.046 81.8035 261.342 81.0835Z" fill="#7C3AED"/>
</svg>
