<svg width="866" height="568" viewBox="0 0 866 568" fill="none" xmlns="http://www.w3.org/2000/svg">
<path d="M217.91 236.937C230.827 302.615 262.841 362.815 282.941 426.652C289.053 446.083 293.682 468.638 282.539 485.682C278.691 491.582 273.136 496.39 270.169 502.782C267.191 509.173 268.027 518.353 274.441 521.309C277.018 522.491 279.985 522.436 282.818 522.201C302.149 520.651 320.843 512.118 334.686 498.532C338.177 495.107 341.446 491.225 342.919 486.552C344.547 481.387 343.811 475.799 343.064 470.422C331.987 391.215 318.267 306.34 262.774 248.739C254.843 240.507 244.625 232.465 233.27 233.825C221.915 235.197 213.984 251.907 223.365 258.454L217.91 236.937Z" fill="#7C3AED"/>
<path d="M735.996 258.024C740.246 283.59 744.496 309.156 748.746 334.722C749.816 341.17 750.876 347.895 748.857 354.108C744.418 367.784 727.976 372.692 713.888 375.603C703.949 377.644 693.352 379.641 683.916 375.926C674.479 372.212 667.574 360.322 672.795 351.632C678.338 342.374 692.638 342.831 699.844 334.8C709.459 324.08 700.737 307.55 693.096 295.347C685.009 282.43 678.138 268.275 676.855 253.094C675.583 237.924 680.77 221.526 692.995 212.424C705.209 203.333 724.752 204.081 734.055 216.15C740.089 223.97 740.97 234.555 740.546 244.427C740.134 254.12 738.695 263.757 736.253 273.149L735.996 258.024Z" fill="#7C3AED"/>
<path d="M227.304 34.9935C219.507 17.8491 193.751 16.1419 178.615 27.3521C163.478 38.5623 156.707 57.6587 151.844 75.8628C146.635 95.3162 142.664 115.116 139.931 135.082C180.712 117.547 188.843 58.3061 228.564 38.5181L227.304 34.9935Z" fill="#7C3AED"/>
<path d="M4.69618 189.178C6.56727 202.33 20.0287 215.472 38.2245 224.146C80.7066 244.575 118.718 233.703 161.087 222.574C219.028 207.232 211.305 225.727 217.283 265.694C225.508 320.208 238.216 367.011 326.307 388.218C344.754 392.599 364.318 394.613 383.883 395.319C440.567 397.333 497.893 387.609 547.608 368.583C590.354 352.288 627.36 308.46 672.216 299.964C703.986 294.002 762.931 306.182 780.261 326.082C814.392 365.254 756.828 370.95 750.6 399.091C742.739 433.882 830.215 414.6 847.544 408.285C851.776 406.713 856.008 404.955 858.632 402.155C863.492 397.245 862.123 390.673 861.244 384.711C819.542 353.35 863.618 342.642 862.249 321.612C860.629 297.773 832.964 284.887 828.105 265.694C823.119 246.501 832.714 228.094 835.213 208.989C845.548 132.562 763.811 102.417 666.239 110.304C617.893 114.244 570.036 124.939 526.675 140.105C478.454 156.842 412.664 178.579 374.038 134.055C360.827 118.978 361.204 99.0782 345.62 85.2377L332.422 86.8981C317.592 55.5251 273.352 32.0397 226.374 30.7237C184.759 29.496 141.021 46.145 119.962 71.7416C101.264 94.6088 93.6667 121.954 66.2536 140.185C58.5307 145.36 46.8146 150.351 35.3496 155.615C31.1177 157.629 26.9981 159.642 23.0174 161.744C8.31255 169.552 3.20179 179.365 4.69618 189.178Z" fill="#7C3AED"/>
<path d="M605.513 323.464C601.379 323.126 596.914 322.869 593.426 325.178C589.435 327.82 587.898 333.064 587.295 337.941C586.884 341.286 586.778 344.754 587.773 347.968C588.769 351.184 591.025 354.126 594.123 355.173C591.814 358.416 586.922 358.694 583.563 356.642C580.204 354.589 578.159 350.824 576.841 347.022C574.763 341.017 574.145 334.339 575.914 328.239C577.682 322.139 582.021 316.717 587.796 314.548C593.572 312.382 600.681 313.905 604.637 318.794C605.249 319.549 605.807 320.472 605.676 321.443C605.494 322.8 603.984 323.604 602.671 323.46C601.355 323.315 600.212 322.498 599.132 321.705L605.513 323.464Z" fill="#7C3AED"/>
<path d="M612.425 309.099C608.292 308.761 603.826 308.504 600.338 310.813C596.347 313.455 594.811 318.698 594.207 323.576C593.796 326.921 593.691 330.389 594.686 333.602C595.681 336.819 597.937 339.761 601.035 340.808C598.727 344.051 593.835 344.329 590.475 342.276C587.116 340.224 585.071 336.459 583.754 332.657C581.676 326.651 581.057 319.974 582.826 313.874C584.595 307.773 588.933 302.352 594.709 300.183C600.484 298.017 607.593 299.54 611.55 304.429C612.162 305.184 612.72 306.107 612.588 307.078C612.406 308.434 610.897 309.239 609.584 309.094C608.268 308.95 607.125 308.133 606.044 307.34L612.425 309.099Z" fill="#7C3AED"/>
<path d="M629.052 309.099C624.919 308.761 620.454 308.504 616.965 310.813C612.974 313.455 611.438 318.698 610.834 323.576C610.423 326.921 610.318 330.389 611.313 333.602C612.308 336.819 614.564 339.761 617.662 340.808C615.354 344.051 610.462 344.329 607.103 342.276C603.743 340.224 601.698 336.459 600.381 332.657C598.303 326.651 597.684 319.974 599.453 313.874C601.222 307.773 605.56 302.352 611.336 300.183C617.111 298.017 624.22 299.54 628.177 304.429C628.789 305.184 629.347 306.107 629.215 307.078C629.033 308.434 627.524 309.239 626.211 309.094C624.895 308.95 623.752 308.133 622.671 307.34L629.052 309.099Z" fill="#7C3AED"/>
<path d="M636.918 302.537C632.785 302.199 628.319 301.942 624.831 304.251C620.84 306.893 619.304 312.136 618.7 317.014C618.289 320.359 618.183 323.827 619.179 327.04C620.174 330.257 622.43 333.199 625.528 334.246C623.219 337.489 618.327 337.767 614.968 335.714C611.609 333.662 609.564 329.897 608.246 326.095C606.168 320.089 605.55 313.412 607.319 307.312C609.088 301.211 613.426 295.79 619.201 293.621C624.977 291.455 632.086 292.978 636.042 297.867C636.655 298.622 637.212 299.545 637.081 300.516C636.899 301.872 635.389 302.677 634.076 302.532C632.76 302.388 631.618 301.571 630.537 300.778L636.918 302.537Z" fill="#7C3AED"/>
<path d="M652.999 287.707C648.866 287.369 644.401 287.111 640.912 289.42C636.921 292.062 635.385 297.306 634.782 302.183C634.37 305.528 634.265 308.996 635.26 312.21C636.256 315.426 638.511 318.369 641.61 319.415C639.301 322.658 634.409 322.936 631.05 320.884C627.69 318.831 625.645 315.066 624.328 311.264C622.25 305.259 621.631 298.581 623.4 292.481C625.169 286.381 629.507 280.959 635.283 278.79C641.058 276.624 648.167 278.147 652.124 283.036C652.736 283.791 653.294 284.714 653.162 285.685C652.98 287.042 651.471 287.846 650.158 287.702C648.842 287.557 647.699 286.74 646.618 285.947L652.999 287.707Z" fill="#7C3AED"/>
<path d="M733.807 136.042C749.557 137.927 766.59 139.567 780.299 131.591C795.982 122.467 802.697 103.37 805.787 85.4786C807.895 73.2087 808.855 60.437 805.564 48.4348C802.274 36.4214 794.12 25.2227 782.441 20.8836C791.788 9.28297 810.539 9.0147 823.054 17.1017C835.569 25.1887 842.786 39.3884 847.215 53.6103C854.197 76.0754 855.491 100.794 847.75 123.013C840.009 145.233 822.552 164.553 800.12 171.658C777.689 178.752 750.751 172.037 736.406 153.398C734.187 150.52 732.201 147.029 732.859 143.471C733.774 138.496 739.674 135.763 744.671 136.499C749.68 137.236 753.919 140.425 757.923 143.515L733.807 136.042Z" fill="#7C3AED"/>
<path d="M839.493 61.7719C839.722 64.313 840.025 67.0499 841.58 68.9921C843.359 71.2141 846.263 71.7397 848.883 71.7264C850.679 71.7156 852.51 71.5093 854.1 70.6531C855.69 69.7966 857.013 68.1946 857.259 66.228C859.188 67.3796 859.814 70.3343 859.067 72.5381C858.32 74.742 856.544 76.28 854.678 77.3782C851.729 79.1109 848.284 80.008 844.908 79.4078C841.531 78.8075 838.259 76.591 836.553 73.2464C834.848 69.9014 834.949 65.4575 837.127 62.669C837.463 62.2377 837.893 61.8262 838.416 61.8304C839.146 61.8355 839.717 62.691 839.77 63.5011C839.823 64.313 839.506 65.0721 839.196 65.7913L839.493 61.7719Z" fill="#7C3AED"/>
<path d="M829.885 42.4884C829.952 44.2155 830.081 46.0721 831.495 47.3059C833.113 48.7173 835.948 48.8959 838.536 48.7229C840.311 48.6032 842.132 48.3473 843.755 47.6611C845.379 46.9747 846.786 45.7941 847.151 44.431C848.985 45.0995 849.419 47.0852 848.543 48.6422C847.667 50.1993 845.817 51.3644 843.905 52.2336C840.885 53.6055 837.426 54.4358 834.13 54.2356C830.833 54.0354 827.74 52.7211 826.264 50.5357C824.79 48.35 825.167 45.2983 827.493 43.2511C827.852 42.9345 828.302 42.6256 828.818 42.5959C829.538 42.5537 830.048 43.1043 830.05 43.6561C830.052 44.2092 829.692 44.7492 829.341 45.2615L829.885 42.4884Z" fill="#7C3AED"/>
<path d="M168.783 189.742C160.461 190.228 151.498 190.961 145.147 196.358C137.881 202.534 136.18 213.035 136.242 222.577C136.29 229.119 136.979 235.815 139.794 241.718C142.611 247.627 147.868 252.663 154.312 253.824C150.553 260.692 140.879 262.571 133.655 259.549C126.43 256.527 121.38 249.852 117.769 242.906C112.073 231.933 109.11 219.267 111.052 207.055C112.995 194.843 120.232 183.229 131.176 177.472C142.121 171.721 156.679 172.695 165.828 181.005C167.244 182.288 168.595 183.909 168.584 185.811C168.573 188.469 165.774 190.431 163.121 190.514C160.462 190.597 157.973 189.341 155.615 188.114L168.783 189.742Z" fill="#7C3AED"/>
<path d="M153.668 189.742C145.346 190.228 136.383 190.961 130.032 196.358C122.766 202.534 121.064 213.035 121.126 222.577C121.174 229.119 121.863 235.815 124.679 241.718C127.496 247.627 132.753 252.663 139.197 253.824C135.438 260.692 125.764 262.571 118.539 259.549C111.315 256.527 106.264 249.852 102.654 242.906C96.9571 231.933 93.9941 219.267 95.9365 207.055C97.879 194.843 105.116 183.229 116.06 177.472C127.006 171.721 141.563 172.695 150.713 181.005C152.128 182.288 153.479 183.909 153.469 185.811C153.457 188.469 150.659 190.431 148.006 190.514C145.347 190.597 142.858 189.341 140.5 188.114L153.668 189.742Z" fill="#7C3AED"/>
<path d="M138.552 200.906C130.23 201.392 121.267 202.125 114.916 207.522C107.65 213.697 105.949 224.199 106.011 233.741C106.059 240.283 106.748 246.979 109.563 252.882C112.38 258.791 117.637 263.827 124.081 264.988C120.322 271.856 110.648 273.735 103.424 270.713C96.1994 267.691 91.1487 261.016 87.5383 254.07C81.8416 243.097 78.8786 230.431 80.8211 218.219C82.7636 206.007 90.0009 194.393 100.945 188.636C111.89 182.885 126.448 183.859 135.597 192.169C137.013 193.452 138.364 195.073 138.353 196.975C138.342 199.633 135.543 201.595 132.89 201.677C130.231 201.761 127.742 200.505 125.384 199.278L138.552 200.906Z" fill="#7C3AED"/>
<path d="M174.621 182.801C167.397 183.301 159.614 184.004 154.032 188.375C147.646 193.375 146.027 201.733 145.951 209.305C145.904 214.497 146.409 219.802 148.771 224.449C151.134 229.1 155.624 233.026 161.197 233.859C157.843 239.362 149.427 240.985 143.203 238.685C136.979 236.385 132.689 231.156 129.653 225.692C124.862 217.061 122.465 207.048 124.316 197.329C126.168 187.61 132.603 178.294 142.173 173.575C151.744 168.862 164.356 169.436 172.178 175.907C173.388 176.906 174.537 178.174 174.502 179.684C174.456 181.794 172.002 183.389 169.7 183.491C167.393 183.593 165.251 182.63 163.223 181.689L174.621 182.801Z" fill="#7C3AED"/>
<path d="M25.1502 192.994C36.7885 194.324 49.347 195.918 58.8054 200.819C69.626 206.427 73.198 214.741 74.2058 222.111C74.8891 227.164 74.6984 232.262 71.4562 236.503C68.2132 240.748 61.4741 244.039 52.6389 244.198C58.6578 249.939 72.3378 252.501 82.0459 250.993C91.7541 249.485 98.0181 244.903 102.247 239.947C108.917 232.116 111.588 222.663 107.485 212.999C103.381 203.334 91.9763 193.525 76.0844 187.819C60.1918 182.118 40.0428 181.202 28.2612 186.578C26.4386 187.407 24.7443 188.506 24.9766 189.977C25.2974 192.034 29.4172 193.871 33.1194 194.239C36.8298 194.609 40.1497 193.923 43.291 193.245L25.1502 192.994Z" fill="#7C3AED"/>
<path d="M205.775 196.715C197.453 197.202 188.489 197.934 182.138 203.332C174.872 209.507 173.171 220.008 173.233 229.55C173.281 236.093 173.97 242.788 176.786 248.691C179.603 254.6 184.86 259.637 191.303 260.797C187.545 267.665 177.87 269.544 170.646 266.522C163.422 263.5 158.371 256.825 154.76 249.879C149.064 238.906 146.101 226.24 148.043 214.028C149.986 201.816 157.223 190.202 168.167 184.445C179.112 178.694 193.67 179.668 202.82 187.979C204.235 189.261 205.586 190.883 205.576 192.784C205.564 195.443 202.766 197.404 200.112 197.487C197.453 197.571 194.964 196.314 192.606 195.087L205.775 196.715Z" fill="#7C3AED"/>
<path d="M190.659 196.715C182.337 197.202 173.374 197.934 167.023 203.332C159.757 209.507 158.056 220.008 158.118 229.55C158.166 236.093 158.854 242.788 161.67 248.691C164.487 254.6 169.744 259.637 176.188 260.797C172.429 267.665 162.755 269.544 155.53 266.522C148.306 263.5 143.255 256.825 139.645 249.879C133.948 238.906 130.985 226.24 132.928 214.028C134.87 201.816 142.108 190.202 153.052 184.445C163.997 178.694 178.554 179.668 187.704 187.979C189.119 189.261 190.47 190.883 190.46 192.784C190.449 195.443 187.65 197.404 184.997 197.487C182.338 197.571 179.849 196.314 177.491 195.087L190.659 196.715Z" fill="#7C3AED"/>
<path d="M175.544 207.879C167.221 208.365 158.258 209.097 151.907 214.495C144.641 220.67 142.94 231.172 143.002 240.713C143.05 247.256 143.739 253.952 146.555 259.855C149.372 265.764 154.629 270.8 161.072 271.961C157.314 278.829 147.639 280.708 140.415 277.686C133.191 274.664 128.14 267.988 124.529 261.043C118.833 250.07 115.87 237.404 117.812 225.192C119.755 212.979 126.992 201.366 137.936 195.609C148.881 189.858 163.439 190.832 172.588 199.142C174.004 200.425 175.355 202.046 175.344 203.948C175.333 206.606 172.534 208.567 169.881 208.65C167.222 208.734 164.733 207.478 162.375 206.251L175.544 207.879Z" fill="#7C3AED"/>
<path d="M120.436 127.589C127.978 124.038 136.023 120.02 139.907 112.645C144.35 104.208 142.017 93.8283 138.406 84.9962C135.924 78.9423 132.791 72.985 127.979 68.5554C123.164 64.1209 116.41 61.4051 109.997 62.728C110.927 54.954 119.206 49.6071 127.036 49.7206C134.866 49.8342 142.04 54.1482 147.977 59.2494C157.351 67.3108 164.819 77.9619 167.565 90.0188C170.311 102.076 167.92 115.549 159.907 124.968C151.892 134.383 138.019 138.901 126.433 134.596C124.641 133.933 122.784 132.932 122.085 131.163C121.105 128.692 122.972 125.829 125.403 124.764C127.84 123.696 130.618 123.935 133.263 124.195L120.436 127.589Z" fill="#7C3AED"/>
<path d="M120.436 139.327C127.978 135.775 136.023 131.757 139.907 124.382C144.35 115.945 142.017 105.566 138.406 96.7336C135.924 90.6797 132.791 84.7224 127.979 80.2929C123.164 75.8583 116.41 73.1426 109.997 74.4654C110.927 66.6914 119.206 61.3445 127.036 61.4581C134.866 61.5717 142.04 65.8856 147.977 70.9868C157.351 79.0482 164.819 89.6993 167.565 101.756C170.311 113.813 167.92 127.287 159.907 136.706C151.892 146.12 138.019 150.638 126.433 146.334C124.641 145.671 122.784 144.669 122.085 142.9C121.105 140.429 122.972 137.567 125.403 136.501C127.84 135.433 130.618 135.672 133.263 135.932L120.436 139.327Z" fill="#7C3AED"/>
<path d="M211.613 189.774C204.388 190.274 196.605 190.977 191.023 195.348C184.637 200.348 183.019 208.706 182.942 216.279C182.895 221.471 183.401 226.775 185.762 231.422C188.125 236.074 192.615 239.999 198.188 240.833C194.834 246.335 186.419 247.958 180.194 245.658C173.97 243.358 169.681 238.129 166.644 232.665C161.853 224.034 159.456 214.022 161.308 204.303C163.159 194.584 169.594 185.267 179.164 180.549C188.735 175.835 201.347 176.409 209.169 182.88C210.379 183.879 211.528 185.148 211.494 186.657C211.447 188.767 208.994 190.362 206.691 190.464C204.384 190.567 202.243 189.603 200.214 188.662L211.613 189.774Z" fill="#7C3AED"/>
<path d="M97.9185 93.3536C109.557 92.0232 122.115 90.4293 131.574 85.5278C142.394 79.9204 145.966 71.6061 146.974 64.236C147.657 59.1831 147.467 54.0854 144.225 49.8443C140.982 45.5988 134.242 42.3078 125.407 42.1493C131.426 36.4081 145.106 33.8463 154.814 35.3543C164.522 36.8623 170.786 41.4443 175.015 46.4004C181.685 54.2308 184.357 63.6838 180.253 73.3484C176.149 83.0129 164.745 92.8218 148.853 98.5278C132.96 104.229 112.811 105.146 101.03 99.7695C99.2069 98.9401 97.5126 97.8413 97.7449 96.3698C98.0657 94.3133 102.185 92.4761 105.888 92.1078C109.598 91.738 112.918 92.4242 116.059 93.1022L97.9185 93.3536Z" fill="#7C3AED"/>
<path d="M278.543 89.6319C270.221 89.1455 261.258 88.4132 254.907 83.0155C247.641 76.8404 245.939 66.3389 246.001 56.7971C246.049 50.2545 246.738 43.559 249.554 37.6558C252.371 31.7469 257.628 26.7106 264.072 25.5498C260.313 18.6817 250.639 16.803 243.414 19.8248C236.19 22.8467 231.139 29.5223 227.529 36.4681C221.832 47.4408 218.869 60.1069 220.812 72.3191C222.754 84.5312 229.991 96.1448 240.935 101.902C251.881 107.653 266.438 106.679 275.588 98.3686C277.003 97.0859 278.354 95.4644 278.344 93.5627C278.332 90.9044 275.534 88.9433 272.881 88.8604C270.222 88.7765 267.733 90.0331 265.375 91.2598L278.543 89.6319Z" fill="#7C3AED"/>
<path d="M263.427 89.6319C255.105 89.1455 246.142 88.4132 239.791 83.0155C232.525 76.8404 230.824 66.3389 230.885 56.7971C230.934 50.2545 231.622 43.559 234.438 37.6558C237.255 31.7469 242.512 26.7106 248.956 25.5498C245.197 18.6817 235.523 16.803 228.298 19.8248C221.074 22.8467 216.023 29.5223 212.413 36.4681C206.716 47.4408 203.753 60.1069 205.696 72.3191C207.638 84.5312 214.876 96.1448 225.82 101.902C236.765 107.653 251.322 106.679 260.472 98.3686C261.887 97.0859 263.238 95.4644 263.228 93.5627C263.216 90.9044 260.418 88.9433 257.765 88.8604C255.106 88.7765 252.617 90.0331 250.259 91.2598L263.427 89.6319Z" fill="#7C3AED"/>
<path d="M219.762 69.2935C211.446 69.8674 202.462 70.2788 195.477 65.7311C187.486 60.5282 184.466 50.3277 183.316 40.8552C182.533 34.3595 182.366 27.6306 184.41 21.4178C186.454 15.1991 191.029 9.53624 197.274 7.56684C192.673 1.23139 182.839 0.595953 176.056 4.51045C169.274 8.42496 165.112 15.6877 162.412 23.0356C158.155 34.6427 156.823 47.5825 160.3 59.4492C163.777 71.316 172.43 81.917 184.017 86.2381C195.603 90.5535 209.919 87.7394 217.94 78.3346C219.181 76.8827 220.315 75.1028 220.064 73.2178C219.715 70.5825 216.69 68.9924 214.048 69.247C211.4 69.5013 209.09 71.0637 206.907 72.5798L219.762 69.2935Z" fill="#7C3AED"/>
<path d="M284.381 96.5729C277.157 96.0734 269.373 95.3699 263.791 90.9992C257.406 85.999 255.787 77.6409 255.711 70.0686C255.663 64.8765 256.169 59.5717 258.531 54.9249C260.893 50.2735 265.384 46.348 270.956 45.5146C267.603 40.0122 259.187 38.3891 252.963 40.689C246.738 42.9889 242.449 48.2183 239.412 53.6818C234.622 62.313 232.225 72.3255 234.076 82.0445C235.927 91.7636 242.362 101.08 251.932 105.798C261.503 110.512 274.115 109.938 281.937 103.467C283.147 102.468 284.297 101.2 284.262 99.6901C284.216 97.5801 281.762 95.9853 279.46 95.8834C277.152 95.7805 275.011 96.7439 272.983 97.6853L284.381 96.5729Z" fill="#7C3AED"/>
<path d="M10.0343 178.457C21.6726 179.787 34.2312 181.381 43.6896 186.282C54.5102 191.89 58.0821 200.204 59.09 207.574C59.7733 212.627 59.5826 217.725 56.3404 221.966C53.0974 226.211 46.3583 229.502 37.5231 229.661C43.5419 235.402 57.2219 237.964 66.9301 236.456C76.6382 234.948 82.9023 230.366 87.1307 225.41C93.801 217.579 96.4725 208.126 92.3687 198.462C88.2649 188.797 76.8604 178.988 60.9686 173.283C45.076 167.581 24.9269 166.665 13.1454 172.041C11.3227 172.87 9.62845 173.969 9.86075 175.44C10.1816 177.497 14.3013 179.334 18.0036 179.703C21.714 180.072 25.0338 179.386 28.1752 178.708L10.0343 178.457Z" fill="#7C3AED"/>
<path d="M836.93 54.522C839 56.0137 841.267 57.577 843.753 57.6742C846.597 57.7854 848.896 55.9357 850.602 53.9473C851.771 52.5829 852.814 51.0642 853.208 49.3026C853.603 47.5396 853.259 45.4904 851.934 44.017C854.068 43.3135 856.711 44.7755 857.887 46.7839C859.062 48.7922 859.061 51.1414 858.668 53.271C858.046 56.634 856.468 59.8246 853.802 61.9826C851.137 64.1405 847.319 65.1613 843.674 64.2597C840.03 63.3567 836.739 60.3694 836.058 56.8972C835.952 56.3607 835.923 55.7663 836.268 55.3743C836.751 54.8259 837.771 54.9551 838.418 55.4457C839.066 55.9371 839.432 56.6736 839.773 57.3789L836.93 54.522Z" fill="#7C3AED"/>
<path d="M503.703 181.464C505.773 182.956 508.04 184.519 510.526 184.617C513.37 184.728 515.67 182.878 517.376 180.89C518.544 179.525 519.588 178.007 519.982 176.245C520.376 174.482 520.033 172.433 518.707 170.959C520.841 170.256 523.484 171.718 524.66 173.726C525.835 175.735 525.834 178.084 525.442 180.213C524.82 183.576 523.241 186.767 520.576 188.925C517.911 191.083 514.092 192.104 510.447 191.202C506.803 190.299 503.512 187.312 502.831 183.84C502.726 183.303 502.696 182.709 503.042 182.317C503.524 181.768 504.544 181.898 505.191 182.388C505.839 182.879 506.206 183.616 506.546 184.321L503.703 181.464Z" fill="#7C3AED"/>
<path d="M650.989 117.74C655.132 117.561 659.595 117.261 662.769 114.536C666.401 111.418 667.273 106.024 667.265 101.109C667.257 97.7391 666.93 94.2847 665.543 91.2202C664.155 88.1527 661.551 85.5136 658.346 84.8602C660.234 81.3553 665.053 80.471 668.642 82.0896C672.23 83.7082 674.728 87.1898 676.508 90.7982C679.317 96.4986 680.761 103.048 679.765 109.32C678.768 115.593 675.138 121.512 669.677 124.383C664.216 127.251 656.973 126.624 652.439 122.265C651.738 121.592 651.069 120.745 651.079 119.766C651.091 118.397 652.489 117.411 653.809 117.391C655.133 117.371 656.369 118.039 657.539 118.691L650.989 117.74Z" fill="#7C3AED"/>
<path d="M705.874 128.167C701.731 127.988 697.268 127.688 694.094 124.963C690.463 121.845 689.591 116.451 689.599 111.536C689.607 108.166 689.934 104.712 691.321 101.647C692.709 98.5799 695.313 95.9408 698.517 95.2874C696.63 91.7825 691.81 90.8983 688.222 92.5169C684.634 94.1355 682.136 97.6171 680.356 101.225C677.547 106.926 676.103 113.475 677.099 119.748C678.095 126.02 681.725 131.939 687.186 134.81C692.648 137.678 699.891 137.051 704.425 132.692C705.126 132.019 705.794 131.172 705.785 130.193C705.773 128.824 704.375 127.838 703.054 127.818C701.731 127.798 700.495 128.467 699.324 129.119L705.874 128.167Z" fill="#7C3AED"/>
<path d="M717.713 134.686C713.57 134.507 709.107 134.207 705.933 131.482C702.302 128.364 701.43 122.97 701.437 118.056C701.446 114.685 701.772 111.231 703.16 108.167C704.547 105.099 707.152 102.46 710.356 101.807C708.469 98.3017 703.649 97.4175 700.061 99.0361C696.472 100.655 693.975 104.136 692.194 107.745C689.386 113.445 687.941 119.994 688.938 126.267C689.934 132.54 693.564 138.459 699.025 141.329C704.486 144.197 711.729 143.57 716.263 139.211C716.965 138.538 717.633 137.692 717.623 136.712C717.611 135.343 716.214 134.357 714.893 134.337C713.569 134.317 712.334 134.986 711.163 135.638L717.713 134.686Z" fill="#7C3AED"/>
<path d="M739.554 120.119C735.411 119.94 730.948 119.64 727.774 116.915C724.143 113.797 723.271 108.403 723.279 103.488C723.287 100.118 723.613 96.6638 725.001 93.5992C726.389 90.5317 728.993 87.8926 732.197 87.2392C730.31 83.7343 725.49 82.8501 721.902 84.4687C718.314 86.0873 715.816 89.5689 714.036 93.1773C711.227 98.8776 709.783 105.427 710.779 111.699C711.775 117.972 715.405 123.891 720.866 126.762C726.327 129.63 733.571 129.003 738.104 124.644C738.806 123.971 739.474 123.124 739.465 122.145C739.452 120.776 738.055 119.79 736.734 119.77C735.41 119.75 734.175 120.418 733.004 121.07L739.554 120.119Z" fill="#7C3AED"/>
<path d="M753.237 133.381C749.093 133.202 744.631 132.902 741.457 130.177C737.825 127.059 736.953 121.665 736.961 116.75C736.969 113.38 737.296 109.926 738.683 106.861C740.071 103.794 742.675 101.155 745.88 100.501C743.992 96.9963 739.173 96.112 735.584 97.7306C731.996 99.3492 729.498 102.831 727.718 106.439C724.909 112.14 723.465 118.689 724.461 124.961C725.457 131.234 729.088 137.153 734.548 140.024C740.01 142.892 747.253 142.265 751.787 137.906C752.488 137.233 753.157 136.386 753.147 135.407C753.135 134.038 751.737 133.052 750.417 133.032C749.093 133.012 747.857 133.68 746.686 134.332L753.237 133.381Z" fill="#7C3AED"/>
<path d="M765.075 136.86C760.932 136.681 756.469 136.381 753.295 133.656C749.664 130.538 748.792 125.144 748.8 120.229C748.808 116.859 749.135 113.405 750.522 110.34C751.91 107.273 754.514 104.634 757.718 103.98C755.831 100.475 751.011 99.5912 747.423 101.21C743.835 102.828 741.337 106.31 739.557 109.918C736.748 115.619 735.304 122.168 736.3 128.44C737.296 134.713 740.926 140.632 746.387 143.503C751.849 146.371 759.092 145.744 763.626 141.385C764.327 140.712 764.995 139.865 764.986 138.886C764.974 137.517 763.576 136.531 762.255 136.511C760.932 136.491 759.696 137.159 758.525 137.812L765.075 136.86Z" fill="#7C3AED"/>
<path d="M488.734 142.578C492.357 144.596 496.212 146.865 497.827 150.724C499.675 155.14 498.035 160.352 495.825 164.741C494.306 167.75 492.465 170.691 489.851 172.808C487.235 174.928 483.724 176.119 480.567 175.266C480.682 179.245 484.594 182.196 488.527 182.359C492.46 182.521 496.254 180.529 499.463 178.102C504.53 174.266 508.757 169.06 510.679 163.007C512.602 156.953 512.011 150.035 508.417 145.02C504.822 140.008 498.066 137.321 492.059 139.184C491.131 139.471 490.154 139.928 489.723 140.807C489.12 142.037 489.927 143.545 491.099 144.154C492.273 144.766 493.677 144.723 495.016 144.665L488.734 142.578Z" fill="#7C3AED"/>
<path d="M445.856 160.228C449.261 157.861 452.993 155.396 457.169 155.642C461.947 155.923 465.908 159.686 468.879 163.601C470.914 166.288 472.747 169.234 473.499 172.513C474.253 175.794 473.78 179.471 471.626 181.932C475.251 183.578 479.621 181.362 481.496 177.9C483.371 174.439 483.249 170.156 482.48 166.206C481.261 159.969 478.443 153.884 473.851 149.496C469.259 145.109 462.785 142.598 456.701 143.622C450.618 144.649 445.235 149.535 444.268 155.75C444.118 156.71 444.099 157.789 444.7 158.562C445.539 159.644 447.248 159.582 448.311 158.797C449.376 158.012 449.954 156.731 450.491 155.503L445.856 160.228Z" fill="#7C3AED"/>
<path d="M639.151 132.219C643.294 132.041 647.757 131.741 650.931 129.015C654.562 125.898 655.434 120.504 655.426 115.589C655.418 112.219 655.092 108.765 653.704 105.7C652.317 102.633 649.712 99.9934 646.508 99.3401C648.395 95.8351 653.215 94.9509 656.803 96.5695C660.391 98.1881 662.889 101.67 664.669 105.278C667.478 110.978 668.922 117.527 667.926 123.8C666.93 130.073 663.3 135.992 657.839 138.863C652.378 141.731 645.134 141.104 640.601 136.745C639.899 136.072 639.231 135.225 639.24 134.246C639.253 132.877 640.65 131.891 641.971 131.871C643.295 131.851 644.53 132.519 645.701 133.171L639.151 132.219Z" fill="#7C3AED"/>
<path d="M619.992 122.953C624.135 122.775 628.598 122.475 631.772 119.749C635.403 116.632 636.275 111.238 636.267 106.323C636.259 102.953 635.933 99.4986 634.545 96.4341C633.157 93.3665 630.553 90.7274 627.349 90.0741C629.236 86.5692 634.056 85.6849 637.644 87.3035C641.232 88.9221 643.73 92.4037 645.51 96.0121C648.319 101.712 649.763 108.261 648.767 114.534C647.771 120.807 644.141 126.726 638.68 129.597C633.219 132.465 625.975 131.838 621.441 127.479C620.74 126.806 620.072 125.959 620.081 124.98C620.094 123.611 621.491 122.625 622.812 122.605C624.135 122.585 625.371 123.253 626.542 123.905L619.992 122.953Z" fill="#7C3AED"/>
<path d="M608.153 137.433C612.297 137.254 616.759 136.955 619.933 134.229C623.565 131.112 624.437 125.718 624.429 120.803C624.421 117.433 624.094 113.978 622.707 110.914C621.319 107.846 618.715 105.207 615.51 104.554C617.398 101.049 622.217 100.165 625.806 101.783C629.394 103.402 631.892 106.884 633.672 110.492C636.481 116.192 637.925 122.741 636.929 129.014C635.933 135.287 632.302 141.206 626.841 144.077C621.38 146.944 614.137 146.317 609.603 141.958C608.902 141.286 608.233 140.439 608.243 139.459C608.255 138.091 609.653 137.105 610.973 137.085C612.297 137.064 613.533 137.733 614.703 138.385L608.153 137.433Z" fill="#7C3AED"/>
<path d="M600.833 122.953C604.976 122.775 609.439 122.475 612.613 119.749C616.245 116.632 617.117 111.238 617.109 106.323C617.101 102.953 616.774 99.4986 615.387 96.4341C613.999 93.3665 611.395 90.7274 608.19 90.0741C610.078 86.5692 614.897 85.6849 618.486 87.3035C622.074 88.9221 624.572 92.4037 626.352 96.0121C629.161 101.712 630.605 108.261 629.609 114.534C628.612 120.807 624.982 126.726 619.521 129.597C614.06 132.465 606.817 131.838 602.283 127.479C601.582 126.806 600.913 125.959 600.923 124.98C600.935 123.611 602.333 122.625 603.653 122.605C604.977 122.585 606.213 123.253 607.383 123.905L600.833 122.953Z" fill="#7C3AED"/>
<path d="M305.945 442.589C306.744 440.343 307.507 437.901 305.764 435.607C303.77 432.983 299.064 431.325 294.589 430.241C291.521 429.5 288.302 428.909 285.191 428.97C282.077 429.03 279.071 429.832 277.733 431.394C274.981 429.613 275.296 426.851 277.601 425.299C279.907 423.746 283.656 423.187 287.352 423.037C293.192 422.803 299.487 423.484 304.964 425.403C310.441 427.322 314.984 430.565 316.329 434.108C317.67 437.651 315.418 441.369 310.399 442.819C309.624 443.043 308.698 443.212 307.809 442.99C306.566 442.68 305.994 441.718 306.282 441.01C306.571 440.301 307.466 439.791 308.332 439.312L305.945 442.589Z" fill="#7C3AED"/>
<path d="M588.994 142.647C593.138 142.468 597.6 142.168 600.775 139.443C604.406 136.325 605.278 130.931 605.27 126.017C605.262 122.647 604.935 119.192 603.548 116.128C602.16 113.06 599.556 110.421 596.351 109.768C598.239 106.263 603.058 105.379 606.647 106.997C610.235 108.616 612.733 112.097 614.513 115.706C617.322 121.406 618.766 127.955 617.77 134.228C616.774 140.501 613.144 146.42 607.683 149.29C602.221 152.158 594.978 151.531 590.444 147.172C589.743 146.499 589.074 145.653 589.084 144.673C589.096 143.304 590.494 142.318 591.815 142.298C593.138 142.278 594.374 142.947 595.545 143.599L588.994 142.647Z" fill="#7C3AED"/>
<path d="M562.515 137.433C566.659 137.254 571.121 136.955 574.296 134.229C577.927 131.112 578.799 125.718 578.791 120.803C578.783 117.433 578.456 113.978 577.069 110.914C575.681 107.846 573.077 105.207 569.872 104.554C571.76 101.049 576.579 100.165 580.168 101.783C583.756 103.402 586.254 106.884 588.034 110.492C590.843 116.192 592.287 122.741 591.291 129.014C590.295 135.287 586.665 141.206 581.204 144.077C575.742 146.944 568.499 146.317 563.965 141.958C563.264 141.286 562.595 140.439 562.605 139.459C562.617 138.091 564.015 137.105 565.336 137.085C566.659 137.064 567.895 137.733 569.066 138.385L562.515 137.433Z" fill="#7C3AED"/>
<path d="M550.677 150.808C554.82 150.629 559.283 150.329 562.457 147.604C566.088 144.486 566.96 139.092 566.952 134.177C566.944 130.807 566.618 127.353 565.23 124.288C563.843 121.221 561.238 118.582 558.034 117.928C559.921 114.423 564.741 113.539 568.329 115.158C571.918 116.776 574.415 120.258 576.196 123.866C579.004 129.567 580.449 136.116 579.452 142.388C578.456 148.661 574.826 154.58 569.365 157.451C563.904 160.319 556.661 159.692 552.127 155.333C551.425 154.66 550.757 153.813 550.767 152.834C550.779 151.465 552.176 150.479 553.497 150.459C554.821 150.439 556.056 151.107 557.227 151.759L550.677 150.808Z" fill="#7C3AED"/>
<path d="M538.838 165.288C542.981 165.109 547.444 164.809 550.618 162.084C554.249 158.966 555.122 153.572 555.114 148.657C555.106 145.287 554.779 141.833 553.392 138.769C552.004 135.701 549.4 133.062 546.195 132.409C548.083 128.904 552.902 128.019 556.49 129.638C560.079 131.257 562.577 134.738 564.357 138.347C567.166 144.047 568.61 150.596 567.614 156.869C566.617 163.142 562.987 169.061 557.526 171.931C552.065 174.799 544.822 174.172 540.288 169.813C539.587 169.14 538.918 168.293 538.928 167.314C538.94 165.945 540.338 164.959 541.658 164.939C542.982 164.919 544.218 165.588 545.388 166.24L538.838 165.288Z" fill="#7C3AED"/>
<path d="M519.68 156.021C523.823 155.843 528.286 155.543 531.46 152.817C535.091 149.7 535.963 144.306 535.955 139.391C535.947 136.021 535.62 132.567 534.233 129.502C532.845 126.435 530.241 123.795 527.037 123.142C528.924 119.637 533.744 118.753 537.332 120.372C540.92 121.99 543.418 125.472 545.198 129.08C548.007 134.78 549.451 141.329 548.455 147.602C547.459 153.875 543.829 159.794 538.368 162.665C532.906 165.533 525.663 164.906 521.129 160.547C520.428 159.874 519.76 159.027 519.769 158.048C519.781 156.679 521.179 155.693 522.5 155.673C523.823 155.653 525.059 156.321 526.23 156.973L519.68 156.021Z" fill="#7C3AED"/>
<path d="M265.202 404.436C268.15 404.182 271.33 403.858 273.695 402.437C276.399 400.812 277.239 398.221 277.434 395.893C277.566 394.297 277.475 392.674 276.616 391.279C275.756 389.882 274.015 388.738 271.767 388.56C273.25 386.822 276.708 386.206 279.189 386.827C281.67 387.447 283.3 388.994 284.417 390.631C286.177 393.216 286.935 396.26 285.972 399.272C285.008 402.285 282.189 405.237 278.196 406.82C274.202 408.402 269.086 408.401 266.046 406.521C265.576 406.231 265.136 405.857 265.183 405.393C265.247 404.744 266.279 404.219 267.218 404.156C268.158 404.092 269.008 404.359 269.812 404.62L265.202 404.436Z" fill="#7C3AED"/>
<path d="M276.447 417.659C278.389 415.426 280.448 412.982 281.159 410.317C281.973 407.267 280.774 404.822 279.296 403.013C278.28 401.774 277.087 400.671 275.499 400.266C273.91 399.861 271.863 400.249 270.124 401.684C269.981 399.404 272.037 396.558 274.251 395.278C276.465 393.998 278.713 393.976 280.654 394.376C283.717 395.009 286.378 396.67 287.781 399.504C289.183 402.339 289.211 406.421 287.442 410.336C285.672 414.25 281.995 417.807 278.503 418.57C277.963 418.689 277.387 418.726 277.098 418.36C276.693 417.848 277.07 416.754 277.701 416.056C278.332 415.356 279.128 414.956 279.887 414.585L276.447 417.659Z" fill="#7C3AED"/>
<path d="M223.362 326.627C227.495 326.391 231.95 326.041 235.165 323.557C238.842 320.715 239.811 315.898 239.894 311.524C239.949 308.525 239.687 305.456 238.361 302.755C237.034 300.05 234.486 297.749 231.304 297.227C233.25 294.073 238.071 293.197 241.619 294.571C245.166 295.945 247.591 298.998 249.299 302.176C251.994 307.198 253.313 313 252.204 318.601C251.094 324.203 247.366 329.538 241.869 332.194C236.372 334.847 229.163 334.423 224.723 330.627C224.037 330.041 223.386 329.3 223.414 328.428C223.451 327.21 224.863 326.306 226.18 326.264C227.5 326.222 228.719 326.794 229.874 327.353L223.362 326.627Z" fill="#7C3AED"/>
<path d="M342.279 434.564C344.607 431.536 347.154 428.285 349.88 426.24C352.998 423.902 355.438 423.836 357.223 424.366C358.445 424.731 359.524 425.34 359.882 426.687C360.241 428.035 359.779 430.232 358.266 432.659C360.573 431.644 363.528 428.193 364.898 425.381C366.269 422.569 366.366 420.36 366.025 418.666C365.485 415.992 363.889 414.231 361.062 414.295C358.234 414.359 354.097 416.398 350.069 420.109C346.042 423.82 342.314 429.215 341.424 433.015C341.285 433.603 341.229 434.185 341.59 434.282C342.095 434.419 343.218 433.496 343.946 432.527C344.677 431.555 345.108 430.575 345.51 429.644L342.279 434.564" fill="#7C3AED"/>
<path d="M229.854 350.866C233.988 350.63 238.442 350.281 241.657 347.797C245.335 344.955 246.304 340.138 246.387 335.764C246.441 332.764 246.179 329.696 244.853 326.994C243.526 324.29 240.979 321.989 237.797 321.467C239.743 318.312 244.564 317.436 248.111 318.81C251.658 320.185 254.084 323.237 255.792 326.416C258.487 331.437 259.805 337.239 258.696 342.841C257.587 348.442 253.858 353.777 248.361 356.433C242.864 359.087 235.655 358.663 231.216 354.867C230.529 354.281 229.878 353.54 229.906 352.668C229.944 351.449 231.355 350.546 232.672 350.504C233.992 350.461 235.211 351.034 236.366 351.592L229.854 350.866Z" fill="#7C3AED"/>
<path d="M233.475 338.186C241.709 337.205 250.6 336.06 257.43 333.206C265.244 329.941 268.058 325.385 269.035 321.396C269.699 318.661 269.75 315.922 267.624 313.713C265.498 311.502 260.878 309.885 254.67 310.001C259.111 306.774 268.826 305.083 275.599 305.673C282.372 306.263 286.611 308.586 289.405 311.157C293.811 315.219 295.347 320.245 292.109 325.54C288.872 330.835 280.494 336.375 269.11 339.808C257.725 343.24 243.521 344.193 235.43 341.568C234.179 341.164 233.027 340.611 233.244 339.814C233.544 338.7 236.508 337.617 239.126 337.334C241.749 337.05 244.059 337.344 246.243 337.637L233.475 338.186Z" fill="#7C3AED"/>
<path d="M260.365 376.13C258.342 372.518 256.242 368.574 256.608 364.528C257.027 359.899 260.568 356.492 264.211 354.071C266.711 352.412 269.439 350.984 272.43 350.649C275.424 350.314 278.734 351.225 280.885 353.627C282.498 350.291 280.645 345.755 277.579 343.502C274.513 341.25 270.635 340.846 267.037 341.115C261.354 341.542 255.753 343.55 251.627 347.497C247.5 351.443 245.006 357.455 245.721 363.518C246.44 369.58 250.673 375.43 256.26 377.133C257.123 377.397 258.098 377.547 258.818 377.055C259.826 376.368 259.829 374.692 259.156 373.559C258.482 372.424 257.344 371.703 256.252 371.029L260.365 376.13Z" fill="#7C3AED"/>
<path d="M507.841 170.502C511.984 170.323 516.447 170.023 519.621 167.298C523.252 164.18 524.125 158.786 524.117 153.871C524.109 150.501 523.782 147.047 522.395 143.982C521.007 140.915 518.403 138.276 515.198 137.622C517.085 134.117 521.905 133.233 525.493 134.852C529.082 136.47 531.58 139.952 533.36 143.56C536.169 149.261 537.613 155.81 536.617 162.082C535.62 168.355 531.99 174.274 526.529 177.145C521.068 180.013 513.825 179.386 509.291 175.027C508.59 174.354 507.921 173.507 507.931 172.528C507.943 171.159 509.34 170.173 510.661 170.153C511.985 170.133 513.221 170.801 514.391 171.454L507.841 170.502Z" fill="#7C3AED"/>
<path d="M500.521 156.021C504.664 155.843 509.127 155.543 512.301 152.817C515.932 149.7 516.804 144.306 516.796 139.391C516.788 136.021 516.462 132.567 515.074 129.502C513.687 126.435 511.082 123.795 507.878 123.142C509.765 119.637 514.585 118.753 518.173 120.372C521.761 121.99 524.259 125.472 526.039 129.08C528.848 134.78 530.292 141.329 529.296 147.602C528.3 153.875 524.67 159.794 519.209 162.665C513.748 165.533 506.504 164.906 501.971 160.547C501.269 159.874 500.601 159.027 500.61 158.048C500.623 156.679 502.02 155.693 503.341 155.673C504.665 155.653 505.9 156.321 507.071 156.973L500.521 156.021Z" fill="#7C3AED"/>
<path d="M462.204 170.502C466.347 170.323 470.81 170.023 473.984 167.298C477.615 164.18 478.487 158.786 478.479 153.871C478.471 150.501 478.144 147.047 476.757 143.982C475.369 140.915 472.765 138.276 469.561 137.622C471.448 134.117 476.267 133.233 479.856 134.852C483.444 136.47 485.942 139.952 487.722 143.56C490.531 149.261 491.975 155.81 490.979 162.082C489.983 168.355 486.353 174.274 480.892 177.145C475.43 180.013 468.187 179.386 463.653 175.027C462.952 174.354 462.284 173.507 462.293 172.528C462.305 171.159 463.703 170.173 465.024 170.153C466.347 170.133 467.583 170.801 468.754 171.454L462.204 170.502Z" fill="#7C3AED"/>
<path d="M555.195 147.324C559.339 147.145 563.801 146.845 566.976 144.12C570.607 141.002 571.479 135.608 571.471 130.694C571.463 127.324 571.136 123.869 569.749 120.805C568.361 117.737 565.757 115.098 562.552 114.445C564.44 110.94 569.259 110.056 572.848 111.674C576.436 113.293 578.934 116.774 580.714 120.383C583.523 126.083 584.967 132.632 583.971 138.905C582.975 145.178 579.344 151.097 573.884 153.967C568.422 156.835 561.179 156.208 556.645 151.849C555.944 151.176 555.275 150.33 555.285 149.35C555.297 147.981 556.695 146.995 558.016 146.975C559.339 146.955 560.575 147.624 561.746 148.276L555.195 147.324Z" fill="#7C3AED"/>
<path d="M797.33 75.8905C799.853 75.5143 802.584 75.1647 804.838 76.2186C807.417 77.4244 808.611 80.1226 809.216 82.672C809.628 84.4204 809.859 86.2486 809.401 87.9946C808.943 89.7423 807.698 91.4055 805.844 92.107C807.418 93.7108 810.437 93.6239 812.403 92.3784C814.369 91.133 815.445 89.045 816.073 86.9725C817.063 83.6987 817.123 80.1394 815.745 76.9995C814.366 73.8595 811.441 71.2012 807.789 70.3306C804.136 69.4617 799.841 70.6066 797.644 73.38C797.304 73.8082 797.006 74.3229 797.133 74.8297C797.31 75.5382 798.275 75.8912 799.075 75.752C799.877 75.6128 800.54 75.1262 801.166 74.6556L797.33 75.8905Z" fill="#7C3AED"/>
<path d="M801.175 86.3164C803.698 85.9402 806.43 85.5906 808.684 86.6445C811.262 87.8503 812.457 90.5485 813.061 93.0979C813.473 94.8463 813.704 96.6745 813.246 98.4205C812.789 100.168 811.543 101.831 809.69 102.533C811.263 104.137 814.282 104.05 816.248 102.804C818.214 101.559 819.291 99.4709 819.918 97.3984C820.908 94.1246 820.968 90.5653 819.59 87.4254C818.211 84.2854 815.287 81.6271 811.634 80.7565C807.982 79.8876 803.687 81.0325 801.49 83.8059C801.15 84.2341 800.851 84.7488 800.978 85.2556C801.155 85.9641 802.121 86.3171 802.921 86.1779C803.722 86.0387 804.385 85.5521 805.011 85.0815L801.175 86.3164Z" fill="#7C3AED"/>
<path d="M473.016 304.041C432.358 378.073 422.051 465.056 387.338 542.055C384.371 548.636 381.069 555.34 375.537 559.969C364.884 568.859 349.346 567.666 335.57 565.981C319.474 564.018 298.861 557.203 299.206 540.995C299.396 531.737 307.517 524.163 316.396 521.52C325.263 518.876 334.778 520.059 343.958 521.263C340.735 462.78 346.323 403.807 360.467 346.964C364.85 329.373 370.227 311.593 380.88 296.924C391.532 282.256 408.431 271.035 426.557 271.493C451.576 272.128 472.647 298.419 467.818 322.981L473.016 304.041Z" fill="#7C3AED"/>
<path d="M316.976 191.404C290.719 169.284 291.053 138.453 272.035 114.962C262.141 102.759 217.847 98.7993 230.976 86.2505C248.299 69.6862 292.225 37.684 317.378 46.0498C336.831 52.5194 344.561 75.4418 349.123 95.4306C354.154 117.528 358.605 139.747 362.453 162.067C364.762 175.419 365.621 191.905 354.477 199.602C343.133 207.432 327.517 200.283 316.976 191.404Z" fill="#7C3AED"/>
<path d="M857.916 293.638C856.404 291.665 854.722 289.577 852.292 288.956C849.513 288.245 846.564 289.672 844.154 291.366C842.502 292.529 840.918 293.877 839.89 295.612C838.862 297.348 838.461 299.535 839.243 301.333C836.873 301.611 834.781 299.549 834.342 297.23C833.902 294.912 834.753 292.488 835.912 290.373C837.745 287.034 840.464 284.073 843.887 282.404C847.309 280.736 851.464 280.483 854.751 282.177C858.038 283.873 860.221 287.645 859.64 291.37C859.55 291.946 859.365 292.565 858.88 292.897C858.204 293.362 857.239 293.015 856.775 292.373C856.31 291.73 856.214 290.893 856.131 290.094L857.916 293.638Z" fill="#7C3AED"/>
<path d="M857.916 293.638C856.404 291.665 854.722 289.577 852.292 288.956C849.513 288.245 846.564 289.672 844.154 291.366C842.502 292.529 840.918 293.877 839.89 295.612C838.862 297.348 838.461 299.535 839.243 301.333C836.873 301.611 834.781 299.549 834.342 297.23C833.902 294.912 834.753 292.488 835.912 290.373C837.745 287.034 840.464 284.073 843.887 282.404C847.309 280.736 851.464 280.483 854.751 282.177C858.038 283.873 860.221 287.645 859.64 291.37C859.55 291.946 859.365 292.565 858.88 292.897C858.204 293.362 857.239 293.015 856.775 292.373C856.31 291.73 856.214 290.893 856.131 290.094L857.916 293.638Z" fill="#7C3AED"/>
<path d="M857.333 294.212C855.812 292.248 854.122 290.167 851.73 289.509C848.993 288.757 846.134 290.095 843.807 291.707C842.213 292.813 840.689 294.102 839.718 295.782C838.745 297.463 838.397 299.598 839.199 301.376C836.883 301.601 834.793 299.537 834.316 297.256C833.838 294.975 834.622 292.617 835.715 290.567C837.443 287.331 840.046 284.484 843.365 282.919C846.683 281.353 850.747 281.189 854.001 282.916C857.254 284.644 859.469 288.385 858.975 292.024C858.899 292.587 858.73 293.19 858.262 293.506C857.609 293.947 856.657 293.588 856.19 292.949C855.721 292.31 855.61 291.488 855.513 290.703L857.333 294.212Z" fill="#7C3AED"/>
<path d="M856.576 353.681C857.208 351.278 857.83 348.671 856.896 346.373C855.827 343.743 853.025 342.29 850.33 341.425C848.481 340.834 846.531 340.41 844.607 340.661C842.681 340.913 840.776 341.937 839.853 343.655C838.265 341.955 838.63 339.04 840.149 337.273C841.668 335.506 844.016 334.692 846.308 334.312C849.927 333.712 853.77 334.044 857.032 335.724C860.294 337.404 862.899 340.528 863.51 344.161C864.119 347.794 862.499 351.828 859.311 353.652C858.819 353.934 858.237 354.167 857.702 353.988C856.954 353.739 856.66 352.765 856.882 352.005C857.104 351.244 857.688 350.655 858.252 350.101L856.576 353.681Z" fill="#7C3AED"/>
<path d="M863.146 327.035C863.305 326.594 863.456 326.115 863.108 325.663C862.71 325.147 861.772 324.819 860.88 324.603C860.268 324.456 859.626 324.338 859.006 324.348C858.386 324.358 857.787 324.514 857.52 324.82C856.971 324.469 857.033 323.927 857.492 323.623C857.952 323.319 858.699 323.212 859.435 323.184C860.599 323.142 861.854 323.279 862.946 323.659C864.038 324.039 864.945 324.678 865.214 325.375C865.482 326.071 865.034 326.8 864.034 327.082C863.88 327.126 863.695 327.158 863.518 327.114C863.27 327.053 863.156 326.864 863.213 326.725C863.27 326.586 863.449 326.486 863.621 326.392L863.146 327.035" fill="#7C3AED"/>
<path d="M859.738 308.411C858.225 306.438 856.543 304.35 854.114 303.729C851.334 303.018 848.386 304.445 845.975 306.139C844.324 307.302 842.74 308.65 841.712 310.385C840.683 312.121 840.283 314.308 841.064 316.106C838.694 316.384 836.603 314.322 836.163 312.003C835.724 309.685 836.575 307.261 837.734 305.146C839.567 301.807 842.286 298.846 845.709 297.178C849.131 295.51 853.286 295.256 856.573 296.95C859.859 298.646 862.042 302.418 861.461 306.143C861.372 306.719 861.186 307.338 860.702 307.67C860.026 308.135 859.061 307.788 858.597 307.146C858.132 306.503 858.035 305.667 857.953 304.867L859.738 308.411Z" fill="#7C3AED"/>
</svg>
