<svg width="265" height="265" viewBox="0 0 265 265" fill="none" xmlns="http://www.w3.org/2000/svg">
<rect x="0.962982" y="0.611084" width="263.733" height="263.733" rx="12" fill="#7C3AED"/>
<path d="M70.1639 128.039C73.4636 144.817 81.6416 160.195 86.7763 176.503C88.3378 181.467 89.5203 187.228 86.6737 191.582C85.6906 193.089 84.2716 194.318 83.5136 195.95C82.7528 197.583 82.9665 199.928 84.605 200.683C85.2632 200.985 86.0213 200.971 86.745 200.911C91.6831 200.515 96.4587 198.335 99.9949 194.865C100.887 193.99 101.722 192.998 102.098 191.804C102.514 190.485 102.326 189.058 102.135 187.684C99.3054 167.45 95.8006 145.768 81.6245 131.054C79.5986 128.951 76.9884 126.897 74.0877 127.244C71.1869 127.595 69.161 131.863 71.5574 133.536L70.1639 128.039Z" fill="white"/>
<path d="M202.511 133.426C203.597 139.957 204.683 146.488 205.768 153.019C206.042 154.666 206.313 156.384 205.797 157.971C204.663 161.464 200.463 162.718 196.864 163.462C194.325 163.983 191.618 164.493 189.207 163.544C186.797 162.596 185.033 159.558 186.366 157.338C187.782 154.973 191.435 155.09 193.276 153.038C195.732 150.3 193.504 146.077 191.552 142.96C189.486 139.66 187.731 136.044 187.404 132.166C187.079 128.291 188.404 124.102 191.527 121.777C194.647 119.455 199.639 119.646 202.016 122.729C203.557 124.726 203.782 127.43 203.674 129.952C203.568 132.428 203.201 134.89 202.577 137.29L202.511 133.426Z" fill="white"/>
<path d="M72.5636 76.4516C70.5718 72.072 63.9924 71.6358 60.1257 74.4995C56.259 77.3632 54.5293 82.2415 53.2869 86.8918C51.9562 91.8613 50.9418 96.9191 50.2437 102.02C60.6613 97.5403 62.7386 82.4069 72.8855 77.352L72.5636 76.4516Z" fill="white"/>
<path d="M15.6974 115.839C16.1753 119.198 19.6141 122.556 24.2623 124.771C35.1146 129.99 44.8248 127.213 55.6482 124.37C70.4493 120.451 68.4766 125.175 70.0036 135.385C72.1047 149.311 75.3511 161.267 97.8544 166.684C102.567 167.803 107.565 168.318 112.562 168.498C127.043 169.013 141.687 166.529 154.387 161.669C165.306 157.506 174.76 146.31 186.218 144.139C194.334 142.616 209.392 145.728 213.819 150.811C222.538 160.818 207.833 162.273 206.242 169.462C204.234 178.349 226.58 173.424 231.007 171.811C232.088 171.409 233.169 170.96 233.839 170.245C235.081 168.99 234.731 167.312 234.507 165.789C233.743 160.439 235.113 155.042 234.763 149.669C234.35 143.58 227.282 140.288 226.041 135.385C224.767 130.482 227.218 125.78 227.857 120.899C230.497 101.376 209.617 93.6751 184.692 95.6899C172.341 96.6962 160.116 99.4285 149.039 103.303C136.721 107.578 119.915 113.131 110.047 101.757C106.673 97.9055 106.769 92.8222 102.788 89.2865L99.4166 89.7107C95.6281 81.6963 84.3267 75.6969 72.3261 75.3607C61.6952 75.047 50.5221 79.3001 45.1425 85.8389C40.366 91.6804 38.4253 98.666 31.4225 103.323C29.4497 104.645 26.4567 105.92 23.5279 107.265C22.4469 107.779 21.3945 108.294 20.3776 108.831C16.6212 110.825 15.3156 113.332 15.6974 115.839Z" fill="white"/>
<path d="M169.179 150.143C168.123 150.057 166.982 149.991 166.091 150.581C165.072 151.256 164.679 152.595 164.525 153.841C164.42 154.696 164.393 155.582 164.647 156.402C164.902 157.224 165.478 157.976 166.269 158.243C165.68 159.072 164.43 159.143 163.572 158.618C162.714 158.094 162.191 157.132 161.855 156.161C161.324 154.627 161.166 152.921 161.618 151.363C162.069 149.804 163.178 148.419 164.653 147.865C166.128 147.312 167.944 147.701 168.955 148.95C169.112 149.143 169.254 149.379 169.221 149.627C169.174 149.973 168.788 150.179 168.453 150.142C168.117 150.105 167.825 149.896 167.549 149.694L169.179 150.143Z" fill="white"/>
<path d="M170.945 146.473C169.889 146.387 168.748 146.321 167.857 146.911C166.837 147.586 166.445 148.925 166.291 150.171C166.186 151.026 166.159 151.912 166.413 152.733C166.667 153.554 167.244 154.306 168.035 154.573C167.445 155.402 166.196 155.473 165.337 154.948C164.479 154.424 163.957 153.462 163.62 152.491C163.09 150.957 162.932 149.251 163.383 147.693C163.835 146.134 164.943 144.75 166.419 144.195C167.894 143.642 169.71 144.031 170.721 145.28C170.877 145.473 171.02 145.709 170.986 145.957C170.94 146.303 170.554 146.509 170.219 146.472C169.883 146.435 169.591 146.226 169.315 146.024L170.945 146.473Z" fill="white"/>
<path d="M175.192 146.473C174.136 146.387 172.996 146.321 172.104 146.911C171.085 147.586 170.692 148.925 170.538 150.171C170.433 151.026 170.406 151.912 170.661 152.733C170.915 153.554 171.491 154.306 172.283 154.573C171.693 155.402 170.443 155.473 169.585 154.948C168.727 154.424 168.204 153.462 167.868 152.491C167.337 150.957 167.179 149.251 167.631 147.693C168.083 146.134 169.191 144.75 170.666 144.195C172.142 143.642 173.958 144.031 174.968 145.28C175.125 145.473 175.267 145.709 175.234 145.957C175.187 146.303 174.802 146.509 174.466 146.472C174.13 146.435 173.838 146.226 173.562 146.024L175.192 146.473Z" fill="white"/>
<path d="M177.201 144.797C176.146 144.71 175.005 144.645 174.114 145.235C173.094 145.909 172.702 147.249 172.548 148.495C172.443 149.349 172.416 150.235 172.67 151.056C172.924 151.878 173.5 152.629 174.292 152.897C173.702 153.725 172.452 153.796 171.594 153.272C170.736 152.748 170.214 151.786 169.877 150.815C169.346 149.281 169.188 147.575 169.64 146.016C170.092 144.458 171.2 143.073 172.676 142.519C174.151 141.966 175.967 142.355 176.978 143.604C177.134 143.797 177.277 144.032 177.243 144.28C177.197 144.627 176.811 144.832 176.476 144.795C176.139 144.759 175.847 144.55 175.571 144.347L177.201 144.797Z" fill="white"/>
<path d="M181.31 141.008C180.254 140.922 179.113 140.856 178.222 141.446C177.202 142.121 176.81 143.461 176.656 144.707C176.551 145.561 176.524 146.447 176.778 147.268C177.032 148.089 177.608 148.841 178.4 149.109C177.81 149.937 176.56 150.008 175.702 149.484C174.844 148.959 174.322 147.998 173.985 147.026C173.454 145.492 173.296 143.786 173.748 142.228C174.2 140.67 175.308 139.285 176.784 138.731C178.259 138.177 180.075 138.566 181.086 139.815C181.242 140.008 181.385 140.244 181.351 140.492C181.305 140.839 180.919 141.044 180.584 141.007C180.247 140.97 179.956 140.762 179.68 140.559L181.31 141.008Z" fill="white"/>
<path d="M201.952 102.265C205.976 102.747 210.327 103.165 213.829 101.128C217.835 98.7972 219.55 93.9188 220.34 89.3483C220.878 86.2139 221.123 82.9513 220.283 79.8853C219.442 76.8164 217.359 73.9556 214.376 72.8472C216.764 69.8838 221.554 69.8152 224.751 71.8811C227.948 73.947 229.791 77.5743 230.923 81.2074C232.706 86.9462 233.037 93.2606 231.06 98.9367C229.082 104.613 224.623 109.548 218.892 111.363C213.162 113.176 206.281 111.46 202.616 106.699C202.049 105.963 201.542 105.072 201.71 104.163C201.944 102.892 203.451 102.194 204.728 102.382C206.007 102.57 207.09 103.385 208.113 104.174L201.952 102.265Z" fill="white"/>
<path d="M228.95 83.2922C229.009 83.9414 229.086 84.6405 229.483 85.1367C229.938 85.7043 230.68 85.8385 231.349 85.8351C231.808 85.8324 232.276 85.7797 232.682 85.561C233.088 85.3422 233.426 84.9329 233.489 84.4305C233.981 84.7247 234.141 85.4795 233.95 86.0425C233.76 86.6055 233.306 86.9984 232.829 87.2789C232.076 87.7215 231.196 87.9507 230.333 87.7974C229.471 87.644 228.635 87.0778 228.199 86.2234C227.764 85.3689 227.789 84.2337 228.346 83.5214C228.432 83.4112 228.542 83.3061 228.675 83.3072C228.862 83.3085 229.007 83.527 229.021 83.734C229.035 83.9414 228.954 84.1353 228.874 84.319L228.95 83.2922Z" fill="white"/>
<path d="M226.496 78.366C226.513 78.8072 226.546 79.2815 226.907 79.5966C227.32 79.9572 228.045 80.0028 228.706 79.9586C229.159 79.928 229.624 79.8627 230.039 79.6874C230.454 79.512 230.813 79.2104 230.907 78.8622C231.375 79.033 231.486 79.5403 231.262 79.938C231.038 80.3358 230.566 80.6334 230.077 80.8555C229.306 81.2059 228.422 81.418 227.58 81.3669C226.738 81.3157 225.948 80.98 225.571 80.4217C225.194 79.8634 225.291 79.0838 225.885 78.5608C225.976 78.48 226.091 78.4011 226.223 78.3935C226.407 78.3827 226.538 78.5233 226.538 78.6643C226.539 78.8056 226.447 78.9435 226.357 79.0744L226.496 78.366Z" fill="white"/>
<path d="M57.6143 115.983C55.4884 116.107 53.1987 116.294 51.5763 117.673C49.7202 119.25 49.2856 121.933 49.3014 124.371C49.3137 126.042 49.4896 127.752 50.2089 129.26C50.9285 130.77 52.2715 132.056 53.9176 132.353C52.9574 134.107 50.486 134.587 48.6405 133.815C46.795 133.043 45.5048 131.338 44.5825 129.564C43.1273 126.761 42.3703 123.525 42.8665 120.405C43.3628 117.286 45.2116 114.319 48.0073 112.848C50.8033 111.379 54.5221 111.628 56.8594 113.751C57.221 114.079 57.5661 114.493 57.5634 114.979C57.5605 115.658 56.8456 116.159 56.1678 116.18C55.4886 116.201 54.8528 115.88 54.2504 115.567L57.6143 115.983Z" fill="white"/>
<path d="M53.753 115.983C51.627 116.107 49.3374 116.294 47.7149 117.673C45.8588 119.25 45.4242 121.933 45.44 124.371C45.4523 126.042 45.6283 127.752 46.3476 129.26C47.0672 130.77 48.4101 132.056 50.0562 132.353C49.096 134.107 46.6247 134.587 44.7792 133.815C42.9337 133.043 41.6434 131.338 40.7211 129.564C39.2659 126.761 38.509 123.525 39.0052 120.405C39.5014 117.286 41.3502 114.319 44.1459 112.848C46.9419 111.379 50.6607 111.628 52.9981 113.751C53.3596 114.079 53.7047 114.493 53.7021 114.979C53.6991 115.658 52.9843 116.159 52.3065 116.18C51.6272 116.201 50.9914 115.88 50.389 115.567L53.753 115.983Z" fill="white"/>
<path d="M49.8916 118.834C47.7657 118.959 45.476 119.146 43.8536 120.525C41.9974 122.102 41.5628 124.785 41.5787 127.222C41.591 128.894 41.7669 130.604 42.4862 132.112C43.2058 133.621 44.5487 134.908 46.1948 135.204C45.2346 136.959 42.7633 137.439 40.9178 136.667C39.0723 135.895 37.7821 134.19 36.8598 132.415C35.4045 129.612 34.6476 126.377 35.1438 123.257C35.64 120.137 37.4889 117.171 40.2846 115.7C43.0806 114.231 46.7993 114.48 49.1367 116.603C49.4982 116.93 49.8433 117.344 49.8407 117.83C49.8378 118.509 49.1229 119.01 48.4451 119.031C47.7658 119.053 47.13 118.732 46.5277 118.419L49.8916 118.834Z" fill="white"/>
<path d="M59.1056 114.209C57.2601 114.337 55.2718 114.517 53.8459 115.633C52.2146 116.911 51.8011 119.046 51.7816 120.98C51.7695 122.306 51.8987 123.662 52.502 124.849C53.1055 126.037 54.2526 127.04 55.6762 127.253C54.8195 128.658 52.6696 129.073 51.0796 128.485C49.4896 127.898 48.3939 126.562 47.6182 125.166C46.3943 122.961 45.782 120.404 46.2549 117.921C46.7278 115.438 48.3717 113.058 50.8164 111.853C53.2613 110.649 56.4832 110.795 58.4813 112.448C58.7904 112.704 59.0841 113.028 59.0752 113.413C59.0634 113.952 58.4365 114.36 57.8484 114.386C57.259 114.412 56.712 114.166 56.1938 113.925L59.1056 114.209Z" fill="white"/>
<path d="M20.9225 116.813C23.8955 117.153 27.1037 117.56 29.5199 118.812C32.284 120.245 33.1965 122.369 33.454 124.251C33.6285 125.542 33.5798 126.845 32.7516 127.928C31.9231 129.012 30.2016 129.853 27.9446 129.894C29.4821 131.36 32.9768 132.015 35.4567 131.629C37.9367 131.244 39.5369 130.074 40.6171 128.808C42.321 126.807 43.0035 124.393 41.9552 121.924C40.9068 119.455 37.9935 116.949 33.9339 115.491C29.874 114.035 24.7268 113.801 21.7172 115.174C21.2516 115.386 20.8188 115.667 20.8781 116.043C20.9601 116.568 22.0125 117.037 22.9582 117.132C23.9061 117.226 24.7541 117.051 25.5566 116.877L20.9225 116.813Z" fill="white"/>
<path d="M67.0639 117.764C64.9379 117.888 62.6483 118.075 61.0258 119.454C59.1697 121.032 58.7351 123.714 58.7509 126.152C58.7632 127.823 58.9391 129.534 59.6585 131.042C60.3781 132.551 61.721 133.838 63.3671 134.134C62.4069 135.889 59.9355 136.369 58.0901 135.597C56.2446 134.825 54.9543 133.119 54.032 131.345C52.5768 128.542 51.8199 125.306 52.3161 122.187C52.8123 119.067 54.6611 116.1 57.4568 114.63C60.2528 113.161 63.9716 113.409 66.309 115.532C66.6705 115.86 67.0156 116.274 67.013 116.76C67.01 117.439 66.2952 117.94 65.6174 117.961C64.9381 117.983 64.3023 117.662 63.6999 117.348L67.0639 117.764Z" fill="white"/>
<path d="M63.2025 117.764C61.0766 117.888 58.7869 118.075 57.1645 119.454C55.3084 121.032 54.8738 123.714 54.8896 126.152C54.9019 127.823 55.0778 129.534 55.7971 131.042C56.5167 132.551 57.8596 133.838 59.5058 134.134C58.5456 135.889 56.0742 136.369 54.2287 135.597C52.3832 134.825 51.093 133.119 50.1707 131.345C48.7154 128.542 47.9585 125.306 48.4547 122.187C48.951 119.067 50.7998 116.1 53.5955 114.63C56.3915 113.161 60.1102 113.409 62.4476 115.532C62.8091 115.86 63.1542 116.274 63.1516 116.76C63.1487 117.439 62.4338 117.94 61.756 117.961C61.0768 117.983 60.441 117.662 59.8386 117.348L63.2025 117.764Z" fill="white"/>
<path d="M59.3412 120.616C57.2152 120.74 54.9256 120.927 53.3031 122.306C51.447 123.883 51.0124 126.566 51.0282 129.004C51.0405 130.675 51.2165 132.385 51.9358 133.893C52.6554 135.403 53.9983 136.689 55.6444 136.986C54.6842 138.74 52.2128 139.22 50.3674 138.448C48.5219 137.676 47.2316 135.971 46.3093 134.197C44.8541 131.394 44.0972 128.158 44.5934 125.038C45.0896 121.919 46.9384 118.952 49.7341 117.481C52.5301 116.012 56.2489 116.261 58.5863 118.384C58.9478 118.712 59.2929 119.126 59.2903 119.612C59.2873 120.291 58.5725 120.792 57.8947 120.813C57.2154 120.834 56.5796 120.513 55.9772 120.2L59.3412 120.616Z" fill="white"/>
<path d="M45.2636 100.106C47.1903 99.1984 49.2455 98.172 50.2376 96.288C51.3726 94.1327 50.7768 91.4812 49.8542 89.225C49.2203 87.6785 48.4199 86.1567 47.1906 85.0251C45.9606 83.8923 44.2351 83.1986 42.597 83.5365C42.8346 81.5506 44.9494 80.1847 46.9496 80.2137C48.9498 80.2427 50.7824 81.3447 52.2992 82.6479C54.6938 84.7072 56.6014 87.4281 57.3029 90.5081C58.0044 93.5881 57.3936 97.03 55.3468 99.4361C53.2993 101.841 49.7554 102.995 46.7955 101.896C46.3379 101.726 45.8634 101.47 45.6848 101.019C45.4346 100.387 45.9115 99.656 46.5326 99.3839C47.155 99.111 47.8646 99.1721 48.5404 99.2385L45.2636 100.106Z" fill="white"/>
<path d="M45.2636 103.104C47.1903 102.197 49.2455 101.17 50.2376 99.2864C51.3726 97.131 50.7768 94.4796 49.8542 92.2234C49.2203 90.6769 48.4199 89.155 47.1906 88.0235C45.9606 86.8907 44.2351 86.1969 42.597 86.5348C42.8346 84.5489 44.9494 83.183 46.9496 83.212C48.9498 83.2411 50.7824 84.3431 52.2992 85.6462C54.6938 87.7055 56.6014 90.4264 57.3029 93.5064C58.0044 96.5864 57.3936 100.028 55.3468 102.434C53.2993 104.839 49.7554 105.994 46.7955 104.894C46.3379 104.725 45.8634 104.469 45.6848 104.017C45.4346 103.386 45.9115 102.654 46.5326 102.382C47.155 102.109 47.8646 102.17 48.5404 102.237L45.2636 103.104Z" fill="white"/>
<path d="M68.5552 115.991C66.7097 116.118 64.7214 116.298 63.2955 117.415C61.6642 118.692 61.2507 120.827 61.2312 122.761C61.2191 124.088 61.3483 125.443 61.9516 126.63C62.5551 127.818 63.7022 128.821 65.1258 129.034C64.2691 130.44 62.1192 130.854 60.5292 130.267C58.9392 129.679 57.8435 128.343 57.0678 126.948C55.8439 124.743 55.2316 122.185 55.7045 119.702C56.1774 117.219 57.8213 114.839 60.266 113.634C62.7109 112.43 65.9328 112.577 67.9309 114.23C68.24 114.485 68.5337 114.809 68.5248 115.195C68.513 115.734 67.8861 116.141 67.298 116.167C66.7086 116.193 66.1616 115.947 65.6434 115.707L68.5552 115.991Z" fill="white"/>
<path d="M39.5114 91.36C42.4845 91.0202 45.6927 90.613 48.1089 89.3609C50.873 87.9284 51.7855 85.8045 52.043 83.9218C52.2175 82.631 52.1688 81.3288 51.3405 80.2454C50.5121 79.1608 48.7906 78.3201 46.5336 78.2796C48.0711 76.813 51.5657 76.1586 54.0457 76.5438C56.5257 76.929 58.1259 78.0995 59.2061 79.3656C60.91 81.3659 61.5925 83.7807 60.5442 86.2496C59.4958 88.7184 56.5825 91.2242 52.5229 92.6818C48.463 94.1383 43.3158 94.3723 40.3062 92.999C39.8406 92.7871 39.4078 92.5064 39.4671 92.1305C39.5491 91.6052 40.6015 91.1359 41.5472 91.0418C42.4951 90.9473 43.3431 91.1226 44.1456 91.2958L39.5114 91.36Z" fill="white"/>
<path d="M85.6529 90.4092C83.5269 90.2849 81.2373 90.0978 79.6148 88.719C77.7587 87.1415 77.3241 84.4589 77.3399 82.0214C77.3522 80.35 77.5281 78.6396 78.2475 77.1316C78.9671 75.6222 80.31 74.3356 81.9561 74.0391C80.9959 72.2846 78.5245 71.8047 76.6791 72.5766C74.8336 73.3486 73.5433 75.0539 72.621 76.8282C71.1658 79.6313 70.4089 82.8669 70.9051 85.9865C71.4013 89.1062 73.2501 92.0729 76.0458 93.5436C78.8418 95.0128 82.5606 94.764 84.8979 92.641C85.2595 92.3133 85.6046 91.8991 85.602 91.4133C85.599 90.7343 84.8842 90.2333 84.2064 90.2121C83.5271 90.1906 82.8913 90.5117 82.2889 90.825L85.6529 90.4092Z" fill="white"/>
<path d="M81.7915 90.4092C79.6656 90.2849 77.3759 90.0978 75.7534 88.719C73.8973 87.1415 73.4627 84.4589 73.4786 82.0214C73.4908 80.35 73.6668 78.6396 74.3861 77.1316C75.1057 75.6222 76.4486 74.3356 78.0947 74.0391C77.1345 72.2846 74.6632 71.8047 72.8177 72.5766C70.9722 73.3486 69.682 75.0539 68.7597 76.8282C67.3044 79.6313 66.5475 82.8669 67.0437 85.9865C67.5399 89.1062 69.3888 92.0729 72.1845 93.5436C74.9804 95.0128 78.6992 94.764 81.0366 92.641C81.3981 92.3133 81.7432 91.8991 81.7406 91.4133C81.7377 90.7343 81.0228 90.2333 80.345 90.2121C79.6657 90.1906 79.0299 90.5117 78.4275 90.825L81.7915 90.4092Z" fill="white"/>
<path d="M77.9301 87.5575C75.8042 87.4333 73.5145 87.2462 71.8921 85.8674C70.036 84.2899 69.6014 81.6072 69.6172 79.1698C69.6295 77.4984 69.8054 75.788 70.5247 74.28C71.2443 72.7705 72.5873 71.484 74.2334 71.1875C73.2732 69.433 70.8018 68.953 68.9563 69.725C67.1108 70.497 65.8206 72.2023 64.8983 73.9766C63.4431 76.7796 62.6861 80.0153 63.1824 83.1349C63.6786 86.2545 65.5274 89.2213 68.3231 90.692C71.1191 92.1611 74.8379 91.9123 77.1752 89.7894C77.5368 89.4617 77.8819 89.0475 77.8792 88.5617C77.8763 87.8826 77.1614 87.3816 76.4836 87.3605C75.8044 87.339 75.1686 87.66 74.5662 87.9734L77.9301 87.5575Z" fill="white"/>
<path d="M87.1442 92.1825C85.2987 92.0549 83.3104 91.8752 81.8845 90.7586C80.2532 89.4813 79.8397 87.3462 79.8202 85.4118C79.808 84.0855 79.9373 82.7303 80.5406 81.5433C81.1441 80.3551 82.2912 79.3523 83.7148 79.1394C82.8581 77.7338 80.7082 77.3192 79.1182 77.9067C77.5282 78.4942 76.4324 79.8301 75.6568 81.2257C74.4329 83.4306 73.8206 85.9884 74.2935 88.4711C74.7664 90.9539 76.4103 93.3338 78.855 94.5392C81.2999 95.7434 84.5217 95.5966 86.5199 93.9436C86.829 93.6884 87.1227 93.3644 87.1138 92.9788C87.1019 92.4398 86.4751 92.0324 85.887 92.0063C85.2976 91.98 84.7506 92.2262 84.2324 92.4667L87.1442 92.1825Z" fill="white"/>
<path d="M17.0611 113.1C20.0341 113.44 23.2423 113.847 25.6585 115.099C28.4226 116.531 29.3351 118.655 29.5926 120.538C29.7671 121.829 29.7184 123.131 28.8902 124.215C28.0617 125.299 26.3402 126.14 24.0832 126.18C25.6207 127.647 29.1154 128.301 31.5954 127.916C34.0754 127.531 35.6755 126.36 36.7557 125.094C38.4597 123.094 39.1421 120.679 38.0938 118.21C37.0454 115.741 34.1321 113.236 30.0725 111.778C26.0126 110.322 20.8655 110.088 17.8558 111.461C17.3902 111.673 16.9574 111.954 17.0167 112.329C17.0987 112.855 18.1511 113.324 19.0968 113.418C20.0447 113.513 20.8928 113.337 21.6952 113.164L17.0611 113.1Z" fill="white"/>
<path d="M228.295 81.44C228.824 81.8211 229.403 82.2204 230.038 82.2453C230.765 82.2737 231.352 81.8011 231.788 81.2932C232.087 80.9446 232.353 80.5567 232.454 80.1067C232.555 79.6563 232.467 79.1328 232.128 78.7564C232.673 78.5767 233.349 78.9502 233.649 79.4633C233.949 79.9763 233.949 80.5764 233.849 81.1204C233.69 81.9795 233.286 82.7946 232.606 83.3458C231.925 83.8971 230.949 84.1579 230.018 83.9275C229.087 83.6969 228.247 82.9338 228.073 82.0468C228.046 81.9097 228.038 81.7579 228.126 81.6577C228.25 81.5176 228.51 81.5507 228.675 81.676C228.841 81.8015 228.935 81.9896 229.022 82.1698L228.295 81.44Z" fill="white"/>
<path d="M143.171 113.868C143.7 114.249 144.279 114.649 144.914 114.674C145.641 114.702 146.228 114.229 146.664 113.721C146.962 113.373 147.229 112.985 147.329 112.535C147.43 112.085 147.343 111.561 147.004 111.185C147.549 111.005 148.224 111.379 148.525 111.892C148.825 112.405 148.825 113.005 148.724 113.549C148.565 114.408 148.162 115.223 147.481 115.774C146.8 116.325 145.825 116.586 144.894 116.356C143.963 116.125 143.122 115.362 142.948 114.475C142.921 114.338 142.914 114.186 143.002 114.086C143.125 113.946 143.386 113.979 143.551 114.104C143.717 114.23 143.81 114.418 143.897 114.598L143.171 113.868Z" fill="white"/>
<path d="M180.796 97.5895C181.854 97.5438 182.994 97.4672 183.805 96.771C184.733 95.9745 184.956 94.5966 184.954 93.3411C184.952 92.4802 184.868 91.5978 184.514 90.815C184.159 90.0314 183.494 89.3572 182.675 89.1903C183.158 88.2949 184.389 88.069 185.305 88.4825C186.222 88.896 186.86 89.7854 187.315 90.7072C188.032 92.1634 188.401 93.8363 188.147 95.4387C187.892 97.0412 186.965 98.5532 185.57 99.2866C184.175 100.019 182.325 99.8589 181.166 98.7454C180.987 98.5736 180.816 98.3572 180.819 98.1071C180.822 97.7574 181.179 97.5055 181.516 97.5004C181.855 97.4952 182.17 97.666 182.469 97.8326L180.796 97.5895Z" fill="white"/>
<path d="M194.817 100.253C193.758 100.208 192.618 100.131 191.807 99.4348C190.88 98.6384 190.657 97.2605 190.659 96.005C190.661 95.1441 190.745 94.2617 191.099 93.4788C191.453 92.6952 192.119 92.021 192.937 91.8541C192.455 90.9588 191.224 90.7329 190.307 91.1464C189.391 91.5598 188.753 92.4492 188.298 93.371C187.58 94.8272 187.211 96.5002 187.466 98.1026C187.72 99.705 188.648 101.217 190.043 101.95C191.438 102.683 193.288 102.523 194.446 101.409C194.626 101.237 194.796 101.021 194.794 100.771C194.791 100.421 194.434 100.169 194.096 100.164C193.758 100.159 193.442 100.33 193.143 100.496L194.817 100.253Z" fill="white"/>
<path d="M197.841 101.918C196.783 101.873 195.642 101.796 194.832 101.1C193.904 100.303 193.681 98.9256 193.683 97.67C193.685 96.8092 193.769 95.9267 194.123 95.1439C194.478 94.3603 195.143 93.6861 195.962 93.5192C195.479 92.6238 194.248 92.3979 193.332 92.8114C192.415 93.2249 191.777 94.1143 191.322 95.0361C190.605 96.4923 190.236 98.1652 190.49 99.7676C190.745 101.37 191.672 102.882 193.067 103.615C194.462 104.348 196.312 104.188 197.471 103.074C197.65 102.902 197.821 102.686 197.818 102.436C197.815 102.086 197.458 101.834 197.121 101.829C196.782 101.824 196.467 101.995 196.168 102.162L197.841 101.918Z" fill="white"/>
<path d="M203.42 98.1971C202.362 98.1514 201.222 98.0748 200.411 97.3786C199.483 96.5822 199.261 95.2043 199.263 93.9488C199.265 93.0879 199.348 92.2055 199.703 91.4226C200.057 90.639 200.722 89.9648 201.541 89.7979C201.059 88.9026 199.828 88.6767 198.911 89.0902C197.994 89.5036 197.356 90.393 196.902 91.3148C196.184 92.771 195.815 94.4439 196.07 96.0464C196.324 97.6488 197.251 99.1608 198.646 99.8942C200.042 100.627 201.892 100.467 203.05 99.3531C203.229 99.1812 203.4 98.9649 203.397 98.7147C203.394 98.365 203.037 98.1131 202.7 98.1081C202.362 98.1029 202.046 98.2737 201.747 98.4403L203.42 98.1971Z" fill="white"/>
<path d="M206.916 101.585C205.857 101.539 204.717 101.463 203.906 100.766C202.979 99.9699 202.756 98.592 202.758 97.3365C202.76 96.4756 202.843 95.5932 203.198 94.8104C203.552 94.0267 204.218 93.3526 205.036 93.1857C204.554 92.2903 203.323 92.0644 202.406 92.4779C201.49 92.8914 200.852 93.7808 200.397 94.7026C199.679 96.1588 199.31 97.8317 199.565 99.4341C199.819 101.037 200.747 102.549 202.142 103.282C203.537 104.015 205.387 103.854 206.545 102.741C206.724 102.569 206.895 102.353 206.893 102.102C206.89 101.753 206.533 101.501 206.195 101.496C205.857 101.491 205.541 101.661 205.242 101.828L206.916 101.585Z" fill="white"/>
<path d="M209.94 102.474C208.881 102.428 207.741 102.351 206.931 101.655C206.003 100.859 205.78 99.481 205.782 98.2255C205.784 97.3646 205.868 96.4822 206.222 95.6993C206.577 94.9157 207.242 94.2415 208.06 94.0746C207.578 93.1793 206.347 92.9534 205.431 93.3669C204.514 93.7803 203.876 94.6697 203.421 95.5915C202.703 97.0477 202.335 98.7206 202.589 100.323C202.844 101.926 203.771 103.438 205.166 104.171C206.561 104.903 208.411 104.743 209.57 103.63C209.749 103.458 209.919 103.242 209.917 102.991C209.914 102.642 209.557 102.39 209.219 102.385C208.881 102.38 208.566 102.55 208.267 102.717L209.94 102.474Z" fill="white"/>
<path d="M139.347 103.935C140.273 104.45 141.257 105.03 141.67 106.016C142.142 107.144 141.723 108.475 141.159 109.596C140.771 110.365 140.3 111.116 139.633 111.657C138.964 112.199 138.067 112.503 137.261 112.285C137.29 113.301 138.289 114.055 139.294 114.097C140.299 114.138 141.268 113.629 142.088 113.009C143.382 112.03 144.462 110.7 144.953 109.153C145.444 107.607 145.293 105.84 144.375 104.559C143.457 103.278 141.731 102.592 140.197 103.068C139.959 103.141 139.71 103.258 139.6 103.482C139.446 103.796 139.652 104.182 139.951 104.337C140.251 104.494 140.61 104.483 140.952 104.468L139.347 103.935Z" fill="white"/>
<path d="M128.394 108.443C129.263 107.838 130.217 107.209 131.284 107.272C132.504 107.343 133.516 108.305 134.275 109.305C134.795 109.991 135.263 110.744 135.455 111.581C135.648 112.42 135.527 113.359 134.977 113.988C135.903 114.408 137.019 113.842 137.498 112.958C137.977 112.073 137.946 110.979 137.749 109.97C137.438 108.377 136.718 106.822 135.545 105.702C134.372 104.581 132.718 103.94 131.164 104.201C129.61 104.463 128.235 105.712 127.988 107.299C127.95 107.544 127.945 107.82 128.098 108.018C128.313 108.294 128.749 108.278 129.021 108.078C129.293 107.877 129.441 107.55 129.578 107.236L128.394 108.443Z" fill="white"/>
<path d="M177.772 101.288C178.83 101.243 179.97 101.166 180.781 100.47C181.709 99.6735 181.931 98.2957 181.929 97.0401C181.927 96.1792 181.844 95.2968 181.49 94.514C181.135 93.7304 180.47 93.0562 179.651 92.8893C180.133 91.9939 181.365 91.768 182.281 92.1815C183.198 92.595 183.836 93.4844 184.291 94.4062C185.008 95.8624 185.377 97.5353 185.123 99.1377C184.868 100.74 183.941 102.252 182.546 102.986C181.151 103.718 179.3 103.558 178.142 102.444C177.963 102.273 177.792 102.056 177.795 101.806C177.798 101.456 178.155 101.204 178.492 101.199C178.83 101.194 179.146 101.365 179.445 101.532L177.772 101.288Z" fill="white"/>
<path d="M172.878 98.9213C173.936 98.8756 175.076 98.799 175.887 98.1028C176.814 97.3063 177.037 95.9284 177.035 94.6729C177.033 93.812 176.95 92.9296 176.595 92.1468C176.241 91.3632 175.576 90.689 174.757 90.5221C175.239 89.6267 176.47 89.4008 177.387 89.8143C178.304 90.2278 178.942 91.1172 179.396 92.039C180.114 93.4952 180.483 95.1681 180.228 96.7705C179.974 98.373 179.047 99.885 177.652 100.618C176.256 101.351 174.406 101.191 173.248 100.077C173.069 99.9054 172.898 99.689 172.9 99.4389C172.904 99.0892 173.261 98.8373 173.598 98.8322C173.936 98.827 174.252 98.9978 174.551 99.1644L172.878 98.9213Z" fill="white"/>
<path d="M169.853 102.62C170.912 102.575 172.052 102.498 172.863 101.802C173.79 101.005 174.013 99.6274 174.011 98.3719C174.009 97.511 173.926 96.6286 173.571 95.8458C173.217 95.0621 172.551 94.388 171.733 94.2211C172.215 93.3257 173.446 93.0998 174.363 93.5133C175.279 93.9268 175.917 94.8162 176.372 95.738C177.09 97.1942 177.459 98.8671 177.204 100.47C176.95 102.072 176.022 103.584 174.627 104.317C173.232 105.05 171.382 104.89 170.224 103.776C170.045 103.604 169.874 103.388 169.876 103.138C169.879 102.788 170.236 102.536 170.574 102.531C170.912 102.526 171.228 102.697 171.527 102.863L169.853 102.62Z" fill="white"/>
<path d="M167.983 98.9213C169.042 98.8756 170.182 98.799 170.993 98.1028C171.92 97.3063 172.143 95.9284 172.141 94.6729C172.139 93.812 172.056 92.9296 171.701 92.1468C171.347 91.3632 170.681 90.689 169.863 90.5221C170.345 89.6267 171.576 89.4008 172.493 89.8143C173.409 90.2278 174.048 91.1172 174.502 92.039C175.22 93.4952 175.589 95.1681 175.334 96.7705C175.08 98.373 174.152 99.885 172.757 100.618C171.362 101.351 169.512 101.191 168.354 100.077C168.175 99.9054 168.004 99.689 168.006 99.4389C168.009 99.0892 168.366 98.8373 168.704 98.8322C169.042 98.827 169.358 98.9978 169.657 99.1644L167.983 98.9213Z" fill="white"/>
<path d="M164.959 103.952C166.018 103.906 167.158 103.83 167.968 103.134C168.896 102.337 169.119 100.959 169.117 99.7037C169.115 98.8428 169.031 97.9604 168.677 97.1776C168.322 96.3939 167.657 95.7198 166.839 95.5529C167.321 94.6575 168.552 94.4316 169.469 94.8451C170.385 95.2586 171.023 96.148 171.478 97.0698C172.196 98.526 172.564 100.199 172.31 101.801C172.055 103.404 171.128 104.916 169.733 105.649C168.338 106.382 166.488 106.222 165.329 105.108C165.15 104.936 164.98 104.72 164.982 104.47C164.985 104.12 165.342 103.868 165.68 103.863C166.018 103.858 166.333 104.029 166.632 104.195L164.959 103.952Z" fill="white"/>
<path d="M158.195 102.62C159.253 102.575 160.393 102.498 161.204 101.802C162.132 101.005 162.355 99.6274 162.353 98.3719C162.351 97.511 162.267 96.6286 161.913 95.8458C161.558 95.0621 160.893 94.388 160.074 94.2211C160.556 93.3257 161.788 93.0998 162.704 93.5133C163.621 93.9268 164.259 94.8162 164.714 95.738C165.431 97.1942 165.8 98.8671 165.546 100.47C165.291 102.072 164.364 103.584 162.969 104.317C161.574 105.05 159.724 104.89 158.565 103.776C158.386 103.604 158.215 103.388 158.218 103.138C158.221 102.788 158.578 102.536 158.915 102.531C159.254 102.526 159.569 102.697 159.868 102.863L158.195 102.62Z" fill="white"/>
<path d="M155.171 106.037C156.229 105.991 157.369 105.914 158.18 105.218C159.108 104.422 159.33 103.044 159.328 101.788C159.326 100.928 159.243 100.045 158.889 99.2622C158.534 98.4786 157.869 97.8044 157.05 97.6375C157.532 96.7422 158.763 96.5163 159.68 96.9298C160.597 97.3433 161.235 98.2327 161.69 99.1544C162.407 100.611 162.776 102.284 162.522 103.886C162.267 105.488 161.34 107 159.945 107.734C158.55 108.466 156.699 108.306 155.541 107.193C155.362 107.021 155.191 106.805 155.194 106.554C155.197 106.205 155.554 105.953 155.891 105.948C156.229 105.942 156.545 106.113 156.844 106.28L155.171 106.037Z" fill="white"/>
<path d="M152.147 109.736C153.205 109.69 154.345 109.613 155.156 108.917C156.083 108.121 156.306 106.743 156.304 105.487C156.302 104.627 156.219 103.744 155.864 102.961C155.51 102.178 154.844 101.503 154.026 101.337C154.508 100.441 155.739 100.215 156.656 100.629C157.573 101.042 158.211 101.932 158.665 102.853C159.383 104.31 159.752 105.983 159.497 107.585C159.243 109.187 158.316 110.699 156.921 111.433C155.525 112.165 153.675 112.005 152.517 110.892C152.338 110.72 152.167 110.504 152.169 110.253C152.173 109.904 152.53 109.652 152.867 109.647C153.205 109.641 153.521 109.812 153.82 109.979L152.147 109.736Z" fill="white"/>
<path d="M147.252 107.369C148.311 107.323 149.451 107.246 150.262 106.55C151.189 105.754 151.412 104.376 151.41 103.12C151.408 102.259 151.324 101.377 150.97 100.594C150.616 99.8104 149.95 99.1362 149.132 98.9693C149.614 98.074 150.845 97.8481 151.762 98.2616C152.678 98.6751 153.316 99.5645 153.771 100.486C154.489 101.942 154.858 103.615 154.603 105.218C154.349 106.82 153.421 108.332 152.026 109.066C150.631 109.798 148.781 109.638 147.623 108.524C147.444 108.353 147.273 108.136 147.275 107.886C147.278 107.536 147.635 107.285 147.973 107.279C148.311 107.274 148.627 107.445 148.926 107.612L147.252 107.369Z" fill="white"/>
<path d="M144.228 111.068C145.287 111.022 146.427 110.945 147.237 110.249C148.165 109.453 148.388 108.075 148.386 106.819C148.384 105.958 148.3 105.076 147.946 104.293C147.591 103.509 146.926 102.835 146.108 102.668C146.59 101.773 147.821 101.547 148.737 101.961C149.654 102.374 150.292 103.263 150.747 104.185C151.465 105.641 151.833 107.314 151.579 108.917C151.324 110.519 150.397 112.031 149.002 112.765C147.607 113.497 145.757 113.337 144.598 112.223C144.419 112.052 144.249 111.835 144.251 111.585C144.254 111.235 144.611 110.984 144.949 110.978C145.287 110.973 145.602 111.144 145.901 111.311L144.228 111.068Z" fill="white"/>
<path d="M142.358 107.369C143.417 107.323 144.557 107.246 145.367 106.55C146.295 105.754 146.518 104.376 146.516 103.12C146.514 102.259 146.43 101.377 146.076 100.594C145.721 99.8104 145.056 99.1362 144.238 98.9693C144.72 98.074 145.951 97.8481 146.868 98.2616C147.784 98.6751 148.422 99.5645 148.877 100.486C149.595 101.942 149.963 103.615 149.709 105.218C149.454 106.82 148.527 108.332 147.132 109.066C145.737 109.798 143.887 109.638 142.728 108.524C142.549 108.353 142.379 108.136 142.381 107.886C142.384 107.536 142.741 107.285 143.079 107.279C143.417 107.274 143.732 107.445 144.031 107.612L142.358 107.369Z" fill="white"/>
<path d="M132.57 111.068C133.628 111.022 134.768 110.945 135.579 110.249C136.507 109.453 136.729 108.075 136.727 106.819C136.725 105.958 136.642 105.076 136.288 104.293C135.933 103.509 135.268 102.835 134.449 102.668C134.931 101.773 136.162 101.547 137.079 101.961C137.996 102.374 138.634 103.263 139.089 104.185C139.806 105.641 140.175 107.314 139.921 108.917C139.666 110.519 138.739 112.031 137.344 112.765C135.949 113.497 134.098 113.337 132.94 112.223C132.761 112.052 132.59 111.835 132.593 111.585C132.596 111.235 132.953 110.984 133.29 110.978C133.628 110.973 133.944 111.144 134.243 111.311L132.57 111.068Z" fill="white"/>
<path d="M156.325 105.147C157.383 105.101 158.523 105.024 159.334 104.328C160.262 103.532 160.485 102.154 160.483 100.898C160.481 100.038 160.397 99.1551 160.043 98.3723C159.688 97.5887 159.023 96.9145 158.204 96.7476C158.687 95.8523 159.918 95.6264 160.834 96.0399C161.751 96.4533 162.389 97.3427 162.844 98.2645C163.561 99.7207 163.93 101.394 163.676 102.996C163.421 104.599 162.494 106.111 161.099 106.844C159.704 107.576 157.854 107.416 156.695 106.303C156.516 106.131 156.345 105.915 156.348 105.664C156.351 105.315 156.708 105.063 157.045 105.058C157.384 105.053 157.699 105.223 157.998 105.39L156.325 105.147Z" fill="white"/>
<path d="M218.179 86.8989C218.824 86.8028 219.522 86.7136 220.097 86.9828C220.756 87.2908 221.061 87.9801 221.216 88.6313C221.321 89.078 221.38 89.545 221.263 89.991C221.146 90.4375 220.828 90.8623 220.354 91.0415C220.756 91.4512 221.528 91.429 222.03 91.1109C222.532 90.7927 222.807 90.2593 222.967 89.7299C223.22 88.8936 223.236 87.9844 222.884 87.1822C222.531 86.3801 221.784 85.701 220.851 85.4787C219.918 85.2567 218.821 85.5491 218.26 86.2576C218.173 86.367 218.097 86.4985 218.129 86.628C218.174 86.8089 218.421 86.8991 218.625 86.8636C218.83 86.828 218.999 86.7037 219.159 86.5835L218.179 86.8989Z" fill="white"/>
<path d="M219.162 89.5623C219.806 89.4662 220.504 89.3769 221.08 89.6461C221.738 89.9541 222.044 90.6434 222.198 91.2947C222.303 91.7413 222.362 92.2083 222.245 92.6544C222.128 93.1008 221.81 93.5257 221.337 93.7049C221.739 94.1146 222.51 94.0924 223.012 93.7742C223.514 93.4561 223.789 92.9227 223.95 92.3932C224.203 91.557 224.218 90.6477 223.866 89.8456C223.514 89.0435 222.767 88.3644 221.834 88.142C220.901 87.92 219.803 88.2125 219.242 88.921C219.155 89.0304 219.079 89.1619 219.111 89.2913C219.157 89.4723 219.403 89.5625 219.608 89.5269C219.812 89.4914 219.982 89.3671 220.142 89.2468L219.162 89.5623Z" fill="white"/>
<path d="M135.332 145.181C124.946 164.093 122.313 186.313 113.445 205.983C112.687 207.664 111.844 209.377 110.43 210.559C107.709 212.83 103.74 212.525 100.221 212.095C96.1089 211.593 90.8431 209.852 90.9314 205.712C90.9799 203.347 93.0543 201.412 95.3225 200.737C97.5878 200.062 100.018 200.364 102.364 200.671C101.54 185.732 102.968 170.667 106.581 156.146C107.701 151.652 109.074 147.11 111.795 143.363C114.516 139.616 118.833 136.75 123.464 136.866C129.855 137.029 135.238 143.745 134.004 150.019L135.332 145.181Z" fill="white"/>
<path d="M95.4708 116.407C88.7631 110.757 88.8486 102.881 83.9903 96.8798C81.4628 93.7625 70.1477 92.751 73.5015 89.5454C77.9267 85.3139 89.1478 77.1388 95.5734 79.2759C100.543 80.9286 102.518 86.7842 103.683 91.8905C104.968 97.5353 106.105 103.211 107.088 108.913C107.678 112.324 107.897 116.535 105.051 118.502C102.153 120.502 98.1635 118.675 95.4708 116.407Z" fill="white"/>
</svg>
