<svg width="151" height="110" viewBox="0 0 151 110" fill="none" xmlns="http://www.w3.org/2000/svg">
<path fill-rule="evenodd" clip-rule="evenodd" d="M33.5368 46.1024C32.528 45.1775 31.6786 43.9336 31.2157 42.5976C31.0536 42.9698 30.8866 43.3403 30.7145 43.7091C29.9166 45.3931 28.9415 47.0772 27.7005 48.4953C26.8141 49.4702 25.839 50.3565 24.5981 50.9769C22.9904 51.7807 21.3225 51.8614 19.6937 51.3682C19.7626 50.7408 19.8427 50.1167 19.9337 49.4962C21.255 50.532 22.7486 50.4376 24.155 49.5587C25.5732 48.6724 26.637 47.2543 27.5234 45.9248C28.8531 43.8862 29.7396 41.759 30.4488 39.5431L30.6165 39.0959C30.6476 37.1488 31.2705 35.2514 32.2967 33.4273C32.474 33.1614 32.6513 32.8069 32.7399 32.4523C33.2719 30.7683 34.7787 29.882 36.4628 30.2366C38.5901 30.5913 40.0968 31.8323 40.9831 33.6938C41.5148 34.7574 41.8693 35.8211 41.9579 37.1506C43.4231 36.2889 44.7206 35.5109 45.9321 34.7353C46.8294 33.2453 48.0603 31.9994 49.5228 30.9465C51.4729 29.6171 53.6888 29.44 56.082 30.1492C56.11 29.9252 56.1469 29.7012 56.1842 29.4744L56.1842 29.4742L56.1842 29.4741C56.265 28.9831 56.348 28.4789 56.348 27.9333L56.8803 21.1969C57.3237 16.7651 57.8558 12.2447 59.5402 7.99023C59.7473 7.4103 60.0126 6.83037 60.3178 6.25949C61.9935 5.89526 63.6993 5.61176 65.431 5.41325C65.1873 5.88549 64.9567 6.34 64.7698 6.83827C62.9082 11.3586 62.0215 16.0563 61.2235 20.9313C60.8688 23.4131 60.6027 25.8949 60.3367 28.3767C60.3367 28.4315 60.3705 28.4524 60.4173 28.4813C60.4462 28.4992 60.4801 28.5201 60.5139 28.554C60.6026 28.2881 60.7799 28.1108 60.9571 27.9336C62.8186 25.7178 64.3256 23.236 65.5667 20.6656C67.251 17.1203 68.4035 13.3976 67.8719 9.23165C67.6409 7.84503 67.1421 6.52535 66.2009 5.33077C67.3708 5.21421 68.5521 5.13639 69.7436 5.09862C71.2656 8.28069 70.9028 13.8015 69.3783 17.6522C67.4279 22.5271 64.6799 27.2247 60.8683 31.0359C60.2478 31.5676 59.9819 32.0994 59.9818 32.8972C60.0356 33.7037 59.9914 34.5102 59.9484 35.2969L59.9484 35.297V35.2971V35.2971C59.9205 35.8073 59.893 36.3091 59.893 36.7972C59.8333 37.5131 59.8539 38.2291 59.8737 38.918V38.9181V38.9182V38.9182V38.9183V38.9183V38.9183V38.9184C59.8833 39.2528 59.8928 39.5809 59.8928 39.8995C59.9371 40.387 59.9592 40.8745 59.9813 41.362C60.0035 41.8495 60.0256 42.337 60.0699 42.8245C60.2326 46.0828 60.6948 49.3412 61.6628 52.5308C62.4132 51.6785 63.3211 50.9561 64.5146 50.8766C67.7942 50.6109 69.4782 51.6747 70.0099 54.6883C70.3643 56.9043 69.921 59.0315 69.3004 61.0702C67.2613 68.0723 64.07 74.3653 59.106 80.1264C59.0626 81.5998 58.998 83.0944 58.9329 84.5998L58.9329 84.6004C58.8648 86.1739 58.7963 87.7593 58.7509 89.3446C59.0893 88.7806 59.4118 88.2007 59.7319 87.6251L59.732 87.6249C60.1664 86.8437 60.5964 86.0705 61.0557 85.3561C61.9422 84.0266 63.0059 82.8744 64.0696 81.8108C66.1083 79.8609 69.4765 80.8361 70.6286 82.7862C71.3376 83.9385 71.6035 85.1795 71.692 86.509C71.7805 88.725 71.5145 90.8522 70.8939 92.9795C70.5393 94.3976 70.096 95.6385 69.3868 96.8794C68.855 97.8544 68.1458 98.652 67.3481 99.3611C66.373 100.336 65.1321 100.513 63.8025 100.425C63.7139 100.336 63.7139 100.336 63.6253 100.336C62.1185 99.9812 61.3209 97.588 62.3846 96.3471C62.5928 96.2777 62.7467 96.3714 62.8887 96.4578C62.9281 96.4818 62.9666 96.5052 63.005 96.5244C63.1013 96.7652 63.0407 96.9798 62.9794 97.1966C62.9278 97.379 62.8758 97.5629 62.9163 97.7654C62.9732 97.9075 63.0118 98.077 63.0526 98.2563C63.1391 98.6361 63.2357 99.0598 63.5367 99.3609C64.0685 99.6268 64.423 99.2723 64.689 98.9177C65.2208 98.2087 65.5754 97.411 65.7528 96.5246C66.462 94.2201 66.8167 91.9156 67.0827 89.5224C67.2957 88.1744 67.2814 86.8832 67.2673 85.6033C67.2638 85.2842 67.2603 84.9658 67.2603 84.6474C67.349 83.9383 67.1718 83.2292 66.8173 82.5201C66.3983 82.5899 66.1443 82.8797 65.9254 83.1296C65.8664 83.1969 65.81 83.2613 65.7536 83.3177C64.6012 84.47 63.7148 85.8881 62.917 87.2176C61.5873 89.6107 60.4348 92.0038 59.7256 94.6629C59.5483 95.4606 59.3709 96.347 59.3709 97.2333C59.1936 97.4106 59.0163 97.5879 58.9277 97.7651C58.6617 98.2969 58.2185 98.3855 57.6867 98.2969C57.1549 98.2082 56.5345 98.0309 56.4459 97.3218C56.2687 96.3468 56.1801 95.2831 56.0915 94.2195C56.0325 93.6286 55.9832 93.0376 55.934 92.4467L55.934 92.4466C55.8356 91.2648 55.7372 90.083 55.56 88.9012C55.3828 87.9263 55.2942 86.8627 55.2057 85.799L55.2057 85.7989C55.2057 85.1343 55.1836 84.4696 55.1615 83.8049L55.1615 83.8046C55.1393 83.1398 55.1172 82.475 55.1173 81.8103C55.1174 79.5057 55.2062 77.2012 55.3836 74.8966C55.4444 74.35 55.4947 73.7931 55.5454 73.2328L55.5454 73.2327L55.5454 73.2325L55.5454 73.2324L55.5454 73.2323L55.5454 73.2321L55.5454 73.232L55.5455 73.2317C55.6426 72.157 55.7409 71.0702 55.9157 70.0216C56.5364 65.3239 57.3344 60.7149 59.1961 56.3718C59.3665 56.031 59.5369 55.6903 59.7146 55.3532C58.322 53.4607 57.5698 51.3265 57.1445 49.0289C56.6128 46.3697 56.1698 43.622 56.17 40.8742C56.17 40.1652 56.0913 39.4561 56.0125 38.7471L56.0125 38.747C55.9732 38.3924 55.9338 38.0379 55.9043 37.6833C55.1951 39.2787 54.4859 40.8741 53.8653 42.4696C53.5994 42.9127 53.3335 43.3559 53.1561 43.8877C51.9151 46.3695 48.1037 46.6351 46.4197 44.5964C44.6471 42.3804 44.0268 39.9871 44.8247 37.2395C44.8713 37.0842 44.9209 36.9311 44.9734 36.78C44.0729 37.3993 43.132 37.9818 42.1351 38.4802C41.9577 40.2529 41.6917 41.937 40.9825 43.5324C40.5392 44.4188 40.096 45.2165 39.4755 46.0142C38.0572 47.6982 36.3731 47.6094 34.6004 46.8116C34.2459 46.6343 33.8914 46.3684 33.5368 46.1024ZM120.597 40.03C113.527 19.6796 94.1809 5.07204 71.423 5.07204C70.8611 5.07204 70.3012 5.08094 69.7436 5.09862C69.584 4.76497 69.4037 4.45704 69.2018 4.17944C68.67 3.38168 67.961 2.76117 66.986 2.49521C64.7701 1.78598 62.7314 2.40631 61.4904 4.35624C61.0654 4.96997 60.6656 5.60885 60.3178 6.25949C39.3407 10.8189 23.083 28.0274 19.9337 49.4962C19.9226 49.4875 19.9115 49.4787 19.9004 49.4698C19.1027 48.7607 18.3937 47.9629 17.7733 47.1651C16.0007 44.5946 15.2032 41.5809 14.7602 38.4785C14.3172 35.5535 14.3173 32.6285 14.5834 29.6149C14.6622 28.5127 14.8109 27.4804 14.9675 26.3939C14.9872 26.2571 15.007 26.1195 15.0268 25.9808C15.3592 25.9297 15.6842 25.8859 16.0019 25.8432L16.0019 25.8432L16.0019 25.8432C16.7854 25.7377 17.524 25.6383 18.2178 25.4492C24.4225 23.5882 29.2977 20.043 32.8435 14.725C34.3505 12.5092 35.3256 10.116 35.503 7.36832C35.6805 3.82286 33.2875 1.16361 30.008 0.808872C27.9693 0.542836 26.1079 0.897271 24.2465 1.60625C21.2328 2.75834 18.9281 4.70821 16.978 7.18992C13.6982 11.3556 11.6592 16.1419 10.5066 21.2828L9.97467 23.9418C8.73377 23.6758 7.4929 23.0553 6.25205 21.9916C3.85898 19.8642 2.44095 17.2936 2.61842 14.0141C2.70716 12.4186 3.15044 10.8232 4.92322 10.0256C4.92322 10.0256 4.92322 9.93693 5.01187 9.75966C4.74599 9.22783 4.30281 9.2278 3.77099 9.3164C3.06189 9.405 2.4414 9.84815 1.99818 10.4686C1.64361 10.9117 1.28902 11.5322 1.02308 12.064C0.225212 14.3685 0.313714 16.5844 1.37723 18.7117C2.88386 21.8141 5.36556 23.9416 8.55641 25.094C8.73368 25.1827 8.93311 25.2492 9.13254 25.3157C9.33197 25.3821 9.53139 25.4486 9.70866 25.5373L9.7086 26.6009C9.44251 29.5259 9.61961 32.4509 9.97398 35.2873C10.2398 37.0601 10.7715 38.8329 11.3032 40.6056C12.0121 43.1761 13.1643 45.4807 14.7596 47.6081C15.8232 48.9377 17.064 50.1787 18.6594 50.9766C19.0018 51.1322 19.3468 51.2632 19.6937 51.3682C19.4864 53.2553 19.38 55.1728 19.38 57.115C19.38 65.1373 21.1951 72.7357 24.4371 79.5218C24.302 80.0823 24.1923 80.6555 24.1038 81.2394C23.4831 85.4053 24.4579 89.128 26.9395 92.4964C28.269 94.1806 29.953 95.5102 32.0802 96.0422C33.6588 96.4843 35.1474 96.3866 36.482 95.685C45.7182 104.057 57.9749 109.158 71.423 109.158C86.6393 109.158 100.33 102.628 109.847 92.2169C110.108 92.8234 110.372 93.3473 110.807 93.9569C111.339 94.666 112.048 95.0206 113.023 95.0207C113.644 95.0207 114.087 94.6662 114.176 94.1344C114.353 93.6912 114.176 93.5139 113.644 93.5139L113.023 94.4002C112.137 93.6024 111.96 92.6274 111.96 91.6524C111.896 91.014 111.901 90.3871 111.95 89.7676C113.288 88.1091 114.526 86.3669 115.656 84.55C115.535 86.5443 116.217 88.3532 117.58 90.0573C119.264 92.096 123.075 91.8303 124.316 89.3486C124.494 88.8168 124.76 88.3736 125.026 87.9304C125.646 86.3351 126.355 84.7399 127.064 83.1446L127.065 83.1442C127.094 83.4987 127.133 83.8533 127.173 84.2079C127.252 84.917 127.33 85.626 127.33 86.3351C127.33 89.0829 127.773 91.8306 128.305 94.4898C128.748 96.883 129.545 99.0989 131.052 101.049C132.116 102.467 133.445 103.265 135.395 103.177C136.37 103.177 137.079 102.822 137.611 102.024C137.079 101.493 136.459 101.581 135.927 101.758C135.129 102.113 134.598 101.758 134.243 101.138C133.8 100.429 133.357 99.631 133.091 98.8332C131.939 95.3763 131.407 91.8308 131.23 88.2854C131.186 87.7979 131.164 87.3104 131.142 86.8229C131.119 86.3354 131.097 85.8479 131.053 85.3603C131.053 85.0417 131.044 84.7135 131.034 84.379C131.014 83.69 130.994 82.974 131.053 82.2581C131.053 81.7699 131.081 81.2681 131.109 80.7579C131.152 79.9711 131.196 79.1646 131.142 78.3581C131.142 77.5603 131.408 77.0285 132.029 76.4967C135.84 72.6856 138.588 67.988 140.539 63.1131C142.223 58.8586 142.489 52.5655 140.362 49.6403C139.83 48.8426 139.121 48.2221 138.146 47.9561C135.93 47.2469 133.892 47.8672 132.651 49.8171C131.853 50.9694 131.144 52.2102 130.7 53.4511C130.181 54.7643 129.77 56.1028 129.439 57.4563C128.402 58.327 127.233 59.0295 125.932 59.3355C125.135 58.9809 124.78 58.4491 124.603 57.74C124.248 56.2331 124.248 54.6376 124.603 53.0422L125.312 52.7763C127.44 52.2446 128.769 50.7379 129.744 48.8766C130.099 48.0789 130.365 47.1925 130.099 46.3062C129.567 44.5334 128.238 44.0015 126.199 44.09C124.87 44.1786 123.894 44.9762 123.008 45.9512C122.801 46.2052 122.608 46.4632 122.429 46.7252C122.126 45.2293 121.758 43.7567 121.33 42.3104C121.478 42.0161 121.628 41.7228 121.78 41.4306C123.021 39.0375 124.528 36.7331 126.478 34.9604C127.099 34.34 127.808 33.8082 128.694 33.8083C129.337 34.0939 129.462 34.6671 129.578 35.2035C129.607 35.333 129.634 35.4604 129.669 35.5811C130.112 35.9357 130.467 35.9357 130.91 35.7584C131.333 35.3353 131.433 34.8313 131.518 34.4008L131.53 34.3403C131.265 33.2766 130.555 32.7448 129.669 32.5674C128.074 32.4787 126.567 32.6559 125.326 33.8081C124.173 34.783 123.198 35.9352 122.312 37.1761C121.697 38.1084 121.129 39.0609 120.597 40.03ZM120.597 40.03C120.858 40.7824 121.103 41.5427 121.33 42.3104C118.205 48.5338 116.05 55.2313 114.865 62.1712C114.776 62.703 114.776 63.2348 114.865 63.8553C114.865 64.2985 114.865 64.7417 114.51 65.3621C113.712 65.8052 112.915 65.8052 112.117 65.2733C111.898 64.5053 111.78 63.7372 111.659 62.9481V62.9481C111.585 62.4623 111.509 61.9685 111.408 61.4619L110.611 56.3209L110.611 56.3207C110.522 55.4344 110.434 54.5481 110.256 53.6618C110.099 52.4299 109.929 51.198 109.745 49.97C108.674 50.736 107.55 51.4627 106.343 52.0661C106.165 53.8388 105.899 55.5229 105.19 57.1183C104.747 58.0047 104.304 58.8024 103.683 59.6001C102.265 61.2841 100.581 61.1953 98.808 60.3975C98.4535 60.2202 98.0989 59.9543 97.7444 59.6883C97.1706 59.1623 96.6484 58.533 96.2195 57.8423C95.3885 59.6336 94.4506 61.3704 93.2736 62.9676C92.6531 63.854 91.9439 64.6516 91.0575 65.1834C88.9302 66.5128 86.7143 65.9809 85.2962 64.2967C84.4099 63.1444 83.8782 61.9034 83.3464 60.5738C82.5488 58.2692 82.0171 55.9646 81.9286 53.5714L81.9287 53.3942C81.3971 49.1396 81.8406 44.6191 82.284 40.4532C82.9935 34.426 84.3234 28.4874 86.2737 22.7261C86.6283 21.3966 87.1602 20.2444 87.8694 19.0921C88.4013 18.1172 89.0218 17.2308 89.9968 16.6104C90.7946 16.0787 91.5923 15.7242 92.5673 15.8129L93.631 15.8129C95.7583 15.7244 97.1764 16.7881 98.0626 18.6496C98.5058 19.6246 98.7716 20.7769 98.7715 21.8405C99.0372 26.361 97.7074 30.5269 95.9344 34.5154C93.9841 38.7698 91.4134 42.6697 88.3109 46.1263L86.5381 48.1649C86.4874 49.0006 86.4222 49.8363 86.357 50.672C86.1941 52.7613 86.0312 54.8506 86.0944 56.9399C86.0943 58.624 86.2714 60.3967 86.7145 61.9922C87.069 63.1445 87.5121 64.2082 88.753 64.8287C89.9053 64.3856 90.7917 63.6766 91.5009 62.7902C93.0862 60.6767 94.2859 58.3702 95.3736 56.0351C95.3661 56.0119 95.3587 55.9887 95.3514 55.9654C94.288 52.8631 94.9086 49.8495 96.5042 47.0132C96.6815 46.7473 96.8588 46.3928 96.9475 46.0382C97.4794 44.3542 98.9863 43.4679 100.67 43.8225C102.798 44.1772 104.304 45.4182 105.191 47.2796C105.722 48.3433 106.077 49.407 106.165 50.7365C107.395 50.0134 108.506 49.3494 109.548 48.6961C109.263 46.9084 108.942 45.1321 108.573 43.3798C108.514 43.173 108.435 42.9662 108.356 42.7594C108.199 42.3457 108.041 41.9321 108.041 41.5184C108.326 41.0196 108.726 40.9792 109.148 40.9364C109.251 40.926 109.355 40.9154 109.459 40.8981C110.08 40.8981 110.7 40.9868 111.143 41.43C111.587 41.8732 111.853 42.3164 112.118 42.8482C112.65 44.1778 112.916 45.596 113.093 47.0142C113.448 49.5847 113.713 52.0665 113.802 54.637C113.837 54.8852 113.901 55.1334 113.965 55.3816C114.061 55.7539 114.156 56.1261 114.156 56.4984L114.156 56.4983L114.156 56.4983L114.156 56.4982L114.156 56.4981L114.156 56.4981L114.156 56.498L114.156 56.4979L114.156 56.4979L114.156 56.4978L114.156 56.4977C114.866 54.1934 115.575 51.8892 116.373 49.6735C117.587 46.3686 118.904 43.1151 120.597 40.03ZM123.409 59.5792C122.982 59.3073 122.601 58.9615 122.298 58.5375C121.412 57.2079 120.792 55.7011 120.703 54.1056C120.386 51.4119 120.919 48.9306 122.429 46.7252C123.109 50.0825 123.466 53.5571 123.466 57.115C123.466 57.9411 123.447 58.7626 123.409 59.5792ZM123.409 59.5792C124.855 60.5008 126.827 60.572 128.06 59.9561C128.391 59.7906 128.707 59.6154 129.009 59.4295C128.547 61.8273 128.281 64.2556 128.041 66.6578L127.508 73.3942C127.508 73.9398 127.425 74.444 127.345 74.9351C127.307 75.1619 127.27 75.386 127.242 75.6101C124.849 74.9008 122.633 75.078 120.683 76.4074C120.201 76.7543 119.745 77.1221 119.317 77.5127C121.683 71.9637 123.113 65.9197 123.409 59.5792ZM119.317 77.5127C118.273 79.9605 117.047 82.3119 115.656 84.55C115.692 83.9509 115.801 83.3351 115.985 82.7003C116.609 80.6194 117.777 78.9186 119.317 77.5127ZM111.95 89.7676C112.038 88.6667 112.265 87.5891 112.492 86.5115C112.861 84.3715 113.292 82.2314 113.732 80.0402L113.734 80.0306C113.822 79.5931 113.911 79.1535 113.999 78.7116C114.354 76.9388 113.645 75.8752 111.872 75.3432C111.163 75.0773 110.454 74.9886 109.745 74.8999L109.745 74.8999C109.512 74.8534 109.28 74.8313 109.034 74.8079H109.034H109.034C108.812 74.7868 108.579 74.7647 108.327 74.7226L108.061 73.9248C107.263 70.9111 103.984 70.645 101.591 71.6199C100.704 71.9744 99.9064 72.4175 99.8177 73.3925C99.8176 74.3675 100.615 74.8107 101.324 75.1653C102.344 75.7928 103.433 76.0039 104.591 76.2285L104.837 76.2763C104.907 76.2899 104.977 76.3037 105.047 76.3178L107.174 76.5839C107.146 76.8128 107.126 77.0326 107.107 77.2491V77.2491C107.067 77.703 107.028 78.1424 106.908 78.6225C106.288 82.3452 105.046 86.0679 103.628 89.7019L103.525 89.9594C103.026 91.213 102.502 92.5293 101.589 93.6904C101.146 94.2222 100.703 94.6654 99.9936 94.9312C99.3732 95.1085 99.285 88.0175 99.285 87.3971C99.465 85.4783 99.8073 83.6001 100.147 81.735C100.31 80.8431 100.472 79.9542 100.615 79.0653C100.704 78.6221 100.792 78.1789 100.615 77.7357C100.349 77.0266 99.5516 76.7607 98.7538 76.5834C98.4879 76.4947 98.222 76.406 97.9561 76.4947C97.5129 76.5833 97.247 77.0264 97.1583 77.4696C97.0949 77.5965 97.0428 77.746 96.9899 77.898C96.8949 78.1707 96.7972 78.4511 96.6264 78.6219C94.6765 77.4695 91.9287 78.0011 90.1559 79.4192C89.8774 79.642 89.6207 79.8889 89.3849 80.1557C89.3645 80.1476 89.344 80.1385 89.3235 80.1282C88.0825 80.9259 86.7529 81.7236 85.2461 82.6098C85.1575 81.2803 84.803 80.2166 84.2713 79.1529C83.385 77.2915 81.8783 76.0505 79.751 75.6958C78.0669 75.3412 76.5601 76.2275 76.0281 77.9115C75.9395 78.2661 75.7622 78.6206 75.5849 78.8865C73.9893 81.7228 73.3686 84.7364 74.4321 87.8387C74.8752 89.257 75.7615 90.5866 76.825 91.5616L76.8251 91.5617C77.1796 91.8276 77.5341 92.0935 77.8886 92.2708C79.6613 93.0686 81.3454 93.1574 82.7637 91.4733C83.3842 90.6757 83.8274 89.878 84.2707 88.9916C84.9799 87.3962 85.2459 85.7121 85.4233 83.9394C86.3297 83.4862 87.1898 82.9636 88.0154 82.4069C87.6057 83.3996 87.3527 84.4766 87.2305 85.535C87.1418 86.9531 87.319 88.46 88.1166 89.7009C88.8257 90.8533 90.3324 91.6511 91.7506 91.2966C92.637 91.0308 93.2575 90.3217 93.878 89.6127C93.9785 89.4619 94.0759 89.3112 94.1725 89.1616C94.5869 88.5198 94.9871 87.9 95.5623 87.3968C95.5622 88.9037 95.828 90.4991 96.2711 91.9173C96.5369 92.981 96.98 93.956 97.6004 94.8424C98.3095 95.6402 99.2845 96.3494 100.348 96.3494C102.455 96.5181 103.44 94.2825 104.142 92.6908L104.213 92.5302L104.248 92.4497C105.312 89.9679 105.933 87.3975 106.553 84.827C106.718 84.1449 106.895 83.469 107.072 82.7961C107.56 80.9332 108.042 79.0927 108.238 77.2044C108.238 77.1158 108.26 77.0493 108.282 76.9828C108.304 76.9163 108.327 76.8498 108.327 76.7612L109.656 76.7613C109.656 76.9125 109.666 77.0636 109.676 77.2112C109.696 77.4965 109.714 77.7686 109.656 78.0022C109.567 78.8884 109.434 79.7525 109.301 80.6165L109.301 80.617C109.168 81.4812 109.035 82.3454 108.947 83.2317C108.681 86.2454 108.592 89.259 109.832 92.1841C109.837 92.195 109.842 92.206 109.847 92.2169C110.573 91.4226 111.274 90.6058 111.95 89.7676ZM35.4509 94.7248C36.1484 94.4573 36.794 93.9826 37.31 93.2948C38.3737 91.8766 38.9942 90.2812 39.1716 88.5971C39.2603 87.5335 38.9058 86.6471 38.2854 85.6721C38.1081 86.3811 37.9308 86.913 37.7535 87.4448C36.9557 87.7993 36.2467 87.7106 35.7149 87.0901C35.1831 86.5582 35.3604 85.8491 35.6264 85.2287C35.981 84.2537 36.6015 83.5447 37.4879 83.0129C38.7288 82.3039 39.9698 81.6835 41.2107 81.1518C43.4267 80.1769 45.554 79.202 47.5041 77.8726C49.6315 76.5432 51.4929 74.9478 52.6454 72.732C53.9751 70.073 53.532 68.2116 52.0253 66.616C50.164 64.8432 48.5685 65.2862 47.5048 67.2362C46.7956 68.4771 46.5296 69.8066 47.2386 71.1362C47.476 71.1701 47.6875 70.9964 47.8978 70.8236C48.2372 70.5448 48.5736 70.2684 49.0114 70.8704C47.859 72.4658 46.3522 72.377 45.3773 70.7815C44.9341 69.8951 44.8456 68.9201 45.1115 68.0338C45.7321 66.0838 46.8845 64.6657 49.0118 64.3113C49.9868 64.1341 50.7845 64.3114 51.6708 64.666C54.9503 66.0844 56.9887 70.2504 54.8612 73.973C53.5315 76.3661 51.4928 78.0501 49.2768 79.4682C47.1494 80.8862 44.8448 81.8611 42.4515 82.8359C41.4765 83.1904 40.5015 83.6335 39.5264 84.1653C39.6445 84.4605 39.7625 84.6769 39.8805 84.8933L39.8806 84.8934L39.8806 84.8934L39.8806 84.8935L39.8807 84.8936L39.8807 84.8936L39.8807 84.8937L39.8808 84.8938L39.8808 84.8939L39.8808 84.8939L39.8809 84.894L39.8809 84.8941L39.8809 84.8941C39.94 85.0025 39.9991 85.1108 40.0582 85.229C40.9445 86.47 41.1217 87.8882 40.767 89.3063C40.3237 91.3449 39.4373 93.1176 38.019 94.5357C37.5346 95.0201 37.0208 95.4018 36.482 95.685C36.134 95.3695 35.7902 95.0494 35.4509 94.7248ZM35.4509 94.7248C33.9913 95.2845 32.3048 94.9372 31.1054 93.7376C29.9532 92.4966 29.2442 91.167 28.8011 89.5715C28.5152 88.4277 28.3359 87.3044 28.2606 86.2016C30.3497 89.2956 32.7626 92.1529 35.4509 94.7248ZM28.2606 86.2016C26.8287 84.081 25.549 81.8492 24.4371 79.5218C24.9788 77.2741 25.9293 75.2308 27.5611 73.5282C28.1775 72.8503 28.8795 72.3009 29.6077 71.7311L29.6078 71.7311C29.9268 71.4815 30.2509 71.2279 30.5749 70.9579C27.2068 70.0713 24.8137 68.1212 23.8389 64.7529C21.9779 58.6369 25.5238 52.1666 31.2852 51.1033C35.983 50.3059 40.2375 51.3698 43.5169 54.9154C46.7076 58.3725 45.555 63.8679 41.3003 65.8176C40.5912 66.0835 39.8821 66.1721 39.0843 66.2607C38.6411 66.2606 38.198 65.9947 37.8434 65.7288C37.4889 65.5515 37.1344 65.1969 37.4003 64.8424C37.5776 64.5765 38.1094 64.4879 38.3753 64.4879C38.669 64.4879 38.9627 64.6096 39.3068 64.7521C39.3781 64.7817 39.4515 64.8121 39.5276 64.8425C41.0345 64.3994 41.7436 63.2472 42.1869 61.7404C42.5415 60.3222 42.3643 58.904 41.744 57.5744C40.4146 55.0925 37.2238 53.231 34.7419 53.4967C32.9692 53.7625 31.5509 54.6488 30.3986 55.9783C27.8279 58.9918 27.03 62.4486 27.8275 66.26C28.1819 68.0327 29.2455 69.2737 30.9295 69.8943C31.8159 70.1602 32.7909 70.3376 33.7659 70.4263C34.475 70.515 35.184 70.6923 35.6272 71.5787L35.6271 71.5787C35.2726 71.8446 34.918 72.1104 34.5635 72.1991C33.2339 72.8194 32.2589 73.7057 31.4611 74.9466C29.0953 78.4252 27.9856 82.1768 28.2606 86.2016ZM66.2009 5.33077C66.0592 5.15084 65.9074 4.97374 65.7449 4.79968C65.6549 4.97981 65.5648 5.15421 65.4762 5.3258C65.4611 5.35503 65.446 5.38417 65.431 5.41325C65.6871 5.38389 65.9437 5.35639 66.2009 5.33077ZM64.2349 57.7157C63.9381 57.7292 63.6556 57.7221 63.3863 57.6955C62.7045 59.2908 62.1933 60.957 61.7662 62.6652C60.7023 67.0083 59.9929 71.5287 59.4608 76.1378C59.5646 76.034 59.6381 75.9301 59.6989 75.8441C59.7419 75.7833 59.7787 75.7313 59.8154 75.6946C61.9428 72.5038 63.5385 69.1357 64.9569 65.5904C66.198 62.2222 66.9073 58.8541 66.6416 55.3086C66.6417 54.5995 66.5531 53.979 66.1986 53.2699C65.3122 53.979 64.8689 54.7767 64.4257 55.5744C64.2693 55.8537 64.1199 56.1358 63.977 56.4206C64.206 56.4637 64.4677 56.4305 64.7668 56.2976C65.2986 56.1203 65.9191 56.0317 66.4509 56.5636C65.919 57.3613 65.2099 57.7158 64.2349 57.7157ZM15.2928 24.5626C15.4488 23.8999 15.5876 23.2544 15.7244 22.6185C15.8986 21.8084 16.0694 21.014 16.2681 20.2195C17.4206 16.2309 18.839 12.331 21.1438 8.87427C22.4735 6.92434 23.9804 5.1517 26.0191 3.82228C27.9692 2.58148 29.8306 2.93614 31.2486 4.79759C32.3122 6.30448 32.578 7.9886 32.312 9.76131C32.1346 11.3568 31.5141 12.8636 30.6276 14.2817C27.6137 19.1565 23.4475 22.4358 17.952 24.1196C17.4546 24.2854 16.9228 24.3477 16.3565 24.4142L16.3564 24.4142C16.0144 24.4543 15.6599 24.4959 15.2928 24.5626ZM39.5646 37.8596C37.7919 38.3027 36.551 37.6821 35.5761 36.1753C35.6406 35.273 35.9863 34.4644 36.3064 33.7155L36.3065 33.7154C36.4266 33.4344 36.5432 33.1618 36.6399 32.8958C36.6929 32.6309 36.5876 32.4611 36.4943 32.3105C36.4315 32.2091 36.3741 32.1164 36.3741 32.0094C36.5513 31.8321 36.64 31.8321 36.8173 31.9208C37.8809 32.6299 38.5899 33.6936 39.033 34.8459C39.4761 35.8209 39.742 36.796 39.5646 37.8596ZM36.1073 45.9253C35.221 45.3048 34.7779 44.2411 34.6007 43.1775C34.3349 41.4047 34.5122 39.632 35.0442 37.8593C36.4623 38.7458 37.9691 39.0118 39.4759 39.1891C39.9189 41.671 38.0573 45.5709 36.1073 45.9253ZM49.2562 42.4693C49.3448 43.1784 49.6993 43.7989 50.4084 44.3307C50.5148 44.1889 50.6247 44.0471 50.7346 43.9053L50.7346 43.9053C51.1743 43.338 51.6139 42.7708 51.8267 42.2035C52.8905 39.899 53.777 37.5945 54.6635 35.2014C55.0181 34.0492 54.3977 32.7196 53.1569 32.1877C53.0091 32.3354 52.8516 32.4732 52.694 32.6111L52.694 32.6111C52.3788 32.8869 52.0636 33.1626 51.8272 33.5171C51.4763 33.9382 51.181 34.4704 50.8972 34.9817L50.8971 34.9817C50.8225 35.1162 50.7487 35.2492 50.6748 35.3784C49.7883 37.6829 49.0791 39.9875 49.2562 42.4693ZM78.4042 37.0642C77.7837 36.7983 77.2519 37.1528 76.8973 37.6846C76.5427 38.305 76.0995 39.0141 75.6563 39.6345C74.7698 40.964 73.7061 42.2935 72.4651 43.4457C71.3128 44.5093 69.9832 45.3956 68.4763 45.75C67.6786 45.3954 67.3241 44.8636 67.1469 44.1545C66.7924 42.6476 66.7925 41.0522 67.1472 39.4567L67.8563 39.1909C69.9836 38.6592 71.3132 37.1524 72.2883 35.2911C72.6429 34.4934 72.9089 33.607 72.6431 32.7207C72.1113 30.9479 70.7818 30.416 68.7432 30.5045C67.4136 30.5931 66.4386 31.3907 65.5521 32.3657C63.602 34.7588 62.8927 37.5065 63.2471 40.5201C63.3356 42.1156 63.956 43.6225 64.8423 44.9521C66.1717 46.8135 69.0081 47.1682 70.6036 46.3706C72.0218 45.6616 73.1741 44.7753 74.0606 43.6231C74.947 42.6481 75.7448 41.6732 76.5426 40.6096C76.8617 40.2267 77.1348 39.798 77.3951 39.3894C77.4963 39.2304 77.5956 39.0745 77.695 38.9255C77.7836 38.7778 77.8821 38.6301 77.9806 38.4824C78.1776 38.1869 78.3746 37.8915 78.4928 37.596C78.5814 37.5074 78.5814 37.4188 78.5814 37.3301C78.5814 37.2415 78.4928 37.1529 78.4042 37.0642ZM70.0726 32.1887C71.2248 33.7842 70.0724 36.266 67.5018 37.5954L67.5645 37.3892C68.1594 35.4313 68.7023 33.6445 70.0726 32.1887ZM87.4248 41.8717C88.2229 36.9968 89.1982 32.1218 90.3507 27.3355C91.06 24.6764 91.7692 22.106 92.7444 19.6242C93.0103 18.9152 93.2763 18.2947 93.8081 17.5857C94.7831 18.0289 95.4035 18.738 95.8467 19.5358C96.2898 20.4222 96.467 21.3972 96.5556 22.3722C96.8213 26.2722 95.846 29.9063 94.5163 33.5403C93.0092 37.7061 90.7044 41.3401 87.7792 44.6195C87.5133 44.8854 87.2474 45.1513 86.8928 45.5944L87.4248 41.8717ZM99.7836 49.7611C100.759 51.268 101.999 51.8886 103.772 51.4455C103.95 50.3819 103.684 49.4068 103.241 48.4318C102.797 47.2795 102.088 46.2158 101.025 45.5067C100.848 45.418 100.759 45.418 100.582 45.5953C100.582 45.7023 100.639 45.795 100.702 45.8964C100.795 46.047 100.9 46.2168 100.847 46.4817C100.751 46.7477 100.634 47.0203 100.514 47.3014L100.514 47.3015C100.194 48.0504 99.8481 48.8589 99.7836 49.7611ZM98.8082 56.7634C98.9854 57.827 99.4285 58.8907 100.315 59.5112C102.265 59.1568 104.126 55.2569 103.683 52.775C102.177 52.5977 100.67 52.3317 99.2517 51.4452C98.7198 53.2179 98.5424 54.9906 98.8082 56.7634ZM124.958 51.1809C127.528 49.8515 128.681 47.3697 127.529 45.7742C126.158 47.2299 125.615 49.0167 125.02 50.9746L125.02 50.9747L124.958 51.1809ZM78.8643 81.6344C79.8392 83.1413 81.0801 83.7619 82.8528 83.3188C83.0302 82.2552 82.7643 81.2801 82.3212 80.3051C81.8781 79.1528 81.1691 78.0891 80.1055 77.38C79.9282 77.2913 79.8395 77.2913 79.6623 77.4686C79.6623 77.5756 79.7197 77.6682 79.7825 77.7697C79.8758 77.9202 79.9811 78.0901 79.9281 78.3549C79.8314 78.621 79.7148 78.8937 79.5946 79.1747C79.2745 79.9236 78.9288 80.7322 78.8643 81.6344ZM77.8889 88.6367C78.0661 89.7003 78.5092 90.764 79.3955 91.3845C81.3455 91.0301 83.2072 87.1302 82.7641 84.6483C81.2573 84.471 79.7505 84.205 78.3324 83.3185C77.8004 85.0912 77.623 86.8639 77.8889 88.6367ZM105.136 74.6337C104.515 74.5451 103.54 74.3677 103.009 74.0132C102.831 73.9245 102.743 73.8359 102.743 73.6586C102.565 73.1268 104.072 72.595 104.515 72.5064C105.845 72.2406 106.554 73.5702 106.82 74.6338L105.136 74.6337ZM96.0058 81.2809C94.942 83.6741 93.701 86.0672 92.1054 88.1057C91.7508 88.6375 91.2189 89.2579 90.6871 89.6125C90.244 88.9033 90.3327 88.017 90.4213 87.1306C90.6874 85.2693 91.2193 83.4966 92.3717 81.9898C92.9922 81.1035 93.7013 80.3944 94.6763 80.0399C95.1195 79.8627 95.4741 79.7741 95.8286 80.1286C96.1831 80.4832 96.1831 80.8378 96.0058 81.2809ZM132.384 66.3922C132.029 68.874 131.763 71.3558 131.497 73.8376C131.497 73.8924 131.531 73.9133 131.578 73.9422C131.606 73.9601 131.64 73.981 131.674 74.0149C131.763 73.749 131.94 73.5717 132.117 73.3945C133.979 71.1786 135.486 68.6969 136.727 66.1265C138.411 62.5812 139.564 58.8585 139.032 54.6925C138.766 53.0971 138.146 51.5902 136.905 50.2606C136.815 50.4401 136.726 50.6139 136.637 50.7849L136.636 50.7868C136.376 51.2907 136.128 51.7702 135.93 52.2991C134.068 56.8195 133.182 61.5172 132.384 66.3922ZM120.417 87.9302C120.505 88.6393 120.86 89.2597 121.569 89.7916C121.675 89.6498 121.785 89.508 121.895 89.3661C122.335 88.7989 122.774 88.2317 122.987 87.6644C124.051 85.3599 124.937 83.0554 125.824 80.6623C126.178 79.51 125.558 78.1804 124.317 77.6485C124.169 77.7962 124.012 77.934 123.854 78.0719L123.854 78.072L123.854 78.0721C123.539 78.3478 123.224 78.6235 122.988 78.978C122.637 79.3991 122.341 79.9313 122.057 80.4426L122.057 80.4435C121.982 80.5777 121.909 80.7104 121.835 80.8393C120.949 83.1438 120.239 85.4483 120.417 87.9302ZM143.318 86.8679C142.432 84.7406 141.634 82.7019 140.837 80.6632C140.216 78.9791 140.039 77.295 140.216 75.5222C140.305 74.6359 140.571 73.7495 141.28 73.0405C142.078 72.2428 143.053 72.0656 144.028 72.4202C145.712 73.1294 146.687 75.0794 146.244 76.8521C146.212 76.9808 146.063 76.8993 145.886 76.8025C145.576 76.6328 145.18 76.4162 145.18 77.2066C145.535 78.4476 146.953 78.4476 147.662 77.5613C148.46 76.4977 148.46 74.0159 147.219 72.6863C145.269 70.6475 142.787 70.2042 140.217 70.6472C137.824 71.1789 136.228 73.2174 136.051 76.0538C135.962 78.447 136.759 80.5743 137.646 82.7016C137.956 83.4993 138.288 84.2748 138.62 85.0503L138.62 85.0506L138.621 85.0508C138.953 85.8263 139.285 86.6018 139.595 87.3995C139.684 87.6211 139.773 87.8649 139.861 88.1086C139.95 88.3524 140.038 88.5961 140.127 88.8177L138.886 89.9699C138.088 90.7676 137.468 91.6539 137.113 92.7176C136.67 93.9584 137.024 95.7312 137.999 96.529C139.417 97.8586 143.051 97.9475 144.115 95.0225C144.47 93.7816 144.647 92.6294 144.381 91.3884C144.204 90.2362 144.027 89.0839 143.761 87.8429C144.321 87.5149 144.902 87.2078 145.484 86.8998C147.577 85.7933 149.693 84.6745 150.941 82.5252C150.409 82.082 150.321 82.082 149.966 82.3478C149.7 82.5251 149.523 82.7024 149.257 82.9683C147.573 84.5636 145.534 85.8044 143.318 86.8679ZM140.482 90.0587C141.102 91.6542 141.19 93.0724 140.924 94.5792C140.747 95.3769 140.127 95.9973 139.595 95.9973C139.152 95.9086 138.531 95.1108 138.443 94.3131C138.265 93.3381 138.62 92.4517 139.152 91.5654C139.347 91.3219 139.568 91.0783 139.817 90.8054C140.02 90.5817 140.242 90.3381 140.482 90.0587ZM74.4952 62.2846C74.052 62.6392 73.6088 62.7278 73.1656 62.1073C74.0253 60.5445 73.8516 58.9127 73.677 57.2728C73.6536 57.0526 73.6301 56.8322 73.6092 56.6118C73.5206 55.5482 73.7865 55.105 74.5843 55.1937C75.8252 55.371 76.2683 56.0802 76.2682 57.6756C76.1795 59.537 75.7362 61.1324 74.4952 62.2846Z" fill="#7C3AED"/>
</svg>
